/* XPM */
static char *db75332258529767aa042fa6e7af97c92e72588a_o[] = {
/* columns rows colors chars-per-pixel */
"64 64 244 2 ",
"   c #020400",
".  c #0A0400",
"X  c #000C00",
"o  c #130100",
"O  c #1C0100",
"+  c #011200",
"@  c #001800",
"#  c #290A00",
"$  c #311300",
"%  c #082800",
"&  c #0B3500",
"*  c #182D11",
"=  c #323517",
"-  c #333D28",
";  c #56350A",
":  c #603F12",
">  c #4C3820",
",  c #184904",
"<  c #165B10",
"1  c #1C520F",
"2  c #255D18",
"3  c #365B1A",
"4  c #2C4C0E",
"5  c #1D6617",
"6  c #126202",
"7  c #236506",
"8  c #256418",
"9  c #366F16",
"0  c #394E29",
"q  c #1F6821",
"w  c #2A6327",
"e  c #386137",
"r  c #43591A",
"t  c #6A4207",
"y  c #674815",
"u  c #71580C",
"i  c #4B7A1C",
"p  c #7C6306",
"a  c #4D5536",
"s  c #6D532C",
"d  c #49652A",
"f  c #53762A",
"g  c #52712E",
"h  c #55684C",
"j  c #7A654D",
"k  c #7E6E53",
"l  c #667F4F",
"z  c #73786A",
"x  c gray50",
"c  c #91702F",
"v  c #AC7C39",
"b  c #855A0C",
"n  c #98794A",
"m  c #856F54",
"M  c #A37F43",
"N  c #877D75",
"B  c #39811A",
"V  c #568D1C",
"C  c #5C941B",
"Z  c #559318",
"A  c #4C8B19",
"S  c #6A8E18",
"D  c #598B27",
"F  c #5A9526",
"G  c #538E2B",
"H  c #68892A",
"J  c #64942A",
"K  c #638D33",
"L  c #669535",
"P  c #709537",
"I  c #7EA532",
"U  c #6B8D45",
"Y  c #729449",
"T  c #70964B",
"R  c #778671",
"E  c #788C65",
"W  c #839A26",
"Q  c #BA9039",
"!  c #DB9D37",
"~  c #C8973A",
"^  c #E39E35",
"/  c #E69F2B",
"(  c #DBA73A",
")  c #E3A12F",
"_  c #E4A43B",
"`  c #E4AC3C",
"'  c #E9A738",
"]  c #EFB43D",
"[  c #9A855A",
"{  c #A8864B",
"}  c #BA974B",
"|  c #B38A4F",
" . c #BBA256",
".. c #BDA347",
"X. c #8D8A76",
"o. c #A69766",
"O. c #A88D6C",
"+. c #BEA36E",
"@. c #CD9D5D",
"#. c #D7A745",
"$. c #DBAB54",
"%. c #CDAA51",
"&. c #EBAB47",
"*. c #EAB646",
"=. c #F3B649",
"-. c #E4AB59",
";. c #E9B857",
":. c #FCBC53",
">. c #F5BD58",
",. c #F0AF55",
"<. c #CF9F61",
"1. c #D3A365",
"2. c #D5A669",
"3. c #D6AA6C",
"4. c #DBAC6E",
"5. c #D5AA67",
"6. c #DCB16D",
"7. c #D9B569",
"8. c #CCAD7F",
"9. c #D6AD73",
"0. c #DDAE71",
"q. c #D4AC79",
"w. c #DCAE7B",
"e. c #D6A771",
"r. c #DEB173",
"t. c #D6B27B",
"y. c #DCB47C",
"u. c #DCB97E",
"i. c #D8B676",
"p. c #CDB27B",
"a. c #E1AD6D",
"s. c #E1B36E",
"d. c #EAB965",
"f. c #E2AE73",
"g. c #E2AF78",
"h. c #E3B375",
"j. c #E9B575",
"k. c #E5B976",
"l. c #E3B975",
"z. c #EAB977",
"x. c #E3B579",
"c. c #E2B679",
"v. c #E4B678",
"b. c #E5B77B",
"n. c #E6B579",
"m. c #E5B679",
"M. c #E9B67B",
"N. c #E4B87B",
"B. c #E6B87A",
"V. c #E6BA7A",
"C. c #E6B87C",
"Z. c #E5B97C",
"A. c #E6B97B",
"S. c #E9B97A",
"D. c #E9BA7D",
"F. c #E9B97B",
"G. c #F6B968",
"H. c #F9C44D",
"J. c #E9C455",
"K. c #F4C454",
"L. c #FDC55B",
"P. c #FDC95C",
"I. c #F7C657",
"U. c #E8C951",
"Y. c #DBC87B",
"T. c #E9C563",
"R. c #FBCD63",
"E. c #F7C867",
"W. c #FCD365",
"Q. c #FEDC6D",
"!. c #FBD36A",
"~. c #FEDD72",
"^. c #FFDE7D",
"/. c #F7D477",
"(. c #EECF75",
"). c #FFE26E",
"_. c #FFE275",
"`. c #FFE37B",
"'. c #FFEA7C",
"]. c #8D8F86",
"[. c #A49C87",
"{. c #A7A398",
"}. c #AEB098",
"|. c #B4B1A8",
" X c #BFBEB7",
".X c #B0B0A7",
"XX c #9AA48B",
"oX c #D5AE83",
"OX c #CEB186",
"+X c #D3B384",
"@X c #DBB483",
"#X c #DCB984",
"$X c #D4B58A",
"%X c #DCB58A",
"&X c #DCBB8B",
"*X c #D5B988",
"=X c #DBBD94",
"-X c #D6BB95",
";X c #C5AE94",
":X c #E2B482",
">X c #E3BB83",
",X c #EDBC82",
"<X c #E4BC8A",
"1X c #E2B992",
"2X c #D7BDA2",
"3X c #B7C3AB",
"4X c #DAC39D",
"5X c #E3C199",
"6X c #F0D48E",
"7X c #FCE587",
"8X c #FEE793",
"9X c #D9C2A3",
"0X c #DBCBB8",
"qX c #CDCCB1",
"wX c #E4C8A7",
"eX c #E8CDB3",
"rX c #EBD4B3",
"tX c #EAD5B8",
"yX c #F6DBBA",
"uX c #EFD4AE",
"iX c #F6E0B9",
"pX c #D8D6C8",
"aX c #DCD7D1",
"sX c #E9DBC8",
"dX c #EEDDCB",
"fX c #DDE3D3",
"gX c #F5E5CB",
"hX c #FEEBCB",
"jX c #F8E3C4",
"kX c #EBE5D7",
"lX c #FCEDDC",
"zX c #F6EAD6",
"xX c #FFF1D3",
"cX c #FFF5DC",
"vX c #EEE0C3",
"bX c #E8E8E3",
"nX c #FCECE6",
"mX c #FFF6E4",
"MX c #FFFBE3",
"NX c #FFF5EB",
"BX c #FFFCEB",
"VX c #F4F6E8",
"CX c #FFFDF3",
"ZX c #FAFEF7",
/* pixels */
"r.Z.Z.N.c.c.c.N.c.c.0.r.c.c.c.0.6.6.r.r.0.2.4.6.6.4.3.0.r.r.6.5.r.l.N.N.b.b.n.C.h.b.4.h.c.h.x.0.0.h.r.0.0.3.0.0.0.0.4.0.0.0.4.r.",
"r.Z.Z.c.c.c.c.c.Z.N.r.c.c.N.N.r.l.l.N.Z.c.r.k.k.k.k.c.c.Z.N.k.l.r.N.N.b.n.h.n.b.x.b.0.c.b.c.C.h.c.Z.Z.b.b.r.Z.Z.Z.Z.c.b.Z.D.b.D.",
"0.N.N.c.c.r.c.c.N.Z.r.c.c.N.N.c.h.c.b.c.x.0.h.c.h.h.h.h.b.b.h.r.r.N.N.b.n.h.x.b.c.C.0.c.b.b.N.h.r.c.c.c.c.0.b.c.c.b.h.c.c.b.c.Z.",
"0.Z.N.N.c.r.c.N.c.Z.0.c.c.c.N.h.x.C.C.C.b.0.b.F.h.F.h.h.b.b.F.h.r.N.b.b.b.h.n.Z.b.C.4.c.h.c.b.r.h.Z.b.Z.b.0.b.b.b.N.r.c.b.Z.b.Z.",
"0.Z.N.Z.c.r.c.Z.c.Z.0.c.c.c.Z.c.x.C.b.b.n.4.c.b.b.N.r.c.b.b.C.h.r.b.C.Z.b.h.c.Z.b.Z.4.c.b.b.F.h.r.b.h.N.c.4.b.b.b.N.r.c.b.b.b.N.",
"0.Z.c.Z.c.r.c.N.c.Z.4.c.N.c.Z.c.g.C.b.b.h.4.c.Z.N.N.r.c.b.b.D.x.r.b.b.Z.b.0.c.C.N.Z.4.c.b.N.F.h.0.b.h.N.b.4.b.b.b.N.0.c.b.b.N.N.",
"4.b.c.Z.b.0.c.b.b.D.3.r.b.c.Z.h.0.b.c.k.l.2.c.N.N.N.0.r.h.c.Z.r.0.b.h.F.b.0.c.b.N.N.3.r.b.b.F.h.4.b.c.N.c.2.b.c.c.b.4.h.h.h.h.h.",
"4.Z.c.Z.b.0.c.b.b.D.3.r.b.c.Z.h.r.k.c.k.l.5.r.N.Z.Z.4.r.h.c.N.r.0.h.h.F.h.0.c.b.Z.Z.3.r.b.b.S.h.0.N.h.N.c.2.c.c.b.N.4.h.b.b.N.N.",
"4.N.h.b.b.4.c.c.h.D.2.h.N.h.D.r.0.l.l.k.l.2.r.C.0.,X4.l.s.l.k.r.5.F.c.l.h.5.k.c.c.Z.0.r.Z.c.F.h.4.b.c.b.c.2.c.c.h.D.0.h.h.h.b.h.",
"4.N.b.N.c.4.c.N.b.D.4.h.b.b.D.h.0.h.k.z.l.4.h.D.D.N.4.6.z.l.k.r.r.c.F.N.k.6.l.F.c.Z.e.r.Z.b.D.h.0.b.N.N.b.4.c.N.b.D.4.h.b.b.N.h.",
"4.b.F.F.h.4.h.F.b.D.4.h.h.F.F.h.0.h.F.F.h.0.g.C.S.C.r.r.c.V.N.c.3.c.N.l.k.6.6.z.N.D.3.0.Z.b.D.h.0.c.N.N.b.4.h.N.N.D.4.r.b.N.N.c.",
"4.h.h.F.b.4.h.h.b.D.4.0.h.h.F.h.0.h.h.C.n.4.g.n.D.>Xr.r.u.@X#Xt.9.r.r.z.l.5.h.h.N.N.4.0.b.c.D.h.0.h.c.N.b.2.r.h.b.F.4.r.c.c.N.h.",
"4.h.4.F.b.4.h.0.h.D.3.h.h.h.F.0.0.n.0.C.b.4.n.0.0.<Xq.%X$XOX-XOX+Xu.r.N.c.5.h.4.b.N.e.0.h.r.N.h.0.h.0.b.F.3.h.0.h.F.4.h.h.h.b.b.",
"4.h.4.b.b.4.h.4.h.D.3.h.h.4.F.f.4.c.3.b.b.3.c.4.y.<X=XhXcXxXmXhX=X@Xq.c.r.r.h.3.h.b.4.0.r.4.k.h.4.h.4.h.S.3.h.4.h.F.0.h.0.0.b.b.",
"4.h.4.b.h.4.h.4.h.F.3.h.h.4.S.0.4.l.4.b.c.5.r.9.y.&XyXMX0XpXpXBXjX<Xq.<Xr.4.h.4.h.b.4.0.r.0.N.r.4.h.4.h.h.2.h.4.h.F.4.h.h.h.b.h.",
"4.h.h.b.h.4.h.h.h.b.4.h.h.h.h.6.6.r.0.N.c.5.c.i.u.&XjXMX.     kXMXhX-X%Xc.r.b.4.b.b.4.0.h.h.k.6.4.h.h.b.h.3.h.h.h.F.4.h.h.h.b.h.",
"4.h.c.b.c.4.h.h.c.N.4.h.h.l.k.6.5.l.f.,Xr.9.y.u.t.*XgXBX- 0 z h }.BXlXwXy.6.h.f.n.>X4.c.r.c.h.s.4.h.h.F.h.4.h.h.h.F.h.h.h.h.F.b.",
"r.c.c.D.h.r.c.h.F.F.4.r.l.k.z.6.6.l.g.,XC.q.1XwXuXwXzXCX* 0 E X E pXBXcX&Xy.Z.n.,Xb.4.r.C.c.F.4.h.h.h.D.b.4.h.h.D.F.4.h.h.F.D.b.",
"r.c.c.N.c.r.c.r.b.N.4.r.h.l.N.l.g.h.n.>Xx.%XcXBXNXCXZXVX- 3 K P g + fXBXxX=X@Xc.C.Z.r.r.c.h.D.n.g.h.h.D.h.4.h.h.F.F.0.h.h.h.F.b.",
"r.h.h.h.h.0.c.r.h.b.4.h.r.r.c.h.h.g.h.:X:X=XBX X].x bXZX= 4 J F D d R |.BXwX$X+X@X#Xt.t.y.c.g.g.g.h.h.b.h.4.h.h.h.b.h.h.h.h.h.h.",
"c.c.r.c.h.0.c.r.h.c.4.h.l.c.c.4.h.h.l.Z.y.wXBX].  X .XfX* 3 L Z F T X h BXtX9X9X4X4X=X5X%Xy.n.h.h.h.h.h.h.4.h.h.h.h.0.h.h.h.h.h.",
"c.h.r.c.r.0.b.r.h.c.4.h.h.h.c.6.s.h.9.#X+XwXCX].X h * X   d F C C U % z CXBXBXBXMXMXMXcXjX%Xx.4.h.h.0.h.h.4.h.h.h.h.4.h.h.h.h.h.",
"c.r.0.h.r.4.c.0.r.c.4.h.6.4.l.r.r.t.+XuXvXzXCX].X h 1 * X r L C C K % R ZXpX{.|..X|.{.sXMX=Xu.r.h.h.0.h.h.4.h.0.h.h.0.h.0.0.h.h.",
"c.r.0.c.r.0.c.4.r.c.4.r.h.r.l.0.y.@XwXMXBXCXVXX.X e w w + 3 K V C L % l ZXX.X         {.MX-X@Xr.g.h.0.h.h.4.h.0.h.h.0.h.h.h.h.h.",
"h.h.h.b.h.4.h.h.h.h.4.h.h.h.h.4.0.%XtXBXX.  a + X @ , 8 2 , % K J J 4 @ 0 h Y U Y E   {.BX9X%Xr.0.b.h.h.h.4.h.h.h.F.4.h.h.h.h.h.",
"h.h.h.h.h.0.h.h.h.b.4.h.h.h.h.s.b.q.tXBXz   a r d 3 8 5 5 < & 3 D K 4 + 4 f K P f d XXpXMXwX@Xx.0.h.h.h.h.4.h.h.h.F.0.h.h.h.h.h.",
"h.h.h.F.h.4.h.h.h.F.3.h.h.s.h.h.f.:XrXBXz * E U K L 9 6 5 q w @ , L , , L L K Y 0 + VXBXiX*Xx.n.h.h.h.h.h.4.h.0.h.h.0.h.0.h.b.h.",
"F.0.4.F.h.0.h.4.h.F.3.h.h.s.F.h.h.w.wXMXVX3X+ g L F F A 6 < 5 2 2 9 i D V L U X XXkXBXvX$Xi.b.h.h.h.0.b.h.4.h.4.h.b.0.h.0.h.b.h.",
"b.0.4.h.h.0.h.4.h.b.4.h.h.4.h.h.f.y.@XuXMXkXX.U g K F Z B 9 < 8 8 9 F F J f l R pXBXyX$Xt.r.F.0.h.0.0.h.h.3.h.4.h.b.0.h.h.h.h.h.",
"h.h.h.b.h.0.h.h.h.b.0.h.h.h.h.h.h.c.y.&XyXMXBXR X U F Z F A 7 7 9 L F F T % - BXBXjXOX#Xr.h.h.h.h.h.h.b.h.4.b.h.h.b.h.h.h.h.h.h.",
"4.h.4.0.0.4.h.4.0.h.4.0.4.4.a.4.s.2.9.u.oXwXBXkX3X= i J V A A 7 7 V F D & }.bXCXyX+Xq.9.w.x.h.2.3.0.4.4.0.2.h.4.4.h.4.0.0.4.h.3.",
"2.h.h.h.h.h.h.h.h.h.h.h.h.h.h.h.7.6.r.y.t.$XkXCXkXX r H W W W S S I P d X qXZXnX-X#Xy.C.x.C.h.z.h.F.h.h.F.h.F.b.h.h.h.b.h.h.h.3.",
"1.h.h.h.h.h.z.F.h.F.z.h.h.h.h.6.7.7.c.:X@X-XzXCXkXo o $ #.( #.U.U.(.u .   qXCXNX2X&X:X,Xc.b.D.N.N.N.N.N.N.N.N.N.h.b.b.b.b.b.N.2.",
"1.h.h.h.h.a.h.h.h.h.h.h.h.h.h.l.7.7.n.:X1XhXBXqXO.+.| v ! ' ) ` U.!.i.+.o.o.}.CXcXwX>XZ.F.c.Z.y.b.b.b.h.b.b.c.c.h.b.b.b.N.b.N.4.",
"@.h.h.h.4.3.4.h.h.4.4.h.h.h.h.a.4.f.f.:XhXBXzXk ; 6XG.&.&.` *.( J.7X8X8X/.c = kXCXMX&Xh.z.z.r.y.N.b.b.b.b.b.N.N.c.b.c.c.b.c.N.2.",
"2.h.h.h.h.h.h.h.h.h.h.h.h.h.h.h.j.n.n.%XcXkX. o.$.! ^ _ :.P.Q.~._.`.`.^.~.7XwX   XMX$Xy.z.h.c.y.r.r.h.h.h.c.c.c.c.h.b.h.b.c.N.2.",
"1.h.4.4.4.4.4.0.0.4.4.0.4.4.4.4.f.w.oXwXBXpXo  .T.K.=._ H.W.'._.~.W.R.R._.7XwX. .XCXeX$X3.4.4.r.4.4.4.4.0.0.0.r.r.h.h.h.h.r.c.1.",
"2.b.h.b.h.h.b.F.b.b.b.h.h.h.h.l.h.t.wXMXCX0XO %.!.Q.:._ K.W.~._.W.I.( *.Q.7X6Xo ;XBXMXyX#XN.z.l.N.N.N.N.N.N.N.N.c.h.h.c.h.c.N.2.",
"2.h.h.h.h.b.h.h.h.h.h.h.h.h.h.r.6.i.rXBXX.s @.;.L.L.=.! ( *.I.I.I.P.` *.).`.7XY.[ s BXjX&XN.l.s.k.b.b.b.b.b.b.b.h.b.b.b.b.h.Z.4.",
"@.h.h.h.4.3.0.h.0.h.h.h.h.b.h.r.5.t.rXMXj ; -.=.:.=.=.>.;.E.R.I.I.>.&.=.)._.~./.[ o BXgX&XN.k.k.h.b.b.b.b.b.b.b.b.N.b.b.N.h.D.4.",
"1.b.h.h.h.0.h.h.h.h.h.h.h.h.h.h.r.y.rXMXm y $._ ! _ I.`.7X7X_.W.;.$.;.W._._.Q./.n O BXgX%X:Xc.k.c.c.c.c.c.h.b.N.c.c.c.c.c.c.Z.3.",
"1.h.4.4.h.h.0.0.4.0.0.0.0.f.0.0.r.@XeXMXm y T.:.:.! R.~.u ..~.;.Q $ T.`.~.Q.J.d.n o BXdXoX9.0.4.4.4.4.4.4.4.0.0.r.r.r.r.r.r.h.1.",
"1.h.0.0.0.4.4.0.0.0.0.0.0.0.0.0.9.oXeXBXj s /.P.:.^ L.!.p  .`.J...p T.`.~.R.K.;.c o BXjXt.h.h.4.h.r.r.r.r.r.h.h.h.h.h.h.h.r.c.1.",
"2.b.h.b.b.F.F.F.b.F.F.b.b.b.h.c.c.%XeXBXj s /.L.:._ _ #.8X8X^.`.7X8X`.`._.W.K.E.{ o BXhX<XF.D.F.F.N.N.N.N.N.N.N.Z.Z.Z.Z.Z.b.D.4.",
"1.h.h.h.h.h.h.b.h.h.h.h.h.h.h.h.r.t.rXMXk y d.&.' ) _ #.c } T.7XY.c %.;.R.I.K.!.{ o mXgX@Xh.b.n.b.b.b.b.b.b.b.b.b.b.b.b.b.c.Z.4.",
"<.h.h.h.4.3.4.h.4.0.h.h.h.h.h.0.3.t.rXMXm : -.' ' ' ' ( t c } (.%.O Q ;.E.K.*.E.{ O BXgX#Xk.C.C.b.h.h.h.b.b.b.b.c.b.c.c.c.c.b.3.",
"2.b.h.h.h.h.h.h.h.h.h.h.h.b.h.h.h.@XtXBXm : -.=.H.H.' _ 8X .O O b $./.`.~.I.( &.c O BXgX+Xr.c.b.c.c.c.c.c.b.b.b.b.b.b.b.b.b.Z.4.",
"<.h.4.4.0.0.4.0.0.0.4.4.4.4.0.4.6.t.eXBXj : -.:.I.H.] ` ^.(. .} ~ ( !.`.`.;.! ;.c o BXvXp.3.4.4.4.4.4.4.4.0.0.0.r.r.r.r.r.r.h.1.",
"2.h.h.h.h.h.h.b.b.h.b.h.h.h.h.c.5.#XeXBXm s 2.;.>.I.&.` !.`.^.!.*.( R.^.~.;.#.5.m = NXgX&XN.k.V.N.N.N.N.N.N.N.N.b.b.b.b.b.c.Z.3.",
"2.b.h.h.h.h.h.h.b.b.b.h.h.h.h.r.l.u.wXcXMX9XO } d.( =.I.I.K.( ( ] H.P.>.( ;.%.O }.NXBXyX@XZ.r.l.k.b.b.b.b.b.b.b.b.b.b.b.b.b.D.3.",
"<.h.h.h.0.4.0.h.0.h.h.h.h.h.h.r.4.9.oXuXmXlX[.[ v $.,.P.L.=.) / ] L.L.>.#.Q n [.aXCXyX<X>Xb.Z.Z.b.b.b.b.N.N.N.N.b.b.h.h.b.b.D.3.",
"2.b.h.h.h.h.h.h.h.h.h.h.h.h.h.h.r.c.x.%XyXBXBXX.# e.z.E.>.=./ ) &.>.E.d.s.y > NXCXgX#Xl.D.c.c.Z.c.c.c.b.h.h.b.b.b.b.h.b.b.b.D.3.",
"1.h.4.0.f.0.0.0.0.h.h.0.0.0.0.6.6.r.r.y.oXwXMXmX0X# # t -.,.&.&.&.d.c # # ;XnXBXeX8.r.5.4.0.r.3.4.4.4.0.4.0.0.0.r.r.r.h.h.r.c.1.",
"<.h.4.0.0.4.0.h.4.0.0.4.4.4.0.6.5.5.4.0.0.oXrXBXNX].X.[ { | } Q | | [ X.N kXBXyX+Xr.4.h.0.0.r.r.r.0.0.r.r.r.r.r.r.r.r.r.r.r.c.1.",
"2.b.h.h.F.F.b.b.F.F.F.b.h.h.h.h.h.c.z.h.n.x.*XrXBXCXBXlXo o o o o o sXCXBXMXyX<X>X,XN.D.F.S.Z.N.N.N.N.N.D.D.F.D.b.b.b.N.b.b.D.3.",
"1.h.h.h.h.h.h.b.h.h.h.h.h.h.h.h.0.b.a.h.h.Z.u.8.wXeXxXBXkXkXkXkXzXkXBXlX0X4X&Xx.S.S.N.c.z.z.c.b.b.b.b.b.b.b.b.b.b.b.b.b.b.b.D.3.",
"@.h.h.h.4.2.4.h.4.0.h.h.h.h.h.h.4.f.f.a.r.r.y.w.q.@X5XyXxXhXhXxXhXxXjX2XOXq.y.0.h.h.N.N.F.h.h.h.c.c.b.b.h.b.b.b.c.c.c.c.c.c.Z.3.",
"2.h.h.h.h.b.h.h.h.h.h.h.h.h.h.h.h.h.j.h.c.c.C.C.Z.Z.x.@X*X$X$X*X&X*X%X@Xy.h.h.h.h.h.c.c.c.c.h.h.h.c.c.c.c.b.h.b.b.b.h.b.b.c.Z.3.",
"<.0.4.0.4.0.0.0.4.4.4.4.4.0.h.4.a.4.4.r.r.0.0.0.9.r.r.r.r.y.t.q.e.3.9.r.6.5.5.3.4.4.4.9.9.r.4.a.4.4.4.4.4.0.4.4.h.r.h.h.r.r.c.1.",
"2.h.h.h.h.h.h.h.b.b.h.h.h.h.h.h.h.s.6.6.r.h.h.h.c.c.l.k.h.c.c.c.h.z.N.c.r.l.l.k.b.b.c.u.u.N.S.z.b.b.b.b.N.N.N.N.b.h.b.b.b.c.Z.3.",
"2.b.h.b.h.b.b.h.h.b.b.h.h.h.h.h.h.h.l.6.h.j.h.h.D.N.F.z.z.z.b.N.N.h.h.b.N.N.N.Z.Z.>X>X>Xu.N.b.S.b.b.b.b.b.b.b.b.h.h.b.b.b.c.Z.3.",
"@.h.h.h.4.4.0.h.0.h.h.h.h.h.h.h.3.0.6.6.s.h.f.4.0.l.F.h.j.z.h.r.4.3.3.4.0.0.4.6.C.Z.>X>XN.l.h.b.h.h.h.h.b.b.b.b.b.b.N.N.b.b.D.4.",
"2.b.h.h.h.h.h.h.h.h.h.h.h.h.h.h.g.h.h.h.h.h.b.h.c.c.N.r.h.h.k.k.c.b.h.f.h.h.l.h.h.h.b.C.c.c.h.h.b.b.N.N.N.N.N.N.c.c.h.b.b.c.Z.3.",
"1.h.4.0.h.h.h.0.h.h.h.h.0.h.h.f.g.f.h.h.h.h.g.g.r.r.i.r.r.r.4.4.4.4.4.4.4.4.6.5.a.a.f.0.r.r.6.6.4.4.4.4.0.0.0.0.h.h.h.h.h.h.b.2."
};
