/* XPM */
static char *patrol2[] = {
"32 32 4 1",
" 	c None",
".	c #FF0000",
"+	c #000000",
"@	c #FFFFFF",
"                                ",
"                                ",
"              .@@+              ",
"             .@@++@             ",
"            .@@++@@.            ",
"           .@@++@@@.            ",
"          .@@++@@@@.            ",
"         .@@++@@@@@.            ",
"        .@@++@@@@@@.            ",
"       .@@++@@@@@@@.            ",
"      .@@++@@@@@@@@.            ",
"     .@@++@@@@@@@@@.            ",
"    .@@++@@@@@@@@@@.            ",
"   .@@++@@@@@@@@@@@.            ",
"  .@@++@@@@@@@@@@@@.            ",
" .@@++@@@@@@@@@@@@@.            ",
".@@++@@@@@@@@@@@@@@.            ",
".@++@@@@@@@@@@@@@@@.            ",
" ++@@@@@@@@@@@@@@@@.            ",
"  ++@@@@@@@@@@@@@@@.            ",
"   ++@@@@@@@@@@@@@@.            ",
"    ++@@@@@@@@@@@@@.            ",
"     ++@@@@@@@@@@@@.            ",
"      ++@@@@@@@@@@@.            ",
"       ++@@@@@@@@@@.            ",
"        ++@@@@@@@@@.            ",
"         ++@@@@@@@@.            ",
"          ++@@@@@@@.            ",
"           ++@@@@@@.            ",
"            ++@@@@.             ",
"             ++@@@.             ",
"              ++@@.             "
};
