/* XPM */
static char *_3f322bcc1e0076b28b37051fd0e574917498059_o[] = {
/* columns rows colors chars-per-pixel */
"64 64 243 2 ",
"   c #010400",
".  c #0A0200",
"X  c #000B01",
"o  c #01090A",
"O  c #140300",
"+  c #001102",
"@  c #041414",
"#  c #09130C",
"$  c #240300",
"%  c #2A1800",
"&  c #18241A",
"*  c #122D12",
"=  c #342503",
"-  c #2B310F",
";  c #091E2A",
":  c #072729",
">  c #162625",
",  c #0D2E35",
"<  c #233029",
"1  c #46310F",
"2  c #7D2519",
"3  c #33471A",
"4  c #324D2B",
"5  c #386231",
"6  c #524626",
"7  c #4B442B",
"8  c #6B5D34",
"9  c #725F2A",
"0  c #506C36",
"q  c #6E6036",
"w  c #6D6638",
"e  c #60450D",
"r  c #153944",
"t  c #1C4952",
"y  c #24464B",
"u  c #2F5154",
"i  c #3A6441",
"p  c #2D5C6A",
"a  c #375D6A",
"s  c #345D71",
"d  c #39646C",
"f  c #396775",
"g  c #2E6470",
"h  c #475553",
"j  c #4E694F",
"k  c #727150",
"l  c #435F6D",
"z  c #43636D",
"x  c #466875",
"c  c #567378",
"v  c #4E726F",
"b  c #647671",
"n  c #8D6C37",
"m  c #A0483B",
"M  c #8E774A",
"N  c #D47252",
"B  c #D47464",
"V  c #E2776C",
"C  c #6D8E51",
"Z  c #7AA95A",
"A  c #7AB257",
"S  c #70A454",
"D  c #79966C",
"F  c #7DB262",
"G  c #7DAB63",
"H  c #56807C",
"J  c #8E8239",
"K  c #988452",
"L  c #88B95D",
"P  c #96996F",
"I  c #AE986B",
"U  c #84A968",
"Y  c #8ABD63",
"T  c #86B667",
"R  c #92BB76",
"E  c #87AD76",
"W  c #B9A470",
"Q  c #B89859",
"!  c #D68959",
"~  c #D09263",
"^  c #EC916F",
"/  c #C5AA76",
"(  c #CCB47B",
")  c #D9B87A",
"_  c #CBAA67",
"`  c #E8BD6B",
"'  c #E5BD76",
"]  c #F1A975",
"[  c #D3955E",
"{  c #8DC56A",
"}  c #8CC566",
"|  c #94C86A",
" . c #94CC74",
".. c #9ACD72",
"X. c #99C87A",
"o. c #9BD173",
"O. c #97D177",
"+. c #96D070",
"@. c #A6D67C",
"#. c #E9C377",
"$. c #F5CC75",
"%. c #FBCD75",
"&. c #F4CD7A",
"*. c #FBCD7B",
"=. c #F6C478",
"-. c #FCD176",
";. c #F6D17C",
":. c #FCD17B",
">. c #F6D274",
",. c #F6CC6D",
"<. c #356C8C",
"1. c #3B6D84",
"2. c #3B738C",
"3. c #366E91",
"4. c #2D7999",
"5. c #3B7593",
"6. c #3C7A95",
"7. c #3A769A",
"8. c #357C9D",
"9. c #3C7C9C",
"0. c #367696",
"q. c #2F6B8F",
"w. c #3C7EA2",
"e. c #357EA0",
"r. c #4C7283",
"t. c #43758C",
"y. c #467888",
"u. c #557885",
"i. c #437B94",
"p. c #4A7C93",
"a. c #427D9B",
"s. c #4C7E9B",
"d. c #437694",
"f. c #527C94",
"g. c #466E84",
"h. c #427EA1",
"j. c #477EA7",
"k. c #3D829D",
"l. c #3B8598",
"z. c #3681A3",
"x. c #3C83A3",
"c. c #3C84AA",
"v. c #3E89AC",
"b. c #3985A8",
"n. c #3D87B1",
"m. c #43829D",
"M. c #4B829C",
"N. c #4B8599",
"B. c #53849B",
"V. c #568699",
"C. c #5E8B97",
"Z. c #638898",
"A. c #62828D",
"S. c #4384A3",
"D. c #4B85A3",
"F. c #4589A4",
"G. c #4C8AA5",
"H. c #4485A9",
"J. c #4B86A9",
"K. c #448AAC",
"L. c #4C8BAB",
"P. c #5386A4",
"I. c #5B86A3",
"U. c #538AA5",
"Y. c #5B8BA4",
"T. c #538CAB",
"R. c #5B8CAB",
"E. c #5386AA",
"W. c #4D91AC",
"Q. c #4895A4",
"!. c #5391AD",
"~. c #5B92AC",
"^. c #5695A8",
"/. c #438CB2",
"(. c #4C8DB1",
"). c #548CB1",
"_. c #588BB2",
"`. c #4593B3",
"'. c #4C92B4",
"]. c #4C95B9",
"[. c #4D99B8",
"{. c #4B98B6",
"}. c #5494B3",
"|. c #5B94B3",
" X c #5A99B5",
".X c #5496BA",
"XX c #5B96BB",
"oX c #549ABB",
"OX c #5B9BBC",
"+X c #559AB5",
"@X c #628CA8",
"#X c #6395AD",
"$X c #639BB5",
"%X c #649BBB",
"&X c #6699B6",
"*X c #739BB5",
"=X c #5CA1BE",
"-X c #6AA2BE",
";X c #66A2BA",
":X c #78A3BE",
">X c #7FA281",
",X c #579BC1",
"<X c #4F9DC3",
"1X c #649BC1",
"2X c #5CA1C2",
"3X c #6EA4C2",
"4X c #64A6C4",
"5X c #73A9C5",
"6X c #8BB386",
"7X c #B3A98A",
"8X c #B7B6A1",
"9X c #C9B482",
"0X c #D7BB88",
"qX c #C9B38A",
"wX c #FFBE85",
"eX c #F7AF88",
"rX c #9CC786",
"tX c #A7D986",
"yX c #ABD491",
"uX c #B3E196",
"iX c #ABE388",
"pX c #D8C188",
"aX c #D6C89B",
"sX c #CEC292",
"dX c #E8C887",
"fX c #FEC382",
"gX c #FDCD82",
"hX c #F6CC87",
"jX c #EED18D",
"kX c #FDD282",
"lX c #F5D38B",
"zX c #FBD48B",
"xX c #F8D688",
"cX c #ECCC95",
"vX c #FBD895",
"bX c #E9D294",
"nX c #FDE29A",
"mX c #D5CCAD",
"MX c #FCE8AA",
"NX c #FDE9B6",
"BX c #FFF0AD",
"VX c #EFDDB1",
"CX c #F5EBC2",
/* pixels */
"Q.Q.^.+X X}.}.}.}.}.L.L.L.H.w.x.k.F.L.).).L.G.F.S.S.S.S.H.F.v.k.l.l.k.m.h.h.h.9.S.F.F.l.6.k.S.m.6.l.m.F.L.L.L.L.L.L.F.F.T.T.)._.",
"^.+X+X}..XoXoX.X}.}.L.L.L.H.H.H.F.L.L.E.J.J.F.S.H.H.J.J.H.H.x.k.k.k.S.H.L.L.L.L.H.H.H.S.m.F.J.H.F.F.G.G.L.L.L.L.L.L.L.L.).}._._.",
"|.XX.X.X.XoX[.].}.}.}.(.L.L.L.H.S.S.j.j.j.S.k.9.S.S.H.H.S.S.S.w.8.7.e.w.x.k.k.k.8.8.8.8.9.a.h.h.7.w.x.w.w.w.x.x.x.S.F.K.H.(.(.(.",
"1XXX.X.X[.].].].].}.}.}.}.}..X}.T.T.)._.).T.G.F.H.H.J.J.J.H.H.S.w.w.j.S.F.S.m.k.x.w.e.w.h.S.D.L.S.H.H.S.S.w.9.x.F.v.v.x.x.H.K.H.",
",XXX.X,X,XoXoXoX}.}. X|.}.|. X}.!.!.T.R.T.!.~.~.!.}.}.!.L.L.G.L.L.T.L.L.G.G.G.G.L.L.H.H.G.!.^.T.L.T.E.D.L.L.L.H.H.x.H.H.x.H.W.K.",
",X,XoX.X.X,X2X2XOX=X;XOX X X X X~.~.|.$X$X$X;X;X X X}.!.W.L.L.L.|.|.|.!.T.T.T.G.F.G.G.F.F.G.G.D.!.!.T.G.L.L.L.L.K.K./.K.K.K.K.K.",
"<X<X<X,X.X,X,XXX.XoX}.}.}.}.}.}.W.!.}. X X}.!.!.!.W.L.K.K.v.S.S.L.L.L.L.L.L.L.H.S.L.L.L.G.L.T.T.L.L.L.F.F.G.F.H.K./././././.`./.",
"{.`.].].].}..X.XXXoX}.'.(.L.'.}.'.L.L.L.W.L.F.H.L.H.K.v.b.x.x.S.m.m.S.a.9.9.9.9.9.m.F.G.G.L.!.!.}.}.!.G.S.m.x.x.K.K.n.n.n./././.",
"[.[.[.oX.X.XoXoX[.[.`.`.`.'..X.XK.'.H.L.L.W.'./.K.(./.v./.K.H.S.m.F.m.M.a.6.6.6.5.m.M.G.D.D.G.G.J.L.F.m.m.k.9.8.w.w.c.c.H.K.H.v.",
"+X+X+X X XOXOX,X2X,X[.[.[.[.oX[.]./.'.L.!.}.'.'.(.L.L.(.K.H.J.P.1.f f f g g g f f s f t.U.G.D.D.L.J.S.F.F.F.x.H.H.K.H.(.(.(.L.W.",
"5X5X5X3X3X3X-X%X|.XX.X.X XOX=X2X,X4X%X;X$X#X~.|.~.R.~.~.|.|.@XZ.o   X   X X     X o o r f.P.E.U.D.T.G.T.T.L.L.L.L.H.J.D.G.G.B.B.",
"D.M.s.i.d.5.3.<.3.7.7.0.9.m.m.S.S.M.p.r.r.r.r.r.r.r.r.r.r.u.u.c < - - - 3 4 3 4 4 4 4 u v x r.g.p.i.a.M.9.F.S.L.S.S.M.M.M.s.p.p.",
"}.}.}.}.}.}.}.}.XXXX.X'.}.}.W.G.U.I.r : > > > > > > & & > & & < D G Z Z T yXtXyXyXyXyXE + > : : g.P.M.M.G.H.F.L.G.G.U.P.P.P.P.B.",
"2X2X2X2XOXoXoX[.{./.K.H.G.D.M.N.f.u.@     .   . . . . . . . . X U Z A A } iXtXtXiXtXuXU X X X + x f.p.M.G.L.T.L.L.T.T.U.Y.Y.R.Y.",
"oX,X2X2X2XoX[.`.`.`.K.G.M.f t u y u 8XmXaXsXaXsXsX9X( ( ( ( W I 0 5 C A A Y Y o...@.tXtXE R R 6Xv , f V.M.T.L.E.T.R.R.R.R.@X@X@X",
"[..XoXOXOX[.{.`.`.{.W.U.V.y o       VXNXNXBXBXBXMXvXvXvXvXlX' ) . + C T Z S A | | @.tXtXuXuXtXuXi X y u.N.s.D.J.D.P.E.R.Y.I.I.I.",
"S.W.}.|.XXoX.XoX[.'.^.y.a D P P P I bXvXzXvXvXvXxXkXkXkX;.&.=.#.J J C k S A A  .| o.@.@.O.O.tXtXS C v u f B.N.M.J.J.T.R.R.R.Y.P.",
"}. XOXOX1XXX.X.X.X|.V.,   7XCXMXBXnXlX;.;.;.gXgX:.:.;.;.;.:.*.*.#.dXk X 0 Y Y  .o.o.......O.tXtXiXuXD X : V.B.G.L.L.T.T.L.G.P.P.",
".XXXOXXX X}.'.}.T.B.A.h O 7XNXMXvXnXxX;.:.:.*.*.;.;.;.;.:.*.*.*.` dXM X 0 T {  .+.+.......o.@.@.@.uXD + i H u.N.H.K.K.F.S.F.H.h.",
"XXXXOXOX X+X}.}.i.; o mXCXVXMXvXhXkX;.>.%.%.*.:.;.;.;.;.*.*.-.-.:.zXK . 0 U Z O. .o.........o.....X.rXrX6X* : y.D.x.z.k.x.z.c.c.",
"1X1XOX X X}.!.R.f.@   mXNXMXnXnXkX*.:.:.:.:.*.*.*.:.:.:.*.:.>.>.:.zXM . 0 U T  . .o..... .+.+.+. .O.X.rXR + X x M.L.v.x.x.z.z.z.",
"3X3X4X;X$X$X%X&XA.> X mXMXnXxXkX&.:.:.:.*.%.*.*.:.:.kXkX:.:.>.>.:.xX) ( P 3 0 T T Y Y } | +.+. . .{ {  .R E >Xz , <.}.'.K.K./.n.",
"R.~.~.^.!.~.R.V.c   . aXBXxX&.:.*.:.*.*.:.%.%.%.-.*.*.*.*.:.-.:.:.&.kXvX9X. - G G T T Y } | ..o.{ { { } | rXyXi o p d.7.a.m.m.m.",
"&X&X&X;X-X&XV.x b P K bXnXxX;.-.%.:.*.:.%.-.-.-.-.:.*.*.*.*.%.:.*.:.$.lX/ . - C C Z T Y Y Y } | | { } } } | X.5 X d Y.E.).}.!.!.",
";X3X3X-X3X:Xx   k CXNXlXhX;.-.-.,.-.:.:.*.:.-.-.%.:.:.:.:.:.-.-.-.:.$.xXW O . X X C Z A A A L L } | { } } | R 5 X a U.).(.L.F.k.",
"$X;X%X&X&X&Xx   k MXvXzXkX*.:.>.-.-.-.*.kX:.-.-.:.%.*.:.*.%.:.-.:.-.:.xX/ $ 1 % X C U Z Z Z Y L { } } | } }  .5 + a M.w.c.x.x.x.",
"$X&X&X&X|.~.z   q bXxX*.:.*.-.-.-.$.%.:.*.%.*.:.*.:.:.:.*.:.:.-.:.:.*.kX&.) / =   & * * + 4 Z A A A A L L T R 5 X p D.c.n./.v.b.",
"3X%X%X%XXX|.z   q jXkX:.:.*.*.*.zXkX:.%.:.:.*.*.:.:.*.xXzXkX*.:.:.:.kX*.%.' 0X= . o X X X 4 E F F F T R R R 6X5 @ p L.H.c.v.n./.",
"$X|.|.|.XX&Xx   8 lXkX:.*.*.gX#.M K #.:.=.%.*.*.*.*.zX_ n _ hXkX&.:.%.*.%.` ( =   u d p p z j 0 0 0 0 j j j j d g 6.H.c.c.b.n.n.",
"~.!.!.}.}.#Xx X 8 lX*.*.*.gXzXeX$ $ ) &.zXhXhXzXvXgXvXn $ M vXgXkX*.:.%.,.` ( =   x p.M.i.u.+ X X X X X X X @ f m.x.v.c.z.z.b.c.",
"W.W.L.!.).R.a   q lX*.*.gXwX] ^ m m ] zX0XW 9X/ _ hXgX! 2 B eX] fX*.%.:.$.#.9X=   a p.m.J.N.t u t y t t t t t 2.k.x.x.w.x.x.e.4.",
"G.L.L.!.|.#Xz X 8 lX:.%.gX] N B V V wXvXM O O O O #.zX] B V N N *.:.:.*.&.) 9X=   z B.a.S.m.M.N.N.y.5.i.i.i.M.F.v.x.w.9.8.4.4.4.",
"U.~.&X1X5X:Xx   8 vX*.*.gX] ! ! ! ! fXvXQ 1 e 1 e dXzX] ! ! ! ! =.;.&.;.#.' ( =   x B.D.J.J.D.D.F.m.m.m.S.S.H.L.H.H.H.H.x.w.w.8.",
"~.~.E.I.R.@Xz   q lX*.:.*.*.fXfXgX*.gXgXhXdXdXdXdXlXhXgXwXfXwXfXkX$.;.kX#.#.9X- o x s.a.a.S.h.a.9.9.9.9.9.9.9.9.9.7.7.7.7.7.7.7.",
"G.^.R.R.P.V.h   9 hX:.:.*.kXgXgX*.gX*.kXgXzXhXzXgX&.*.kXfXfXfXgX*.:.*.*.#.dXqX- @ s i.9.5.i.a.a.a.a.a.a.9.5.5.5.5.3.3.<.<.<.<.<.",
"%X%X$X&X$X*Xz   9 zX:.:.:.:.%.*.*.*.*.:.*.&.gXgX*.:.:.*.gXkXgXgX*.*.%.=._ n k v x B.!.!.T.!.R.R.T.T.T.E.U.G.U.E.U.U.G.G.D.D.D.a.",
"D.T.T.T.T.I.z   9 lXkX:.;.:.*.*.*.*.:.%.:.:.:.:.:.-.:.:.:.*.*.*.*.:.` ' Q O # u.s.m.k.k.k.F.m.m.a.a.9.9.9.9.m.S.S.m.a.6.6.5.5.3.",
"E.T.}.!.T.Y.z   8 lXxX*.&.:.%.%.:.%.:.-.:.:.-.-.-.:.-.*.*.*.:.:.-.-.` =.I . < f.a.k.x.x.w.k.k.6.9.9.7.9.9.9.9.9.9.9.6.5.5.3.<.<.",
"}.}.}.!.T.Y.z   q bXhX*.:.:.:.:.*.:.:.;.$.>.:.-.%.:.*.*.:.*.*.:.%.%.=.#.I   : f.N.F.F.K./.K.x.x.H.H.S.S.H.F.L.J.G.L.L.E.U.E.E.E.",
"2X2X=X2XOX$Xx o j aXdXlXkX*.%.*.:.:.:.$.:.-.-.:.:.*.*.:.*.:.:.-.%.:.' 0XP X r N.F.F.F.K.K.w.x.x.H.H.S.S.H.L.L.T.E.T.E.U.E.R.R.@X",
"{.=X2X2X2XoXT.V.c 4 = 0XzX:.%.*.*.:.:.:.:.:.*.*.%.gX*.*.&.&.>.;.#.zXK . h c 1.6.9.m.k.k.S.S.K.(.(.L.J.J.L.L.T.T.T.T.R.R.R.R.@X@X",
"[.[..XoXoX[.].!.u.  . pXlX&.:.*.*.:.*.*.*.:.*.*.kX*.kX*.$.:.:.;.;.jXM   y t.5.8.9.k.9.9.9.9.w.S.S.a.9.9.S.F.J.D.D.U.U.R.Y.I.I.I.",
"K.}..X}.+X+X}.#Xu.@ . 0XzX:.:.:.:.:.*.*.:.:.*.*.*.kX:.*.%.*.:.*.` dXM   u N.F.H.H.H.x.w.x.k.x.x.x.x.9.k.x.S.F.F.D.G.T.T.R.R.U.E.",
".XXXOXOXOX X}.R.C.@ . 0XlX:.%.:.-.-.:.:.:.:.:.*.*.xXkXkX%.*.:.gX#.cXM   t i.S.x.c.H.x.x.x.x.x.x.x.k.x.x.H.K.H.L.H.L.L.E.E.E.E.D.",
"XXXXOXXX}.}.|.R.u.@ . 0XvX*.*.:.%.:.kXkX;.;.;.&.:.kX*.*.*.*.=.hXW 7Xb , p 6.0.x.8.8.z.z.e.8.e.e.w.w.w.x.H.H.H.H.L.L.L.H.S.S.S.S.",
"|.XXXX XOX X|.@Xc   . 0XzX*.:.*.*.:.kXkX*.&.&.&.&.kX:.*.kX=.=.) %   u y.5.6.w.8.z.8.x.x.x.w.w.w.w.w.x.S.H.H.S.S.S.S.x.w.w.x.x.v.",
" X%XOXoXoX}.U.Z.b - % ) zX*.*.:.:.:.gXgXgX*.*.*.*.*.*.:.*.&.) 9X4 @ f y.5.0.0.7.9.8.9.9.9.9.9.9.9.9.9.S.H.H.H.H.H.H.H.x.x.z.z.z.",
"-X-X4X=XOX-X1.@ j aXpXzX*.kX*.kX:.:.gXgXgX*.*.*.*.:.*.#.#.Q = 6 b u.V.N.N.m.D.D.S.a.m.F.D.D.D.D.D.D.D.D.G.L.L.L.).L.'.'.'.K.K.K.",
"B.~.~.R.R.I.a   8 vX&.:.:.*.*.*.$.;.*.*.*.*.*.*.%.:.:.#.dXW .   v x y.y.N.B.B.B.p.p.s.s.p.t.t.t.1.2.2.t.i.i.d.5.a.i.9.9.a.m.S.a.",
"-X;X&X*X*X*Xx   q dX*.-.%.:.*.:.:.:.*.*.*.*.gXkX:.=.#.Q M k j c Z.C.Y.Y.Y.V.V.B.Y.Y.U.U.B.B.B.V.R.Y.Y.U.U.U.E.E.T.E.L.L.).}.}.}.",
";X3X3X3X3X:Xx   8 jX$.%.:.:.:.*.*.*.*.:.%.:.kXvXzX#.dXM . > Z.V.B.U.R.~.R.U.G.G.G.G.G.L.T.U.U.U.R.R.T.E.E.J.J.H.S.H./.'.'./.K.v.",
"&X-X-X%X&X&Xx X 8 cXgX*.*.*.%.:.gXgXgX:.%.&.dX_ ( W W k < z Y.T.T.T.!.T.J.m.9.9.9.9.k.S.H.F.D.D.D.D.J.L.J.J.L.H.K.H.v.b.b.z.b.c.",
"&X#X&X#XR.@Xz   8 cXzXgXkXkX:.:.gXgXgXkX#.' / O . .   h u.B.M.S.D.D.S.S.9.9.7.9.x.x.x.x.S.S.H.G.D.S.D.H.S.H.H.H.K.K.K./.K.v.v.v.",
"3X&X&X&X X#Xf o k aXcXjXjXdXjXdXjXdXcXcXdX0X7X. < ; ; z f.s.F.L.H.H.S.S.h.S.S.H.x.x.x.x.k.x.F.L.G.F.S.S.S.x.H.x.K.K.K.K.c.v.c.v.",
"%XOX|.}.}.|.~.A.b 7 7 6 7 6 6 6 6 6 6 6 7 7 h b r.f.y.p.M.F.G.F.a.m.h.h.a.9.9.9.9.9.9.8.9.k.S.F.x.x.x.x.x.x.x.z.c.v.v.v.b.b.c.b.",
"}.(.(.}.oX.X|.~.u.o                       X , Z.Y.R.U.T.G.G.N.m.a.M.D.D.D.S.a.9.S.S.x.9.S.L.L.L.H.K.x.x.K.K.b.x.c.b.b.b.z.z.z.z.",
"(.'.'.'.].'.(.T.p.g.x x d x z a a a l a a a g.M.D.F.F.F.D.D.M.M.M.s.j.s.a.a.9.9.8.9.x.H.H.L.L.L.J.S.9.9.w.w.x.x.x.x.x.z.z.e.8.4.",
"L.!.L.!.OXOX}.}.|.R.U.B.B.V.@XY.P.s.t.y.t.t.i.a.a.6.6.6.a.D.M.M.P.P.P.D.D.m.m.m.H.F.S.S.S.S.D.J.S.9.7.7.9.w.x.x.H.x.x.8.8.8.4.4.",
"R.~.#X&X5X5X%X$X~.~.~.R.U.Y.Y.U.R.U.B.N.N.N.N.M.D.D.G.G.P.D.s.s.N.B.s.s.N.N.M.M.m.m.S.D.J.D.D.D.L.H.S.H.H.H.H.K.H.H.H.x.x.x.w.8.",
"~.R.Y.Y.Y.~.#X#X$X$X$X X$X#X~.R.G.G.D.B.P.Y.Y.I.P.U.T.P.s.s.s.P.B.p.p.p.s.N.s.s.M.M.M.a.a.a.a.a.9.7.w.w.w.w.x.S.w.9.7.9.9.9.9.0.",
"R.R.R.R.E.P.M.s.D.D.m.a.D.D.D.M.S.a.a.s.s.f.f.f.s.s.M.M.s.s.s.D.M.i.t.d.p.p.p.p.p.i.i.6.i.a.a.6.9.9.9.9.6.0.5.5.5.5.<.<.<.<.<.<.",
"%X1X%X%X%X%X%X3X3X-X$X|.|.|.|._.T.T.).R.I.I.I.I.E.U.U.U.E.G.D.M.D.N.D.D.P.P.E.U.U.T.T.^.!.!.!.!.L.L.T.T.G.L.T.T.L.U.U.P.P.P.M.s.",
"J.T.T.T.!.T.T.T.U.U.U.E.E.P.P.P.U.G.G.L.U.P.D.D.D.D.m.m.w.9.9.a.m.S.S.S.a.a.S.S.m.S.S.k.k.S.F.H.S.w.w.w.9.w.S.S.S.h.9.9.7.7.5.5.",
"L.L.!.!.T.T.^.^.R.U.U.T.R.U.E.U.U.M.F.G.M.M.J.J.H.m.m.k.w.8.0.6.9.9.9.9.h.h.h.9.9.S.x.x.x.x.x.9.7.e.e.7.7.9.w.w.w.w.9.7.7.0.3.q."
};
