/* XPM */
static char *f70a9da239e876f504f5b8240e1b1fafcd704524_o[] = {
/* columns rows colors chars-per-pixel */
"64 64 248 2 ",
"   c #0B080B",
".  c #150201",
"X  c #1C0100",
"o  c #1A0B05",
"O  c #1B150B",
"+  c #0B0B13",
"@  c #120C14",
"#  c #181819",
"$  c #0B1818",
"%  c #240100",
"&  c #2B0000",
"*  c #280B02",
"=  c #340000",
"-  c #3A0000",
";  c #390A00",
":  c #291407",
">  c #3A1503",
",  c #251818",
"<  c #1A1C27",
"1  c #0E1A26",
"2  c #241C24",
"3  c #291B27",
"4  c #241F36",
"5  c #1A2936",
"6  c #272428",
"7  c #28323C",
"8  c #272D37",
"9  c #19231A",
"0  c #430000",
"q  c #480400",
"w  c #5A0400",
"e  c #481403",
"r  c #551904",
"t  c #4A1C11",
"y  c #681A00",
"u  c #771800",
"i  c #640D00",
"p  c #502714",
"a  c #6A2201",
"s  c #782705",
"d  c #79391A",
"f  c #6D3314",
"g  c #4E3C36",
"h  c #693925",
"j  c #6F3D28",
"k  c #764837",
"l  c #714430",
"z  c #18374A",
"x  c #173149",
"c  c #243343",
"v  c #354A56",
"b  c #345468",
"n  c #2B5368",
"m  c #3B6274",
"M  c #4D4B4E",
"N  c #655854",
"B  c #6A524C",
"V  c #455C69",
"C  c #455F72",
"Z  c #466878",
"A  c #536872",
"S  c #66696B",
"D  c #882901",
"F  c #993B0D",
"G  c #853A1B",
"H  c #983C13",
"J  c #932B01",
"K  c #A43504",
"L  c #AA2E00",
"P  c #994419",
"I  c #8C421A",
"U  c #B8480C",
"Y  c #A84819",
"T  c #B64C18",
"R  c #AE4F16",
"E  c #884425",
"W  c #9A4925",
"Q  c #9D532D",
"!  c #985738",
"~  c #8C4F35",
"^  c #A64B27",
"/  c #AD5C2C",
"(  c #AA5528",
")  c #B35B2D",
"_  c #B65727",
"`  c #AB5B33",
"'  c #A85934",
"]  c #B25C32",
"[  c #B95C34",
"{  c #B24C22",
"}  c #B4622D",
"|  c #AA623A",
" . c #B66337",
".. c #B66934",
"X. c #DD4D02",
"o. c #D74E04",
"O. c #DC5102",
"+. c #D3540B",
"@. c #D95208",
"#. c #CC5414",
"$. c #C7571A",
"%. c #D25413",
"&. c #D65816",
"*. c #C74E0B",
"=. c #E24E01",
"-. c #E84E02",
";. c #E25102",
":. c #EB5301",
">. c #EB5A0B",
",. c #F45502",
"<. c #F55B03",
"1. c #FD5C02",
"2. c #F45D0B",
"3. c #FC5D09",
"4. c #F85505",
"5. c #EB5E13",
"6. c #EA5D1A",
"7. c #F35E12",
"8. c #D76217",
"9. c #F66104",
"0. c #FD6002",
"q. c #F4610C",
"w. c #FC610B",
"e. c #EC6315",
"r. c #E4641C",
"t. c #EB641B",
"y. c #E96718",
"u. c #F36213",
"i. c #F2631B",
"p. c #FB6616",
"a. c #F26711",
"s. c #C45B26",
"d. c #D65D24",
"f. c #CA5D34",
"g. c #E85F23",
"h. c #CA6429",
"j. c #D66428",
"k. c #C76838",
"l. c #D66D33",
"z. c #EA6522",
"x. c #E56827",
"c. c #FB6C25",
"v. c #FE7124",
"b. c #FE742C",
"n. c #FB792D",
"m. c #FD7C35",
"M. c #F67D3B",
"N. c #FD7C3A",
"B. c #F97833",
"V. c #E87237",
"C. c #8E5A47",
"Z. c #8A6553",
"A. c #B86D49",
"S. c #BA744C",
"D. c #BC7455",
"F. c #BC755A",
"G. c #BA7859",
"H. c #B06E50",
"J. c #B97A64",
"K. c #D87A49",
"L. c #C57757",
"P. c #D47950",
"I. c #EB7B44",
"U. c #F77E42",
"Y. c #EF7F51",
"T. c #C57E60",
"R. c #FD813C",
"E. c #F88139",
"W. c #EE833B",
"Q. c #B38167",
"!. c #DB8658",
"~. c #DC824A",
"^. c #ED844C",
"/. c #EB8447",
"(. c #F38345",
"). c #F2834B",
"_. c #F88547",
"`. c #EC8552",
"'. c #E68858",
"]. c #F58551",
"[. c #D28A66",
"{. c #E98D66",
"}. c #376C8A",
"|. c #3C7C9C",
" X c #367797",
".X c #357590",
"XX c #3D7CA3",
"oX c #377BA4",
"OX c #47768A",
"+X c #55768B",
"@X c #477B98",
"#X c #567B96",
"$X c #466A88",
"%X c #697887",
"&X c #447CA2",
"*X c #537EA1",
"=X c #3C859B",
"-X c #2F859E",
";X c #3C83A3",
":X c #3A86A9",
">X c #3F8AB1",
",X c #4C839C",
"<X c #46839A",
"1X c #54849B",
"2X c #5A859B",
"3X c #46909C",
"4X c #63859B",
"5X c #65889A",
"6X c #798694",
"7X c #4383A4",
"8X c #4D84A3",
"9X c #438BA4",
"0X c #4284AB",
"qX c #448BAC",
"wX c #4B8BAB",
"eX c #4D89A6",
"rX c #538AA4",
"tX c #538CAB",
"yX c #5887A6",
"uX c #4B92AA",
"iX c #5392AD",
"pX c #5C92AC",
"aX c #5498AA",
"sX c #478BB1",
"dX c #538DB2",
"fX c #5D8EB2",
"gX c #4D96B7",
"hX c #5493B4",
"jX c #5A95B3",
"kX c #5495B9",
"lX c #529BBB",
"zX c #5B9CBC",
"xX c #5898B6",
"cX c #668AA4",
"vX c #6692A9",
"bX c #639DBD",
"nX c #6698B6",
"mX c #789BB4",
"MX c #68A3B9",
"NX c #73A1B1",
"BX c #569AC1",
"VX c #4F96C0",
"CX c #679CC4",
"ZX c #729FC4",
"AX c #5CA2C1",
"SX c #67A4C2",
"DX c #74A8C7",
"FX c #80A1C0",
/* pixels */
"9XuXjXxXxXhXhXkXhXzXwXwX9X9XXX7X=X3XtXrXrXyX#Xx < 2 , , , 2 < # $ 6 2 3 3 2 , 6 x #X,X=X X|.<X<X.X=X<X8XeXwXdXdX9XwXeX8XyXdXtXuX",
"aXxXzXkXxXxXxXkXkXdXdXwXwX9X;X7X9X9X,XyX1X#X%X  X % % % % % o # # . X & X % % X @ %X1X,XeXrX,X8X9X3XtXeXwXwXqXqX9XwXwXtXdXjXiXiX",
"kXkXVXgXgXlXkXkXkXdXkXwXwX9XqXwX7X@Xb b b M B k E H H H H I j X * k ^ Y Y Y Y P ~ M v n n n OX@X|.|.@X7X;X=X;X7X7X7X0X0XsXdXdXwX",
"CXBXVXgXgXgXgXkXhXkXkXhXiXjXjXtXyX+X1 # # o r ] d.#.d.&.&.h.! X & H.V.6.t.y.y.j.k.e : # # $ +XrX@X8X8X8X|.|.;X;X7X7X0X:X0X0XqX0X",
"xXlXlXVXBXBXkXkXkXkXjXpXvXvXvXcX5X%X: > e ; y $.+.O.@.o.X.&.' % ; A.x.3.2.2.,.u.d.w ; > ; * S 2X4X4X4XyXtXwX0XqX7X7X0X:X0XsXsXqX",
"lXlXlXkXVXBXAXAXBXSXbXnX#Xx c 7 < g ! ) ( _ $.&.>.<.2.2.2.r.} & ; D.z.<.0.0.1.2.5.j.s.} h.A.g < 7 7 5 +XyXtX0XqXqXqXqXqXqXsXsXqX",
"lXlXBXVXVXBXzXxXiXzXiXvXA + o X X r _ +.+.@.@.u.w.1.3.3.2.t. .& ; A.z.1.1.1.1.1.2.u.u.u.e.j.e X . o   A #XwXqXqXwXwXqXsXsXsXuX9X",
"gXgXgXgXgXgXgXxXzXjXOXZ S h j d G F &.;.:.:.:.<.1.1.3.3.<.y.] & ; A.z.1.1.1.1.1.1.1.1.<.1.5.K G E j k N V }.;X;X0XqX>X>X>XsX9X9X",
"gXlXgXgXlXlXlXlXiXpXz @ h [ s.$.$.&.2.w.1.0.1.1.1.1.1.1.9.y.} & ; A.y.1.1.1.1.1.1.1.1.1.1.3.5.z.r.x.k.f + z @X X X:X;X:X:X:X:X:X",
"kXzXxXxXzXzXzXzXnXvX7 % s f.#.+.o.X.<.1.1.1.1.0.1.1.1.1.1.y.} & ; A.y.1.1.1.1.1.1.1.1.1.1.1.3.2.u.r.j.s % 6 +X<XwXqX0XsXsXhXgXqX",
"DXMXDXDXZXZXZX#Xz 7 ~ ( ^ s D $.e.,.1.1.0.1.1.1.1.1.1.1.1.y. .& - ..t.3.3.1.<.1.1.1.1.0.1.1.1.>.$.J D ] [ ! 6 z }.,X8XeXeXeXeXrX",
",X,X8X@X@X$X$Xv @ % R j.Y 0 0 _ x.u.4.1.1.1.1.1.1.1.1.1.1.y.] = -  .t.1.3.<.<.<.<.1.<.1.1.<.u.x.T q q s.x.s.%   V +X1X,X@X,X@X@X",
"hXiXhXdXfX#X%XN f D *.&.*.J J _ s.d.7.3.1.3.1.3.1.1.1.1.1.e.] = -  .e.1.1.1.1.1.1.1.w.<.p.y.h._ { F K d.t.&.J d N A +XyXyXyX1X1X",
"AXAXzXSXnXx @ j  .#.+.o.@.r.x.K q u t.3.<.1.3.1.1.1.1.1.1.e.) & =  .e.1.1.1.1.<.0.<.<.p.R.M.s 0 ( `._.z.7.u.z.k.l   x cXyXrXvXvX",
"lXlXAXAXnXz o j s.@.@.X.;.5.t.L q s x.e.q.9.1.3.1.1.1.1.1.e./ & =  .y.0.1.<.3.2.q.u.>.b._.'.a = Y (.M.i.7.2.7.l.l . c 5X5X2XcXcX",
"gXgXlXxXvXc X d $.O.O.O.;.q.p.@.T { F K @.q.<.3.1.1.1.1.1.e./ & =  .y.1.1.1.p.v.v.v.B.d.^ Q A.A.l.(.m.b.v.v.v.I.E . 7 5X5X2X2XcX",
"=XuXdXnXvX5 X G #.@.@.X.;.<.1.<.>.h.- = U u.<.1.1.1.1.1.1.e._ = & } y.<.1.<.v.N.n.R._.) & & !.).W.W.m.m.m.m.N.`.E X 1 5X2XyX2XyX",
"gXzXfX4X6Xg r H &.O.@.X.:.9.1.1.9.$.t % T e.<.1.1.1.1.1.1.e._ = = } t.<.w.u.b.R.R.B.].` X p K.M.E.m.m.N.m.N.U.^.' p M %X+X1XrXeX",
"fXnXZ $ : ! [ %.O.=.X.X.:.<.1.<.2.j.e % T u.<.<.<.3.3.1.1.e._ = - [ 6.p.b.m.N.N.m.E.(.] % t `.R.N.N.N.m.m.m.m.M.I.!.Q.o 1 b 8XXX",
"fXnXV # > / #.X.O.=.;.=.:.<.<.<.w.&.- = T z.e.2.<.1.1.1.1.y._ = = [ g.p.m.N.N.N.M.(.`.] & = I.N.N.N.N.m.m.m.m.m.R.^.T.% < b @X:X",
"hXMXZ # > ( &.X.O.;.:.,.,.<.w.9.<.e.U T Y Y U r.9.1.1.1.1.y.( = & A.V.b.B.m.m.E./.) / ]  .k.I._.N.N.N.N.E.m.m.m.m./.L.& # b <X X",
"MXNXA o e _ %.X.X.;.<.3.1.1.<.<.<.<.u.x.Y 0 w j.9.1.1.1.<.r.( & & S.).N.N.N.E.(.K.0 - | `.(.U.M.M.N.N.N.N.E.m.m.m.(.P.= O v 2X<X",
"4X6XB e y T &.X.X.=.4.1.1.1.1.1.1.1.3.z.W 0 u j.2.1.1.1.q.x.` & & D.(.m.m.N.E.).P.y = ' ].M.N.M.N.N.N.N.N.N.N.N.m.(.K.r t N %X+X",
"5 @ k [ $.#.@.=.;.=.,.1.1.1.1.1.1.1.<.t.W - u j.e.<.<.w.v.W.A.& % S.(.m.m.M.M.^.P.y = A.).B.E.m.N.N.N.N.N.N.N.N.N.N.I.P.[.Z.+ 5 ",
"< X I s.+.o.;.X.o.=.4.1.1.1.1.1.1.1.1.y.P 0 w l.r.p.3.3.v.(.S.& & L._.m.m.N._.^.!.0 = ` (.E.m.m.m.N.m.m.m.m.N.N.B.R.N._.'.! . 6 ",
"2 % P &.@.O.X.@.X.;.<.1.1.1.1.1.3.0.1.q.$.F Y R T &.2.2.b.].A.& = D.(.m.N.E.l... .' W K.(.m.m.m.m.m.N.N.m.m.N.N.N.m.m.M./.' X 6 ",
"2 X H &.o.O.X.;.X.;.<.1.3.1.1.1.<.0.1.<.e.x.h.i - P i.2.b.].S.& & D.).B.m./.P = a !.`.U.M.N.m.B.m.m.N.N.N.N.N.N.B.N.N.M.).' X , ",
"2 % H &.o.O.;.X.X.=.,.1.1.1.1.1.0.1.1.1.1.e.h.a = W t.2.m.).L.& & G.^._.E./.! & f !.I.M.N.N.N.R.m.N.N.N.N.N.N.N.R.R.N.M.^.Q X 6 ",
"2 % H %.o.X.X.X.X.;.<.9.1.1.1.<.1.1.<.1.<.u.j.y & W y.<.n.^.D.= & L.`.M.B.^.C.& s '.(.R.M.M.N.N.N.N.M.M.N.N.N.N.M.B.m.M./.Q X 3 ",
"3 X E h.#.&.#.#.#.%.8.y.y.y.e.t.y.y.t.i.e.x.k.y & ~ l.r.I.{.F.& & J.{.^.).'.C.% f [.`.^.`.`.].).).^.^.^.^.^.^.^.^./.).^.'.C.X 3 ",
"2 o h ! Q ( ' Q Q Q ' ` / ) ) ) / } ) ) _ | ! t X k | } A.J.Z.X % Z.J.F.D.G.B . p H.F.D.F.G.F.D.D.D.F.F.D.D.D.D.G.D.F.F.G.k o 2 ",
"# , * & - = = = = = = - = - - - = = - - - = & * , * = - = % X : : X % & & % % , * % & = & % & & % & & & & & & & & & % % % * O # ",
"$ O * & = = = = = = = = = = - - = = - - = = & * : * = - = % X O o o & = & % * , * % & & & & & & % % & & & & & & % & % & % * O # ",
"9 o h ! Q Q Q Q ( ( ` ` / / ] ) ) } ) ] ( | ! t % k | ) S.J.Z.X o Z.J.L.L.J.B . p H.F.D.D.G.D.D.D.D.D.D.D.D.D.F.G.D.F.F.G.k . 6 ",
"2 % E h.$.&.%.&.%.&.r.z.y.y.t.t.t.t.y.i.t.j.k.a & ~ V.g.).{.J.& % J.{.Y.).'.C.X f !.`.).].^.).).).).].].).^.`.^./.].).^.'.C.. < ",
"3 & H &.o.X.=.X.X.;.<.3.<.1.<.<.3.3.1.<.<.i.j.u = W z.2.m.`.D.& = L.Y.M.B./.C.% s ~.U.N.N.N.N.N.N.N.N.N.N.N.N.N.m.m.B.M./.Q X 3 ",
"2 % H &.@.X.;.=.X.=.<.3.3.1.1.1.1.1.3.3.1.e.h.y = W z.2.b.).S.& & D.^.N.N.).! % s ~.(.N.R.N.N.N.m.m.N.N.m.m.m.m.m.B.N.U.).' X 3 ",
"6 % H %.o.X.X.=.X.;.<.1.1.1.1.1.<.1.3.3.5.x.h.i 0 P t.2.b.].S.% % G.).B.N.).W = a !.].M.M.N.N.B.m.m.m.m.m.m.m.m.m.m.N.N.).' X 2 ",
"2 % H %.@.;.X.X.O.O.<.0.<.9.1.1.0.0.1.7.$.F Y T U @.q.q.b.).H.& & S./.E.N.M.l.k. .' ^ K.(.m.m.m.m.m.N.N.m.m.N.N.m.m.m._.^.Q X 2 ",
"< X I s.%.@.@.X.O.O.<.9.9.9.1.1.<.1.1.i.H 0 w l.t.q.9.2.b.).D.& & D.).m.m.N._.).!.0 = ` /.B.m.m.N.N.N.N.m.N.N.N.N.N.M.).'.! . 2 ",
"5 # k | { $.@.;.X.X.<.1.1.1.1.3.,.1.1.t.W - u j.5.3.3.w.v._.A.& & F.).m.N.N.N.).P.y & | /.B.R.N.m.m.m.m.m.N.N.N.m.R.(.K.[.Z.  8 ",
"cX6XN e y T +.X.X.=.<.1.1.1.1.1.w.<.<.z.W - u j.u.1.<.3.2.x.` = & F.).B.N.N.N._.P.y & | `.M.R.N.m.m.m.m.N.N.N.N.R.M.K.r t N %X%X",
"8XcXV o e ( +.X.=.=.4.3.1.1.1.<.<.q.u.x.P - w j.q.1.1.1.<.r.` - & D.].N.N.m.m.E.K.0 = | '.U.(.M.N.N.N.N.N.N.N.N.M.].L.& o M 5X1X",
"kXvXC # > / %.X.=.=.:.,.4.1.1.<.9.5.U T Y Y U 8.9.1.1.1.1.t.] - = A.I.b.m.m.m.R./.} ` | | [ (.N.N.N.N.N.N.N.m.m.M.^.G.* # V 2X8X",
"kXnXZ O > / #.O.=.=.;.=.,.1.1.<.2.&.0 - T z.t.u.1.1.0.1.<.t.] - =  .z.i.m.N.N.M.M.).`.' & - I.N.N.N.N.m.m.m.m.m.N.^.Q.% # b *X&X",
"dXnXZ $ > ! _ %.@.O.O.O.:.1.1.<.2.j.e % T u.3.<.1.1.1.1.<.t.` - - } t.p.n.m.N.N.N.M.).] X t `.N.N.N.N.m.m.m.m.N.(.!.Q.O 1 b &XXX",
"BXbXjX2X%Xg r H %.@.O.X.:.1.1.1.<.$.t & T e.<.1.3.<.1.0.0.y./ = - ] t.<.w.q.b.N.m.M.).` X p ~.m.N.N.N.N.m.m.N.).( p M A OX.X;X;X",
"SXSXMXnXmX6 X G $.@.o.X.:.<.<.q.e.h.- = U u.<.1.3.3.1.1.1.y./ = - ] t.<.0.<.v.R.m.m._.) % * ~./.W.E.N.m.m.m.N.).E X < 2XiX9X9X>X",
"3XaXpX4X5X7 X d $.@.X.-.-.w.q.+.R ( F K o.p.3.3.3.1.1.1.1.y.` = = / y.<.1.9.p.v.p.v.B.j.Y Q A...l.W.m.b.v.v.v.I.E . 7 +X@X7X@X<X",
"MXMXnXmXmX7 o l h.o.X.=.;.q.y.K 0 s x.i.p.<.<.3.1.1.1.1.1.y.` = - } t.<.1.<.<.<.3.2.5.B._.K.a = R /.N.i.2.7.5.l.l   z yXtXhXjXiX",
"bXDXMXDXFXc   l  .$.%.@.@.r.l.F q u t.2.1.1.1.1.1.1.1.1.1.y./ = - ) i.3.3.1.1.3.3.<.2.v.R.I.s 0 ( `.U.c.7.u.z.k.l + x tXhXqX;X=X",
"bXbXZXnXnX4X%XN h D U &.*.J J { s.d.u.1.1.0.1.1.1.1.1.1.1.t.( - 0 [ i.3.3.1.3.3.1.1.w.w.p.t.h.[ { F K d.6.&.D d N A $X7X7X;X:X-X",
"nXnXbXnXjXpX5XA   & { d.T q 0 [ x.u.4.1.1.9.1.1.1.1.1.1.1.t.) - - [ i.1.1.1.3.3.<.0.1.<.0.<.u.x.R 0 q s.x.s.%   V 2XeX0XsXsX;X:X",
"DXMXbXbXjXjXpXOXz 6 ~ ` W D D $.5.<.0.0.9.9.1.1.1.1.1.1.<.t.) - - ] t.1.1.1.1.1.1.0.<.1.1.1.1.2.#.J J [  .! 6 z }.eX7X0XsXsX0X:X",
"bXxXjXhXxXxXaXuXyX#X6 % s s.#.@.o.=.<.<.1.1.1.1.1.1.1.1.1.y.] - - } y.1.0.1.1.1.0.1.1.0.1.1.<.2.u.r.l.s % 6 +X|.0X0X>X>X:X:X:X:X",
"kXwXiXiXxXxXaXxXtXtXz   h  .s.$.$.&.u.w.9.1.1.1.1.1.1.1.1.t.] - = } r.<.0.1.1.1.<.1.1.1.1.3.t.x.z.l.k.f + z <X;X:X:X:X:X;X:X;X;X",
"wXiXiXhXhXiXwXuXqXwX@XZ N l j d d F &.:.:.:.:.<.<.1.1.1.<.y./ - = } y.1.1.1.1.1.<.0.<.1.1.5.Y G G E l N b }.|.=X;X;X;X:XoXoX X X",
"eXiXtXhXbXbXhXhXhXwXtX2XA   . * X r s.%.@.@.@.q.w.<.3.3.<.r.] - - } e.1.1.1.1.1.p.u.i.e.e.j.r X % .   V @X|.;X9X9X;X;XoXoXoX X X",
"tXpXjXbXDXDXbXnXjXxXjXyX+Xc 7 7 < g ! ) ( { $.&.2.<.2.2.2.r.' = - ) t.1.1.0.0.2.6.d.h.k.k.A.g 5 c c 5 Z ,X7XqXqX9X9X;X;X:XXXXXoX",
"pXpXtXtXdXfXnXnXjXMXpXvXvXcXcX5X5XS : e e 0 y $.+.O.X.X.X.#.Q = - ] r.<.2.2.2.e.j.i 0 e ; : A +X+X#XOX,X|.|.;X;X|.|. X X X X|. X",
"tXdXdXtXyX8X#X@XeX<X<X<X,X,X,X,X@XZ 1 @ , * e ) $.+.%.&.+.h.~ & = A.x.e.e.e.5.x.k.e o # # $ Z OX@X@X@X@X.X.X.X.X.X}.}.}.}.}.}.}.",
"CXCXbXnXbXbXbXSXMXMXnXnXjXjXpXiXpX1XZ C C V B k I F F P F I h * & l P Y Y Y Y ^ ~ B V m m m rXiXwXwXtXrXwXwXtXeXeXrXyXyXeX8X@X@X",
"eXtXtXtXpXtXtXtXrXrX8XdXeXtXeXeXtX8X1X2X2X4X%X+ X % % % & X o # , o . X X X % X + +X1X@X,X,X7X7X;X;X;XXX&XXX7X7X7X7X@X@X X X X X",
"rXtXiXiXtXtXdXdXtXrXyXdXyXfXyXtXeXeX8XeX<X,X#Xx < 2 2 3 3 2 < # < 2 2 6 2 3 3 4 x OX@X=X|.&X7X|.oX XoX XXXXXXXXXXXXX|.|. X.X.X.X"
};
