/* XPM */
static char *cf306a11a9d211e1e2eefb277d0f5cdd0a0b3722_o[] = {
/* columns rows colors chars-per-pixel */
"64 64 256 2 ",
"   c #080417",
".  c #3D0903",
"X  c #3E0604",
"o  c #360518",
"O  c #29181D",
"+  c #1C1A29",
"@  c #1A0E3A",
"#  c #14133C",
"$  c #1B123D",
"%  c #1B1C3C",
"&  c #161838",
"*  c #0F0E2E",
"=  c #2C1629",
"-  c #251A2C",
";  c #2A1A2B",
":  c #291727",
">  c #321727",
",  c #220E35",
"<  c #231C3C",
"1  c #271835",
"2  c #381A36",
"3  c #390921",
"4  c #1B213E",
"5  c #282438",
"6  c #362938",
"7  c #352B2D",
"8  c #410A08",
"9  c #490C13",
"0  c #4A1411",
"q  c #521928",
"w  c #731A2A",
"e  c #751826",
"r  c #631635",
"t  c #71102A",
"y  c #5D282C",
"u  c #472239",
"i  c #5D2633",
"p  c #5D2934",
"a  c #542B3D",
"s  c #5C2B3B",
"d  c #552735",
"f  c #44353B",
"g  c #58343D",
"h  c #53372B",
"j  c #64262D",
"k  c #632A2D",
"l  c #672829",
"z  c #6B332C",
"x  c #663328",
"c  c #632632",
"v  c #692632",
"b  c #642933",
"n  c #6B2C35",
"m  c #642B39",
"M  c #67293A",
"N  c #6B3234",
"B  c #6C323B",
"V  c #66363A",
"C  c #713139",
"Z  c #742F2B",
"A  c #632A18",
"S  c #574339",
"D  c #69523D",
"F  c #0E1B45",
"G  c #0E194B",
"H  c #131542",
"J  c #1A1140",
"K  c #141B46",
"L  c #1A1B44",
"P  c #141B4A",
"I  c #1A1C4A",
"U  c #131549",
"Y  c #131D52",
"T  c #191E52",
"R  c #231A43",
"E  c #3D1841",
"W  c #1B234B",
"Q  c #182147",
"!  c #162254",
"~  c #1C2353",
"^  c #1C265B",
"/  c #1C295D",
"(  c #182558",
")  c #0F204B",
"_  c #24244B",
"`  c #282647",
"'  c #382A44",
"]  c #383448",
"[  c #212452",
"{  c #242A55",
"}  c #21265C",
"|  c #232A5C",
" . c #2A2B56",
".. c #373658",
"X. c #313155",
"o. c #1C2661",
"O. c #1B2961",
"+. c #172661",
"@. c #222B62",
"#. c #242A64",
"$. c #2B336A",
"%. c #591645",
"&. c #571844",
"*. c #4E1B46",
"=. c #462B45",
"-. c #582C41",
";. c #473946",
":. c #4A384D",
">. c #693542",
",. c #713342",
"<. c #574746",
"1. c #494358",
"2. c #554B57",
"3. c #564C50",
"4. c #68504E",
"5. c #796759",
"6. c #554F65",
"7. c #7B6B64",
"8. c #776D75",
"9. c #645862",
"0. c #8A121C",
"q. c #9A0926",
"w. c #86152C",
"e. c #871333",
"r. c #8D112E",
"t. c #A50425",
"y. c #B41D3B",
"u. c #B81E3B",
"i. c #B21232",
"p. c #892432",
"a. c #B2203D",
"s. c #AA273B",
"d. c #DB1539",
"f. c #CC183F",
"g. c #EC163E",
"h. c #E6163C",
"j. c #F1153E",
"k. c #F01A3E",
"l. c #D32A38",
"z. c #E0243C",
"x. c #CB4D3F",
"c. c #B42D4B",
"v. c #DC1D44",
"b. c #CC1E4F",
"n. c #EE1641",
"m. c #E31D43",
"M. c #EB1B43",
"N. c #E71846",
"B. c #F21542",
"V. c #F11944",
"C. c #C6274C",
"Z. c #DB2247",
"A. c #DC3644",
"S. c #CB2450",
"D. c #C42554",
"F. c #D03C4B",
"G. c #E22A47",
"H. c #8B5448",
"J. c #89524C",
"K. c #8A6652",
"L. c #A57755",
"P. c #867368",
"I. c #8E726E",
"U. c #AD7B6F",
"Y. c #AA5F4A",
"T. c #D66B5C",
"R. c #E8675C",
"E. c #D27A6C",
"W. c #E96F60",
"Q. c #998778",
"!. c #87827F",
"~. c #B5856A",
"^. c #AA8A76",
"/. c #B38C75",
"(. c #B39273",
"). c #BF8C5F",
"_. c #CC9E5E",
"`. c #CCA25D",
"'. c #C89769",
"]. c #C79674",
"[. c #CF9673",
"{. c #FA9A7B",
"}. c #EC8F71",
"|. c #CEA364",
" X c #D2A465",
".X c #D3A569",
"XX c #D6AA6A",
"oX c #DBAC6D",
"OX c #D8A769",
"+X c #DCB16D",
"@X c #D7B564",
"#X c #CAA778",
"$X c #D7AB73",
"%X c #DDAD72",
"&X c #DCAC7B",
"*X c #D5AA7A",
"=X c #DEB273",
"-X c #DDB47A",
";X c #DAB678",
":X c #E3AB6E",
">X c #E1B36E",
",X c #E2AE73",
"<X c #E3AE7B",
"1X c #E9AA79",
"2X c #E3B475",
"3X c #E9B475",
"4X c #E4B975",
"5X c #E4B57A",
"6X c #E9B67B",
"7X c #E4B97B",
"8X c #E9BA7B",
"9X c #E8B876",
"0X c #F8AA7E",
"qX c #787188",
"wX c #887A82",
"eX c #998986",
"rX c #9C9196",
"tX c #AA9689",
"yX c #A89897",
"uX c #AE9588",
"iX c #B8A79A",
"pX c #B8A38B",
"aX c #9D92A1",
"sX c #CF9C87",
"dX c #FE9C83",
"fX c #CAA889",
"gX c #D3AC83",
"hX c #D7AB88",
"jX c #CEB28B",
"kX c #DCB484",
"lX c #DCB48A",
"zX c #DBBA8C",
"xX c #D5B487",
"cX c #C8AB92",
"vX c #CAB29A",
"bX c #D4B494",
"nX c #D2B49A",
"mX c #D9B894",
"MX c #D4AA95",
"NX c #E5AC84",
"BX c #F7A986",
"VX c #E4B683",
"CX c #E4B983",
"ZX c #E6B888",
"AX c #EBB98D",
"SX c #C7B4A9",
"DX c #D2BAA1",
"FX c #D2ADA1",
"GX c #E4BEAA",
"HX c #E7D094",
"JX c #EED7A9",
"KX c #F2D7A9",
"LX c #F7DAB7",
"PX c #ECCCAE",
"IX c #F6E2AD",
"UX c #FCD8C0",
/* pixels */
"+X4X8X5X;X=X2X9X=X5X%X=X=X2X2XoX@X@X2X<XoXXX%X,XoXoXXXoX+XoX$X#XjX5._ ^ ^ / ( ~ ;.DX#X=X>X>X2X%X.X4X%X%XoX X<X&X%XoXoXoXoX%XoX2X",
"+X4X7X5X-X=X9X5X8X7X%X5X7X7X5X-X-X;XCXZX-X-X5X5X8X8X2X2X7X7XCXgXvX7._ #.O.O.#.[ <.DX;X2X4X9X8X,X7X7XCXVXkX-XVXZX5X7X9X5X5X8X5X8X",
"=X7XVX5X5X=X5X5X5X7XoX-X-X-XzXjXjXbXbXbXbXgX-X9X9X9X2X2X5X5XlXbXSX8._ | ^ ^ #._ <.DX*X5X5X5X5X-XgXzXmXbXbXjXbXbX-X7X2X5X5X7X5X7X",
"=X7XVXVX5X=X5X6X9X7X=X-X-XxXpX5.P.P.P.P.7.K.*X7X9X7X2X=XCX#XK.7.8.1._ / / / @._ <.nX*X2X5XVXVXkX/.K.P.P.P.P.7.I.zX7X5X5X5X7X5X7X",
"oX7X5X7X5X=X5X8X5X7XoX-X-XmXeX7 ] ` _ _ % 6 fX7X5X7X=X;XmXtX: * * I / / O.^ }  .<.nX-X=XCX5X7XxX7.5 Q % 4 < & ;.bXZX,X5X5X5X5X7X",
"oX7X7X7X5X%X5X5X9X8XoX-X-XmXyX` ..$.@.O./ ] cXzXkXCX-X;XbXtX5 Q I ^ ^ / / ~ _ 5 S mX$X%XVXZXkXnX8.{ / / $.@.T 1.DXZX,X2X9X9X7X7X",
"oX4X2X7X5X%X5X5X8X8XXX=X5XmXrX` | ^ o.O.( ..iXnXmXlX-X-XzXtX< K K ~ ( ^ Q ..:.f 4.zXXX=XzXmXnXSXqX_ | / ! / ~ :.nX7XoX2X2X2X7X;X",
"oX8X2X7X5X%X5X5X5X8XXX=X5XmXrX .| @.o.O.o.~ 2.<.S K.*X$XzXuX- I K P ! H 5 rXSXbXbXZXoX-XfXD 4.2...W | / / ^ ! :.bX7X+X2X2X9X7X7X",
"OX6X5X7X-X%X;X;X=XCXXX5X=XmXrXQ { @.O.O.O.^ *     <.gX&XlX^.1 I F P P # 5 yXnXzXkXCXXXkXpXO   * K @.o.o.O.@.T :.jXHX+X=X2X3X5X7X",
",XCX5XkXxXgXzXzXZXZX$X5X5XzXeX- ` _ ~ / ( ( ! Q ` 2.nXxXbXuX< P P F K L 1 yXnXzXlXZX*XcXiX5 Q I ^ / ^ | [ ` ` f mX7X$X=X9X9X6X2X",
"oX5XZXjXpXpXiXvXvXbX#X&X5XZX(.S 4.9.X.~ ^ ^ I I & 6.iXcXSXeX& I F P ! P R aXSXvXvXvXpXSXaX% I P Y / ( _ 2.3.3.5.lX7X$X=X6X9X8X4X",
"oX5XgXD 7 <.] ;.;.g K.hX-X5XAXjXcXSX6.L I G K K # % 6 6 6 5 # P I ! ^ } [ X.] 6 6 7 7 7 5 % K P I P K % yXcXnXbXCX8XoX=X5X2X4X>X",
"oX-XjX<.+ W W { L ' 5.cX*X$XCX*X*XnX2.& Q F K K P K # # H H I K H ~ / / @.~ ~ W Q & * & # F K F K K % 5 (.gXgX#X=X4XXX%X%X2X4X4X",
".XkXcX3._ / O.o.$...9.SXnXjXzXgXgXnX9.& Q P P P G P T T Y Y P K I ~ ^ ^ ^ O.+.O./ G W P P P F K P P I - tXfXmXgXxXzXgX-X%XoX2X4X",
"oXkXcX9.X./ ^ O.#.~ 6.yXyXtXyXtXtXyX6.I I ! Y ! ( P I H F ) P P P Y / / ( @.O.O.o.Y U P Y F I P P I F % wXeXtXtXtXtXuXuXZX2X5X2X",
"XXkXnX4.X.@.^ / o.^ Q % 5 - - - + 5 I [ / O.^ o.o.^ K L ) F P P Y ! / ( / ! / / ^ Y P I P P K P G P P # % 5 6 6 6 6 7 <.gX2X7X5X",
"@X;XnX9.` | #./ ^ @.~ K % < & 4 % K ~ } / / o.o.o.( P P F P G P G ! / ( ^ ^ / / ( Y G P P P P K F F P I # _ ` < ` X.% <.lX%X7X=X",
"@X;XbX4.6 ] ` [ } / ^ ! K H K F F ) ! ^ / ^ o.o./ ( Y I P P K P P ! ^ ^ ^ ^ ^ ^ ~ P P P P P P P Q K [ I P Q { W ~ { L 2.nXZXzXzX",
"+X7XlX(.^.eXeX' I Y Y Y P H P P P P ! ^ / / / / / ( P P F P K P P Y ! T Y T T T Y I P P P P P P H [ { { [ ~ ~ | / ( I ..wXI.I.tX",
"=X5X-XCXxXjXSX6 # ! Y G P K P U K P ~ ^ / / / / / ( P P F P P P P P P P P P P P P P P P P P P P P ~ W Q { { { ! ( O./ [ _ < 5 8.",
"5X2X%X5X-XgXvX7 * H G P P P I P G P ! / / / } } / ( I P P P P P P P P P P P P P P P P P P K K P P P W ~ W K Q Q ( / / } @. .` qX",
"5X5X2X7X=X;XjXh > ] ` H K I U I P P ! ^ ^ ^ ^ } ~ ~ I I K P P P I K P P P P P P P P K K K K K K P P Q _ ` 6 5 5 W ^ ^ ^ o.| ` qX",
"=X2X%X,X%X%XkX#X#XvX!.5 % I P P P P I I I I I I I I K I K P K K K K L K K K K K K K K K L K L K P P K 5 eXfXcXyX..^ ^ ^ / | ` qX",
"2X=X,X5X2X%X2X+X=XzXQ.; < L I I I I I I P I I I I I L R I I L I I I I I I I I I I I I I I I I I I I L ' uXhXkXcX] W | | | { ` qX",
">X2X2X6X5X%X5X2X%XZXQ.: + L # H # H H H H # # $ # $ @ $ @ $ @ $ $ $ $ $ J $ J $ J $ J J J J J J @ R @ = ^.*XkXcX6 _ ~ { { _ ` qX",
"2X2X,X5X5X%X2X=X5XZX^.h f :.=.2 E E E E 2 2 *.&.&.&.&.&.&.&.%.%.%.%.%.%.%.%.%.%.%.%.%.%.%.%.%.%.%.%.%.M ].$X5XgX4.;.1.1.1.2.;.I.",
"9X=X=X7X2XoX+X+X2X5X-XgXhXMXU.w e.e.t t e.r.c.D.D.S.S.S.C.S.S.b.S.S.S.S.S.S.S.S.S.S.S.S.S.S.S.S.C.C.C.c.}.,X2X%XhXmXjXnXbXjXhXZX",
"7X=X=X7X2X+X>XoX5X6X%X2X,XNXE.0.q.q.q.q.t.t.v.N.M.n.V.B.n.V.B.B.B.B.B.B.B.B.B.B.B.B.B.B.V.V.V.V.k.k.m.A.}.:X,X:X5XCX$X-X&X5X6X3X",
"5X=X%X2X2XoX2X%X<XVXOX,X%X1XE.0.q.q.q.t.t.t.v.N.M.n.B.j.g.g.j.j.B.n.n.n.n.n.n.n.n.n.n.n.n.n.n.n.n.n.h.A.}.:X,X%X=X=X%X%X&X-X=X2X",
"5X5X2X5X2XoX9X2X5XVXoX2XoXNXE.0.q.q.q.t.t.t.f.f.d.d.V.B.j.j.j.j.j.B.B.j.B.j.j.j.j.j.j.j.j.j.B.B.B.V.g.l.}.1X<X2X=X8X,X2X=X=X7X=X",
"%X,X%X%XoXoX=XoXoX5XoXoXoX1XT.0.q.q.q.t.t.q.t.t.t.i.h.g.j.B.g.g.B.B.B.j.B.j.j.j.j.j.j.j.j.j.B.B.B.B.g.z.}.:X,XoXoX%X%X,X,XoX2XXX",
"OX2X,X2X=X+X2X2X9X2X+X2XoX1XE.0.r.r.q.q.q.q.q.q.q.i.v.M.n.g.M.M.g.g.g.g.g.g.g.g.g.g.g.g.g.n.g.n.M.N.M.A.}.1X6X9X5X2X5X5X2X:X2XoX",
" X2X2X2X2X2X6X8X2X9X4X=X+X<XE.e w.w.e.e.r.r.q.q.q.i.Z.m.m.m.Z.Z.v.v.m.m.v.Z.Z.Z.Z.Z.v.m.m.m.v.Z.v.Z.Z.F.{.6X6X6X5X5X7X7X6X9X8XXX",
"`.2X2X2X2X%X,X5X2X2X=X=X=XZXU.q r r r r r t w.w.e.r.a.y.y.y.y.y.a.y.u.u.y.y.y.y.a.a.y.y.y.y.y.a.a.a.s.s.}.6X5X5X5X5X4X4X6X6X7XXX",
"`.2X2X2XoXoX%X2X>X>X+X=X=XlXU.o , , , , , = d M M r w w w w w w w w e e e w w w w w e e w w w w e e e Z '.5X7X5X5X5X2X2X5X9X7XXX",
".X4X2X9X9X2X2X2X2X2X2X2X5XlX^.= _ I I Q H < =.s s p c k c i m p s p c j b b b b c k c j m s s p c v l Z '.-X-X5X5X5X9X5X5X5X7XXX",
"|.=XoXoXoXoXoXoXoXoXoX%X$XhXI.+ L P P P H < -.m i b j k b b s a a s b j v v c v b j v b m a a a i v v z '.-X$X=X,X2X2X2X=X=X=X X",
" X5X2X9X2X2X9X6X9X4X9X5X<XmXeX+ Q K K I K < -.c j b j b c p u 2 u a m c v M M M v j j c d 2 2 2 d m c z ].CX5X7X5X5X9X9X5X5X7XXX",
".X2X=X2X9X9X3X2X2X2X9X5X<XmXQ.+ % K K P P R -.m m b b m m a < R < =.s c c c M b b b c s u , $ , u m c z ].VX-X5X5X5X4X5X7X5X8XoX",
"'.5X5X2XoXoX:X9X+X=X2X5X<XmXQ.+ 1 % H P P R a m m c i c s =.R { ` :.>.M b b c b j k c -.=.$ L $ u s m N ].CX-X7X5X7X4X7X7X5X8XoX",
" X5X5X2X2XoX2X2X%X=X2X2X,XlXQ.O ; < L K I R a c c b i p >.=.H ~ ` =.g b j v b c j k c a =.* K & 6 a p N ].kX5X7X5X2X2X2X5X5X6XoX",
"|.=XoXoX=X=X%X%X%X=X=X%XoXkX^.h -.=.` H K , s b c b y y V =.* P ` =.g j j v v v v k i a =.& K # 6 a i z ].&X$X%X2X2X=X=X=X,X2X.X",
"|.=X%X%X%XoX%X%X,X%X%XoXoX&X~.y s -.` L L < a c c c p p g ;.& ~ < ' s i c v j j k b i -.=.$ I $ u s c N ].5X,X2X2X2X=X=X=X=X5X.X",
"OX5X5X5X4X7X6X6X6X5X7X4X2X5X~.k b a 2 , , 1 d c c m B V V a < ` 1 =.-.M c c v n j k m -.=., $ @ u p c z ].VX6X6X6X8X7X7X7X5X7XoX",
" X5X2X9X2X=X2X5X,X2X5X2X>X<X~.k b s u 2 2 u d i m m n m >.a 2 6 > u s v v c c j k j c s a 2 2 2 d m c z ].CX-X5X5X5X5X5X7X5X8XoX",
"'.5X5X2XoXXXoX2XoX%X=X2X:X<X~.k j c s s -.s m c m B b c ,.s a a a s v c j b v j k j c v p s a a p m k z ].CX-X-X5X5X9X2X5X5X5XoX",
"OX5X2X9X2X2X9X2X2X2X2X2X3XVX~.k n b c m m m >.B m B n v ,.m i i b b M C B n n n N N C n c n m i c b c x '.5X-X7X5X5X6X5X7X7X7XoX",
"|.=X%XoXoXoXoX%X%X%XoXoXoX&X~.x l l j M M m ,.B b b B n b c k k k 9 X 8 8 . . . . . . X 9 j j k c b k x '.&X$X=X=X2X,X,X=X=X2X.X",
"|.2X2X2X9X9X9X3X,X6X7X2X2X5X'.L.L.L.J.C n c v n B B v c c j b b 8 L././././.(.(.(.(.(.(.U.q b c c b k x ].VX5X7X5X5X5X5X5X5XCX$X",
" X2X2X2X9X9X2X2X8X6X2X2X5X5X5X%X;XkXK.n n B n n B B b c j j b N 8 fXUXLXLXLXIXKXKXLXKXLXFX9 n b b k k x ].VX5X7X5X5X9X9X5X5XCX$X",
"_.2X9X2X%XoX%X2X,X%X=X2X5X5X5X5X$XNXH.B B N B B b b c c m c c N X fXLXPXJXJXJXHXJXJXJXLXMX. n c b y k x ].CX5X7X5X5X9X9X9X5X8XXX",
" X9X2X2X=X=X2X2X,X2X2X2X2X5X2X%X2X&XH.x x y k N j j c m b c c N 8 fXLXJXKXKXJXJXJXKXLXLXFX8 b k k x l z '.5X5X5X5X5X9X4X9X5X8XXX",
" X2X%X%X=X=X%X,X2X2X=XoXoX%X,X2X+X=X.X'.].].J.k c k j j j j b N . fXLXJXKXKXKXKXPXU.U.U.I.q n l L.].].].&X%XoX=X=X=X=X2X2X=X5X.X",
"_.,XoX%X%X%X%X,XoX%XoXoXoXoXoX+X+XXX%X$X&XNXH.q c c j v v j b N 8 sXLXJXKXKXKXLXGX8 . 9 8 c v z U.ZXhX&X%X=X+X=X=X=X=X=X=X=X5X.X",
"OX9X2X2X7X7X5X5X5X8X4X2X9X8X2X2X=X2X2X5XNXNXH.q b b j j b b b n 8 fXLXJXJXJXJXLXPXx z N B v j Z ~.ZXVXCX7X8X7X8X5X5X5X7X5X5X8XXX",
" X9X2X2X=X=X2X5X2X2X2X9X9X9X=X=X,X2X5X%X<XAXH.A z N b c c c b n X sXLXPXJXKXKXLXGXy k j j z Z A ).5X5X7X5X5X2X5X5X5X5X5X5X9X8XXX",
"_.2X9X2XoXOXoX2XXX%X2X2X2X2X2X2XoXoX=X=X,X&X*X[.gXsXz b m m i c y 4.J.J.J.J.J.J.J.n k j K.hXhX&X&X5X5X2X2X5X5X5X2X2X5X5X2X2X7XXX",
" X2X2X2X3X6X9X2X5X5X2X2X9X2X2X,X2X9X9X9X5X6XZXZXAXsXz i c m c c m q 9 9 0 9 9 9 q c n l K.ZXVX-X=X2X2X2X2X5X5X5X5X5X5X5X5X5X7XXX",
"`.oXoX,X:X,X%X%XoX%XoX%X,X,X1X1X,X:X:X:X,X,X,X<X&X].z b m m c b i m b n n b m m b v v l H.hX&X%XoXoXoXoXoX%X%X%X2X=X5X5X-X%X5X.X",
" X2X2X2X2X2X9X2X5X6X5X5X<X1XBX{.{.{.{.{.{.{.dXdXBX[.k d d i i p d d d d d d d p v p.p.p.Y.NX5X5X5X2X4X4X7X5X5X7X5X5X5X5X5X5XCX$X",
".X5X2X5X9X9X9X9X9X5X5X5X<XBX}.x.A.A.A.A.A.A.G.A.F.c.o = > > = > > > > > = = > 3 t c.C.l.T.BX1X6X5X5X9X4X5X5X5X5X9X9X5X5X5X2X7XXX",
"_.2X2X2XoXoX+X2X,X,X2X<X<XBXW.l.d.h.d.d.h.h.h.v.v.c.o ; ; : : : = > ; - - ; ; 3 t C.v.l.R.BX1X5X5X5X9X9X5X5X5X5X4X4X7X7X5X5X8XoX",
".X5X9X9X=X=X=X2X:X,X5X<XNXBXW.l.M.V.m.m.M.M.M.M.G.c.o - : = ; : = = - 1 : : ; 3 t C.M.z.T.BXAX5X5X5X4X4X5XCXCX7X2X2X5X5X5X5X7XXX",
" X2XoX+X=X=X+XoX,X,X%X.X[.}.R.l.k.j.d.d.d.h.d.d.d.a.o ; : ; : : = = - - - ; ; o t C.M.d.T.}.[.'.$X%X+XoX%X%X%X%X2X>X2X2X2X2X5XXX"
};
