/* XPM */
static char *e44529f363bf00c512538d49900c32c49ec31d25_o[] = {
/* columns rows colors chars-per-pixel */
"64 64 248 2 ",
"   c #040400",
".  c #0D0200",
"X  c #010A00",
"o  c #0B0A00",
"O  c #140100",
"+  c #1B0000",
"@  c #180A00",
"#  c #001300",
"$  c #1B1407",
"%  c #260400",
"&  c #291A02",
"*  c #331904",
"=  c #152508",
"-  c #272703",
";  c #32230A",
":  c #372506",
">  c #3B3402",
",  c #2C3013",
"<  c #401C00",
"1  c #462D04",
"2  c #4A3617",
"3  c #583B14",
"4  c #553E21",
"5  c #463D2C",
"6  c #732211",
"7  c #394C15",
"8  c #544D16",
"9  c #68450E",
"0  c #554323",
"q  c #574627",
"w  c #46572A",
"e  c #515B31",
"r  c #6D5C2B",
"t  c #715A2A",
"y  c #6A5734",
"u  c #745D3B",
"i  c #765C35",
"p  c #654D21",
"a  c #576738",
"s  c #587339",
"d  c #526530",
"f  c #736337",
"g  c #6B6D3B",
"h  c #5B6D42",
"j  c #7A6846",
"k  c #767B45",
"l  c #9B4933",
"z  c #97763A",
"x  c #8D6F38",
"c  c #896B42",
"v  c #956D42",
"b  c #8D7443",
"n  c #8C7546",
"m  c #937345",
"M  c #92754B",
"N  c #9A794A",
"B  c #8E7850",
"V  c #9D7C54",
"C  c #997751",
"Z  c #A27D4D",
"A  c #CE6E53",
"S  c #D87663",
"D  c #E17767",
"F  c #6F843E",
"G  c #6D8D4C",
"H  c #7DAC5A",
"J  c #7AAA56",
"K  c #7CB158",
"L  c #7BA164",
"P  c #9C8246",
"I  c #9B8859",
"U  c #99945D",
"Y  c #84914E",
"T  c #A3814A",
"R  c #A58658",
"E  c #BB9857",
"W  c #AE9154",
"Q  c #81AB5A",
"!  c #84BC5D",
"~  c #83BA55",
"^  c #92A55A",
"/  c #9E8C60",
"(  c #999168",
")  c #8C9D66",
"_  c #B28F63",
"`  c #A89467",
"'  c #B7986A",
"]  c #BD9B73",
"[  c #AA8960",
"{  c #86A865",
"}  c #94A76B",
"|  c #86B363",
" . c #86BB61",
".. c #8BB967",
"X. c #93B969",
"o. c #93B873",
"O. c #97A977",
"+. c #AEA66F",
"@. c #BDA269",
"#. c #B9A776",
"$. c #A9AA75",
"%. c #D58458",
"&. c #CC9D5E",
"*. c #D39D5A",
"=. c #E1815B",
"-. c #C6A45C",
";. c #D2A059",
":. c #C69E65",
">. c #D19E61",
",. c #DD9160",
"<. c #C29E74",
"1. c #D3866A",
"2. c #E58565",
"3. c #EF9E7F",
"4. c #C9A667",
"5. c #D4A466",
"6. c #D6AB66",
"7. c #D4A56A",
"8. c #D6AA6C",
"9. c #DBAC6D",
"0. c #DAA767",
"q. c #DCB26E",
"w. c #D8B469",
"e. c #C9A978",
"r. c #D6AC73",
"t. c #DCAE72",
"y. c #D4AE7B",
"u. c #DDAE79",
"i. c #D2A770",
"p. c #CBB675",
"a. c #D5B275",
"s. c #DDB273",
"d. c #D4B47C",
"f. c #DCB37B",
"g. c #DBBA7B",
"h. c #D9BB78",
"j. c #C8B16D",
"k. c #E1AE6D",
"l. c #E6AA68",
"z. c #E2B26E",
"x. c #E5BD6D",
"c. c #E1AF73",
"v. c #E8A976",
"b. c #FCAD7A",
"n. c #E3B475",
"m. c #E9B575",
"M. c #E5B976",
"N. c #E3B875",
"B. c #EABB74",
"V. c #E2B279",
"C. c #E2B679",
"Z. c #E4B67B",
"A. c #E6B679",
"S. c #E5B67D",
"D. c #E4B679",
"F. c #E8B67D",
"G. c #E9B57B",
"H. c #E5B97A",
"J. c #E6B97D",
"K. c #E6B97B",
"L. c #E8B879",
"P. c #E9BA7C",
"I. c #FFBF7E",
"U. c #89C15F",
"Y. c #8AC364",
"T. c #8CC965",
"R. c #8EC668",
"E. c #8ECA6A",
"W. c #93CB6C",
"Q. c #92C869",
"!. c #98D06E",
"~. c #95CC73",
"^. c #99CE72",
"/. c #99C879",
"(. c #9BD175",
"). c #9CD47C",
"_. c #A5D87B",
"`. c #B4D07E",
"'. c #ABCD7B",
"]. c #D3C17B",
"[. c #EBC56E",
"{. c #F1CD6D",
"}. c #EAC274",
"|. c #EBC973",
" X c #E5C27B",
".X c #E9C57A",
"XX c #F5C576",
"oX c #F5CC75",
"OX c #FBCE76",
"+X c #F4CD7B",
"@X c #FCCE7B",
"#X c #F7C47A",
"$X c #FCD176",
"%X c #F6D07E",
"&X c #FCD17B",
"*X c #F8D377",
"=X c #BFB18E",
"-X c #CBB684",
";X c #D5B482",
":X c #DCB583",
">X c #DBBA83",
",X c #DCBB8B",
"<X c #D4B987",
"1X c #CAB08B",
"2X c #E3B682",
"3X c #E5BA82",
"4X c #EBBB81",
"5X c #E9B787",
"6X c #FEBD84",
"7X c #FBBA8C",
"8X c #FFB48F",
"9X c #AADC83",
"0X c #A8D986",
"qX c #B3D289",
"wX c #B4E18D",
"eX c #DAC386",
"rX c #D8CA97",
"tX c #CAC993",
"yX c #EBCB85",
"uX c #E7C686",
"iX c #FFC284",
"pX c #F3CD85",
"aX c #FDCE81",
"sX c #F2CE8C",
"dX c #FDCD8C",
"fX c #FFC18A",
"gX c #F6D282",
"hX c #FCD282",
"jX c #F4D28C",
"kX c #FCD48A",
"lX c #FEDA8B",
"zX c #FCD985",
"xX c #E6CA94",
"cX c #F6CD92",
"vX c #FFD692",
"bX c #FDDC93",
"nX c #F6D494",
"mX c #EDD490",
"MX c #FDE296",
"NX c #FDE18E",
"BX c #E2D2A6",
"VX c #FFEAA2",
"CX c #FEECA9",
"ZX c #F9E3A6",
"AX c #FAE8B4",
"SX c #FFF1B7",
"DX c #DAC7A6",
"FX c #FFF4C0",
/* pixels */
"s.H.K.H.D.D.D.K.C.C.8.s.f.D.V.t.w.w.q.q.t.8.t.t.t.9.6.9.q.q.s.6.q.N.L.F.V.Z.D.H.s.H.r.f.S.f.s.q.w.z.s.u.u.r.u.t.t.t.9.t.t.t.9.s.",
"s.H.H.D.D.C.D.D.J.K.s.s.D.Z.Z.n.N.N.K.K.D.s.Z.Z.K.M.C.C.K.K.H.s.s.N.F.Z.V.V.C.N.s.H.t.Z.2XZ.K.s.n.M.J.Z.2Xf.3XJ.F.J.Z.Z.Z.F.Z.F.",
"t.K.K.Z.D.s.D.D.H.H.s.C.D.K.Z.V.V.V.Z.Z.n.9.C.C.D.D.s.n.Z.n.Z.s.s.Z.F.G.V.n.n.M.C.K.9.n.L.Z.F.V.s.D.C.D.D.t.D.C.C.K.n.D.D.Z.D.J.",
"t.K.Z.Z.D.s.D.Z.H.H.9.s.D.D.Z.V.V.5XF.F.Z.9.n.L.Z.J.V.Z.Z.Z.L.n.f.Z.Z.F.V.n.Z.J.Z.K.9.n.m.n.F.V.V.J.K.K.D.t.M.M.M.K.s.D.Z.J.Z.3X",
"9.L.Z.Z.D.f.D.J.D.J.9.C.D.D.K.D.s.Z.Z.Z.n.9.n.m.Z.L.n.V.Z.D.J.s.s.H.Z.L.Z.n.Z.J.J.J.9.n.m.n.J.V.s.Z.Z.K.C.9.C.C.N.N.s.s.D.K.Z.Z.",
"9.L.Z.J.D.t.D.K.D.J.9.C.K.C.K.C.s.K.D.K.n.9.n.L.L.L.n.V.Z.Z.J.C.s.H.n.K.n.s.D.J.Z.J.9.n.n.K.J.D.t.Z.Z.K.n.9.M.K.K.K.q.s.K.K.J.J.",
"9.Z.D.J.Z.t.D.D.Z.F.8.s.n.n.L.n.9.n.n.M.n.6.n.n.K.J.t.n.D.n.M.q.q.n.C.L.C.t.C.K.Z.Z.9.n.Z.Z.3Xf.t.Z.n.L.n.0.Z.Z.D.K.6.s.C.D.Z.Z.",
"9.K.C.J.D.t.D.K.Z.L.8.n.n.n.K.n.q.M.n.M.N.6.n.M.H.H.t.s.D.C.M.q.q.M.C.K.C.9.C.M.K.K.9.n.Z.Z.2XV.t.K.n.L.n.0.V.Z.Z.J.9.s.C.C.K.K.",
"9.K.n.K.D.9.C.C.s.P.5.n.Z.n.F.s.9.K.n.M.n.9.s.J.s.K.s.s.f.f.J.s.9.P.s.H.H.8.H.s.s.P.9.n.Z.n.F.V.r.3Xn.L.n.9.n.Z.V.4Xs.C.N.n.M.Z.",
"9.K.M.K.C.9.C.K.L.L.9.n.L.n.J.D.s.f.H.3X:Xy.;X,X,X,Xd.;X,X,X,X;Xd.g.eXp.].p.p.].].h.j.h.g.>X,X;X;X>XH.M.n.9.n.F.Z.4Xt.s.M.M.K.C.",
"9.C.K.K.C.9.s.K.n.P.t.9.J.Z.3Xf.r.:X,X3 * : ; ; ; ; & ; ; * * & > Y ^ ^ Y X.`.`.qXqX`.tX} o - - & ' >Xg.K.0.n.m.F.4Xt.n.Z.K.K.n.",
"9.C.C.K.N.9.n.n.n.L.9.t.f.f.3Xd.e.<X1X& . . .     . . . O O O . X { | Q J R.9X9X9X9X0XwX{ # X X o +.-X>Xa.6.z.n.L.G.t.t.D.C.K.n.",
"9.C.9.K.M.9.n.9.n.L.9.f.y.;XR p y y y 1XrXtXtXrXrXeX-Xd.;Xd.d.@.+.d w G H K  .Y.~.(._.9X).X.o.o.$.k > U g.8.t.c.n.L.9.c.s.s.Z.M.",
"9.n.9.n.Z.9.n.9.n.4X7.f.;Xe.f O O . O BXSXSXCXCXCXVXbXvXbXbXkX X<X. X F ..H J J W.W._.9X9XwXwXwXwXd X g -Xi.3X9.n.L.9.n.t.t.Z.Z.",
"9.n.9.n.n.9.n.9.c.F.7.:XR M ` ` ` R ` xXMXnXbXlXlXlXhXgX%X+X+X}.H.P b Y F G |  .(.~.).0X)._._._.0XH G Y B R :Xt.n.m.9.z.s.s.Z.Z.",
"9.n.c.Z.n.9.n.c.n.Z.y.;X1 + #.FXCXCXVXjXpX+XhX%X@X@X@X%X%X&X&X%X+X XuXx X s X. .W.(.~.~./.~.(._.9X9XwX) o : <X:XD.n.9.z.z.n.Z.V.",
"w.s.V.5Xn.q.n.n.n.3Xe.1Xu @ #.CXNXNXbXkX@X&X&XOX@X@XOXOX&X&X*X*X{.[. Xb X h X. .W.(.^.).~.~.(._._.9X0X{ X e =X1Xr.uX9.n.z.n.L.F.",
"w.N.V.5XZ.9.n.C.P.e.* O DXAXZXMXNXzXhXhX&X$X$XOXOXOXOXOX&X&X&X&X*XoXkXP   s { K (.^.~.^.(.(.^.(.!.!.0X/.qXO.- : e.g.r.n.n.m.4XV.",
"z.n.V.2XH.s.s.s.g.@.@ . BXAXZXMXbXhX+X%X*X$X$X&XOXOX$X$X$X&X%XaX@XaXbXz o a } { /.~.(.W.^.~.^.^.W.W.W./.0Xo.X   +.<Xf.t.D.Z.F.C.",
"z.n.n.V.f.f.n.q.a.' ; . rXCXbXlXzXhX@X%X$X$X$X&X&X&X$X$X$X$X@XaXaXhXkXh.j.U 7 s |  .U.U.R.W.R.W.W.W.W.Q.~.o.{ } g > R 3Xt.9.C.C.",
"n.C.n.D.f.r.Z.s.f.#.. . rXVXlX@X&X&X&X&X@X$X&XOX&X&X&X$X$X&XOXOXOX@X+XgXbXj.  - { Q ~ ~ ! R.Q.(.(.W.Y.Q.Y.R.(.qXe . M :Xs.n.n.C.",
"D.n.q.C.V.t.Z.E N / ( I mXMXhXOX&XOXOX@XOXOX&XOX@X&X&X&X&X&X$X&X&XOX@X+XhX4.. , G G K ! ! Y. .R.R.Y.Q.Q.T.T.W./.e   B :Xt.n.n.n.",
"Z.n.k.z.c.t.f.z O j AXSXjX+X%X&X&XOX@X@X&X$X&X%X&X&X&X$X&X&X&X&X@X&X&XOXzXj..     # G | H J K  . .Y.Q.Y.T.Y.E./.w o B :Xt.c.Z.n.",
"D.n.k.m.c.r.f.b O j ZXMXlX%X&X&XOXOX&X&XOX$X&X&X&X&X$X$X&X&X&X&X&X&X&X&XhXj.% 5 $ X G { L H H  . .Y.R.Y.T.T.R./.w   B :Xt.n.n.n.",
"t.C.n.m.c.r.:XM . f mXgX%XOX@X$XOX&XOX&X$X&XOX&XOX&X$X$X&X&XOX$XOX&XOX$X&X|.h.-X&   = , , = 7 Q J K J K ! ! ! ..w o b f.s.n.s.f.",
"C.n.c.n.n.r.:XM O u jX&XOX&X&X@X&X%XlXhX&XOX&X&XhXOX$XoXhXhXhXoX&X&XOXOX$XoXx.d.;           7 } { | { ..o.o.o.o.w o b f.9.L.s.f.",
"s.s.s.K.f.i.:Xm O i sX&X&XOX@XhX Xz z uX+X@X+XXXXX&X&XhX4.x -.kX@XOXOX&XhX+Xx.a.; . j / I ` U d a a d a a a h h ( I ] s.n.k.Z.s.",
"M.q.9.K.Z.r.:Xv O i jX@X$XOXaXvXV.% % 2XhX+XkXdXvXkX+XvXv % z vXdX@XOX&X%X+XB.f.: . ` d.f.d.#.o       o     o . +.>Xf.s.c.k.n.n.",
"n.c.9.Z.f.r.:Xc O u sX@X&X&XI.b.3.l l 7XdXs.] e.e.i.pXvX1.6 A 8Xb.dX@X@X%X+XB.t.; O R f.8.f.e.t r r r i t r i t 4.a.s.n.c.n.n.Z.",
"Z.L.n.Z.s.8.>Xm O u cXhX&X@Xl.A S S 1.7XvXT + O O +  XvX3.S D A %.6XaX@X&X|.x.r.; O [ f.n.Z.f.f.d.g.d.>X;Xd.>X:Xf.4Xt.t.n.n.L.V.",
"t.n.9.9.q.8.a.c O u sX%X&XaXb.=.2.2.%.6XvXW : p 8 9 .XdXv.S 2.2.,.iXaX&X&X|.x.d.; O R f.9.s.t.8.8.r.i.r.r.7.t.8.t.t.9.n.q.9.n.9.",
"7.V.n.n.q.w.a.m O u jXOX&X@XiX7X7XfX#XhX@XyXuXuXuXyXpXaXiX6X6X6XiXaX+XoX*X|.x.p.2 O _ Z.s.n.n.n.n.L.n.Z.Z.n.L.n.n.Z.D.C.s.s.n.0.",
"4.K.v.L.s.h.>XM O u jX&XOXOXaX@X@XOX@X&X%XhXpXpXpXpX+X@X@X@X@X@XXX&X@XaX+XgX X;X: % _ 3XC.L.K.K.K.K.J.J.K.K.K.K.Z.Z.Z.Z.Z.Z.K.8.",
"5.n.v.n.q.8.f.C O u pX&X$XOXOX&X$X$X&X&X%X%X@X@X@X@X@X@X@X%X@X&X&XoXaX#X|.-.x M ' R d.3XK.K.n.C.Z.Z.Z.Z.n.n.C.C.Z.Z.Z.Z.K.Z.K.9.",
"&.s.n.c.9.8.y.m O u jX&XOX&X&XOX&X&X&X&XOX@X@X@X&X%X%X%X&X&X%X%XOXhXhXB.[.W + & <X>Xf.H.D.n.n.n.Z.Z.Z.Z.Z.Z.K.K.C.n.C.C.Z.C.K.8.",
"8.K.L.n.C.s.Z.N O f mX%X%X@XOX&XOXOXOXOXOX&X&X&X&X&X%X%X&X&X%X%XhX%XaXB.[.E O 2 e.f.f.H.s.n.n.n.n.s.n.n.n.C.C.C.C.n.n.n.Z.C.K.8.",
";.t.9.t.9.9.t.v O r nXjXhXhX&XOXOX@XOXOXOXOX&X&X&X&X%X%X%X%XOXOX&X@XhX.X}.W + 1 y.t.t.t.f.t.t.t.9.9.9.9.t.t.t.s.s.n.n.n.n.s.C.5.",
"5.K.V.Z.n.n.V.Z + i xXuXpX+X&X&X@X@XOXOXOXOX&X&X&X&X%X%X%XOXOX&X&X@XlXH.a.' % 3 2XF.J.D.J.K.F.L.L.K.K.K.K.K.K.K.C.n.Z.C.n.C.K.8.",
"5.n.n.n.n.n.Z.r.e.' 2 1 g.lXoXOX@X@XOXOXOXOX$X&X@X@X&X&X@XOXOX&X&X+XkXT % c <Xy.2XF.J.M.n.n.L.n.Z.Z.Z.Z.Z.Z.Z.Z.n.Z.Z.Z.Z.n.J.9.",
">.Z.C.n.9.9.9.Z.f.] . . >XhXOX&XOX@XOXOXOXOX&X&X+X@X@XOX+XoXOXOXOX@XkXN + y d.s.3X4XJ.P.P.M.n.n.n.n.Z.Z.Z.Z.Z.Z.Z.K.Z.Z.K.n.F.9.",
"&.L.n.C.n.9.n.n.r.] & . ,XkX@X&XOX@X&X&X&X&X&X&XXX@XhX@X@XOXOX&XXX}..XN O j a.q.f.f.D.Z.D.D.H.K.C.C.C.C.C.Z.Z.K.C.C.D.D.D.D.J.8.",
"0.n.9.9.9.z.n.t.V.' @ . >XkX@XOX&X&X&XOX@X&X&X&XaXaXhXhX@XOXOXOX&X}.uXm O y r.6.8.r.t.t.t.t.8.8.9.9.9.9.9.9.t.t.s.s.s.s.s.s.n.5.",
">.t.9.s.q.9.t.9.r.' @ . >XhX&XOX&X&X&X%X%X%X@XaX@X#XhXzX@X@X@X@XXX4.4.I 3 V f.t.s.s.9.9.s.s.q.q.q.s.s.s.s.s.n.n.n.n.n.n.n.s.D.5.",
"0.L.C.N.K.s.K.4X3X] . . g.lX+X@X&X&X&XhXhXaX@X@X@X+X@X@X@XaXXXB.s.* + R xX5X3XF.P.P.L.L.L.P.H.H.K.K.K.K.K.K.K.K.J.J.J.J.J.Z.F.9.",
">.n.n.s.n.q.H.y.;X] 1 * h.hX@X&X@X@X@XhXaX@X@X+X+XOXOXhXhXhXpXs.f.9 + R f.r.V.n.Z.M.L.K.n.C.D.D.D.Z.Z.Z.Z.Z.Z.Z.Z.Z.Z.Z.Z.D.J.9.",
"&.n.Z.n.9.8.8.N + i eXyXgX@X@X@X%X@X@XaXaX@X+X+XOX$XOXhX}. X-.< 9 e.e.j.8.t.c.c.V.Z.L.K.n.Z.D.J.Z.n.n.Z.Z.Z.Z.Z.D.Z.D.D.D.D.Z.8.",
"8.Z.n.V.C.D.f.m O i sX+X&X$X@X&XaXaX@X@X@X@X@XOX$X$X*XhX}.yX:.% % e.:Xf.H.D.n.n.c.n.n.n.n.n.D.D.C.C.C.C.C.Z.Z.Z.Z.Z.Z.Z.Z.Z.J.9.",
"-.s.t.t.9.6.a.b . u pXOXoX$X&X@X@X&X@X@X@X@X@X+X&X$X[.|.E x T N R y.8.6.t.9.9.9.9.9.9.9.9.9.t.t.9.9.9.9.9.t.t.t.s.s.s.s.s.s.n.5.",
"-.N.V.V.n.s.g.n . f uXOX@X&XOX&X{.*X&X@X@XaXaXhXkXlX}. Xx + 3 ,X:XZ.Z.K.Z.Z.Z.L.L.L.K.K.L.K.K.K.K.K.K.K.K.K.K.K.Z.Z.Z.Z.Z.D.J.8.",
"4.N.V.G.C.s.f.M O u sX@X&X@XOXOX$X*X$X&X&XXXaX.Xa.a.@.4.R 3 V >XD.n.n.n.Z.Z.K.K.Z.K.K.Z.Z.Z.Z.Z.Z.Z.Z.Z.Z.Z.Z.Z.Z.Z.Z.Z.Z.Z.F.8.",
":.V.G.G.t.r.y.m O u cXhX@X@XhX@XaXaX&X&XhXXX}.4.O . O O V :Xu.D.t.9.9.9.9.9.t.t.K.K.K.K.K.Z.Z.Z.Z.Z.Z.Z.K.K.K.K.Z.Z.n.n.Z.Z.F.8.",
"7.F.G.G.t.s.r.Z + c xXsXyXcXyXcXcXcXsXyXsXuXg.4.@ ; * * R f.n.n.n.n.n.n.s.n.n.n.C.C.Z.K.Z.Z.Z.Z.C.C.C.n.n.n.Z.Z.Z.Z.n.Z.Z.Z.F.8.",
";.z.t.c.c.t.n.7.e.' 4 0 q 0 0 q q q 0 0 0 4 3 i e.e.<.<.r.s.t.c.9.9.9.9.9.9.9.9.9.9.9.9.9.9.9.9.9.9.9.t.9.t.t.t.s.s.s.n.n.s.D.5.",
";.z.t.t.t.9.9.n.r._ + O . . O . . . . O . . O 1 d.f.r.f.8.q.9.t.9.9.t.t.9.t.t.t.t.t.t.s.t.t.t.t.t.s.t.s.s.s.s.s.s.s.s.s.s.s.D.5.",
"0.m.q.s.n.P.n.n.L.f.R V V R C V V V V V V T N _ F.P.L.L.n.P.M.M.K.L.L.L.K.F.F.F.F.F.F.F.L.K.K.K.K.K.K.K.F.F.L.F.Z.Z.Z.K.Z.Z.F.8.",
"5.n.s.N.n.n.n.L.n.n.f.:X3Xf.u.f.f.f.2Xf.s.D.f.t.c.L.P.L.L.C.n.n.n.n.t.t.s.n.n.n.Z.Z.K.K.Z.n.Z.Z.Z.Z.Z.Z.Z.Z.Z.Z.Z.Z.Z.Z.Z.Z.F.8.",
">.V.D.C.9.7.9.n.0.9.f.a.f.s.t.9.5.9.t.t.9.q.t.9.t.f.f.n.n.n.n.n.t.t.9.9.9.t.t.s.n.Z.K.K.K.Z.Z.Z.C.C.Z.Z.Z.Z.Z.Z.C.C.C.C.D.D.J.8.",
"7.V.s.V.Z.Z.D.s.z.n.D.f.V.n.n.z.n.n.C.C.n.n.n.Z.D.Z.D.V.n.n.C.C.Z.n.n.n.n.n.n.s.n.n.C.C.C.C.C.C.C.C.C.C.C.Z.Z.n.Z.Z.n.n.Z.D.J.8.",
">.t.t.t.9.k.t.t.l.l.t.t.t.t.s.c.9.9.9.s.q.q.s.t.9.9.t.t.t.t.9.9.9.9.9.9.9.9.9.9.9.9.9.9.9.9.9.9.9.9.9.9.9.t.9.9.n.s.n.n.s.s.D.5.",
"5.n.n.n.n.n.V.n.m.m.n.n.n.n.n.n.n.n.z.s.s.s.s.s.n.m.L.n.Z.C.C.C.n.n.n.Z.Z.Z.Z.Z.Z.Z.Z.Z.n.n.n.n.Z.Z.Z.Z.K.K.K.K.Z.n.Z.Z.Z.D.J.8.",
"0.m.n.m.V.Z.Z.Z.Z.Z.n.n.n.m.n.k.z.n.n.C.C.H.D.V.J.F.P.P.F.F.L.m.L.Z.n.n.Z.Z.K.K.K.K.F.K.K.Z.n.Z.Z.Z.Z.Z.Z.Z.Z.Z.n.n.Z.Z.Z.D.J.8.",
"*.n.n.n.t.t.t.n.t.c.n.n.n.n.m.n.0.9.n.n.n.V.s.9.t.V.Z.M.Z.n.n.c.9.9.9.9.9.9.t.s.Z.K.F.F.K.Z.Z.Z.n.n.Z.Z.Z.Z.n.n.Z.Z.K.K.Z.Z.F.9.",
"5.n.D.Z.f.s.n.n.k.n.n.n.n.n.n.n.n.n.n.n.V.V.n.n.n.C.N.s.s.C.D.D.Z.n.n.n.n.n.n.n.C.C.Z.Z.Z.Z.Z.Z.Z.Z.K.K.K.K.K.K.C.C.n.Z.Z.D.J.8.",
"5.s.t.f.f.s.c.k.k.k.c.t.s.s.s.s.s.s.c.n.V.V.k.k.n.s.q.q.q.s.s.t.9.9.9.9.9.t.9.9.9.9.9.9.s.s.s.s.9.t.t.9.t.t.t.t.n.n.n.n.n.n.Z.7."
};
