/* XPM */
static char *da976873dd98eae651adb1414b7ff6cbc395694f_o[] = {
/* columns rows colors chars-per-pixel */
"64 64 256 2 ",
"   c #160101",
".  c #1C0100",
"X  c #1A0B05",
"o  c #160E0A",
"O  c #240200",
"+  c #2B0100",
"@  c #240A00",
"#  c #2B0C01",
"$  c #240F0B",
"%  c #330100",
"&  c #3B0200",
"*  c #310A00",
"=  c #390B03",
"-  c #2C1A0B",
";  c #291606",
":  c #331503",
">  c #341B03",
",  c #331B0B",
"<  c #3A1905",
"1  c #271814",
"2  c #351C15",
"3  c #3A2208",
"4  c #302413",
"5  c #261C22",
"6  c #322923",
"7  c #1D1B20",
"8  c #420000",
"9  c #4C0000",
"0  c #450B00",
"q  c #570900",
"w  c #481903",
"e  c #571802",
"r  c #4A1E15",
"t  c #661801",
"y  c #6E1100",
"u  c #452406",
"i  c #5A2507",
"p  c #492A17",
"a  c #592917",
"s  c #4E3516",
"d  c #692707",
"f  c #742401",
"g  c #772B06",
"h  c #6C3407",
"j  c #642A15",
"k  c #742E12",
"l  c #663517",
"z  c #793817",
"x  c #7E3000",
"c  c #483526",
"v  c #563D24",
"b  c #452D28",
"n  c #673823",
"m  c #763B26",
"M  c #6E372B",
"N  c #6D4418",
"B  c #58452F",
"V  c #654929",
"C  c #754528",
"Z  c #715035",
"A  c #6F522D",
"S  c #745C43",
"D  c #6F594C",
"F  c #7A6348",
"G  c #7A6756",
"H  c #5E4D43",
"J  c #882B02",
"K  c #962900",
"L  c #87350A",
"P  c #973808",
"I  c #873A15",
"U  c #933D14",
"Y  c #A43A03",
"T  c #B73E09",
"R  c #8D3E22",
"E  c #88431B",
"W  c #994519",
"Q  c #9C4914",
"!  c #AB430A",
"~  c #B74608",
"^  c #A84818",
"/  c #B9551C",
"(  c #AE4F18",
")  c #884625",
"_  c #964B26",
"`  c #9A552A",
"'  c #8A5736",
"]  c #995936",
"[  c #8B4F2F",
"{  c #A84D24",
"}  c #AC5424",
"|  c #A65429",
" . c #BB5524",
".. c #B95A28",
"X. c #A85A34",
"o. c #B55D32",
"O. c #BB4F20",
"+. c #91643C",
"@. c #BA612D",
"#. c #B76539",
"$. c #A7623A",
"%. c #DC4D02",
"&. c #D74D06",
"*. c #D55203",
"=. c #DC5102",
"-. c #D5540B",
";. c #DB530B",
":. c #DC5A0D",
">. c #CC5A1A",
",. c #C95717",
"<. c #D45413",
"1. c #D65717",
"2. c #C94D0E",
"3. c #E34E01",
"4. c #E94E01",
"5. c #E35202",
"6. c #EC5402",
"7. c #EA5908",
"8. c #F55C03",
"9. c #FD5D02",
"0. c #F35D0B",
"q. c #FD5D0A",
"w. c #F75601",
"e. c #E75D14",
"r. c #F75F12",
"t. c #DC631C",
"y. c #EC620E",
"u. c #EB6A0E",
"i. c #F56104",
"p. c #FC6103",
"a. c #F4610C",
"s. c #FB610B",
"d. c #E56215",
"f. c #EC6213",
"g. c #E3641D",
"h. c #EB631B",
"j. c #E7691B",
"k. c #F36313",
"l. c #FA6413",
"z. c #F76819",
"x. c #FA741F",
"c. c #C55B25",
"v. c #D35D21",
"b. c #C35C33",
"n. c #C96329",
"m. c #DC6B2C",
"M. c #D96626",
"N. c #C86636",
"B. c #D66A33",
"V. c #D6733C",
"C. c #E36523",
"Z. c #E76825",
"A. c #F56C24",
"S. c #FF7424",
"D. c #FD7B2D",
"F. c #FA742A",
"G. c #EB793A",
"H. c #F57B35",
"J. c #FD7D35",
"K. c #F57D3C",
"L. c #FD7D3B",
"P. c #FC7733",
"I. c #EA732E",
"U. c #8A5A42",
"Y. c #886A47",
"T. c #996848",
"R. c #886A53",
"E. c #987753",
"W. c #907452",
"Q. c #AA6645",
"!. c #B96946",
"~. c #AF7652",
"^. c #8B7A63",
"/. c #B07D63",
"(. c #A65E45",
"). c #C6754A",
"_. c #D97A48",
"`. c #C77955",
"'. c #D57D54",
"]. c #C46E48",
"[. c #E37945",
"{. c #F47E42",
"}. c #FC7D42",
"|. c #F67D49",
" X c #E37E51",
".X c #FD8135",
"XX c #F6803D",
"oX c #FD813B",
"OX c #F08036",
"+X c #B38657",
"@X c #A9865A",
"#X c #9C8668",
"$X c #A38765",
"%X c #B3896A",
"&X c #B99975",
"*X c #B3936D",
"=X c #D98254",
"-X c #CF9357",
";X c #EC844C",
":X c #E8844A",
">X c #F48244",
",X c #FA8242",
"<X c #F3844B",
"1X c #FA824C",
"2X c #EB8454",
"3X c #EB8954",
"4X c #E68856",
"5X c #F28551",
"6X c #F28B52",
"7X c #D1A45D",
"8X c #C7A15A",
"9X c #D78762",
"0X c #C89B68",
"qX c #C69D78",
"wX c #CF8868",
"eX c #CCA667",
"rX c #D5AC6D",
"tX c #DBAC6D",
"yX c #D6A667",
"uX c #DCB26D",
"iX c #D6B36C",
"pX c #C8A57A",
"aX c #D6AB73",
"sX c #DCAD73",
"dX c #DCAD7A",
"fX c #D4A978",
"gX c #DCB273",
"hX c #DDB47B",
"jX c #DAB778",
"kX c #E3AD6E",
"lX c #E3B26E",
"zX c #E3AE74",
"xX c #E2AE7A",
"cX c #E3B475",
"vX c #EAB474",
"bX c #E3BA76",
"nX c #E4B57B",
"mX c #E9B67B",
"MX c #E4B97B",
"NX c #E9BA7B",
"BX c #EABA77",
"VX c #E08D61",
"CX c #EAC078",
"ZX c #BBA68B",
"AX c #C9A886",
"SX c #D8AD84",
"DX c #D5B284",
"FX c #DCB484",
"GX c #DCB58A",
"HX c #D9B68A",
"JX c #CDB490",
"KX c #E3B583",
"LX c #E4BA84",
"PX c #E6B986",
"IX c #E3B695",
"UX c #E4C491",
/* pixels */
"iXbXLXMXMXhXMXMXjXbXyXvXuXgXhXiXyXuXdXDXJX#Xc , /.JX#Xc 1 X &X&XB 4 $ @ %XA 3 JXDXpXpXFXhXhXcXkXeXjXuXuXtXtXtXlXtXsXaXaXsXgXrXjX",
"iXbXmXMXMXhXhXnXMXMXcXsXbXMXbXgXMXhXGXAXV > : O C ' : > . r T.w <   + [ ` & % C ~.w ' FXGX&XKXsXbXbXmXPXmXmXNXvXbXbXMXMXMXNXbXMX",
"sXMXmXmXnXhXhXhXMXMXsXMXmXmXcXnXDXAXF ; 2 O & ` =X| O % _ =X4XW & _ N.B.m.K J o.k + & E.B ; qXKXdXnXnXnXnXsXmXmXMXbXjXhXvXvXmXMX",
"dXMXbXbXmXxXnXMXMXMXsXnXnXKXFXGXE.3 - . O [ ).4X<X_.) !.3X>X>X[.N.2XL.h.f.e.g.B.Q.e | $.+ , A HXdXKXKXKXPXsXMXbXbXbXgXbXvXvXmXmX",
"sXMXbXbXmXzXmXmXmXNXrXgXPXHX*Xv ; - O j !.:X;X<X{.>X<X;XG.K.L.L.,X{.L.A.7.k.e.B._ | m.m.z O < $XDXFXfXPXhXrXgXbXbXbXtXcXvXmXmXmX",
"sXMXbXbXvXkXmXMXmXMXaXHX&XZ : ; 2   U.wX3XK.XXXX}.L.J.H.XXoXP.J.L.L.L.D.k.0.A.K 8 y :.h.N.8 * u *Xl N HXFXaXbXgXbXbXtXcXmXmXmXmX",
"dXPXnXMXvXtXhXMXLXPXpXR.4 2 . @ 1 O m 9X<XH.J.L.L.L.J.J.oXL.J.J.L.L..XJ.F.F.L.c.8 y -.a.Z.! 9 ` ) + < $XKXyXnXnXhXMXtXcXmXmXMXbX",
"dXPXMXMXbXtXhXhXFX@Xp , O O m /.R.. + Q.;XL.J.J.L.J.J.L.L.L.L.J.L.L.D..XJ.}.5X_.W N.h.8.s.7.1.B.N.e # p FXsXFXFXLXLXsXcXmXMXbXbX",
"yXBXcXNXMXgXcXnXA > @ O d !.4X4X'.j . w _.oXL.J.J.J.L.L.L.L.J.J.P..XD..XL.{.!.t I B.0.9.9.q.r.e.g.} O , +.0Xv Y.FXbXgXbXbXbXnXnX",
"yXvXvXcXMXgXcXPX*X. : ] =X<XXXXX<X!.. . ` <XH.oX.X.XL.L.L.L.L.L.oXJ..XH.J.<X) % 9 2.k.9.9.9.q.q.l.t.f & _ h @ 3 pXMXgXgXbXbXLXMX",
"kXcXbXCXMXsXaXLXHX+.=X3X>X{.L.J.L.3Xm O % `.<XJ..X.XoXL.L.L.L.L.L.L.L.K.L.>X=Xf / I.k.w.9.p.9.w.8.k.,.>.g./ % , A UXrXtXbXMXmXmX",
"tXbXbXbXhXfXDX*Xu z :XK.L.L.L.J.P.<X`.+ O C 4X{.H.J.J.L.L.L.L.L.J.,X{.>X<X4X$.X.;XoXl.s.9.9.9.p.p.8.a.0.s.g.z @ < *XfXgXMXbXMXMX",
"yXbXtXMXKX*XZ - 2 + } >XL.L.L.oXL.K.3X[   . !.5XK.J.L.L.L.L.L.L.J.J.K.2X].M   + V.D.l.q.q.p.9.9.9.9.0.8.9.k.b.8 : B SXaXtXcXbXmX",
"tXcXtXnXKXl :   O [ _.{.J.J.L.L.L.L.{.'.= O j =X>XL.L.L.L.L.L.L.J.L.{.^ % O   = n.h.0.q.q.9.9.9.p.9.9.9.9.0.Z.U + 2 E.FXrXlXcXbX",
"rXbXyXmXhX+X% z ).<X{.L.J.J.L.L.J.oXXX;X(.+ O Q.:XL.L.J.J.J.L.L.L.,X{.P % & _ _.>XA.0.q.9.9.9.9.9.9.9.p.9.9.k.n.e @ p AXdXcXvXvX",
"rXjXzXKXFX*X$.9X>XL.L.L.H.J.L.L.J.D..X>X=Xd O < =XK.L.J..X.XL.L.L.>X3X'.m ~.3XXXL.F.l.q.9.9.9.9.9.9.9.9.9.s.e.B.' . , Y.SXsXcXvX",
"eXjXFXJXF @ z 9X>XJ.L.L.L.L.L.L.H..XL.}.<X!.. . _ 4XK..X.XJ.J.L.OX3X`.m Q.VX>XJ.P.J.x.0.q.9.9.9.9.9.9.q.q.f.M.| p 1 1 - &XhXnXNX",
"jXjXE.u , + & N.>X.XJ.L.L.L.L.L..X.XP.}.}.4XC . % ).<XL.J.oXP.,X:X` & + & _.,XJ.oXP.S.0.9.9.9.9.p.p.a.h.C.c.f % @ @ $ ; V PXPXmX",
"iXhXw + % g N.{.oX.XJ.J.J.J.L.L.J.J.L.L.}.5X).% O M 2X{.{.L.,X[.e O O + W [.XXP.P.S.l.9.9.w.9.9.w.0.C.N.z O # + e _ n @ > $XLXnX",
"gXdX*Xw _ _.,XoXJ.J.J.J.J.J.L.L.J.J.oXL.L.|.3X` . O !.5X>XK.L.:XC O l !.2X1XH.oXJ.z.0.9.9.p.p.0.h.M.^ & @ @ * ) / c.X.% ; s GXnX",
"FXGXT.` m.d.F.J.J.J.J.J.L.L.L.J.J.P.oXL.}.L.{._.w O i =X>XK.XX6X!.X.=X5X|.}.L.L.D.S.s.9.9.i.k.M.Q i + + & L ,.C.:.-.c.I @ , E.FX",
"GXl & f d.8.z.D.J.J.J.J.L.L.L.J.J.J.L.L.L.L.L.<XQ.O O ] 4X3X:X#.0 #.<XL.L.}.L.L.D.S.a.a.f.g./ x % + + j } M.k.9.0.=.<. .e @ u JX",
"GX' % q -.l.e.A.J.J.L.L.L.L.J.J.L.L.L.L.J.L.L.{. Xk . # /.~.n O O & [.L.L.L.J.J.z.0.e.Z.n.I @ @ + q ^ M.h.s.8.9.9.0.&.v.W % : D ",
"HXpX[ @.Z.e.h.F.L.L.L.L.L.L.L.L.L.L.L.L.L.oXL.K.5X!.. $ p + . . a Q.;XL.J.P.L.L.A.C.m.^ q % O + R N.Z.0.q.9.9.9.9.q.5.<...h @ B ",
"^.< ) ].B.M.K.}.L.,XH.L.{.{.,XXXK.XXK.>XK.>XXX>X2XwXb o 1 # 0 ` '.;XK.J.J.oXH.>X Xo.i + % & g c.C.f.0.9.9.9.9.9.9.q.8.;.c._ T.HX",
"v + 8 ( U 9 [.<X[._.<X{.2X X ._.<X:X3X} J _.3X4X!.i # 1 1 , ~.4X>XH.J.J.K.<X;X).) % + % t | M.f.9.9.9.9.9.9.9.9.9.9.s.-.P e +XHX",
"qXe ! / & % P N.& ) 4X3XQ.j + [ 9X!.a + % ` ~.m . . . 2 1   Q.3XG.oXP.L.<X'.' O . + q ^ M.d.a.p.9.9.9.p.9.9.9.9.9.p.6.,.& @ s JX",
"~.` Z.m.I g c.K % + X.U + + + m _ % + O d Q.k + O r T.%Xp . e =X<XK.>X3X#.e O   + ) n.g.k.9.w.p.9.9.p.p.9.9.9.9.9.6.%.>.) @ 3 R.",
"@ e n.Z.t.g.z.:.f !.].& % e X.4X!.8 q |  X3X#.8 { '.2X4XQ.+ O ' 3X:X~.n   . O z @.M.d.a.8.9.9.9.9.9.i.9.9.9.9.9.9.9.4.&.c.t @ 1 ",
"1 O W C.e.p.w.0.I.;X3X} R '.5X<X4X.._.5X,XK.;XV.1X1XH.>X4Xk . < Q._ O O   p Q.4XL.l.0.9.9.9.9.p.9.9.9.9.q.9.9.9.w.w.0.&.1.{ + H ",
"c : 8 ..f.9.9.0.f..XF.Z.{.>XL.K.,X>X{.{.>XXXK.L.L.L.,XG.;X).O 1   . O & ] 4X<XK.D.l.q.q.9.9.9.w.9.9.9.9.q.q.9.9.9.9.a.:.>.} T.AX",
"#X* % Y a.9.w.s.a.a.0.0.z.J.P.J.J.P.oX}.K.XXJ.J.L.L.G.6X=XQ., 5 5 2 Z ).5XL.D.S.k.q.q.9.9.9.p.p.9.9.9.9.9.9.9.9.9.9.i.d.P 9 l AX",
"&X` ( h.i.9.9.9.9.8.p.9.k.S..XD.D..XJ.L.L.L.L.J.H.>X3X!.n   .   o c 9X<XL.D.l.0.w.9.9.9.9.9.9.p.8.p.q.r.0.9.9.9.9.q.6.;.P & < G ",
"Y.h B.h.0.p.9.9.p.9.9.w.0.z.S.S.x.S.oXL.L.oXL.>X6X_.) O . . a Z X   o.>XA.f.e.h.z.e.s.0.k.d.e.f.u.d.Z.2.<.h.f.0.q.q.4.-. .e # 6 ",
"1 O W Z.0.9.p.9.9.9.q.q.9.s.l.s.0.S.P.A.F.H.>X_.] +   O % [ '.9Xa O e N.C.h.B. .J n.g.C.o.f f N.M.n.k & J N.N.~ e.k.d.2.>.^ @ - ",
"b * 8 N.h.w.9.p.9.9.q.q.9.9.9.9.9.l.k.e.I.;X@.d O   + m `.3X{.<X!.% + ) V.c.I 8 8 U N.P & & 8 W W 8 % + t W q 8 2.C.! ( >.b.l Z ",
"W.< % L g.s.9.9.9.9.q.q.q.9.9.9.9.s.f.m.o.z O O O d N.2X,XL.D.Z.m.g O 2 Z = O % 9 W d & % 8 Y  .8 % 8 L >.>.9 & P J % i X.X.Z ZX",
"AXC % L e.9.9.9.9.9.q.9.9.p.9.p.a.d.n.P % + + 0 _ :X,XoXD.x.k.d.m.X.. 7 X @ + I ..V.| 8 L ..g.Z.{ f  .M.k.h.( } B.P % j I 9 % R.",
"AX~.( C.l.w.9.9.p.9.9.9.8.i.i.y.M.} 0 O + & P v.C.A.J.S.s.0.f.m.X.j 1 5 $ a ..g.f.f.C.<.h.k.l.0.h.d.f.a.9.0.k.f.u.:.Y  . .y & Y.",
"S % ( Z.0.9.9.p.9.9.p.p.i.f.t.n.L & O + g  .Z.k.0.l.l.8.q.r.v.L & + O @ . l M.l.8.9.9.9.9.9.9.9.9.9.p.9.9.9.q.9.6.5.*.>.@.` qXSX",
"- # q N.f.9.p.p.w.p.9.y.j.B._ 0 O + t ( C.k.0.0.0.a.8.p.q.1.8 + + 8 W _   . Q h.0.9.9.9.p.p.9.9.8.p.p.9.q.q.w.5.%.5.*.( k w AXAX",
"^., O _ g.i.p.p.p.a.h.I.n.t + O 0 E M.f.0.9.9.p.9.p.w.9.q.v.k + z ..M.B.a @ q n.k.s.9.p.9.9.p.9.p.9.8.9.q.6.4.3.5.%.;.! + : C fX",
"qXV , % c.f.8.0.k.Z._.) % + 8 ^ v.h.k.8.9.9.9.9.9.w.p.w.a.C.| | C.f.a.g.| % % I C.q.w.s.w.w.p.9.9.p.s.8.4.3.%.%.%.%.%.>.E m 0XeX",
"fX*X1 @ L M.j.g.G.@.e + % E n.g.l.w.9.p.9.9.9.9.9.9.0.h.M.! 9  .k.9.p.7.m.L + % c.k.q.9.9.s.w.9.9.9.s.0.5.3.=.%.;.<.>.( C IXPXyX",
"eXDXS : + ] ).#.i O + x n.t.f.a.8.9.9.9.9.9.p.p.p.a.C.{ e + + t h.q.w.0.a.,.% + J M.k.9.p.p.9.9.9.w.q.s.6.=.=.;.1. .E * @ F GXaX",
"eXFXpX3 @ v C + O e | m.j.8.p.9.9.p.9.9.9.9.9.p.p.y.~ 8 & + d  .f.q.q.p.9.g.) + & ^ h.0.8.8.p.9.9.9.q.6.=.=.=.-.~ q + - ; F FXrX",
"yXmXFXY.- $   % W n.g.f.8.p.9.9.9.9.9.q.9.9.9.9.9.a.M.K q } M.k.s.9.9.9.9.e.N.e + i M.0.q.s.w.9.9.w.4.3.%.=.=.-.! 8 w B *XPXMXtX",
"7XtXdXSXc 1 $ U.c.7.0.p.p.w.9.9.p.p.9.q.9.9.9.9.a.j.B.! c.C.k.9.9.p.p.9.9.0.g.{ O + ! h.q.9.q.0.5.5.%.%.=.=.=.,.@.) E.HXFXdXmXyX",
"7XcXdXGX$X> . C / ;.5.s.8.p.9.9.8.p.9.9.p.9.8.k.M.o.a % / h.0.p.i.p.9.9.9.8.a.M.d + & n.y.9.5.5.*.=.%.5.%.;.<./ C V FXPXFXKXMXyX",
"7XNXnXhXHXV - %  .-.5.0.w.9.9.9.p.p.9.9.w.8.s.-.J & % + K e.8.p.i.p.9.9.9.p.9.h.o.% % z t.5.%.=.*.=.%.;.&.<.^ d # # +.KXKXnXLXyX",
"7XcXcXgXdX%X, O f ,.*.5.s.q.9.9.w.9.q.q.9.p.a.~ & & 8 ^ e.q.p.9.9.9.9.9.9.9.9.r.M.L O + ^ 1.-.=.=.%.%.&.1.P % @ : p @XMXmXmXbXtX",
"yXcXvXcXaXFXS : % W ,.*.e.0.s.w.q.9.q.q.9.8.k.m.z R b.Z.r.9.9.9.9.q.9.9.9.9.q.0.f./ # @ d c.<.*.=.5.5.&.<.^ + 6 ^.HXFXMXcXNXNXyX",
"7XcXzXzXzXaXpXu @ i  .,.,.t.=.5.0.9.9.9.9.i.t./ U ].C.7.8.p.9.9.9.9.9.p.p.9.8.6.=.,.I % % ) ,.=.%.%.%.;.1...[ AXDXhXsXcXsXgXgXyX",
"8XgXtXzXtXtXdXW., O E / f P <.=.6.9.9.9.9.a.~ 9 9 ( k.9.9.p.8.s.9.p.p.9.8.6.5.%.%.-. .e + e ( -.*.-.1.c.( g h SXjXgXcXcXMXsXjXeX",
"yXNXcXmXmXNXMXFXs 3 ~.i + q c.&.5.0.q.q.q.k.,.y 9 ~ 0.9.9.q.6.6.9.9.9.w.5.3.%.%.=.*.1.! * O E ,.2.v.} z * @ < E.PXnXcXNXcXMXNXrX",
"eXsXmXcXmXgXcXnXqXpXDX$X, + L c.,.e.e.4.7.Z.B.^ / M.l.9.q.6.5.%.0.8.6.4.3.%.=.=.&.%.;.,.i @ & X.o.U w @ ; > F pXPXnXbXbXmXmXmXtX",
"8XcXvXcXtXrXaXhXfXFXaXDXv > % ] ` J ~ <.;.>.I e c.Z.7.5.5.%.5.%.%.6.%.3.3.5.%.;.%.%.=.>._ & @ c a @ # > V pXKXKXnXnXbXbXMXmXmXtX",
"yXcXzXcXvXMXnXhXLXsXcXKX&X: u T.w + L / <.T & & Y e.%.=.%.5.=.=.5.%.5.&.%.=.=.&.3.;.*.,.!.n X o X - c #XDXhXmXcXmXMXbXbXbXMXmXtX",
"8XgXkXkXtXtXsXgXrXtXsXaXfXE.0XSXV < % ` v.1.J J ~ *.&.&.5.%.%.;.%.=.%.=.=.=.=.%.%.;.,.X.M 2 $ - 3 Y.pXhXaXiXtXsXgXgXgXgXgXgXnXyX",
"eXMXzXvXlXcXMXjXbXvXvXmXcXcXKXFXpX> @ i ..O.L o.n.,.1.<.=.;.>.2.<.;.2.t.,.~ <.-.1.,.W w + @ - S AXFXPXnXhXbXbXNXbXhXbXbXMXbXMXrX",
"yXMXcXvXvXcXMXMXvXvXvXzXcXlXcXaXFXY.; 3 ' w + [ $.P ! >.,.c.) q ^ c..._ i % ( c._ j O # < V &XGXLXMXmXPXMXbXBXcXvXMXbXMXmXmXMXeX",
"0XcXmXcXtXyXgXnXzXkXcXvXlXvXcXgXaXeX+.pXJXu * ' l & t ..^ f % + d | g % . @ E I % @ 1 c #XGXhXmXbXvXmXmXmXMXmXvXmXmXMXMXmXmXMXrX",
"yXmXnXmXcXuXgXcXzXzXnXgXcXmXsXcXzXMXjXhXhX+X+XGXT.w h +.@ @ , u +X[ @ : 3 W.FXN > 3 Y.DXKXnXbXgXbXbXcXBXNXbXMXMXmXvXMXMXmXvXMXaX",
"eXzXdXsXsXuXuXtXcXzXnXsXzXsXmXsXzXtXgXgXcXcXxXFXSXE.DXJX6 1 G AXAXAXp Z ZXAXDX&XZ &XfXgXsXgXrXuXrXuXiXiXtXgXdXdXcXcXcXgXcXcXMXyX"
};
