/* XPM */
static char *e0be159f62b0e6c38a19fa1a98843dea7f45db29_o[] = {
/* columns rows colors chars-per-pixel */
"64 64 256 2 ",
"   c #150000",
".  c #1C0000",
"X  c #1B0B04",
"o  c #110D07",
"O  c #240100",
"+  c #2B0100",
"@  c #240B01",
"#  c #2B0B00",
"$  c #200D0F",
"%  c #330100",
"&  c #3B0200",
"*  c #370B01",
"=  c #2C1A0B",
"-  c #291507",
";  c #321504",
":  c #331B0B",
">  c #371904",
",  c #291A17",
"<  c #381C14",
"1  c #3A220A",
"2  c #302415",
"3  c #2D1E22",
"4  c #3B3529",
"5  c #430100",
"6  c #4B0200",
"7  c #470D00",
"8  c #570400",
"9  c #4C1401",
"0  c #481A04",
"q  c #581801",
"w  c #501B13",
"e  c #660D00",
"r  c #671A00",
"t  c #761300",
"y  c #47250B",
"u  c #562407",
"i  c #432917",
"p  c #582A16",
"a  c #47331B",
"s  c #573512",
"d  c #5C3109",
"f  c #6C2301",
"g  c #662706",
"h  c #752602",
"j  c #78310B",
"k  c #6B2C14",
"l  c #6A3416",
"z  c #743514",
"x  c #793618",
"c  c #6A340C",
"v  c #563A27",
"b  c #46332E",
"n  c #783B26",
"m  c #6B3925",
"M  c #6B4317",
"N  c #5A4227",
"B  c #574532",
"V  c #66482B",
"C  c #764625",
"Z  c #764A36",
"A  c #6F5234",
"S  c #7D613C",
"D  c #775B44",
"F  c #6D594B",
"G  c #7D664B",
"H  c #5B4F43",
"J  c #862700",
"K  c #893508",
"L  c #993906",
"P  c #843C18",
"I  c #953E19",
"U  c #9A2D00",
"Y  c #A63803",
"T  c #AF3F0B",
"R  c #881F00",
"E  c #87441B",
"W  c #994617",
"Q  c #9E4912",
"!  c #A9440F",
"~  c #B9480A",
"^  c #A74816",
"/  c #B74C15",
"(  c #B7531C",
")  c #B15117",
"_  c #894727",
"`  c #984B26",
"'  c #8B532B",
"]  c #99532C",
"[  c #865437",
"{  c #965737",
"}  c #8A4D33",
"|  c #A94D25",
" . c #A95527",
".. c #B65927",
"X. c #A45937",
"o. c #B85C34",
"O. c #906335",
"+. c #B86639",
"@. c #B26234",
"#. c #D54E01",
"$. c #DC4D01",
"%. c #D74E0B",
"&. c #CE510A",
"*. c #DC5101",
"=. c #D5530B",
"-. c #DB520A",
";. c #D75306",
":. c #CC5412",
">. c #CC5B1C",
",. c #C7571A",
"<. c #D45511",
"1. c #D75A18",
"2. c #C84D11",
"3. c #E24E01",
"4. c #E54F05",
"5. c #E35202",
"6. c #EB5502",
"7. c #EC5A03",
"8. c #EA5B0C",
"9. c #F55C03",
"0. c #FD5D02",
"q. c #F35D0B",
"w. c #FD5D0A",
"e. c #F35604",
"r. c #E75D16",
"t. c #F45E11",
"y. c #F85D11",
"u. c #DB641D",
"i. c #CB641E",
"p. c #EE620D",
"a. c #F56103",
"s. c #FD6102",
"d. c #F3620C",
"f. c #FC620B",
"g. c #ED6313",
"h. c #E5641C",
"j. c #EB641B",
"k. c #E96617",
"l. c #F36313",
"z. c #FC6B1B",
"x. c #F76418",
"c. c #FF711E",
"v. c #C25B24",
"b. c #C65A26",
"n. c #D45D23",
"m. c #C86329",
"M. c #D56324",
"N. c #D86828",
"B. c #CA6835",
"V. c #D66A34",
"C. c #D77333",
"Z. c #E36523",
"A. c #E36922",
"S. c #E76827",
"D. c #FE7224",
"F. c #FE7A2E",
"G. c #F87729",
"H. c #E87638",
"J. c #F57B35",
"K. c #FE7D34",
"L. c #F47C3C",
"P. c #FD7D3B",
"I. c #FA7635",
"U. c #F26E28",
"Y. c #EF5F20",
"T. c #955A44",
"R. c #845A45",
"E. c #886846",
"W. c #98684A",
"Q. c #97724B",
"!. c #846C55",
"~. c #967657",
"^. c #897844",
"/. c #A86546",
"(. c #B76B47",
"). c #AF7554",
"_. c #997A64",
"`. c #A15D46",
"'. c #C76B42",
"]. c #C8774A",
"[. c #D67747",
"{. c #C97B57",
"}. c #D97E52",
"|. c #D06E41",
" X c #E97C45",
".X c #F47E42",
"XX c #FB7E41",
"oX c #C47F62",
"OX c #FD8135",
"+X c #F4823D",
"@X c #FD813C",
"#X c #EB8037",
"$X c #A88256",
"%X c #B48855",
"&X c #9B8768",
"*X c #B9966B",
"=X c #B99874",
"-X c #AB8C6F",
";X c #D98357",
":X c #D18B58",
">X c #EC844C",
",X c #EB8547",
"<X c #F48243",
"1X c #FC8243",
"2X c #F3834C",
"3X c #F6884B",
"4X c #E58554",
"5X c #EC8452",
"6X c #E78958",
"7X c #F18754",
"8X c #CCA75D",
"9X c #D88965",
"0X c #C79C6A",
"qX c #CE9C6D",
"wX c #E38E61",
"eX c #D5AB6C",
"rX c #DBAC6C",
"tX c #D6A669",
"yX c #DCB26D",
"uX c #D7B46B",
"iX c #CAA778",
"pX c #D5AB72",
"aX c #DCAD73",
"sX c #D6AB7A",
"dX c #DDB275",
"fX c #DDB37C",
"gX c #DEB97B",
"hX c #D7B377",
"jX c #CCAB6B",
"kX c #E1AC6C",
"lX c #E2B26F",
"zX c #E1AE73",
"xX c #E2AE79",
"cX c #E3B475",
"vX c #E9B475",
"bX c #E3B975",
"nX c #E3B57A",
"mX c #E9B67B",
"MX c #E4B97B",
"NX c #EAB97C",
"BX c #EBBA77",
"VX c #B39580",
"CX c #BDA38A",
"ZX c #C8A885",
"AX c #D5AD84",
"SX c #DDB382",
"DX c #D5B38A",
"FX c #DCB98B",
"GX c #DBB687",
"HX c #D9B593",
"JX c #CDB18F",
"KX c #E2B583",
"LX c #E3BA84",
"PX c #E5B988",
"IX c #E2AE89",
"UX c #D9BBA1",
/* pixels */
"uXbXLXKXMXfXKXKXcXbXeXnXdXbXMXuXjXuXaXaXpXjXhXAX_.v =X~.X , b &XiX^., b -XHXUXG = &XJXIXdXcXcXaXeXbXcXzXeXeXhXdXrXyXeXpXpXaXaXzX",
"yXbXMXMXnXfXKXKXBXbXdXdXdXMXnXhXgXgXPXIXGXM O.sXy + g ' p O > # O.c O # > Z ).* @ 1 v =XGXfXfXdXMXdXmXvXMXdXLXnXMXMXgXMXMXNXMXLX",
"aXMXMXnXbXdXfXMXvXBXtXbXMXcXnXnXSX~.y VXW.% % _ P 5 L m.( I 6 % ! v.I 7 % % ` W 9 O = = D ZXFXSXsXMXnXnXmXaXmXMXMXMXdXcXcXmXcXLX",
"aXMXMXbXbXdXnXMXvXBXrXdXfXMXMXfXAXp @ y ' f g /.o./ :.=.=.>.| L >.1.b...j j ,.>.o.n * O ; 1 !.JXAXPXcXNXmXxXmXnXMXmXcXvXvXmXnXKX",
"rXMXMXmXvXyXnXMXnXLXpXKXGXGXnXLXG ; * ` m.( P X.v.<.-.$.$.=.:.<.=.#.-.<.>.:.=.;.:.,.| j + @ = a &XDXKXMXcXrXMXNXMXMXyXlXvXvXbXMX",
"rXMXMXmXMXyXcXMXMXfXpXfXiXM *XqX# + f ..:.~ 5 6 ~ $.$.3.$.*.*.#.*.*.$.5.$.*.*.$.*.#.<...[ i $ = = V =XPXfXeXmXcXMXMXyXcXvXbXbXMX",
"rXMXnXMXnXdXfXMXdXLXtXGXD ; & ' g 5 / :.1.Y % 5 :.l.6.3.$.$.*.*.*.*.$.*.$.3.3.3.$.5.$.>.{ ; - @ X - : D AXpXcXvXMXKXpXdXgXfXvXvX",
"rXmXnXMXnXpXnXMXGXLXpX*X: O j +...~ <.-.4.N.] ` N.8.f.6.5.$.$.$.5.5.5.$.5.$.3.5.3.*.*.,.l @ % Z Z + @ > y Q.SXMXKXLXaXfXgXgXMXvX",
"tXNXdXMXdXhXMXSXA =XiXs ; * ( <.#.k.8.7.9.h.B.h Y Z.d.0.9.7.3.6.w.f.e.3.$.$.$.*.$.-.<.^ @ . K v.....g + @ - s =XsXPXdXdXvXMXMXcX",
"yXcXNXMXcXpXfX$X> + ' g % P >.$.7.f.f.9.s.8.Y 6 8 2.t.0.f.9.0.e.0.0.0.0.7.*.#.$.*.=.v.f O > ( =.-.:...` u @ > ZXPXMXpXcXNXvXMXnX",
"rXvXLXMXcXhXAXs # 0 ..,.Y ,.=.5.9.0.0.0.w.y.2.t U u.8.f.9.s.s.0.s.0.0.0.w.9.6.5.$.1._ + % E >.-.$.-.&.>.( W Q.PXfXNXaXcXmXcXLXmX",
"kXcXnXMXcXhXG ; + E >.%.j.t.5.6.0.0.0.0.w.y.S.M.Q B.Z.t.q.0.0.s.0.0.0.0.0.0.9.q.8.v.9 O q ..<.$.4.$.*.#.1.) d $XFXPXpXcXcXmXmXcX",
"tXcXaXMXLX*X2 @ f v.<.5.e.w.0.s.0.0.0.0.0.y.j./ + u  .V.l.0.0.0.0.0.s.0.0.0.0.g.S.K O @ Q <.#.*.$.5.5.;.,.r O : N =XsXaXlXkXvXBX",
"rXvXtXfXFXA = + ) 1.#.q.w.0.0.0.0.0.0.s.0.q.g.U % + & J =.9.0.0.0.0.0.0.0.0.0.j.o.6 O c ,.#.*.*.*.*.$.=.,.Q 9 @ ; ; $XaXrXlXBXMX",
"eXdXpXKX-X; O l ,.$.7.9.0.0.0.0.s.0.0.0.0.w.q.r.^ e & 5 T x.0.s.0.0.0.0.0.0.0.N.k O & ..Z.6.3.$.3.5.*.$.%.:.v.K % 0 0XfXdXcXcXvX",
"eXgXfXDXN - # { >.*.7.f.0.0.0.0.0.s.0.0.w.0.s.d.h.m.P j N.j.q.a.a.a.0.0.0.w.r.( + O I N.t.w.e.6.3.5.$.*.4.%.=.b.{ Q.AXSXsXaXmXcX",
"8XhXDX_.= , < n  .u.d.e.f.0.0.s.a.a.0.w.w.0.0.0.7.S.B.L ( N.j.9.a.a.s.0.0.t.N.r O 0 b.l.w.0.0.0.7.5.5.$.4.$.*.,.] 0 A ZXSXzXMXMX",
"uXhXJXi - X O % q Q N.k.q.w.0.0.s.s.0.w.w.0.0.0.0.g.~ 6 6 K b.j.a.s.0.0.w.r.` % + ` h.0.0.0.0.s.s.9.6.3.$.$.*.<.J + 0 > E.sXLXMX",
"aXIXD ; % _ x % O @ g  .Z.q.s.0.0.0.w.w.0.0.0.s.0.g./ 6 % % & ^ j.0.0.f.t.m.* O f N.d.0.0.0.0.0.0.w.w.q.5.$.$.-.~ K % @ ; E.LXdX",
"IXiX: + h |.V.| 0 O O & K b.h.l.w.0.w.w.0.0.0.0.0.q.S.v.x % % W S.w.0.d.Z.K + + ( l.0.s.0.w.0.0.w.w.w.q.6.3.4.$.=.b.` p 0 ZXLXdX",
"HXV : + v.h.x.k.M.Q & O O * W M.k.f.0.0.0.0.0.0.0.0.q.r.Z.,.U V.l.0.0.g...& + x Z.9.s.0.0.0.0.w.w.w.0.e.3.$.5.*.-.=.,.o.{ HXSXfX",
"-X; O P S.9.0.0.f.h.m.x @ @ % r ) u.k.d.9.0.0.0.0.0.0.0.q.h.L L M.h.p.u.c + 5 v.x.0.s.0.0.0.0.0.0.0.a.9.5.3.3.$.*.#.-.~ q 0 %XcX",
"b ; 5 m.j.0.0.s.9.f.g.S...f % + + z ..S.g.9.0.s.0.0.0.0.l.~ % + 0 ` B. .+ O W Z.d.9.0.0.0.0.a.0.0.0.0.0.q.9.6.3.*.;.=.U % > $XcX",
", O W N.t.0.s.0.s.0.s.q.h.N.` 9 + + 5 K m.h.d.9.d.q.w.w.t.>.f + + + k q O w B.g.9.s.0.0.0.0.0.a.0.0.0.0.s.w.0.e.*.#.<.v._ [ SXnX",
"&XC V.j.t.0.s.0.0.s.s.0.w.l.j.M.L & + O 7 ` N.j.8.z.c.l.l.g.Z./ q % + ; . [ V.g.e.9.l.l.9.0.0.0.9.f.0.0.w.w.w.w.7.-.:.m./.l W.HX",
"HX{ L 1.q.f.0.s.0.0.s.0.0.0.0.q.A...z + + % f ( H.L.P.K.z.t.q.S.'.n O , = 0 W M.U.h.,.Y u.j.l.g.:.>.k.d.q.x.r.Z.U.~ t  .K & 9 ~.",
"VX> + K p.0.0.0.w.0.s.0.0.0.0.s.d.k.S.( r + + + n ].5X1XK.D.x.r.|._ . = . @ O u | '.r % q | M.V.q & E m.h.u.r _ ..8 % q W r d FX",
"B ; & ..l.0.0.0.0.0.0.0.0.0.0.s.w.q.t.h.|.X.* . O % ] }.2X1XK.L.o.% + V { g + % 5 I P % % & J I % + + r ~ Y & % ^ ^ 5 ` B...O.JX",
"3 O L Z.q.0.0.0.0.s.0.0.0.w.w.9.q.z.z.r.I.2X}._ O . . 0 /.4X2X4Xm O & +.N.N.^ e 8 b.N./ r & t m...f % % J ,.h J Z.k.:.,.,.| @ 4 ",
"X 0 V.l.9.w.0.0.0.0.0.0.w.x.c.l.z.F.K.F.I.P.2X4X).m O O + k ]./.. O ` H.g.d.h.1.&.A.g.j.V.Y ~ u.A.N.` 6 ( Z.M.1.l.q.6.<.b.r O , ",
"=X] N.l.9.0.f.0.0.0.0.0.f.D.K.F.F.K.K.OXK.K.L.3X>X4X+.g O . . = . p 6X1XG.x.t.t.l.q.q.d.g.x.d.d.q.l.k.r.g.d.q.f.0.0.$.>._ # : F ",
"=X9 U 8.a.9.0.w.w.w.0.9.z.F.K.@XOXF.OXK.K.P.P.L.L.+X2X}.T.< , ,   Z ;X7X1XK.D.f.q.0.0.0.0.0.0.0.0.0.w.w.0.s.0.0.0.0.d.:.6 @ y CX",
"N > 5 2.d.9.0.w.q.D.p.g.K.I.K.OXG.OXK.K.K.P.I.P.J.+XL.2X6X).. , o X w /.4X<X@XD.z.x.9.s.0.0.0.s.a.a.0.w.0.0.0.0.0.s.9.r.^ f %XZX",
"= O I S.q.0.f.q.I.+X+XM. X2X<X+X,XH.<XXXP.P.1X1X<XL.1XL.6X_ O < v . + + x (.>X1XK.l.s.0.0.0.0.a.a.a.0.0.0.0.0.0.s.0.w.4.n.| [ ZX",
"@ & b.j.f.9.q.-.m.wX{.6 k (.6X>X].f (.}.2X2X'...,X3XL.2X(.% . Z 9XX.q O . @ } [.U.p.0.0.0.0.0.0.0.0.0.0.0.0.0.0.0.f.3.%.v.j # 2 ",
"@ } V.Z.2.M.Z.Y 5 ] _ % + + P ].x % % x ].;Xj % j (.4X9Xk O 7 :X5X5X;X{ O   O 5 ^ M.k.q.w.0.0.a.0.0.0.0.0.0.0.0.s.6.3.1.` % > B ",
"_.{ V...& 9 W e % z }. .& O + C (.q O O % { k + .   Z R.. O X.5X.X<X#X>X]._ O . O q | Z.x.0.0.0.0.0.0.0.0.s.0.0.0.6.5./ u @ 1 =X",
"Z % K L + + +.[.P '.2X7X{._ & {.6X{.T.+ & oX9XT.#       o b 9X>X<XJ.K.J.<X4X(.p O O % h ,.k.g.d.0.0.0.0.0.a.0.0.0.s.l.~ % # Q.sX",
": % U N.! ! 3X<X,X3XXX.X2X>XH.>X.X3X5X|.B.5X>X>X]._ ; , , b /.;X<X@XK.K.L.<X>X4Xo.6 + O O E m.k.w.0.0.0.a.0.w.w.0.9.q.1...P PXsX",
"=XC ..S.Z.h.G.K.P.P.P.P.P.L.P.P.K.K.L.+X1XJ.K.L.5X{.. ,   . + z B.2XP.P.P.P.K.@XJ.m.E + . O 6 ! Z.j.a.0.a.0.w.w.0.w.6.%.b.P C =X",
"ZX).c ..h.q.q.D.K.K.P.P.L.L.K.K.F.OXJ.+XK.OXF.<X}.n O < T.g . O O `  XP.I.P.K.F.8.j.A.,.K 6 + O z +.u.d.a.0.w.w.0.9.3.1.` % > A ",
"*X7 % e 1.f.x.F.K.K.K.K.L.OXK.K.K.K.1XL.K.OXOX2X).+ O [ ;X{.{ * O { 7XP.P.P.K.F.c.f.q.j.S...z % O % ^ i.j.p.f.w.w.5.-.v.g + 1 =X",
"0X' &  .j.e.D.K.K.K.P.P.OXOXK.K.K.K.I.L.P.J..X;Xp O q }.>X,X>X].` ;X XXXL.P.K.K.K.D.t.q.t.k.u.( f + O *  .N.g.a.7.#.>.W + = E.iX",
"pXKX).{ V.U.P.@XP.P.P.L.OXOXK.P.P.P.P.P.L..X5XX.. O X.3XL.+XJ.3X] P ].5X2XL.P.K.K.U.q.w.w.0.d.k.C.X.u O + h i.N.1.,...q # a DXjX",
"0XAXB @ z ].5X.XP.XXXXXXP.K.P.P.P.L.1X1XL.<X{.7 O l  X@XP.P.1XB.+ O + { }. XK.OXG.x.q.w.w.0.f.q.8.A.C...q + + x  .+.m + > &XGXpX",
"0X0X@ = O &  . XXXL.XXL.K.K.P.P.P.@XL.L.XX5X} O + (.7XP.P.P.J. X_ O O + h  XL.K.K.F.z.0.0.0.0.0.s.a.p.A.[.] & O & C < @ V DXLXtX",
"tXnX=XV : + 5 [.+XK.K.K.K.K.P.P.P.P.XXXX2X'.O . _ 4X<XL.P.P.OX+X>X].z & | 2XL.K.K.K.z.0.0.s.0.s.0.0.f.d.j.H.B.j O . = = =XLXnXrX",
"8XdXaXsX-Xy ).wX<XK.K.K.K.K.L.L.K.K.P..X4Xx . + ].2XXXP.P.P.K.K.+X>X9XX.].6X<XK.K.D.f.0.s.s.0.0.0.0.0.s.0.l.A.[.R.@ = D AXaXnXtX",
"8XbXaXfXGX0X} {.>X+XL.P.K.K.OXOXG.OXI.7X@.+ O { >XL.P.P.P.P.P.L.#X,X;XT.% /.4X1XK.z.a.0.s.0.0.0.0.s.0.0.0.q.k.V.p X 1 ZXKXcXLXpX",
"jXuXcXxXKXM O 9 +.[.3XL.@XK.K.OXOXJ.1X;Xu . q ;X<XP.P.P.P.P.P.P.OX+X[.& + O h B.J.g.9.0.0.0.0.0.s.0.s.0.0.d.h.^ O : Q.LXfXMXMXpX",
"8XvXmXmXpXs > # O g |.1XK.K.P.P.P..X5XX.O . /.7XL.K.P.P.P.L.P.K.I.1XL.B.g + O % V.j.y.0.0.s.0.f.0.0.0.0.0.x.m.7 # v AXMXnXMXNXrX",
"tXvXvXzXKXAX~.i ; 7 }.<XK.K.P.XXP.2X{.% . m 6X.XP.K.K.L.L.P.K.K.P.P.P.1X;X{ O T.7XP.z.0.0.0.0.w.w.0.w.0.q.S.P O > &XSXnXnXcXNXrX",
"tXcXrXrXpXhXhXsX[ /.4XL.P.@XP.L.L.4XZ O + (.>XL.P.P.K.K.P.P.K.K.K.K.P.L.3X6X)./.4XK.f.0.0.0.s.0.0.9.x.g.j.v.+ = V DXfXdXdXrXbXtX",
"tXrXrXyXdXdXtXfX0Xc +.6X2X.XL.+X>X].O . _ 6XL.P.P.P.P.P.P.P.K.K.K.OXK.K.L. XX.& L h.q.0.s.s.0.s.9.k.U ..V.J O = =XsXMXaXdXdXcX8X",
"tXmXzXmXnXnXnXKXv . O C (.6X3X,X;Xk O % [.+X@XP.P.P.P.L.L.P.K.K.K.P.K.K.K.H.8 & R r.w.0.s.0.0.q.k./ % + ' c > S KXmXcXMXmXmXMXeX",
"tXvXmXcXnXnXcXKXE.1 = . + ] [.6XW.+ O `.>XK.@XK.K.P.P.L.L.P.K.K.P.P.P.K.K.<X:X` ..S.t.w.9.l.l.h.N.f @ 2 DXFXQ.iXMXcXmXmXmXcXLXpX",
"0XcXvXcXrXtXaXfXpXiXA : ; O 0 E.i O g }.<XK.K.K.K.@XK.P.XXP.K.K.K.@XL.@XF.@X6X(.r o.r.x.h.~ ~ V.' + : !.GXfXSXLXfXcXMXMXMXnXmXrX",
"eXdXyXlXvXMXnXdXvXcXFX-XN : @   3   ).6X<XP.P.K.P.K.I.P.P.P.P.P.@XP.P.K.x.U.H.e & 8 r.r.m.8 5 _ C @ a JXgXcXfXMXnXnXMXMXMXMXmXrX",
"8XyXrXyXkXzXaXaXaXrXpXsXAX~.a : , $ Z ).4X<XL.P.P.I.1XJ.L.L.L.P.P.P.K.c.q.q.k.Y 6 ..r.A._ + 0 Q.sXO.$XhXpXcXrXdXdXdXdXdXdXdXcXtX",
"tXcXyXcXvXvXcXcXbXvXcXcXaXIXZX!., , . % { ;X5X2X1X.X[.7X2X.X<X.X2X<XF.k.k.g.j.S. .| C.m.% - N HXKXMXnXnXMXcXNXbXMXMXMXMXnXnXMXtX",
"pXMXcXvXvXvXMXcXcXMXcXvXvXfXSXDX=XV > ;   y /.9X4X .+ T.;X>X7X .` }.H.h.N./ n.B.n + E E @ ; *XGXfXMXMXMXmXMXdXMXcXcXMXMXMXnXmXtX",
"0XcXxXxXaXrXaXcXrXyXcXcXcXcXcXfXpXsX-Xa 2 X O z (.q O . g (.].& + u | B.o.5 t ] * > C PXE.A GXfXLXnXMXMXmXzXMXvXvXbXMXMXKXMXNXrX",
"tXvXcXcXcXdXcXcXlXcXzXnXcXyXvXaXcXdXfXDX~.i < . Q.$Xs > . . Q.d > O + l ' + * qXiXM 0XLXLXfXMXMXvXMXcXMXMXBXNXvXcXcXnXMXMXMXNXtX",
"8XlXrXzXdXhXaXaXcXcXxXzXyXyXlXlXkXlXrXfXDXJXF B DXGXZXG = H JXJX!.< : A JX~.E.JXsXpXpXpXcXrXcXaXrXyXdXeXrXlXkXkXzXcXcXfXfXfXMXtX"
};
