/* XPM */
static char *d9614a738617fc64f53905ee291bc79a319d2412_o[] = {
/* columns rows colors chars-per-pixel */
"64 64 256 2 ",
"   c #030200",
".  c #0C0200",
"X  c #0A0705",
"o  c #130200",
"O  c #1B0100",
"+  c #140B02",
"@  c #1C0B00",
"#  c #180B0B",
"$  c #191307",
"%  c #1D1111",
"&  c #230000",
"*  c #2B0100",
"=  c #240D00",
"-  c #290C00",
";  c #330A00",
":  c #231301",
">  c #2C1B00",
",  c #291905",
"<  c #371A02",
"1  c #271F1D",
"2  c #382402",
"3  c #2E2510",
"4  c #363531",
"5  c #471700",
"6  c #521400",
"7  c #681305",
"8  c #492602",
"9  c #4B3800",
"0  c #543C03",
"q  c #493417",
"w  c #553A18",
"e  c #522B0A",
"r  c #753A07",
"t  c #683B14",
"y  c #6E3104",
"u  c #533C24",
"i  c #483C34",
"p  c #483929",
"a  c #3E413C",
"s  c #5C441D",
"d  c #7A4403",
"f  c #6E500F",
"g  c #7A650E",
"h  c #584428",
"j  c #4C443B",
"k  c #554838",
"l  c #584F2F",
"z  c #664B2A",
"x  c #68532D",
"c  c #79582D",
"v  c #685336",
"b  c #785A39",
"n  c #724B2B",
"m  c #7A6928",
"M  c #7A6437",
"N  c #6F6739",
"B  c #3D3E42",
"V  c #413F40",
"C  c #5A5856",
"Z  c #554D49",
"A  c #635C57",
"S  c #6C5845",
"D  c #5E615C",
"F  c #796343",
"G  c #65635A",
"H  c #5D6262",
"J  c #636463",
"K  c #696667",
"L  c #873B00",
"P  c #B62E00",
"I  c #C43203",
"U  c #964A07",
"Y  c #995706",
"T  c #894B16",
"R  c #8D4F14",
"E  c #A65715",
"W  c #AA5105",
"Q  c #916E12",
"!  c #B77316",
"~  c #8C5524",
"^  c #975B27",
"/  c #86552C",
"(  c #A35F29",
")  c #87663B",
"_  c #996437",
"`  c #917333",
"'  c #A46328",
"]  c #B47131",
"[  c #D05113",
"{  c #DA7B07",
"}  c #D27213",
"|  c #E87C0C",
" . c #E47D13",
".. c #EC7D12",
"X. c #ED7D1B",
"o. c #E97814",
"O. c #F37C15",
"+. c #F37D1B",
"@. c #F87A1A",
"#. c #EE6F18",
"$. c #D5482E",
"%. c #E94927",
"&. c #EF4536",
"*. c #C87A29",
"=. c #D77829",
"-. c #C57A3B",
";. c #D67E36",
":. c #CA6E25",
">. c #F86727",
",. c #EC7D23",
"<. c #E47C26",
"1. c #F67E23",
"2. c #E07F30",
"3. c #EA4E1D",
"4. c #856745",
"5. c #95744C",
"6. c #967646",
"7. c #9B7B53",
"8. c #946D45",
"9. c #AC7A4B",
"0. c #8C7C65",
"q. c #D94D40",
"w. c #A4841C",
"e. c #99832C",
"r. c #B48934",
"t. c #BEA537",
"y. c #DA851D",
"u. c #D78513",
"i. c #E8840F",
"p. c #EC8114",
"a. c #ED811C",
"s. c #E58615",
"d. c #F3811B",
"f. c #F48217",
"g. c #EA991A",
"h. c #F29F1B",
"j. c #F0A31E",
"k. c #DA8429",
"l. c #DA8638",
"z. c #CF932E",
"x. c #EC8224",
"c. c #EB842B",
"v. c #E58629",
"b. c #F28426",
"n. c #E99B24",
"m. c #F79B24",
"M. c #E58735",
"N. c #EF9630",
"B. c #C8A82D",
"V. c #CFB039",
"C. c #ECA428",
"Z. c #F7A928",
"A. c #FAB32B",
"S. c #FDB535",
"D. c #F2AA36",
"F. c #FCD52E",
"G. c #F6D72D",
"H. c #FFCC3D",
"J. c #FFCA34",
"K. c #F6D433",
"L. c #FCD534",
"P. c #FBD935",
"I. c #FDD53A",
"U. c #FCD93B",
"Y. c #F5D53A",
"T. c #E9D43D",
"R. c #F5DD22",
"E. c #96864A",
"W. c #9A8256",
"Q. c #A4865B",
"!. c #B08D51",
"~. c #B9A645",
"^. c #B9A95A",
"/. c #B99869",
"(. c #AA926B",
"). c #BCA375",
"_. c #998467",
"`. c #D88946",
"'. c #CB9052",
"]. c #E48B42",
"[. c #FA994E",
"{. c #C3A84B",
"}. c #D0B250",
"|. c #FBB845",
" X c #EDB64B",
".X c #CA9D67",
"XX c #CAA466",
"oX c #D2A464",
"OX c #D2A569",
"+X c #D6AA6D",
"@X c #DBAC6D",
"#X c #D6A867",
"$X c #CAB765",
"%X c #DCB26E",
"&X c #D7B668",
"*X c #CAA778",
"=X c #D5AC72",
"-X c #DCAD72",
";X c #D4AD7A",
":X c #DBAE7A",
">X c #DAA772",
",X c #DDB274",
"<X c #D5B27C",
"1X c #DCB47C",
"2X c #DAB875",
"3X c #CCB878",
"4X c #E1AE6E",
"5X c #E2B26E",
"6X c #E2BB6C",
"7X c #E1AE73",
"8X c #E3AE7B",
"9X c #E3B475",
"0X c #E8B675",
"qX c #E4B975",
"wX c #E4B67A",
"eX c #E9B67B",
"rX c #E5B97B",
"tX c #E9B97C",
"yX c #E9B976",
"uX c #D9C24E",
"iX c #E8CB48",
"pX c #FFCD42",
"aX c #FBC94A",
"sX c #FDD443",
"dX c #FCDA44",
"fX c #F4D54B",
"gX c #FDDC4A",
"hX c #F9D548",
"jX c #E8CB56",
"kX c #FAC857",
"lX c #ECD357",
"zX c #F9D856",
"xX c #EAD749",
"cX c #FAE149",
"vX c #D7C470",
"bX c #E5CB62",
"nX c #F4DB65",
"mX c #EBD06A",
"MX c #F3E06A",
"NX c #B8B5B8",
"BX c #C8AB86",
"VX c #D5AE83",
"CX c #D4B383",
"ZX c #DCB583",
"AX c #DCBA8B",
"SX c #D8B788",
"DX c #D9B992",
"FX c #C9B48E",
"GX c #E3B684",
"HX c #E4BA83",
"JX c #E7BB86",
"KX c #E1BA91",
"LX c #E8C18B",
"PX c #FFF3B0",
"IX c #FFFBCD",
"UX c #FEFAF7",
/* pixels */
"%XqXtXeXwX1XwXeX0X9X=X2X2X%X9X-X=X,X,X-X@XoX,X=X>X9X+X@X:X,X,X#X&X6XrXwX9XwXwXrX:XeX>X9X9X5X0X-X&XqX>X8X=X*XS # O 4.*X%X#X%X@X7X",
"%XrXtXeXwX1XwXeXtXrX,X2X2XqXrX-XrX1XJXHX1X1XZXGXrXwXwXeXeXHXwX9X5XqXrXwXwXwX1XeX9XrX-XwX0X9XeX,XqX%XJXGXZXCXh o O M CXZXrXLXrXtX",
"%XrXeXeX1X1XwXeXwX9X,XHX9X9XwXwX,XrX*X*X*X).BX*X*XrX9XwXwXHXwX9X9XeXGXGXwX9X9XwXwXqX-X9XqX9XrX1X=XrXGX*X*X*X` f f e.BXBX*XZX,XqX",
"-XrXeXeXwX,XwXeX0XrX-X1X9XrXrX1X1X1Xc < 2 3 , 2 M <X,X,XeXwXtX9X9XGXGXGXwX9XwXrX9XqX@X9X9X9XwX1XwXZXKXz 2 O ~.mXnX^.o q q SX1XyX",
"-XrXrXrXqX,XwXrX9XtX-X,XwXeXGX1X=XSXu o .     . s AX1X9XqX9XyX%X,XeXeXHXwX,XwXeXwXtX-X9XwXrXtXwX=XZXDXu o o {.fXfX{.o = = DXGXtX",
"-XrXwXrXqX%X9XwXwXrX@X9XtXeXKXCXCXDXk .     X   x AX=X,XqXqXqX9X%XwXwXrX0X-XwXeXwXtX>X9XrXrXJX:XSXDXDXw o O B.hXhXV.& * < DXDXSX",
">XeX9XrXqX@X9XwX9XtX@X9XtXwXVXb q p A C C a   . x SX=XwXwX9X9X9X@X0X0XeX9X@X9XwXwXwX+X1XwXwXrX*Xv v z $XuX XC.g.g.s.*.-.9.n h k ",
">XtX9XqXqX@X9XwXrXtX#X9X0X1XCXq .   Z G G j   o z KX=X9X9XrXrX,X@X0X0XyX9X@X9XwXrX1X*XZX1X1XHX/.2 . @ bXzXsXZ.{ p.O.d.c.`.* .   ",
">XtX9XqX9X@X9X9X,XLX#X9XtX1XDXp     h l l q   . z LX=X,XqX,XrX,X+XrX9X,XwX,XZXSXCXAXCXCXAXSXZX*Xo o =  XzXpXm.| p.p.+.c.;.5 o X ",
">XtXqXqX9X-X9XrXrXwX@X9X9XHXFXq     (.3X3XE.. $ v AX-X9XyXtXtX,X,X2XrXrX1XXXc z z z h z z z s ` $X{.}.C.C.Z.m...O.O.O.,.;.5 o . ",
">XwXqXqXwX>X9XrXwXJX@X,X2XZXDXu , . $XzXnX~.. , z AX=X%X9X0XrX,X+X2XrX1XAX*X- o o . . . . : o m nXzXaXg.{ p.o.O.@.@.O.,.;.5 o . ",
"@X9X9XrXwX>X9X9XeXJX+X,X<XAXDX= o O V.gXgXt.. , x AX+X%XyX9XJX1X<X1X<XAXDXBXo .           $ . m zXsXpXg...+.+.f.O.+.b.M.`.5 O . ",
"+X9X@XrXeX@X9X-XwXHX=X*XQ.W.(.E.r.w.D.A.aXr.o : z SX,X,X@X-XJX/.Q.(.Q.(.(.0.j i 4 a B V 1 + . f  XA.S.p...O.p...a.=.E ^ _ 9.7.7.",
"+X9X+XwXeX@X0X@X-XeX=X7.= o 0 mXnXzXC.{ y.Y O > x KX*X:X9X>XSX4.= > > > @ 3 G J H J J K j o o t k.| | ..O.O...p.c.! * & ; VXGXGX",
"@X9X-XwX0X@X0X@X0XwX=X7.@ o 9 bXfXsXh.{ v.Y O o w SX;X1X,X,XAXM o . . . . . C G H J J K i o O y k.p.+.+.d.O.f.X.c.:.* ; < ;XGX1X",
"+X9X,XeX0X@X0X9X9X,X;X7.@ . 0 jXdXJ.Z.n.C.u.g ) ` /.Q././.!.).E.m m m m m N G G G C C S v t r U v...+.#.+.d.=.:.*.] e w s 1XwX9X",
"&X2XwXeX7X9X9X9X,XwX*XQ.: . 0 jXY.K.I.I.sXsXzXnX$X@ @ @ @ > o ^.lXxXzXzXnXvXF A D 4   o ^ `.l.v. .f.+.+.X.c.U * & ) ZXwX:XwXrXqX",
"2X2XeXJXtX-X9X,XHXZXCXW.. o 9 lXY.G.P.I.L.P.U.fX}.o o . . o o ~.cXG.L.I.dXjXF A G 4 X O E c.X.p.f...+.b.<.].~ & > ) =X>X0XtXrX9X",
"@X9XwXwX9X%X0X,XCXCXBXQ.0 9 f iXdXP.L.L.L.L.Y.fXuX2 9 9 9 0 O V.hXL.I.L.I.jXb C G 1 X O E c.X.+.O.O.,.<.=.`.^ 8 8 8.1X,X9XrXtXqX",
"0X7X9XwX2X+X9X,X5.q @ E.mXjXiXhXI.L.L.L.F.L.P.dXfXjXjXbXbXbXjXlXhXI.L.L.U.iX2 . $   % O E b.+.@.@.1.<.y 6 5 !.ZX;XZXZX1X,X,X9X0X",
"0X7X9XwX,X,X2X1XM > o e.nXY.U.L.I.I.L.L.L.L.P.I.I.gXhXfXgXfXfXhXY.I.L.L.I.jX>       % O E c.+.@.@.1.;.y O O Q.1X-XwX:X9X9X9X0X9X",
"0X9X9X9X1X;XCX<XM o O Q zXP.F.L.L.L.L.L.L.L.P.P.L.P.L.P.K.P.K.U.U.I.L.I.sXjX>   X   X O ^ l.2.c.+.1.;.7 & O Q.1XwX9X>XwX9X9X9X9X",
"9X9X4XwXVXb h 0 ~.uXV.iXdXI.I.L.L.L.L.P.P.P.P.L.P.F.L.F.F.F.P.P.L.L.J.g.C.z.,     Z C Z x t y U <.+.x.} :.] _ e z 7.1X2X-X-X0X0X",
"9X9X@X1XBXq : o t.zXgXI.I.Y.I.L.L.L.P.I.I.I.P.F.F.F.F.F.F.L.F.L.L.I.S.{ s.*.:     C J K i o O y k.o.X.b.b.].R & * b <X,X,X9X0X7X",
",XrXCXDXFXq : o t.hXJ.L.U.K.P.L.L.L.P.P.I.I.I.L.F.F.L.L.L.L.L.L.F.I.A.{ s.*.:     C J J j . . t l.b.x.X.X.M.~ & - F ;X,X9X0X7X9X",
"rX*XF F ) Q.Q.E.}.gXL.L.L.P.P.P.L.L.L.P.I.I.L.L.L.L.L.L.L.L.L.L.L.J.H.Z.S. X>     Z J J C Z j z ~ Y W <.X.M.~ O - F ;X9X9X0X0X0X",
"1X/.. . O *XCX&XlXgXL.L.L.P.L.L.L.L.I.L.I.L.L.L.I.L.P.P.L.L.I.L.F.P.L.I.gXjX2 o X C J H C G K C o & * *.,.c.R O = ) 1X9X@X%X0X9X",
"GX/..   @ BXCX&XjXgXI.L.L.P.L.L.L.I.L.L.L.L.I.I.P.L.P.P.I.L.L.L.P.F.P.K.I. X* O O Z J H J J J Z o O * `.M.].~ O - ) +X5X@X9XrX9X",
"eX/.    o _./.!. XgXI.P.L.L.L.P.P.P.I.I.I.L.L.L.I.I.L.L.L.L.L.L.L.L.K.I.U.aXY R T n k Z Z Z k z T R T ( ] ] 9.) ) /.:X7X,X,XwX2X",
"wX.X.     @ < O V.dXI.L.L.L.P.P.I.L.P.P.L.L.L.I.I.I.I.L.P.L.L.L.L.P.P.I.I.pXv.M.`.r o . . . . w `.l.`.6 * & !.CX<X1X9X7X0X,XwXwX",
":X/..       . o B.dXL.L.P.P.P.L.I.P.K.K.K.K.U.U.P.P.P.P.P.L.L.P.L.P.L.L.I.J.s.<.l.r o # X # o t l.v.l.y O - 7.:X=X@X@X4X0X>X7X>X",
"OX/..   . l x 9 B.dXL.L.L.L.L.L.G.Y.zXnXnXlXjXuXiXY.P.L.P.P.L.P.P.F.L.J.J.S.i.X.k.r o #   # . w -.*.-.r 8 2 /.9X,X9X9X9X7X7XtX+X",
"XX).o   . vXmXfXY.U.L.L.F.L.L.G.R.T.PXIXIXFX. o g fXI.L.L.P.F.F.G.L.S.i.i.p...X.=.T o +       . o O ; BXAXGXwXtX0X0XqX0XwXwXtX@X",
"XX/.o o o vXzXY.U.L.L.L.L.L.P.G.R.T.PXUXUXNX  . g kXhXH.sXH.I.L.F.L.S.| ..X.X.v.].r o +         . . > ).SXrXrX9X0X0X0XqXrXwXrX@X",
".X*X< - : $XmXlXfXU.P.K.L.L.I.U.G.iXIXUXUXNX  . f mXkXaX|.aXaXH.L.L.S.i.a.x.k.l.'.t O +       . , = q *XJXwXwXyX9X0X9X9XwXwXtX+X",
">XwXZXCX3Xc f 8 B.dXY.P.U.I.I.I.U.zXE.j A 4   . y -.=.=.<.<.} S.sXI.S.{ a.<.' _ 4.S Z A 4 . X i FXBX*XSX1XwXrX9X0XwXwXwXwX9XtX+X",
"oX-X>XZXBXq . o t.dXY.P.K.L.I.P.G.zXm . . X 1 * 7 q.$.%.%.%.P [.aXI.S.u.x.;./ S A G J K Z   . k BX;X1X=X-X-X@X,X,X,X,X,X9X,X0XoX",
"#XeXtXGXSXq > o {.zXfXhXI.I.I.I.F.hXg o o . o & 7 q.&.&.&.%.I [.kXpXS.s.a.=./ v v S v S i . + u AXwXrXwXtXtXtXtXwXwXwXwXwX9XtX#X",
"oX0X@X9XGX/.Q.Q.!.` Q w.C.h.Z.J.L.U.V.B.V.V.}.}.[.$.%.&.>.>.#.b.m.m.m.p.f.a.=.-.-.-.] !.b o @ h GX9X0X0X0X0XwX9XwXeXrXwXwXwXtX+X",
"oX0XwXwX@X=X<XCXc & O d y.{ s.H.I.L.sXgXdXgXdXzX|.[ %.%.>.1.1.X.o. .....O...b.x.x.c.v.`._ O = s ZX0X0XyX0X0X0XwXwXrXeXeXrXwXrX@X",
"oXrX1X9XwX:XCXSXM @ O U v.p.g.pXI.I.sXsXsXI.I.aX|.[ 3.3.@.@.d.x.x.b.d.O.O.f...+.X.c.<.]._ o : s 1X9X9X0X0X0X0XtX0XwXwXwXwXwXrX+X",
"oX-X>X:XCX7.8.) !.!.r.z.v.p.i.Z.Z.A.A.A.A.A.A.A.D.#.>.>.@.O.X.} E E } b.+.f.+.X.x.=.] 9.b O @ w ;X@X@X@X@X@X@X4X9X9X9X,X,X,X9XOX",
"oX9X@X:XBXq > o ~.zXzX|.{ p...| | .. .| | | | | o.b.1.1...X.c.U & & L c.X.+.+.,.l.' x S i . o u CX,X,X,X,X9X9X9X9X9X9X9X,X,X1XOX",
"+XwX0XwXDXu @ . ~.zXzXaXy.v.x. ...........| | | p.{  . .v.v.l.R o O L v.d.O.+.x.l.' v G j . o h AXrXrXrXrXrXrXtXtXtXtXtXrXrXHX=X",
".XtX4XwXSXw + . E.$X$X{.] ] ! N.m.h.C.n.m.m.C.j.g.j.n.N.*.] ] ' Q Q ! s.O.O.O.+.<.:.' 8.z . + h SXwXwXrXrXrXwXwXwXwXwXwXwXwXHX=X",
"oX0X0X9XVXu . + . . o O O & e kXsXI.sXpXpXpXsXH.I.J.H.kXd & & {.nXzXS.p...O.O.+.x.<.M.`._ O @ h ZX0XwXwXwXwXwXwXwXwX9X0XwXwXeX+X",
"oXrX5X9XCXu . . + @ , @ o o 0 lXdXL.L.I.I.I.I.L.F.L.L.aXf o O ~.zXhXS.s.p.O.+.@.+.+.X.M._ O : h ZX9X9XwXwXwXwXwXwXrXwXwXwXwXrX@X",
"XX%X@X>XCXz = , o o o - 8 < d &XjXiXY.L.K.P.P.L.L.F.L.fXg 9 2 ~.lXjXD. .a.O.+.O.+.+...c.( & = w =X+X@X@X-X-X,X,X,X,X,X,X,X,X9XOX",
"oX9X5X9X1X1XZXSXF = O n `.l.] 8 2 @ V.dXK.P.L.L.L.U.L.I.iXlXlXw.. > U c.a.O.f.O.| f.O.c.' & - h GXeXwXrXrXrXrXrXrXwXwX0XwXwXrX+X",
"oXqX5X9X9X9X9X1X4.- O T `.l.-.; o . }.fXhXdXY.I.I.I.I.I.I.I.zXw.o o U c.x.O.O.O.a.a.o.M.^ & - w GXwXwXwXwXwXwXwXwXwXwX0XwXwXtX+X",
"oXwXwX0X-X@X@XZXb = & n `.`.!.< : . $XnXlXlXzXfXhXhXpXpXpXpXaX! & * U <.1.+.@.+.x.v.=.`._ * < z wXwXwXwXwXrXrXrXwXwXwXwXwXwXtX+X",
"OXeXwX9X9X-X,XZXF o o < r r t O . . s m g g g g Q n.n.g.g.g.C.y.] ] =.,.+.+.@.+.x.W y d 6.ZX;X<XwX9X9XwXwXwXwXwXwXwXwXwXwXwXtX+X",
"oX0X7X7X7X-X=XCXF . . . O O o .   X . . . o o O 6 k.s.| i.{  .p.v.v.,.+.+.O.O.X.c.L & o c CX=X1X-X@X@X-X-X-X-X,X,X,X,X9X9X,XwXOX",
"oX7X>X>X-X-X=X<Xb o o o @ @ o . . . @ : @ : , O r `.M.v.v.M.v.v.M.v.b.d.@.+.c.M.`.d o : b CX:X>X-X-X-X,X,X,X,X9X,X,X,X,X,X,XwXOX",
"#XwX7XwXtXyX9XwX/.8.5.5.5.5.5.5.5.5.5.5.6.5.7.6.!.~ ~ ~ ~ ~ ~ ~ ~ R [ ,.+.<.E ~ / 8 . . 4.GXwXrXrXrXrXrXrXtXtXtXwXwXwXrXwXwXtX+X",
"oX9X9XwX0X5X5X9XwX1XGXZXZXZX1X1X:XGX1X1X1XZX1X;X;X& & O O O O O O * L c.b.=.* & o . . . ) ZXwXqXwXwXwXwXwX0XwXwXwXwXwXwXwXwXtX+X",
".X9XwX9X@X#X@X5X@X>X:X1X<X1X,X@X#X+X%X=X:X:X:X;X.X5 & - = = , . o & r y. .} * O o o . o 4.GX9XwX0X9XwXwXwXwXwXwX9X9X9X9XwXwXrX+X",
"oX9X:X9X0X9X9X9X0XwX9XwX1X1X,X%X9X9X9X9X9XwXeXGXZX8.4.4.: o . N E.e.z.D.Z.C.Y ~ c 2 . o ) ZXwXwXwX9X9X9X9XwXwXwXwXwXwXwXwXwXrX+X",
"XX,X-X:X-X@X7X4X7X7X>X>X:X,X@X4X@X@X@X7X5X@X>X>X:X8X:XVX> > . ^.MXfXsXI.sXpXv.l.`.f O @ ) *X=X-X@X@X@X@X@X-X@X@X9X,X9X9X,X,XwXOX",
"oX9X9XwXwXwX0X9XeX0XwX9X9X9X9X9X9X9X7X5X5X5X9X9XwX9X0X;X@ > . ^.nXfXfXfXfXaXk.k.`.r & @ c 1X2XrXwXwXwXwXrXrXrXrXwXwXwXwXwXwXrX+X",
"oXwX0XeXwXeXwXwX0XeXwXwXwX9X9X7X9XqX9X5X5X9XeX0XeXLXrXHXz w 2 /.vX&XvXvX$X&Xr.9.9.~ 8 e 6.rX,XwXwXwXwXwXwXwXwXwXwXwXwXwXwXwXrX+X",
".X9X0X0X>X@X-X9X4X7X9X9X0X0XwX9X@X%X%X5X5X9X9X@X,X,X2X1XSXCXFX4.O O o . . o O & * *XKXGXHXwXrXwXwXwXwXwXwXwXwX0XwXwXrXrXwXwXtX@X",
"oX0X0X0X7X:X9X9X%X9X9X9X9X0X9X,X9X9X9X7X9X9X0X9XwX9X2X2X9XwXSX4.. + o . . . o o = *XGXeXwXwXrX9XwXwXrXrXrXrXrXrX9X9XwXwXwXwXrX+X",
"oX9X4X4X:X-X%X@X%X%X,X@X7X9X:X:X7X7X8X8X0X9X,X,X@X,X2X&X@X@XVX4.. + . X .   . . @ ).:X-X,X%X,X,X@X-X-X-X-X-X-X-X9X9X9X9X9X9XwX#X"
};
