/* XPM */
static char *_05db4f565bf2efc08b01ccbcf0fe835fd258365_o[] = {
/* columns rows colors chars-per-pixel */
"64 64 253 2 ",
"   c #370A13",
".  c #040D39",
"X  c #181A37",
"o  c #0F1034",
"O  c #2F052E",
"+  c #340829",
"@  c #321B2D",
"#  c #280934",
"$  c #320632",
"%  c #351C31",
"&  c #261437",
"*  c #162038",
"=  c #3A2137",
"-  c #440A09",
";  c #440C18",
":  c #4B1418",
">  c #4B1925",
",  c #551F28",
"<  c #4F1730",
"1  c #771C2D",
"2  c #731A33",
"3  c #582329",
"4  c #592837",
"5  c #4E2C39",
"6  c #63262D",
"7  c #65292E",
"8  c #76222C",
"9  c #642633",
"0  c #642A33",
"q  c #672838",
"w  c #762234",
"e  c #68323A",
"r  c #73363D",
"t  c #0D1B45",
"y  c #0D1C4A",
"u  c #061745",
"i  c #131A46",
"p  c #131B4A",
"a  c #171A48",
"s  c #0A1E51",
"d  c #141D51",
"f  c #171D55",
"g  c #291B46",
"h  c #281C47",
"j  c #0B224B",
"k  c #14214C",
"l  c #19224C",
"z  c #0C2655",
"x  c #142353",
"c  c #1B2353",
"v  c #14265A",
"b  c #1C255B",
"n  c #1B2A5D",
"m  c #152A59",
"M  c #18345D",
"N  c #0C3158",
"B  c #222A57",
"V  c #2D2B4E",
"C  c #1B2661",
"Z  c #1C2B62",
"A  c #152A62",
"S  c #1B3564",
"D  c #212B63",
"F  c #223364",
"G  c #26396A",
"H  c #303C6D",
"J  c #5A1943",
"K  c #681B44",
"L  c #572A43",
"P  c #573547",
"I  c #49314D",
"U  c #6F364C",
"Y  c #6C3E64",
"T  c #1C416C",
"R  c #25426B",
"E  c #284874",
"W  c #364A76",
"Q  c #375479",
"!  c #2B4F77",
"~  c #3B607D",
"^  c #4F4359",
"/  c #664757",
"(  c #734B53",
")  c #534568",
"_  c #534D6B",
"`  c #6D556F",
"'  c #5A6579",
"]  c #48677C",
"[  c #66667A",
"{  c #78677B",
"}  c #77423E",
"|  c #890D2B",
" . c #980929",
".. c #8B132C",
"X. c #85182C",
"o. c #891133",
"O. c #A50426",
"+. c #BB0A2F",
"@. c #AC122E",
"#. c #D01236",
"$. c #EB163C",
"%. c #F1143E",
"&. c #F0183F",
"*. c #DD223F",
"=. c #8B2953",
"-. c #892A56",
";. c #85375B",
":. c #91354F",
">. c #BC2846",
",. c #B03B59",
"<. c #B42B58",
"1. c #DE1D45",
"2. c #E31C43",
"3. c #EC1742",
"4. c #F11541",
"5. c #F11A43",
"6. c #C32646",
"7. c #D9244E",
"8. c #D82346",
"9. c #D52553",
"0. c #CB2F57",
"q. c #DA2750",
"w. c #8B5B53",
"e. c #895956",
"r. c #926857",
"t. c #8D674F",
"y. c #924F71",
"u. c #AA537C",
"i. c #A04F7A",
"p. c #966871",
"a. c #A67870",
"s. c #A3415A",
"d. c #385B85",
"f. c #3A588F",
"g. c #37678A",
"h. c #3B7494",
"j. c #3C7C9C",
"k. c #377898",
"l. c #386F93",
"z. c #397DA1",
"x. c #475E8A",
"c. c #4A5D90",
"v. c #577289",
"b. c #496898",
"n. c #566797",
"m. c #437D9C",
"M. c #4B7C9C",
"N. c #477696",
"B. c #557799",
"V. c #4A678B",
"C. c #686984",
"Z. c #776886",
"A. c #68768C",
"S. c #657B97",
"D. c #737A91",
"F. c #497CA2",
"G. c #557BA6",
"H. c #4C68A2",
"J. c #677BA4",
"K. c #7F5C84",
"L. c #986685",
"P. c #866C8A",
"I. c #AE6985",
"U. c #A35D84",
"Y. c #3B849D",
"T. c #3682A4",
"R. c #3C83A4",
"E. c #3C85AA",
"W. c #3E89AB",
"Q. c #3B86A7",
"!. c #3F8BB2",
"~. c #43829E",
"^. c #4A859D",
"/. c #568399",
"(. c #70849A",
"). c #4384A4",
"_. c #4B84A3",
"`. c #448AA5",
"'. c #4C89A5",
"]. c #4486AA",
"[. c #4B85AA",
"{. c #448AAB",
"}. c #4C8CAC",
"|. c #5385A4",
" X c #538AA5",
".X c #5B8AA5",
"XX c #548CAB",
"oX c #5A8BAB",
"OX c #5885AA",
"+X c #4D92AC",
"@X c #4793A9",
"#X c #5391AC",
"$X c #5B92AB",
"%X c #4C8EB1",
"&X c #448DB2",
"*X c #548DB2",
"=X c #5C8DB3",
"-X c #4691B4",
";X c #4C93B4",
":X c #4B96B9",
">X c #5494B3",
",X c #5B93B3",
"<X c #5599B6",
"1X c #5C99B4",
"2X c #5496BA",
"3X c #549ABB",
"4X c #5B9BBC",
"5X c #5A96BA",
"6X c #638AAC",
"7X c #6489A7",
"8X c #668BB3",
"9X c #6394B9",
"0X c #649CBB",
"qX c #6696B7",
"wX c #7597BA",
"eX c #708CAA",
"rX c #59A2BA",
"tX c #4BA1BC",
"yX c #66A4BC",
"uX c #71A0BA",
"iX c #5A9BC1",
"pX c #659CC2",
"aX c #7799C2",
"sX c #718FC1",
"dX c #5CA2C4",
"fX c #59A3C4",
"gX c #69A7C5",
"hX c #73A8C6",
"jX c #72B3C9",
"kX c #AF9294",
"lX c #8C94B3",
"zX c #9AA3B8",
"xX c #ABA7B9",
"cX c #B198AF",
"vX c #CCA99B",
"bX c #ECD8A8",
"nX c #F4D7B7",
"mX c #EED3AF",
"MX c #88A6CA",
"NX c #96B3CC",
"BX c #8BAAD1",
"VX c #94ADCE",
"CX c #AFBED5",
"ZX c #93AED1",
"AX c #BAC8DC",
"SX c #A5C2DB",
"DX c #BACCE3",
"FX c #B8D2E8",
"GX c #C7C5D5",
"HX c #D3C7D4",
"JX c #C7D3E4",
"KX c #CED2E8",
"LX c #FAD7C1",
/* pixels */
"`.`.`.~.m.m.m.j.R.Q.Y.Q.~.'.~.~.Y.Y.~.`.Y.`.[.|.G.OX|.oX=X9X5X3X3XfXrX3X;X2X;X;X>X>X}.XX}.+X@X+X+XrX$X^.`.`.`.}.>X>X;X:X;X:X3X3X",
"BXjXgXgX0X0XgXgXgXdXrXgXgXgXgXgXyXgXgXgX4XyX0X0Xg.d.d.g.d.d.g.*X<X:X3XdX3X3X2X>X2X5X<X1X<XrXrXrXyXjXhXhXgXhXhXhXjXhXgXgXgXgXgXdX",
".X|..XoXoXoXXXXX}.#X+X}.XX_._.XX X.X|.oXXXOXoXwXG j z z z v M b.N.l.k.k.k.j.k.k.k.j.m.~.).'.).^.^._..X.X X#X,XoXF._._.).).).).).",
"M.M.|.|._._.XX$X,X,X,X,X,X8XqX,X9X8XoX,XoXOXoXwXR v D D n n S B.OXOXXX}.}.{.{.{.}.}.[.XXoXXX|.oX|.|..X|.XX#X>XXX9X9X0X4X4X5X4X4X",
"m.~.).).'.'.'.|.oX8XqX6X8X6X6X6XXXXX'.XX'.'.XXqXR m b b n v S B.6X|._.'.{.@X@X;X}.XXOXOX6X8X8X8X8X7X$X X+X+X+X+X#X>X>X<X2X2X4X4X",
"j.).).).'.'.'.|.6XQ S R E R E E F.}.}.}.+X}.XX9XR z v b n v v S S S ! '.}.@X@X@X+XXXl.R G G G R S d.oXXX+X+X+X+X#X#X>X>X>X>X,X,X",
"OX=X=XXXXX'.'.|.aXE u m F x m T F.XX}.}.%X'.[.9XE z Z Z v n m u u u N F.).{.@X@X'.|.d.m z v v v u Q =X*X}.}.}.'.XXXX#X>X#X+XXXXX",
"=X=X,X,X,X>X#X,XaXW y F F v n G F.=XXX[.}.%XXX9XR z v v n n v z s j N F.).{.}.}.XXoXf.m n n n Z v d.=X*X%X}.}.}.XXXX,X,X>X>X#X#X",
"z.].).].{.].].}.8XW s F G Z F F b.6XOXOX>X%X}.*Xd.g.d.W d b x d y x N h.R.Y.#X'.G.6Xd.m m n Z Z s Q *X}.{.`.}.).[.*X>X2X3X:X;X;X",
"].].Q.W.{.W.].[.aXQ Z Z F F G Z m z z T >X2X;X%X*XF.M.V.u p d d d y N m.j.~.F.S z x x n n v b Z v ! XX}.-X{.`.).>X>X*X>X;X@X-X;X",
"R.E.W.&X{.{.}.[.9XE m G Z D b b p j u N }.-X].{.).)._.Q z d p d y j N N.h.m.M.z u y x b n n n n z E =X}.}.].{.}.'.XXXX'.}.+X+X`.",
"].{.].{.}.{.%X*XaX! j G Z b b B p p y N OX}.}.).).m.N.d.y d p d d y M B.N.M.B.x p p c c n x n m z ! _.[.}.}.[.[.oXXXXXXX'.'.}.+X",
"}.%X}.;X2X>X;X>X*XF.b.G.d.x x p i i p m b.B.G.B.B.B.G.d.y c b y p u n n.B.n.x.y y i p c k x x.B.V.M.oX XXX=XG.G.G.G.G.G.G.,X4X4X",
"0X0X<X>X<X<X>X2X5X5X,X8Xx.x y p i k i t u u . u x s z z n n b d p p t u . . u y p i i i t z B.|..X.X.XoX6XOXM M S S m M R G.9X4X",
"h.m.j.m.m.m.).).j.j.h.M.Q j t k t t p i k y x x Z Z Z Z b D b p i i p l p k k y p i i a i j B..X.X.X.X.XoXB.x n G F v M G J.8X,X",
"#X>X>X,X,XqXqX9X9X9XqX6XV.j j t i i i p i i y p v m b v n b b p t a t i p i t p i i a i i x B.7X6X7X8X8X7XB.F F n G F F G 8XhXgX",
"Y.@X}.XXoX~ Q Q W Q W Q G u i i i i i i t i p p b n n b b n b x t t i i i i p c f b b x x b R Q Q Q ] W W W F G Z F F Z S N.j.Y.",
"@X`.%X*X|.M j . . . . . u t i i i i i i t y p p b b n b b b b d t t i i i i d b Z Z b b n x t . . . i . . c n v G Z C Z S N.).W.",
"Y.+X*X=X6XR k k p l a p p i a i a i i i i p p d b b b b b b b d p i i p p p f C v C A Z C b f d p a B B k B F n F Z v v S F.[.{.",
"'.,X=X8X8XM t p i i p i i a i a a i i i i i p p b b b b b b b f p p p p p d f C A C C C C D f p a i l B c c F F Z G R T E F.[.{.",
"|.N.S G G n c b c y y y p i i a i i i i i i i p i i p p y y p y i i i i p d f b C C Z b b b d p t l B l l c c i d V.OX%X}.}.`.>X",
"G.b.z A v c n b x x j y p i p i i t i i i i i t i t p p i t p p i i i i i p f b C b n n b b d i i p c i k B l l y g.}.&X{.{.}.}.",
"|.B.s S C b b B x y s u t p i i i i i i i i i i i i i p i t i p t i i i i i a b b b b b n n B B a a B B c l t u j l.%X{.{.Q.`.`.",
"|.N.u A C b Z x G d.d.x.H i a i i a a a a a a a a i i i i i i i i i i i a a a c c c x c c c b l B B c c k M Q Q ! h.R.T.).~.`.Y.",
"7Xb.s D C b Z v ! 8X9X8Xx.l i i a a a i i i i i i i i i i i i i i i i i i i i i i i y p i i l c B B c c k W B.M.m.[.[.XXoXOX).`.",
"8Xb.s Z Z C Z m ! 9X*X=Xx.h h h h h h h h h h h h h h h h h h h g h g g h h h h h h a a a a h V h a k k u W /.^.'.[.F.F.|.|._.'.",
"oXg.z A A M A N ! XX}.|._ # O O $ $ $ $ $ $ $ $ O O O O O O O O O O O O O O O $ # # # # # # # & & o k j j ! |. X'.}.[.[.XX#XXXXX",
",XXXF.G.G.G.G.F.F.>X}.G.Z.Y -.=.=.=.=.=.=.=.=.=.=.=.=.=.=.=.=.=.=.=.=.=.=.=.=.=.-.-.K J J J J L L I v.N.b.M. X'.'.}.}.}.>X>X>X*X",
">X<X2X3X2X2X2X2X;X>X,X(.U.,.0.9.9.7.7.7.7.7.7.7.7.7.7.7.7.7.7.7.9.9.9.7.7.7.7.9.9.0.@. .| o.o.o.2 Y S.M._.m.~.Y.R.).].].`.}.}.}.",
"dX3X3X:X:X:X-X-X;X>X#XD.I.0.7.3.4.%.%.%.%.%.%.%.%.%.%.%.%.%.%.%.4.4.%.%.%.4.4.3.2.1.#.O.O.O. . .| U S.m.j.j.Y.Y.].].].Q.R.`.].].",
"5X2X2X3XiXiX2X2X<X,X,XlXI.0.2.4.4.4.4.4.4.4.4.4.4.4.4.4.4.4.4.4.%.4.4.%.%.4.3.$.1.8.+.O.O. . . .o.;.D.XX[.}.`.`.).).).).).{.%X}.",
"3X3X3X3X3XdXpXpXgX0X0XlXI.0.2.%.&.4.4.4.4.&.&.4.4.4.4.4.4.4.4.4.&.&.%.%.%.&.#.#.+.+.O. . . . . .| ;.D.XX}.%X{.}.%X{.{.{.].].%X%X",
":XtXiX3X:XiXiXiX%X<X1X(.u.0.2.4.$.%.%.4.$.&.$.&.4.4.%.4.4.%.4.&.$.$.%.%.%.5.#.O.O.O. .O. . . . .| U D.[.].{.}.}.{.-X-X&X&X-X-X-X",
"-X:X:X;X;X:X3XiXdX2X#X(.p.,.8.2.2.2.2.2.1.1.*.$.2.2.2.2.2.2.2.2.8.*.2.3.2.1.#. . . . ...| o.o.o.2 ( (.[.].E.).z.{.{.W.!.!.&X&X&X",
":X:X2X2X2X2X3XiX3X:X;X7XL.s.>.6.6.6.6.6.6.6.6.6.>.>.>.>.6.6.>.>.>.6.6.6.6.>.>.....X.2 2 2 K K K < Y S._.).R.R.Y.z.T.T.E.E.W.W.Q.",
"2X2X5X4X4X4XiXiXiX3X3X7X{ U X.....................X.X.X.........o.o.......X.X.1 1 w < + $ $ $ $ O I B.[.[.).~.Y.).{.{.{.%X-X+X}.",
"hXjXhXhXgXgXgX0X,X5X,XeXZ.U w w w 8 1 w 8 w 1 1 1 1 8 8 8 8 8 8 1 1 8 8 8 8 8 w 9 L 5 & g a h h X H OXXXXXXX'.}.}.[.[.[.[.'.|..X",
"_._.M.N.h.h.h.g.l.l.h.V._ % + ; < 4 4 < >   ; ; 4 4 4 > ; ; ; > 3 3 > >     > 4 5 I g o . u i i t G G.F.M.~.~.).~.~.M.M.M.M.N.N.",
"#X>X>X>X>X<X>X>X<X>X<XoX(.A.C.Z._ ) ) ) C.[ Z.[ ) ) ) ` Z.Z.{ _ ) ) ) C.C.Z.[ ) _ _ W H G H c p u R G.F._._.^.'.'.'.XX X|..X.X/.",
"yXyXiXdXiX5X3X:X;X}.;X'.wXNXVXVXJ.c.n.n.MXVXVXlXc.n.c.wXVXVXVXJ.c.n.n.VXVXVXlXc.n.n.H.H.H.b.B u u R G.m._.XX}.#X}. X X X|..X.X.X",
"<X3XdXdXdX3X:X:X{.:X{.'.wXNXMXBXG.b.b.H.MXBXMXaXx.H.c.8XBXBXBXG.c.b.n.MXBXBXaXV.b.H.H.H.b.b.S u * R |.}.'.}.}.}.XXXXXXoX6X7X7X7X",
">X<X3X3X3X2X:X:X:X;X-XXXuXNXhXBXG.f.c.b.aXMXMXwXn.n.n.eXBXMXMXG.f.c.b.MXMXMXlXc.n.n.b.H.H.n.B o X F N.~.).).[.[.[.'. XoXoX.X.X/.",
"}.%X>X<X5X2X3X3X;X2X:X*XMXFXSXSXMXsXsXwXSXSXAXzXV ` ^ lXAXCXCXMXwXwXwXSXCXAXzXI ) ) ) H H H I I V ^ B.m.).).[.[.[.'.XXXXoXoX.X|.",
">X2X5X4X4X<X>X;X:X:X:X*XNXJXDXFXZXBXZXVXFXDXJXxX+ P + kXKXJXFXNXBXBXVXFXAXKXcX+ L 5 & . . o I P P ^ B.m.).].[.[.[.}.}.XXXXXXXX'.",
"3XiX5X5X2X>X;X:X:X-X:X}.NXKXAXDXNXMXMXVXDXDXJXxX+ U   kXKXGXDXNXMXMXVXDXDXKXcX  e L V X a X I L L ^ N.R.].{.].].}.}.}.].).).).~.",
"2X5X5X5X4X2X3X:X-X-X:X>XNXJXGXGXxXzXzXzXCXGXGXcX  U ; I.HXGXGXVXzXzXzXCXGXHXcX; e 4 = & & # 5 4 4 ^ B.R.].].).).).E.R.R.T.R.R.R.",
"5X4X0X4X<X<X>X%X3X>X;X.XD.` / ( / / / / ( ( ( ( e e 3 U ( ( ( / / / / ( ( ( ( 3 0 0 4 5 4 4 4 4 4 ^ B.).).).).{.{.{.].E.E.T.T.Y.",
"yXyXyXyX0X0XpXpXiXrX>X7X[ 5 > > 3 3 , 3 3 3 3 7 e r e e 7 , 3 , 3 , 3 > > > , 6 6 6 q q 0 q 6 0 4 ^ B.'.XX'.'.'.*X%X%X;X-X{.].{.",
" X$X$X.X.XXXXXXX}.+X'./.[ P 4 0 3 0 q q : 3 3 3 , : : : : ; ; 9 4 0 9 q q q 0 6 6 6 0 6 0 4 3 4 5 ^ ] N.N.m.N.N.m.j.j.k.j.~.~.m.",
"yXyXqXwXuX0X0X4X4X>X#XeX[ P 4 0 0 0 9 e e.r.w.w.r.w.w.w.w.w.e.e , 0 q q q 9 7 6 7 7 7 9 q 4 / / / [ /..XoXXX X.XoXXX'.}.+X>X>X,X",
"gXgXhXhXhXgXgXfXfXrX<XeX[ P 4 9 3 0 e ( mXnXmXmXmXnXmXmXmXnXnXp.: q q 9 9 7 9 9 7 7 6 9 4 P D.(.(.7X$XXX'.[.[.}.).].&X-X-X&X].).",
"0XgXaXqX4XdXdX3X:X3X>X7X[ P 4 q e 0 0 ( mXmXbXbXbXbXbXbXbXmXnXr.; q q 9 9 9 9 9 9 0 0 e 4 I v././.^.^.`.].].].[.{.E.E.E.Q.T.T.R.",
"0XqXqXqX>X>X;X;X:X}.'..XC.I I P e 4 3 } mXnXnXbXbXbXbXbXbXbXmXr.- q q 9 q q 9 9 q 4 4 5 5 ^ v./.^.^.).).].].].].{.].{.&X!.E.E.].",
"gX0XqXqX4X<X>X>X;X}.}..XS.C.Z.{ ( 0 0 e kXvXkXvXbXbXbXbXbXbXbXt.- q 9 9 q q 9 9 9 4 / [ ' ' B._.`.`.~.).).).].).].].W.W.E.E.E.].",
"rX,X,X,X>X<X>X>X;X%X}.'.|.eXeX(.{ e U e - -   t.mXbXbXbXbXbXmXt.- e 6 9 q 9 0 9 q L ' v.N.M._.).R.R.j.).Q.Q.E.T.E.W.W.E.E.E.E.E.",
"#X}.#X>X<X<X<X<X>X}.{.}.oX$X.X(.{ > 4 U e r : r.nXbXbXbXbXmXmXr.- 0 6 0 0 9 0 4 4 I ] N.~.`.XX%X&X{.R.).).W.W.T.R.E.E.E.E.T.T.T.",
"+X+X#X#X#X#X}.+X}.;X2X>X'.XXXX/.' V ^ P 4 0   p.LXnXnXnXnXnXnXr.- e 9 7 6 0 4 L I ^ ] ^.'.[.'.}.].).j.j.Y.T.T.Q.T.R.R.T.T.z.k.k.",
"'.#XXX#X1X1X#X>X>X#X}.).'.XX#X.Xv.' [ [ P 0 3 ( a.a.a.a.a.a.a.} 3 q q 9 0 4 / { C.A.B.^.^.).'.[.).z.j.j.Y.T.T.T.W.Q.T.z.z.z.k.k.",
"XX,X9X0XhXhX0X0X$X,X1X#XXX#X#X$X.X7X/.A.P 3 9 3   - - - -   - 3 0 9 q 9 0 5 _ A.B.B.^._._.XX'.).XX_.).Q.Q.).{.%X].Q.].E.E.R.z.k.",
",X=XoXoXoX$X8XqX,XqXqX1X1X$X#XXX.X|./.A.U 9 w 8 e 0 0 e e e 0 0 q q q 4 4 5 _ C.S.B.B.B.B.B.B.v.B.B.m.Y.j.j.F.F.j.j.k.k.k.k.h.h.",
"XX*X=XoXoX|.^.M.|.^.m.~.'.'.).~.^.M.N.C.U 1 X.1 3 4 4 5 5 4 4 4 4 L 4 L 4 5 / p.P.P.Z.Z.Z.Z.Z.Z.Z.A.N.h.h.h.N.h.h.l.l.g.g.g.g.g.",
"pXpX0X9XqX0X0XgXyX0X0XqX,X,X,X,X#XoX.X(.y.:.,.:.+ @ @ % @ @ @ % % % @ @ @ + P p.L.p.L.L.L.L.L.L.P.P.7XXX[.XXoXoX X X|.|.'._.M.M.",
"'.XXXXXX$XXX XXX X_. XoXoX|.|._. X X_.S.y.;.s.Y o * * * X * * X * X X X * o I ( ;.;.;.;.;.;.;.Y Y ` B.j.z.z.).).).F.m.j.k.k.h.h.",
"'. X#X#X X X#X#X X X.XoXoXOXoXOX X^.[.S.L.u.U.L.D.S.B.v.v.v.v.v.v.v.v.A.v.A.Z.L.i.u.u.u.u.u.u.i.y.K.n.k.z.z.z.j.T.z.j.j.k.k.l.g."
};
