/* XPM */
static char *_4fecc8bc8f72dbe55600ba09603eb4ff108c8d7_o[] = {
/* columns rows colors chars-per-pixel */
"64 64 251 2 ",
"   c #0C0504",
".  c #140200",
"X  c #1C0100",
"o  c #180B09",
"O  c #1A1718",
"+  c #150F0F",
"@  c #240100",
"#  c #2B0100",
"$  c #260A01",
"%  c #330100",
"&  c #3B0100",
"*  c #390C00",
"=  c #291509",
"-  c #381506",
";  c #261A18",
":  c #341914",
">  c #1C221D",
",  c #352117",
"<  c #1C1D22",
"1  c #171C28",
"2  c #0B1D27",
"3  c #231D23",
"4  c #18232B",
"5  c #182736",
"6  c #0E2733",
"7  c #252629",
"8  c #252935",
"9  c #2B3537",
"0  c #430200",
"q  c #4B0100",
"w  c #470B00",
"e  c #560200",
"r  c #491703",
"t  c #571902",
"y  c #4E1B17",
"u  c #671A01",
"i  c #771800",
"p  c #670C00",
"a  c #5C2408",
"s  c #592A17",
"d  c #492615",
"f  c #682808",
"g  c #742704",
"h  c #692C13",
"j  c #6B3215",
"k  c #783617",
"l  c #79310E",
"z  c #4D382E",
"x  c #6B3927",
"c  c #763B24",
"v  c #622B24",
"b  c #774B37",
"n  c #73462F",
"m  c #634630",
"M  c #16374A",
"N  c #253947",
"B  c #323842",
"V  c #34495A",
"C  c #2B4651",
"Z  c #385569",
"A  c #2F536A",
"S  c #3C6579",
"D  c #594845",
"F  c #4D5154",
"G  c #6D564C",
"H  c #445968",
"J  c #486577",
"K  c #566A70",
"L  c #676D74",
"P  c #841600",
"I  c #872903",
"U  c #89370B",
"Y  c #9A3707",
"T  c #853B18",
"R  c #943D15",
"E  c #9B2C00",
"W  c #A53903",
"Q  c #B23B01",
"!  c #853D26",
"~  c #88411B",
"^  c #974519",
"/  c #96410A",
"(  c #BA4607",
")  c #A84917",
"_  c #B74A14",
"`  c #B7521B",
"'  c #A94C17",
"]  c #894828",
"[  c #964B24",
"{  c #975839",
"}  c #8F5032",
"|  c #A94C27",
" . c #A95428",
".. c #B85928",
"X. c #A55A35",
"o. c #B25B35",
"O. c #A9613C",
"+. c #B86335",
"@. c #BE602D",
"#. c #C94D0B",
"$. c #DC4D01",
"%. c #D94D09",
"&. c #DB5203",
"*. c #D7530A",
"=. c #CC5413",
"-. c #C9581A",
";. c #D65817",
":. c #CA4F0E",
">. c #E24E01",
",. c #E74D03",
"<. c #E35202",
"1. c #EA5302",
"2. c #EE5B03",
"3. c #EC5B0B",
"4. c #F55C03",
"5. c #FD5C02",
"6. c #F45D0B",
"7. c #FC5D0A",
"8. c #F85603",
"9. c #EC5E14",
"0. c #E55D16",
"q. c #F35E12",
"w. c #FB5D13",
"e. c #DC631D",
"r. c #CE611E",
"t. c #F66103",
"y. c #FD6103",
"u. c #F4620D",
"i. c #FB620C",
"p. c #ED6213",
"a. c #E5641C",
"s. c #EB641B",
"d. c #E76518",
"f. c #F36213",
"g. c #F3641A",
"h. c #FB6718",
"j. c #F66A14",
"k. c #C65C27",
"l. c #C45A30",
"z. c #E95F21",
"x. c #CA642A",
"c. c #D96627",
"v. c #C86837",
"b. c #D56B35",
"n. c #D3723B",
"m. c #E36523",
"M. c #E66827",
"N. c #F86C21",
"B. c #FE7A2C",
"V. c #FA752A",
"C. c #EB7738",
"Z. c #FD7C35",
"A. c #F57D3B",
"S. c #FD7D3B",
"D. c #F87834",
"F. c #E77732",
"G. c #8C5744",
"H. c #9D6549",
"J. c #8A6653",
"K. c #A86647",
"L. c #B96B44",
"P. c #BA7551",
"I. c #B36C50",
"U. c #AE6E52",
"Y. c #CA764B",
"T. c #D67949",
"R. c #C77B57",
"E. c #D97E54",
"W. c #CC6D43",
"Q. c #EA7D46",
"!. c #F57E43",
"~. c #FA7D42",
"^. c #F47E49",
"/. c #FD813C",
"(. c #F98137",
"). c #EF8237",
"_. c #D88457",
"`. c #D08052",
"'. c #EC844C",
"]. c #E98447",
"[. c #F48143",
"{. c #FC8343",
"}. c #F3844B",
"|. c #F9854A",
" X c #E78656",
".X c #F18652",
"XX c #D78964",
"oX c #E68964",
"OX c #386B87",
"+X c #3A7C9B",
"@X c #387798",
"#X c #317291",
"$X c #3A7CA3",
"%X c #497388",
"&X c #577689",
"*X c #447C9C",
"=X c #497B95",
"-X c #567D95",
";X c #486C83",
":X c #677988",
">X c #447EA3",
",X c #3C829D",
"<X c #3C8597",
"1X c #2F8095",
"2X c #3D83A4",
"3X c #3A87A8",
"4X c #3D8BB2",
"5X c #4C829D",
"6X c #43839D",
"7X c #57849A",
"8X c #46939B",
"9X c #64889B",
"0X c #728692",
"qX c #4384A4",
"wX c #4C85A2",
"eX c #4485AB",
"rX c #438BAB",
"tX c #4C8BAD",
"yX c #4989A5",
"uX c #5485A3",
"iX c #548BA5",
"pX c #538CAB",
"aX c #598AA8",
"sX c #5592AC",
"dX c #5B93AC",
"fX c #5399AA",
"gX c #448DB2",
"hX c #4A8AB2",
"jX c #558DB1",
"kX c #4D94B3",
"lX c #4D97BA",
"zX c #5493B4",
"xX c #5B93B4",
"cX c #5495BB",
"vX c #539BBC",
"bX c #5899B8",
"nX c #4B93A9",
"mX c #628CA5",
"MX c #6594AC",
"NX c #639BB5",
"BX c #6599B7",
"VX c #7597B0",
"CX c #6AA3B9",
"ZX c #72A3BB",
"AX c #59A0BE",
"SX c #579BC2",
"DX c #649BC3",
"FX c #6AA8C5",
"GX c #71A8C6",
"HX c #5FAAC9",
"JX c #8896A1",
/* pixels */
"8XnXcXSXbXzXsXsXzXcXrXgXhXeX6X<X<XnXyXdXuXaXaX7XH 9 L D o ; 7 H K C 1 8 H &X&XV 1 H 7X*X*X*X,X,X1X,XyXwXwXyXtXtXwXyXyXeXjXjXaXiX",
"fXbXSXcXbXbXbXxXbXtXkXrXhXtX+X6XyXyX7X-X9XN V L O o d b d @ ; o D z . o < B F o + < N ;X7X5XwXqXrXyXqXtXyXyXtXyXyXtXtXtXjXxXpXpX",
"xXbXcXcXzXzXkXkXzXzXkXzXhXhXrXrXwXA 6 K D o X b x & R l...R & # [  .~ w # @ [ [ r @ O 2 C J =X*X@X6XqX,X,X,X2X3X2XqXeXrXrXhXhXhX",
"DXSXcXlXkXkXkXkXhXzXbXzXjXxXvXtX7X5 + , G.a f K.+.' :.;.*.-. .U ;.;.k...l U -.-.o.] # . ; 4 A 7X-X=X6X,X2X2X+X3XqXqXeX3X2XrXeXeX",
"vXvXSXSXSXvXcXcXbXxXxXdXMXMXBXmXZ 7 # ] @...k { ..;.*.&.$.*.;.;.%.$.%.;.-.=.*.#.=.k.` l $ + 1 5 J 9XaXpXtXeXeXqXqXqXeXeX3XyXhXhX",
"vXvXvXlXlXSXFXDXDXFXNXNX7XN &X:X+ $ g ..;.( 0 0 ( &.$.$.<.&.%.%.<.<.>.$.$.*.$.<.&.*.*...} , O < 4 N &XaXaXjXeXtXyXyXhXhXrXyXtXrX",
"lXvXvXvXlXSXSXbXzXdXsXiXV < $ b s & _ :.*.W & 0 =.3.1.>.>.$.&.&.$.$.$.&.$.&.$.>.$.$.$.-.{ - = o o O 4 V &XuXpXqXrX4XgXgXgXgXgXgX",
"lXkXkXkXkXlXcXxXBXdXMX%X4 X k +..._ *.$.<.c.| [ c.p.u.1.1.>.$.$.2.<.$.$.<.$.<.>.>.&.&.-.j @ % b n # X 3 5 A =XqX3X4X4X4X4XgX4X4X",
"lXvXkXcXlXvXxXMXA &X0X5 ; * ' *.#.d.6.1.4.s.v.g W c.u.5.8.8.,.<.2.t.4.<.$.$.$.<.$.*.=.' @ @ l l... .h # o 4 M OX+X3X3X3XgXeX4X4X",
"vXbXbXbXvXBXMX%X6   G z # U =.$.2.i.i.4.4.9.E q e :.u.5.i.8.7.8.t.t.4.4.2.<.$.$.<.#...a @ - ..*.*.=.k.[ s . 2 %XpXqXrXgXtXpXkXyX",
"FXGXGXGXGXZXVXN + , X.` W :.&.<.8.8.4.y.6.p.#.P E m.4.y.4.y.4.7.7.5.5.7.4.4.1.>.$.-.] # # ] -.&.$.$.%.;...] F 7XuXeXeXtXaXuX5XiX",
"wX6X5X=X%X%XV 3 @ ] -.&.q.6.<.4.7.5.5.5.6.p.a.c.W b.a.u.4.5.5.7.5.5.5.5.5.5.4.3.*.` r # t ..*.$.>.<.<.$.;. .; J -X5X*X>X=X=X-X%X",
"zXzXzXjXdX-X4 o f ..*.<.6.h.7.7.5.5.5.5.7.q.a.` % t | c.f.7.7.5.5.y.7.5.5.5.5.u.c.U # # | ;.%.<.$.&.$.%.;.u $ 4 9 J aXaXuXaX7X7X",
"AXFXSXDXBXV 4 $ ) ;.$.8.7.8.5.5.7.5.5.5.7.6.g.E % # & I *.4.5.5.5.5.7.5.5.5.5.s...w @ j k.%.$.$.<.$.&.*.=./ r X O 2 S uXuXaXaXdX",
"vXvXvXCX7X1 o j -.$.1.8.4.y.5.5.5.8.5.5.5.5.4.0.) t % & ( i.4.5.5.5.5.5.5.4.7.c.h # & ..m.1.<.$.$.$.$.&.&.=.` k $ < &XMXmXmXaXmX",
"kXkXbXMXN O $ { -.$.6.7.4.5.5.5.5.y.7.7.5.5.5.t.a.v.T k c.p.6.5.5.5.y.5.4.u.9...# @ R c.f.4.2.<.$.$.&.$.<.&.*...G.F 0X9X9X7XuXuX",
"rXnXpXJ 4 3 ; n ..;.f.5.y.5.5.t.t.t.5.7.7.5.5.5.2.m.v.R ` c.p.4.4.5.5.5.5.f.c.u $ r k.g.8.7.t.4.<.<.$.$.&.&.&.-.{ : B :X9XiXuXaX",
"bXdXMX5 O X # % t ) c.s.6.y.4.4.y.y.7.7.5.5.5.5.5.p._ q q U k.s.t.t.5.4.7.a.[ % # [ s.8.4.5.5.5.y.2.1.>.&.&.&.;.g # ; 4 A 7XuXwX",
"sXMXZ < # ] k % # # h  .m.6.7.5.5.5.7.7.5.5.5.y.7.f._ q % # 0 ) s.7.4.i.f.k.* @ u c.u.5.5.5.5.5.5.7.w.6.<.$.$.*._ I % o 6 A >X$X",
"MX-X4 X g n.v.| t @ @ & U k.m.q.7.5.5.7.5.7.4.5.7.6.m.l.k % % ^ z.7.5.6.m.U $ # ` f.4.y.5.5.5.5.5.8.7.7.1.&.<.%.;.k.[ s O &X6X2X",
"VXV 3 # ` a.p.a.r.^ & # # & ^ c.s.i.4.5.5.y.5.7.5.7.i.p.m.-.I b.g.8.5.p. .& # k m.4.5.5.5.5.5.5.5.5.5.8.>.$.<.$.%.*.;.+.D &X5X+X",
":X1 X T c.2.y.5.u.a.@.k # # # u ` e.d.u.4.y.7.5.5.5.5.5.7.M.Y Y c.a.p.c.j @ 0 ..f.5.y.5.5.5.5.5.5.5.5.4.1.>.>.$.>.%.&._ - 4 S yX",
"8 ; & ..s.7.5.5.4.u.9.M.` g % # # k ..M.f.4.5.y.5.5.5.5.u.( % @ t [ v.| # # R m.u.4.5.5.5.5.5.4.4.7.5.5.4.4.1.$.$.%.;.E # < Z *X",
"< X ^ c.9.7.5.5.5.5.7.6.s.c.[ r # # & U x.a.u.4.4.4.7.7.u.=.f # @ # h a @ r x.p.t.5.i.8.5.5.5.y.6.7.7.5.y.t.4.2.$.*.=...} D VXmX",
"L D v.s.6.5.y.5.5.y.4.7.u.p.a.x.U 0 # @ r [ c.s.9.h.h.u.u.9.m.` t % # = X } b.p.4.4.h.9.u.5.5.4.4.u.8.7.7.4.5.6.3.;.=...O.z V -X",
"JXD R e.4.5.5.y.y.5.5.5.5.5.4.3.M...k # @ % g ` F.S.(.B.j.f.q.M.W.c $ ; : r ^ c.s.s.-.W ;.s.f.p.;.-.M.9.3.h.0.M.M.( i  .T @ 4 A ",
":X; # Y g.5.5.5.5.5.5.5.5.7.5.i.f.s.M.` u # @ # c Y.'.{.Z.V.g.0.W.! X = X $ @ t | v.u % t [ c.b.t & [ x.m.c.p ! ..q % t ^ t 7 -X",
"B ; & ..g.5.5.5.5.5.5.5.7.7.8.7.7.6.q.m.W.X.* X @ % { E.^.{.Z.A.o.% # m H.f # % 0 R T % % & I Y # @ # u ` W & & ) ^ & [ +.X.F &X",
"< @ / a.6.i.5.5.5.5.5.5.7.7.7.4.6.N.N.9.D.}.E.] @ X @ r O. X}. Xv # & +.c.c.) p e k.c.` u & i x...g % % i -.I I m.a.=.:.-.[ o 5 ",
"O d x.f.4.7.5.5.7.5.5.7.8.i.h.u.g.Z.Z.V.Z.S.[. XP.x @ @ # h P.K.X @  .F.p.u.s.;.:.a.p.d.c.W #.e.m.c.[ q _ m.c.0.u.4.1.*...a . 1 ",
"L G n.p.7.7.4.y.7.5.5.4.i.V.B.V.B.Z.Z./.B.Z.A.[.'. XL.u @ X X = X s _.{.V.p.f.6.f.f.6.i.9.h.q.q.6.f.d.d.p.f.3.q.6.4.<.-.] X < B ",
"L = U ;.i.5.i.8.4.4.7.6.h.B.Z.(.Z.Z.(.Z.Z.Z.Z.S.A.[..XE.G.: ; ;   b XX'.{.Z.N.i.6.7.7.8.5.5.5.7.5.7.4.7.4.5.7.7.7.i.2.=.0 o 4 J ",
"9 : 0 =.f.7.7.4.4.h.q.g.Z.Z.Z.(.V.(.Z.Z.Z.Z.D.Z.D.{.A.}.oXU.X ;   o y I. X[.Z.B.h.f.8.y.5.7.5.y.t.5.7.5.5.5.5.5.8.i.4.;.) s F %X",
"> . R M.p.4.u.6.V./.~.c.Q.}.A.).].).^.~.S.S.{.[.{.A./.A. X] @ : z X @ # k L.'.{.Z.f.i.4.5.5.5.5.t.5.5.5.5.5.5.5.i.8.4.&.k.} 9 ;X",
"+ * k.p.i.u.f.;.x.oXR.w h I. X XR.g L.E.}.'.W. .].[.A.'.I.# @ b XXO.t @ X @ ] Y.F.p.t.5.7.5.5.5.5.5.5.4.5.5.5.5.5.7.<.#...h o 1 ",
"X G.b.d.#.;.e.W 0 } ] # @ @ T R.k # % c Y._.l % l L. XXXv @ w R.'.'._.} @ . @ 0 ) c.a.3.6.7.5.5.5.5.5.5.5.5.5.5.5.4.$.=.[ # ; B ",
"G G.W.l.0 r ^ p % k _. .& # # c K.t # @ % } h @ X X b G.X X X. X[.A.]. XY.~ @ X X t  .m.g.7.4.t.5.5.5.5.5.5.5.5.5.8.$.` t + 5 J ",
"z @ I Y # # +.T.U L..X.XR.] & R. XY.G.# & R.XX{ $ . X . o z XX'.[.Z.Z.A.[.].L.a X @ % g -.a.p.u.4.4.5.5.5.5.4.5.5.y.3._ % o V J ",
"4 X I b.' ) |.[.Q.}.!.A.}.'.n.].[.}..XW.x.'.'.'.Y.] - 3 3 z H._.!./.S.S.S.[.}.].o.q @ X @ ~ x.s.6.7.5.5.5.5.7.7.7.8.f.;.| x :X7X",
"0Xz O.b.M.s.B.B.Z.S.S.S.Z./.S.S.S.S.S.S./.A.(.A..XR.X ; . X # l W.}.~.~.D.Z.Z./.C.x.~ # X @ q ) c.d.u.4.5.5.7.7.5.7.<.*.l.c 9 7X",
"9XK s o.e.f.f.N.Z.S.S.S.Z.Z.Z.Z.Z.(.D./.Z.Z.Z.[. X! X : G.s X @ @ [ Q.S.Z.Z.Z.Z.3.p.c.k.I & @ @ f +.c.p.4.5.y.5.4.4.$.=.[ # 4 C ",
"7X2 . w a.6.f.Z.Z.Z.S.Z.Z.Z.Z.Z.Z.Z./.S.Z.Z.S.}.I.# @ } _.`.{ % @ { .XS.Z.Z.Z.Z.N.i.6.s.c...f # X @ ~ k.M.p.4.5.i.$.*.k.a o 4 L ",
"-XV $ X.M.3.B.Z.Z.Z.Z.Z.Z.S.S.Z.Z.Z.Z.Z.Z.D.)._.s @ t E.].].'.Y.[ `.Q.~.Z.Z.Z.Z.Z.V.q.6.f.s.e.' r @ X # [ x.g.6.1.%.-.^ # 1 Z 9X",
"MX0XG H.b.M.~.S.Z.Z.Z.Z.S.S.S.Z.Z.Z.Z.Z.Z.[. XX.X @ o.}.A./.D.}.[ T Y. X|./.S.S.Z.N.f.7.7.7.u.a.v.} * . @ f ` M.;.-...r o N -XuX",
"bXMX9 $ k Y..X).S.S.S.S./.S.Z.Z.S.S.{./.S.}.R.w @ j Q.!.S.S.{.v.# @ # { T.Q.S.Z.B.g.6.7.7.7.8.u.p.c.v.[ % X @ j | +.c $ 4 S wX>X",
"cX5X2 4 X &  .C.!.S.S.S.S.S.Z.Z.S.{.A.A.~. X} @ # I..XS.S.~.A.Q.} @ @ # i Q.S.Z.Z.B.i.7.7.8.7.5.y.2.s.b.L.x @ X # c - O M =X,X3X",
"SXbX7XC 4 X 0 T.A.Z.Z.Z./.S.Z.Z.Z.Z.S.~.}.W.@ . ]  X^.S.S.S.Z.~.'.Y.k %  .}.~.Z.Z.B.h.5.5.5.5.5.5.7.6.9.m.n.O.r X . ; 2 OX,X+X2X",
"HXFXCXVX:X7 U.oX[.Z.Z.Z.Z.S.Z.Z.(.Z.Z.^. Xk X # Y.^.~.~.Z.Z.Z.Z./.]._.X.Y. X}.S.Z.B.4.4.y.5.5.5.5.5.5.7.8.s.b.P.G + 1 V uXtX3XrX",
"8XfXdXmX9XL G R.].{.A.S.Z././.Z.D./.Z..XK.@ X {  X~.S.S.S.S.S.(.F.]._.{ % H. X}.Z.h.7.5.7.5.5.5.5.y.4.7.8.6.d.n.s + 5 ;X=XqXqX,X",
"CXCXBXVXVXN . r O.].|.D.Z.Z.Z./.(.A.[.E.d X a _.[.S.S.Z.S.S.Z.(.(.).T.& # @ h v.D.f.8.5.7.7.5.4.y.5.5.5.7.u.s.) @ < H -XjXpXzXkX",
"DXGXBXZXZXC 4 o . f n.|.Z.Z.Z.Z.Z.[. X{ X X +.}.[.S.Z.Z.Z.Z.Z.Z.Z.S.C.v.f # X % b.f.u.4.7.y.5.7.5.5.5.7.5.p.x.w = N 7XpXkXgX3X3X",
"BXBXZXNXNXMXJ 8 O - T.~.Z.Z.Z.Z.S.'.R.% X x  X/.S.S.S.Z.Z.Z.Z.Z.Z.Z.S.}._.{ @ { }.Z.g.7.4.5.5.5.7.7.7.7.2.m.T X 8 J *X2X3X3X3X3X",
"NXBXMXNXzXxXaX9XF J.oX^.S.Z.Z.Z.S. Xn @ # P.[.B.S.S.~.S.Z.Z.Z.Z.Z.Z.S.A.|. XP.O.].Z.q.7.5.5.5.5.4.t.9.9.N...# < M wXrX3X4X4X3XgX",
"CXCXNXbXbXbXsXmXL z I. X'.[.Z.S.}.Y.@ X ]  XA.Z.Z.S.S.S.S.Z.Z.Z.Z.Z.S.S.S.Q. .0 E s.q.7.5.5.5.5.u.d.W  .v.j o 6 =XqXrX3X3X4XeXhX",
"BXMXxXbXbXbXxXmXN   . x P. X}.^._.h @ # Y.[.S./.Z.Z.Z.Z.S.S.S.S.S.S.Z.Z.S.Q.t % P 0.w.5.5.5.4.4.s._ % @ D 7 4 C 6X3X3X3X3X3XeX2X",
"dXpXjXcXcXbXxXMXZ 6 4 . @ } `.XXK.# X H.'.S.Z.Z.Z.Z.Z.Z.Z.Z.S.S.S.Z.Z.Z.S.'.`.] ..M.6.7.6.u.f.a.c.f $ 5 &X-XA %X2X2X3X3X3X3X$X2X",
"pXpXjXzXkXkXjXpX5X7XC 4 ; X r J.d @ a _.).Z.Z.Z.Z.Z.Z.Z.Z.S.Z.S.D./.Z.Z.Z.A. XL.u ..d.6.m._ _ W.} @ < V =X*X6X,X2X2X2X2X2X$X$X@X",
"yXpXpXzXSXvXxXxXdXiX9XJ B 3 +   7 X K. X).Z.Z.Z.Z.Z.Z.Z.Z.Z.Z.Z./.Z.(.B.g.V.C.p & q ;.d.x.e & n z + 5 %X*X2X+X3X3X3X2X+X+X$X+X@X",
"pXxXMXBXGXFXBXBXxXxXMX9X9XJ 8 3 < o n R.]././.S.S.{.S.~.S.Z.Z.Z.S.Z.Z.h.u.3.0.Q q  .a.c.] X ; F &XA A 5X>XeXrX3X3X3XqXqXqX$X$X+X",
"xXdXaXiXsXsXdXMXNXNXNXdXdXMX:XH 1 < . @ X.E.'.Q.}.].T. XQ.|.!.[.}.|.B.f.f.9.s.c. .[ n.+.# < 5 &X=X@X*X*X>X+XqX2X,X+X+X@X@X@X+X@X",
"aXaXdXpXiX5X5X5XuXwX*XwXwX5X5X=X%XN 4 ; . y K.XX X .# G._. X X| [ E.C.s.a.( -.n.c @ n x o 2 S =X@X+X+X=X*X#X@X@X#X#XOXOXOXOXOXOX",
"BXBXBXbXNXNXNXZXGXBXBXBXbXsXsXdXaXmXJ N 4 + @ x H.r . . s I.P.@ X a | b.o.& t b = 3 9 0XV V aXpXhXzXpXpXiXwXpXpXyXyXiXuX5X5X>X*X",
"pXjXpXpXsXsXiXpXpXwXpXpXwXpXpX5XpXwX7X7XZ 5 3   F H 5 8     F 4 7 . @ x D o O K K M %X=X=X5XyXeX>X>X$X+X*X*XqX2X2X>X*X*X@X@X@X@X",
"pXpXsXsXiXiXsXsXpXpXpXpXpXaXaXpXyXyXwXuX-X&XC N -X7X&XC 1 N %X%XC 4 3 8 :XZ A &X=X6X6X,X,X,X$X$X$X$X+X+X@X+X+X2X$X$X$X+X@X@X#X#X"
};
