/* XPM */
static char *_a904735da0cdbbc8775f5334c3f80fea4c17594_o[] = {
/* columns rows colors chars-per-pixel */
"64 64 254 2 ",
"   c #150616",
".  c #12020A",
"X  c #35141A",
"o  c #2A201F",
"O  c #271925",
"+  c #38243C",
"@  c #3E343F",
"#  c #451529",
"$  c #501C33",
"%  c #552A35",
"&  c #553737",
"*  c #4B292A",
"=  c #664B3A",
"-  c #3D1841",
";  c #4F2E4E",
":  c #633A56",
">  c #743750",
",  c #743C6B",
"<  c #6D396C",
"1  c #481842",
"2  c #694546",
"3  c #774A56",
"4  c #69545A",
"5  c #725455",
"6  c #7A4765",
"7  c #7A4976",
"8  c #714D68",
"9  c #7C6468",
"0  c #825456",
"q  c #814E53",
"w  c #886E57",
"e  c #854969",
"r  c #815C6A",
"t  c #865768",
"y  c #91586C",
"u  c #884A74",
"i  c #934C71",
"p  c #885A73",
"a  c #9C5778",
"s  c #974E6B",
"d  c #A65A7B",
"f  c #87686B",
"g  c #876376",
"h  c #976A7A",
"j  c #967579",
"k  c #966E6B",
"l  c #A4687F",
"z  c #A3767D",
"x  c #9B8168",
"c  c #A68577",
"v  c #B99676",
"b  c #A68F72",
"n  c #BFA77D",
"m  c #CD9D5F",
"M  c #CF9F61",
"N  c #C19C70",
"B  c #D3A365",
"V  c #D5A669",
"C  c #D6AA6C",
"Z  c #DBAC6D",
"A  c #DAAB65",
"S  c #DDB26D",
"D  c #D7B269",
"F  c #CBA979",
"G  c #D5AB73",
"H  c #DDAE72",
"J  c #D4AD7B",
"K  c #DBAE7B",
"L  c #D6A771",
"P  c #DDB273",
"I  c #DFB873",
"U  c #D5B27D",
"Y  c #DDB37B",
"T  c #DDB97A",
"R  c #D5B274",
"E  c #CAB37F",
"W  c #E1AE6D",
"Q  c #E2B26E",
"!  c #E0B96E",
"~  c #E1AE73",
"^  c #E2AF79",
"/  c #E3B375",
"(  c #E8B676",
")  c #E4B976",
"_  c #E4B679",
"`  c #E9B67B",
"'  c #E6B97D",
"]  c #E5B97B",
"[  c #E9BA7C",
"{  c #E9B977",
"}  c #845285",
"|  c #A55F84",
" . c #986B84",
".. c #997785",
"X. c #9C7B90",
"o. c #8F7582",
"O. c #A66884",
"+. c #A77689",
"@. c #A97992",
"#. c #B57590",
"$. c #988394",
"%. c #968986",
"&. c #A78688",
"*. c #B68B89",
"=. c #AB9589",
"-. c #B7988B",
";. c #AA8894",
":. c #B48798",
">. c #AB9798",
",. c #BC9C93",
"<. c #B59895",
"1. c #BDA588",
"2. c #BAA796",
"3. c #B8B09D",
"4. c #B79CA7",
"5. c #AE96AA",
"6. c #AAA1A3",
"7. c #B7A5A8",
"8. c #BBAEAF",
"9. c #C39C99",
"0. c #C19D85",
"q. c #CCAE84",
"w. c #C6AB87",
"e. c #D9AE82",
"r. c #D2AE84",
"t. c #D4B384",
"y. c #DCB583",
"u. c #DDB983",
"i. c #D5B48A",
"p. c #DCB58B",
"a. c #DCBA8D",
"s. c #D4BA89",
"d. c #C5AD9C",
"f. c #C8A899",
"g. c #D3AD98",
"h. c #CBB29B",
"j. c #C8B599",
"k. c #D4B591",
"l. c #D3BD94",
"z. c #DCBB92",
"x. c #D5BC9D",
"c. c #DBBD9B",
"v. c #D7B597",
"b. c #CDB189",
"n. c #E2B583",
"m. c #E4BA83",
"M. c #E9BB81",
"N. c #E1B58A",
"B. c #E2BB8A",
"V. c #EABA88",
"C. c #E2BC94",
"Z. c #E5BC99",
"A. c #E0AE8B",
"S. c #C79DA7",
"D. c #CB96AA",
"F. c #C4A9A5",
"G. c #D3A9A4",
"H. c #CDBAA4",
"J. c #C3B2AA",
"K. c #CAB7A7",
"L. c #D3B5A2",
"P. c #D5BCA5",
"I. c #DBBCA4",
"U. c #D5B8AB",
"Y. c #C7AFB6",
"T. c #C7B9B7",
"R. c #D7BAB7",
"E. c #D2AFB6",
"W. c #E4BAAB",
"Q. c #E0BFB8",
"!. c #D9C29A",
"~. c #DCC188",
"^. c #E6C58D",
"/. c #E4C395",
"(. c #EAC294",
"). c #E4C39B",
"_. c #EAC59D",
"`. c #EACA9B",
"'. c #E7CC98",
"]. c #F2CD9C",
"[. c #F3CC94",
"{. c #EBD399",
"}. c #F8D49A",
"|. c #D5C2A5",
" X c #DCC3A4",
".X c #D3C2AC",
"XX c #DCC3AC",
"oX c #DECAA6",
"OX c #CCC5B8",
"+X c #DCCAB9",
"@X c #D8C5B6",
"#X c #D4C9B3",
"$X c #E4C3A3",
"%X c #EBC4A4",
"&X c #E5CAA4",
"*X c #EACBA5",
"=X c #ECC4AD",
"-X c #E4CBAC",
";X c #EBCBAB",
":X c #E3C5AA",
">X c #F4C9A8",
",X c #EBD3AC",
"<X c #F7D9A8",
"1X c #E3C4B3",
"2X c #E4CBB4",
"3X c #ECCDB2",
"4X c #E4C5BD",
"5X c #E2CABD",
"6X c #ECCBBB",
"7X c #EFC3B8",
"8X c #F1CBB3",
"9X c #EBD5B7",
"0X c #F6D6B7",
"qX c #F8E3B6",
"wX c #CFB6C2",
"eX c #CCC7C5",
"rX c #D1CAC3",
"tX c #DAC8C6",
"yX c #D9D4CA",
"uX c #DBD5D3",
"iX c #DBDBD4",
"pX c #DAD5DB",
"aX c #D8CFD2",
"sX c #E4CBC6",
"dX c #E5D3C4",
"fX c #EAD3C4",
"gX c #EBD9C5",
"hX c #E9D8C9",
"jX c #F3DDCC",
"kX c #F3D7C8",
"lX c #E7CCD5",
"zX c #E8D8D8",
"xX c #FADED2",
"cX c #DFE0DB",
"vX c #F6E3CB",
"bX c #E3E1DD",
"nX c #EBE4DD",
"mX c #E4E1D5",
"MX c #F5E7DB",
"NX c #FDF2DE",
"BX c #E9DAE2",
"VX c #ECE4E3",
"CX c #E9E9E4",
"ZX c #EDECEB",
"AX c #E8E5E5",
"SX c #F3ECEB",
"DX c #F4EAE4",
"FX c #EFF1E9",
"GX c #F2F2ED",
"HX c #F7F2E4",
"JX c #F1EBF1",
"KX c #F6F3F2",
"LX c #FBF8F6",
"PX c #EEF4F2",
/* pixels */
"S ) ] ] I I _ _ I I H P T T Y P D D S Z Z C Z Z Z Z G K H P Z C R T ] ) I I _ ` / _ H / I I _ H H / P H H C H H H H Z H H H Z P ",
"S ) ' T ) I _ _ ] ] G T ] ] ] / ) ) ) ` _ / ( ( ` / ] _ ' ] ) ] T I ] ( I / P _ / ` H _ ] _ ` / / ' ' _ _ P ' ' ' ' _ _ ' ' _ ' ",
"G ] ' / ` Z P ) / ' Y Y T ' ` ~ / / _ _ / H / / / ] H / ] I / H ] ] / ( / P / _ _ ' H / ] _ ` _ H _ _ _ _ H _ _ _ _ / _ _ _ _ ' ",
"G m.] ' _ _ _ ] _ _ G n._ / _ / / _ m.m._ H _ ` _ [ / ] T ] m.Y K M.` ` / S ] ' _ ' H / ] / ` ~ / ' _ ] _ H _ _ _ ' P _ _ ' _ ' ",
"H ' _ _ Y y.y.m.] m.H _ / / ) ) / _ ] ] _ H T ] ] _ / _ n.p.a.t.y.n.M.` / / / ' ] ' H / ] ] ] / ~ _ _ ] / Z _ _ _ ] P / _ _ _ ] ",
"H / M.m.a.p.Z.%Xa.B.G P ] ) ) S Q ( _ ' _ Z T ] ] M.Y y.8X8X3X3XC.C.n.] _ P / _ ] ' Z / ] ] ' / H _ _ ] _ Z _ _ _ ] H / _ _ ] ] ",
"H ` _ N.0XU.S.F.2X*XJ Y ' _ ) ! Z / / _ / C I ) _ m.t.3X9.2 & 5 w.).z.u.Y C / _ _ _ Z P ) ) ] / Z _ / ] / C _ / / _ Z / / / _ _ ",
"G n.%X=X*.3 $ # j g.Z.N._ _ ] S S ) / ] _ C / ) ] B. Xw X ....=.c h.&Xz.Y R P ] ' ` Z / / ) ] P H ] _ ] / C / / _ ] Z / _ _ ] ] ",
"F *XW.z > s a i e y 9.W.n._ V.Y P ] _ _ _ Z / ] K 0X-.X ..6 r ;.j =  Xk.m.H / ) / ` Z / ) I ] / Z _ / _ / C / / / ' H / _ / _ _ ",
"l.L.$ a #.d i i e y 0 W._.Y n.n.R ] ' ' _ H / m.(.W.2 : p  .h z ;.* L.c.y./ / ` _ ` Z ~ ] / ' / H _ ] ] _ Z / ] _ ' Z / _ _ ] _ ",
"h.L.$ d O.d i u u e : :.=XB.M./ H _ ' ' _ H P m.&Xf.# e :.D.D.h ;.;.=.9XN./ P ] ] ' Z ~ ] _ ' / H / ] ] _ Z / ] ] ' Z P _ ] ] / ",
"+X<.> a #.| , 7 u 7 1 g =Xy.' Q Z / / ` _ Z P y.0X2.$ +.;.+.+.O.p ..j 3Xp.G / ) ] ] Z ~ _ / ' / H / / ] _ C P / _ ' Z P / / ] / ",
"fXf y > e u p , 7 7 ; h 8Xt.' Z Z / H ] / C / K *Xf.9 3 g ..+.p u g j 6XC.G T Z / ] Z H / P ] / H / H _ ` C / H / ` Z / / / _ _ ",
"4X&.y d O.i , } 7 7 $ S.W.y.] I Z / C _ / A / G i.1X<.. + 4 g r : o.9 9Xz.K I C I _ Z H P Z ] P H / Z / _ C / Z / ` H / H H _ _ ",
"I.L.q l s a u , } ; t 7XA.H [ P C _ G _ / A / C U c.5X>.  +   @ ; + 4 gXi.K P D I _ Z H P P ] P Z / Z / / V / Z / ` Z / / / _ / ",
"q.8X*.y y > , : - g E.v.e.K _ G P T K m./ C y.t.`.$XsXR.4 ; O . O   o +X X_.`.^.u.m.Z P I I ' P H / / _ / C / / / ] Z P P / _ / ",
"F /.g.c R.X.5.8.  7.+Xx.z.p.B.Y P T e.B.p.a.-X2X2.H.F.J.9.3 % 2 & j <.=.L.f.L.h.$Xz.G P I ) _ P C ] H [ ~ Z / / / ] S / P / ` ( ",
"T u.).P.R.Y.JXJXuXrXT.H.j. X;X&X/.s.).0X$Xh.,.&.5 >.R.E.G.G.G.f.f.R.Q.f.F.&.5 &.L.I.*Xt.U ] ' / / P ` ' ` ~ ~ _ [ ] Z S / ] [ ` ",
"Z _ B._.x.U.sXzXLXLXVXyXyXOXOXK.K.U.R.R.E.&.h g h Y.tXR.sX4XkXkXfXkXR.R.sXF.@.#.z <.G.XXc.p.m./ H ` P [ / / / / ` ` H P / / ` ` ",
"~ _ L n.z. XP..XtXuXSXLXKXcXiXbXbXeXuXzXY.&.@.:. .4.sXU.4X@Xd.@X5XK.U.R.R.S.:.h h @.j &.U.%Xp.Y Y _ P _ _ V / / / _ P _ / ~ _ _ ",
"/ / / _ G y.z.!.|..XOXrXCXKXLXLXLXZXGXGX;.r @.O.:.E.4X1XU.U.2X9XfXfXkXU.wX:.#.#. . . .r f <.1X&Xt.u./ _ _ H _ / / _ H _ / / / / ",
"/ / P H / R Y y.z.oX|..XOXOXOXeXbXLXLXKX7.g O.% ;.R.P.kXkXfX0X9XjXhXxXR.R.j $ p +. .+. .p g &.f.:X).y.n.H H / ~ / _ H / ~ / / / ",
"_ P P I I P I G R U t.z.&XoXj.d.T.T.T.T.7.4 f *.<.K.9X2XY.tX9X0X+XY.sXtXT.%.2.&.5 r t +.@. .h ;.*.g.3Xz.e.G _ ~ / / Z / ~ H / / ",
"_ P P ] P P ) Z / ] C Y y.i.).x.XX5X+X5XsX4X6X6XU.H.0X9XzXwX2X0XhXzXwXzX7.2.2XP.fXR.*.3 : t +.O.+.&.-.I.*Xe.Y P P / Z ( / / / / ",
"P I _ ] / H / / / ( Z / T y.n.e.J y.N.p.e.e.y.a.j.|.<X0XzXzXvX9XgXDXOXzXH.1.C.p.y.C.$XI.R.<.t @. .g g &.-.9X).y.Y ] A S / _ P / ",
"/ I P _ _ ~ ` ~ / ( C / / / ] H P / / _ / H / y.&Xl.<X,XF.T.XXvX2XP.H.vXj.F (.` M.R J a. X1X9.f g X.@.j j ,.h.;Xp.m.C ) P _ / ` ",
"( / / ] / L / ~ / ` C / / Q _ P / / H _ / Z / U &X!.{.<X1X1X-XqX,XoX,X0Xw.F (.K / _ H Y K p.%XI.z 9 h h  .....F.2X&Xt.Y H _ _ _ ",
"` Z Z ] / H / H _ ' Z / Q Q ) Q / / H _ / Z / U -X!.^.<X0X0X<X{.<X<X<X].q.w.(.K m._ C / / K u.p.W.f.*.h r g o.R.f.f.=XC.Y G ` ` ",
"/ S Z / / Z / Z / _ Z P Q S Q Q W / H / / C P U z.l.~.}.}.}.}.}.[.[.[.].w.n (.K _ _ Z / / _ T Y p.Z.=XW.&.4 ..BX:.z c =Xz.y.] _ ",
"/ / / / / Z / / / ] H / / Q ( Q / / / _ / Z / Y z.c.~.}.[.V.].<X>X].[.`.w.n (.y._ _ C S / / / _ Y n.N.Z.3XU.J.>.h :.z 9.3Xz.y._ ",
"H / Z Z Z Z / Z H P Z H Z H Z Z Z H H ~ H C Z G Z.v.x.-Xw.v g.f.G.G.f.x.'.s.(.e.J R L P Z Z ~ Z C P Z H U q.2Xf.t O.h +.,.x.p.G ",
"V / / / / Q / / / / / / / / / / / P ~ ~ H H P R z.I.&.fXkXP.9.k k c k b !.E ).p.Y ] / Y / ) / / I ) ( / ] T z.=X0 *.j k 5 w r.F ",
"B / / / / / ( ` / ` ` / / ( / S D S ( / / _ _ T p.1Xf 5.fXjX,X`.'.].;Xw.x w *Xa.m.' ' ' ] ] ` { ) ] ] ` ] ' m.B.k.0XW.0.-.v v r.",
"B / / / / W / / / / ( / / / / / S S / / _ ` _ Y z.1X4.$.4.+X9X<X{.'.].0X3Xv &Xt.m.' ' ' ] ] / / ] ] / / / _ _ m.C.a.z.`.*X_.(.F ",
"m / / / Z C Z / / W Z / / / / H Z H Q W ~ ^ P J a.XXY.wX$.7.MXvX9X!.a.(.<Xi.`.t.y._ ) ) ] _ / / ] ] ) ) / / ' ] m.y.t.y.u.y.m.G ",
"V / / / / / / / / / / / / / / / ] _ ( ( ` ' ' y.a.P.K.5.$.BXSXDXMXvX/.^.[.F '.t.K P ( / I I / / P P / / / / / _ T ] u.u.] T ] B ",
"B / Z Z Z Z Z H H Z Z H Z Z Z H ~ H A A Z Z S R R /.|.8.T.AXSXCXDXNX*X^.}.U `.r.J G Z Z Z Z Z Z H H Z Z Z W Z P P P T T P P ) A ",
"V _ / _ / / _ ` _ _ _ / / / / / ~ / Q Q Q Q / I T ^.l.j.nXSXCXFXCXHX,X~.].t.).a.B.m.[ ` ] ] ) [ ' ' ] ` ` { { ] / ] I P ] / / A ",
"V / / / / _ / / / / / / / / / / ~ / / / _ ] / P T B.`.x.T.aXZXGXGXDX9X!.,Xi.*Xa.y.' ] ) _ / / / ] ] _ _ / / / _ _ ] ' ] _ _ ' C ",
"m / / / Z C H / H / / / / _ / / Z ~ / / / / P Z / y.t.!.J.6.AXKXZXnXjX2.w.w.`.t.m.m.[ [ ' ] / / _ _ _ _ ( ( _ _ ' ] ] ] ] _ ` H ",
"B _ / / / H / / / / / / / / / / Q Q / _ _ _ / / ~ m.Y p.XXT.VXGXZXZXnX+X.Xb &Xt.Y P _ _ _ _ / / / / / / / _ _ ' _ _ _ _ ` _ ` L ",
"B / Z Z / / H H Z H H H H H H Z S S S H H H ~ H ~ Z P F -X7.nXKXKXAXbXyXdXj.x.i.G H H H G L H Z Z Z Z Z Z Z H P P P Y Y / ~ / V ",
"B / H H H Z Z H H ~ H H H H H H Z H H Z Z Z H ~ ~ / / y.c.2.zXKXSXSXiXyXyX#Xh.z.Y P P P Y K ~ ~ P P P P P P P I / / / / / P _ B ",
"V _ / _ _ ` ` ` ` ` ` _ _ _ / / / _ _ / / ( / / ` ' [ m.*Xd.zXbXVXnXiXrXyXJ.:Xz.M.[ ` [ M.M.' ' ' ' ' ' ' ' ] ] ] ] ] ] ] _ ' L ",
"B / / / / / / _ / / / / / / / ~ ~ Y / / / / / ~ ` / ' a.oXj.zXSXDXiXyXuXhXK.;Xy._ ) ) ) ] _ / / _ _ _ _ ] ] _ _ / / _ / ) / ] C ",
"M / / / Z C Z / Z H / / / / / H H H / Q Q Q ~ H H _ U s.2X3.uXKXFXmXuXzX@XP.z.Y _ / ` ] _ _ _ _ _ _ _ _ _ _ _ _ / / / / / / ' C ",
"V _ / / / / / / / / / / / _ / / / / ( ( / ` ` ] _ T i.-XJ.T.CXPXCXbXuXOXH.k.y./ ~ / / / ( ( _ _ / / / / _ _ _ _ _ _ _ _ ] _ m.G ",
"M / Z Z H H Z H H H Z Z Z H H Z Z S Z Z Z H H H G U  XH.rXAXKXKXJXVXOXH.k.t.H Z Z Z Z Z Z Z H H Z C Z Z H H P P / / / ~ P H _ V ",
"V / / / / / / _ / / _ / / / / / D ! Z / ~ ~ _ / U *XH.OXZXBXlXlXlXR.L._.y.M._ ] ' ' ] ] ) ) ] ` ` ] ] ] ] ] ] ] _ _ _ _ _ _ ' C ",
"V _ / / / / / / _ _ _ / / / / P S ) _ _ _ _ ' Y !.oXOXiXpXzX..% & &.8Xn._ _ ' ' _ ' ] ) ) ) _ _ _ _ _ _ _ _ _ _ _ _ _ _ _ _ ' C ",
"M / / / H Z H / H / / / / / / / Z H / H _ _ K r. XK.rXpXpXpXwX8.9 f.Z.L H Z Z P ' ' ] ` ) ) _ _ _ _ _ _ ] ] ] ] _ _ _ _ _ _ ' C ",
"V _ / / / / / / / / / / / / / / / / H _ y.y.a.:Xd.@XVXpXeX6.VXLX7.4Xk.Y / / P / _ _ _ _ / / _ ] _ / / _ _ _ _ _ _ _ _ _ _ _ ' C ",
"B / Z H / H H H ~ / / H H H H H H H Y p.z. XXX2.j aXzXT.T.%.aXKXJ.2Xq.G Z Z P C Z Z Z Z Z Z H H H Z Z H H H H H P P P / / P _ B ",
"M / Z H H Z H / Z H H Z Z Z H H R J C.c.h.P.dX%.9 J.<.=.zX8.iXGXJ.XXt.G S Z Z P H H ~ H S P H H H H H P P P P P P P P P P P _ B ",
"V _ / / ` ` _ _ ` ` ` _ / / / / y./.x.j.d.dXDX>.f h.!.x.dXJ.mXHX3.2Xa.m.] [ ` [ ` ' ' ' ` ] ' ' ' ] ] ] ' ' ' ' _ _ _ ] _ _ ' C ",
"B / / / / / / _ / / / / / / / R t.!.H.gXjXMXtX2.P.;Xa.z.P.+XMXmX3.XXt.J / H / P ( ( ` ] _ _ _ _ _ _ _ _ _ _ _ _ _ _ _ _ _ _ ' C ",
"m / / / Z V Z / Z H / / / / / Y q.|.h.jXdXgXd.XXk.y.U t.XX.X9XgX=.9Xq.J G P H P / / ` ] ] / _ _ / / _ _ _ _ _ _ / / / / _ _ ' C ",
"V / / / / _ / / / / / / / / / Y !.|.L.jXvX2.-.;XC.Y Y s. X@XgXvXH.d._.y._ P P / / / _ _ / / / / / / / / / _ _ _ _ _ _ _ _ _ ' C ",
"M H Z H Z H H H Z Z Z Z Z H / Y b.|.H.jX2.b f.$Xe.K t.&X2.+XvX9X.Xw.*XJ G H C Z Z Z Z Z Z Z Z Z Z Z Z Z Z H H H / P / / P P _ B ",
"V / / / / / / / _ _ / / / / / Y l.|.H.2Xw 1.&Xp.n.y.a.&Xj.+XjXgX+X1./.^.n.M.] ] / / _ _ _ / / / _ _ _ _ ] ] ] ] _ _ _ _ _ _ ' C ",
"V _ / _ / _ _ _ _ _ _ / / / / Y k. Xf.9Xx  Xa.y.M.V.C.!.|.gXjXfXjXw./.m.m.' _ _ ] ] ' ' ] ] _ _ _ _ _ _ _ _ _ _ _ _ _ _ _ _ ' C ",
"m / / / Z Z H / H / / / / / / Y t.).k.v.z.i.U G P _ y.`.l.j.j.d.j.k./.G G H H P ) ] ' ' ' / _ _ _ _ _ _ _ _ _ _ _ _ ] ] _ _ ' Z ",
"V _ / / / / / / / / / / / / / P P u.J N y.m._ / _ / n.U `.*X*X3X,X&Xy.Y / _ / / / / _ ] _ _ _ _ _ _ ] ] ] ] ] ] / / _ _ _ _ ' C ",
"B / Z H / / / H / / / / H / / / S P Y y.Y P / W ~ ~ H R R U t.q.w.b.J H H H Z Z Z Z H H P P ~ ~ Z H H H H H H H / / / / / / _ V "
};
