/* XPM */
static char *_9c681baf353b59c788c800241351deedac08f59_o[] = {
/* columns rows colors chars-per-pixel */
"64 64 255 2 ",
"   c #3C0B18",
".  c #2F0B10",
"X  c #0A0A29",
"o  c #18162C",
"O  c #170F33",
"+  c #181838",
"@  c #0D1036",
"#  c #2A1729",
"$  c #38192A",
"%  c #2D0632",
"&  c #270C36",
"*  c #300735",
"=  c #251937",
"-  c #2F102D",
";  c #1D2139",
":  c #26233C",
">  c #392B38",
",  c #382E32",
"<  c #08021E",
"1  c #430A0B",
"2  c #460C17",
"3  c #48131C",
"4  c #531A1B",
"5  c #4A1013",
"6  c #5B2A17",
"7  c #69341E",
"8  c #491825",
"9  c #561B27",
"0  c #501A30",
"q  c #7C1A2D",
"w  c #7A1B27",
"e  c #691737",
"r  c #7C1834",
"t  c #750E32",
"y  c #582429",
"u  c #5C2A35",
"i  c #592735",
"p  c #4A252F",
"a  c #64262D",
"s  c #642B2D",
"d  c #672A2A",
"f  c #683327",
"g  c #642633",
"h  c #6A2634",
"j  c #642A34",
"k  c #692B35",
"l  c #662C3A",
"z  c #6A3436",
"x  c #74363A",
"c  c #723134",
"v  c #794A39",
"b  c #6D4D37",
"n  c #564238",
"m  c #0D1945",
"M  c #141B46",
"N  c #1A1C45",
"B  c #141B4A",
"V  c #1A1D4B",
"C  c #141648",
"Z  c #151D52",
"A  c #1A1E52",
"S  c #201C4B",
"D  c #14214C",
"F  c #1C224D",
"G  c #1C2346",
"H  c #1B2453",
"J  c #1B265B",
"K  c #1D295D",
"L  c #182655",
"P  c #22244B",
"I  c #282948",
"U  c #3A364A",
"Y  c #222B5B",
"T  c #232956",
"R  c #3B3954",
"E  c #342D4E",
"W  c #1C2662",
"Q  c #1D2A62",
"!  c #172961",
"~  c #222B62",
"^  c #262B62",
"/  c #293466",
"(  c #343A68",
")  c #453947",
"_  c #433C54",
"`  c #532D46",
"'  c #6E3C51",
"]  c #413F70",
"[  c #334274",
"{  c #5A4747",
"}  c #5B4858",
"|  c #4D4955",
" . c #695657",
".. c #6D4E4E",
"X. c #796356",
"o. c #574965",
"O. c #514A6D",
"+. c #6A5764",
"@. c #6C526A",
"#. c #7C6477",
"$. c #7B7179",
"%. c #6F636C",
"&. c #9A0829",
"*. c #84162B",
"=. c #8B112C",
"-. c #A30324",
";. c #B40A30",
":. c #B02B36",
">. c #8F1F24",
",. c #D8142A",
"<. c #D8173A",
"1. c #CA1431",
"2. c #ED153D",
"3. c #EB1A3C",
"4. c #E71938",
"5. c #F1163E",
"6. c #D0273E",
"7. c #E02E3E",
"8. c #8B4B39",
"9. c #A44433",
"0. c #A41E4B",
"q. c #972A4D",
"w. c #A22648",
"e. c #871842",
"r. c #CD1E46",
"t. c #D41D44",
"y. c #EC1741",
"u. c #EA1941",
"i. c #E91947",
"p. c #F21541",
"a. c #F31942",
"s. c #CC2242",
"d. c #D72346",
"f. c #D02B4E",
"g. c #E1224E",
"h. c #E22C42",
"j. c #E02250",
"k. c #885A4C",
"l. c #915850",
"z. c #98685A",
"x. c #8A6D58",
"c. c #A97859",
"v. c #AB7650",
"b. c #816675",
"n. c #8B726C",
"m. c #AB796A",
"M. c #BE4441",
"N. c #EE5055",
"B. c #CF745F",
"V. c #DE7A64",
"C. c #E97A64",
"Z. c #D24F50",
"A. c #988577",
"S. c #9A8269",
"D. c #A7896B",
"F. c #B48F73",
"G. c #CE9E5D",
"H. c #CA9B67",
"J. c #C69675",
"K. c #F29479",
"L. c #D4A464",
"P. c #D5A46A",
"I. c #D5AB6C",
"U. c #DCAC6D",
"Y. c #D8A969",
"T. c #DCB26E",
"R. c #D6B36B",
"E. c #D5AC73",
"W. c #DDAD72",
"Q. c #DCAC7B",
"!. c #D5A978",
"~. c #DDB273",
"^. c #DEB37B",
"/. c #DCB878",
"(. c #CBA66F",
"). c #E1B26E",
"_. c #E1AE74",
"`. c #E5AC7A",
"'. c #E3B475",
"]. c #E9B475",
"[. c #E3B976",
"{. c #E4B57A",
"}. c #E9B67B",
"|. c #E4B97B",
" X c #E9B97C",
".X c #E9B876",
"XX c #EFAC77",
"oX c #D0AB5E",
"OX c #3D5D94",
"+X c #3F6093",
"@X c #4B5B8C",
"#X c #4A649A",
"$X c #576598",
"%X c #55628E",
"&X c #76738C",
"*X c #4767A4",
"=X c #566FA6",
"-X c #6879A9",
";X c #887C86",
":X c #768EB6",
">X c #7794C2",
",X c #9A8886",
"<X c #948C93",
"1X c #B89984",
"2X c #AC9691",
"3X c #B9A59A",
"4X c #BDA990",
"5X c #9399B4",
"6X c #90A3BE",
"7X c #B6A7A4",
"8X c #AAA9B6",
"9X c #B398A3",
"0X c #C8AA88",
"qX c #D6AD86",
"wX c #DCB482",
"eX c #D5B58C",
"rX c #DBB48B",
"tX c #DAB787",
"yX c #C8AC97",
"uX c #CCB397",
"iX c #D4B492",
"pX c #D8B897",
"aX c #D1AE91",
"sX c #E8A884",
"dX c #FAA988",
"fX c #E3B482",
"gX c #EAB582",
"hX c #E3B983",
"jX c #E7B987",
"kX c #E5B591",
"lX c #F1AF8D",
"zX c #D8BBA4",
"xX c #C4ADA6",
"cX c #D09C91",
"vX c #EDDAAB",
"bX c #ECD7A7",
"nX c #F2D6AB",
"mX c #EDD4B3",
"MX c #F6D5B4",
"NX c #ECC9B0",
"BX c #ECD1B6",
"VX c #8AA6C9",
"CX c #99A7C8",
"ZX c #8BAAD2",
"AX c #96B0D3",
"SX c #A8B7CF",
"DX c #A6BEE2",
"FX c #829DC9",
"GX c #B1C3DA",
"HX c #B6CBE3",
"JX c #BCD1E6",
"KX c #C5C9D6",
"LX c #D0CCD3",
"PX c #C5D1E4",
"IX c #FDDBC0",
/* pixels */
"T.|.hXfX|.'.'.|.~.[.R././.^.|.E.R.R.).).U.Y._._.U.~.I.I.T.'.I.Y.T.[.jXfX|./.'..X_.}.U.~.|.'.{.U.R./.'.Y.U.U.W.W.W.Q.U.E.W.W.U.~.",
"R.[.|.|.|.'.'.|.jX^.R.R.[.|.|.~././..X].'.~.}.fXkXrXeXiXeXpXpXrX/./.|.gX|.~.'.'.|.}.U.|. X'.|.'./.[.}. X.X~.|. X}. X|.|.}. X|. X",
"R.[.|.|.'.'.{.}.|.|.T.[.[.'.|.'.{.{.}.}.'.U.^.rX0XX.+.%.%.%.%.X.(.hX|.{.|.|.|.|.'.'.~.[.|.|.}.|._.`.XX`.'.E.[.~.'.|./.^.|.|.|.|.",
"E.|.|.|.'.~.{.gX{. XI.[.~.|.|.{.fXfXgX|.'.~.|.eX3X) + P F V P > F.tX^.}.|.~.'.|.|.[.R./.^.|.|.^.}.gXgXgX|.E.[.[..X X~.'.|.|.|.|.",
"E.|.|..X'.'.}.}.|.|.Q.fXfXfXgXfXwXfX[. X'.Y./.tX7X_ F ~ ~ K K E 1XtXwXjX'.~.|.fX|.|.E.hXjXtXwX^.E.hX|.|.|.I.^.|.|..XT.'.'. X X|.",
"E.|.|..X'.T.|.|. XjX0XyXpXiXuXiX0XrX|..X'.U.[.tX7XR F J J ! Q T 2XzXiXqXhXU.'.hX|.fXQ.qXuXzXpXuXuXiXeXjX^.E.|.|.|..XU.'..X X|.|.",
"W.}.'..X'.U.^.wXtX0X{ U _ | | | { 1XjX}.].P./.eX7XR F K J J ! L E U > { eX~.~. X|.gX!.x.) _ _ _ R > X.iXhXY.'..X'.'.Y.'.'.|.|.|.",
"W.}.'..X[.R.^.wXeX3X| m Y ^ L G ) 2XrX{.|.P./.tX3X) P Y K J Q J m @ O > eXR./.[.|.wXqXX.: H F F H O } zXhXP.|.'.|..XU.'.|.|. X X",
"!.gX'..X'.U.|.wXeXxXR Z / / J P E 3XiXjX^.E./.tX3X) = P H J L J D N N p eXE.~.|.qXpXaXn.I ~ J Y K ; } pXwXY.'.|.E.jXU.'.'.'.|.|.",
"W.}..X[.'.U.'.gXrXxX| H ~ / ^ / E <X3X1X(.^./.jXaXn.b.$.O.V T H V V N ) rX~.|.rX1X3X2X%.T Q Q L Q N { zXjXW.|.|.gXgXU.'.'. X|.|.",
"U.|..X.X'.U._.gXrXxXO.Y / / / ^ T P : # p 0X^.[.jXrXaXuX;Xo N B V C N ) iXI.wX1X, + : G J Q J J Q F } pXfXY.|.|. X|.W.{.|. X|.|.",
"Y.'.'. X'.E.'.fXrXyX_ P / K K Q K B V + , 0X^.~.^.hX!.iX$.o P B B M M U iXE.eX1X: M B H K J K K Y : { pXjXY.^.~.^.hXQ.Q.^.^.'. X",
"Y.'.U..X|.E.'.W.wXuX{ # E T L K H D D + > 3XpXqXeXpX0XuX$.+ M V M G N U uXqXiX3X= V B H L J F P I # n iXjXP.wXqXeXeXeXeXiXqX|.'.",
"Y.'.Y.|.|.E.|.U.^.rXD.A.<X%.G L H D m N : n.,Xn.A.A.A.,XO.N H H B M + E A.A.A.#.+ B B F F F P &X,XS.D.rX^.E.eXS.A.A.A.,X,XS.wX X",
"U.|.U.'.{.E.'.U.].|.!.qXuXn.+ V M B B M + O X X O + : + H K J K B m V + O X O @ M V M M N + = 7XaXtXqXwX^.!.1X, > E I I I ) J.|.",
"I.'.'.].'.E.|.^.{.|.E.!.uXn.= V B M M N M V V L L K Y Y K Q W Q D m B B V V H Z B B N N N + : 2X0XwXrXrXtX0X2X> T ( / K ^ R 0XfX",
"oX[.'.|.{.^.qXiXiXpXaXpXuXn.+ V B M M M M B B m B J K K W J W J B m m M M M B V m V B B N + P 8XyXpXuXzXpXyX9XE Y Y / / ~ R 4XtX",
"T.T.|.}.|.!.X. . . ... . .| + V B M M M B B B m B K K K Q K Q K B B M M M M V V H J J H H F G O. . . . . . .o.E / ^ Q / ^ E 1XtX",
"U.|.'. X'.0X, ; o X X X X @ @ M M M M M B B B B B J J J J J J J Z V B B B B V Z Q J Q J Y Y H + X < O + X X I T L / Q ~ K E 0XfX",
"}.'.^.wXrXyX_ N D D L D V V D M M M M B B B B B D J K K K K K K Z B B B B B Z Z W W Q W K J Y B S S B Y K B Y / J / Y T P > 0XfX",
"'.wXaXyXyX7XR @ B D B B B B B M B B B B B B B B Z L J J J J J J B B B B B B B D J J J Q K J J V C V B D Y J H / / E _ } { b !.fX",
"|.qXn., ) R F L L L m B B B B V B B B B B B B B B B B B B B Z B B B B B B B B D J J Q Q J K L B V C F L D L H A V + ,XuXuXiXfX{.",
"^.iX$.+ P V Y W W J B D B V B C B B B B B B B B B B B B B B V B B B B B B B Z Z J W Q W J W K J B B V K D B J T G # A.rXwXE.|.~.",
"|.iX&Xm Y ~ W W ~ H + o o + N V B B B B B B B B B V B B B M V B B B B B B B B Z K J K K ~ K ~ ~ J H V H T T P O o # D.^.W.T.'.'.",
"U.pX&Xm Y J J ~ A _ b.n.n.} + V B B B B M M M M M M M M M M M M B B M M M V V B F H H H L H H Y D Y P P T + ) n.x.x.F.{.Q.|.T.T.",
".XeX$.M Y K J J T o.yXqXiXn.: V B B B B M M M M M M M M M M M M M M M M M M M M V B B M B B D L L H I P P = X.uXpXrXQ.{._.|.T.).",
"~.eX$.N Y K Q ~ P o.aXqXeXx.: H H H H H F F F F F F F F F F F F F F F F F F F F F V V V V B B D Y H N N F o  .iXqX{.Q.'.`.{.'.'.",
"[.qX#.= : I I I : { qXQ.Q.x.- * % % % % % % % % % % % % % % % % % % % % % % * * % % * % & & & & = = O = # # b !.^.|.'.{.Q._.|.|.",
"].E.F.D.F.D.A.A.D.F.Q._.`.B.w.0.0.0.0.0.0.0.0.0.0.0.0.0.0.0.0.0.0.0.0.0.0.0.0.0.0.w.q.e.t t e e e e ' 1XF.D.F.~.^.|.E.'._._.'.~.",
"].'.|.wXwX!.tXtXtXwX_.XXsXK.f.d.g.g.g.g.g.g.g.g.g.g.g.g.g.g.g.g.g.g.j.j.j.j.j.j.d.f.f.;.&.&.=.=.=.*.l.lXwXE.'.~.~.[.U.U.'.]. X|.",
"W.'.Q.E.W.E.E.E.E._.Y.`.`.V.7.4.3.u.3.u.u.u.u.u.u.u.u.u.u.u.u.u.u.u.u.u.u.u.u.u.i.i.d.1.-.&.&.&.&.=.9.sXQ.P.W._.U.T.W.W._.W.E.I.",
"P.W.{.{.].'.'.'.'.{.].`.XXC.7.5.3.3.2.y.y.y.2.2.5.p.p.p.y.y.p.5.2.2.p.p.p.p.p.y.i.i.d.1.-.-.&.&.&.=.:.dXgX_.}.].'.T.'.|.{.'.'.I.",
"L.'.'.{.|.|.]..X'. X X`.XXC.h.3.4.3.a.p.y.2.2.5.2.p.2.5.3.2.a.5.4.3.u.y.5.2.a.<.;.;.;.-.&.&.&.&.&.>.9.dXgX}.}..X[.[.|.|.}.|..XY.",
"oX'.'.].'._.'.'.|.~.~.].XXC.h.u.3.4.y.p.y.y.y.2.a.5.p.2.2.y.2.5.4.3.u.i.p.y.y.<.-.-.&.&.&.&.&.&.&.=.9.dX].'.'.'.'.[.[.|.|.|..XY.",
"G.'.'.'.W.U.U.'.W.W.W._.XXC.d.i.y.p.p.p.y.3.4.3.2.2.p.y.u.u.2.p.2.p.i.i.y.u.u.<.-.&.&.&.&.&.&.&.&.=.9.lX}.'.'..X'.|.^././.^. XY.",
"L.'.'.].|.'.].'.'.'.].].XXV.f.s.t.d.t.t.s.s.6.s.s.d.r.r.s.r.d.t.t.t.r.r.r.s.6.:.=.=.=.=.t t r t r t 8.lX{.~.'.'.'.|.[.[.[.^. XY.",
"G.~.U.W.W.U.U.U.U.U.U.E.E.v.>.*.q q q q q q q q q q r r q q q *.*.*.q q q q q w h h l 0 * * * & - - z aX^.~.~.'.'.'.'.'.'.~.].L.",
"P.|.|.|.|.'.'..X'. X'.^.wXc.d l j u i u l l l j j l g l l j l j j j j j g j j j u i ` E = V B B N o { pXtX|. X|.'.|.|.'.|.'.|.Y.",
"P.].~.'.'.'.'.'.'.|.'.~.fXc.3 3 3 0 i i 0 8   3 8 0 i i 8   2 2 0 i i 0 3 2 2 8 p p ` = X @ m M V O { pXtX/.[..X|.|..X'.[.[. XU.",
"H.{.|.'.U.Y.U.'.W.~.'.^.wXF.b.b.#.@.} } @.%.#.#.@.} ' ' @.b.#.#.@.o._ o.#.b.#.@.} o.o.O.( [ ( H V O { pXtX'.[.'.|..X.X[.[.[.|.U.",
"P.|.|.'.'.U.T.'.W.|.].{.rXuX8XCXCX-X%X%X$XCXCXCX5X%X%X%X:XCXCXCX-X#X$X$XCXCXCX5X@X$X#X#X*X#X$X^ m + { pXtX/..X.X].].].'.|.|.}.Y.",
"L._.U.U.'.'.U.U.W.W.Q.E.0X3X8XVXZX-X#X#X#XZXZXZX>X@X#X@X:XZXVXZX-X*X*X*XZXZXZX>X#X#X*X*X*X#X$X^ m o n aXE.Y.U.U._._._._.'._.{.P.",
"L.~.E.T.U.U.U.U.W.W.~.!.0X3X8X6XVX-XOX+X#XFXVXVX:X%X$X%X:XAXVXVX=XOXOX#XVXVXVX:X%X$X$X$X#X=X$XY @ o n eX^.~.~.T././.'.'.'._.{.P.",
"P.|.'.'.'.}.}.}.}. X|.wXtXzXKXGXDXVX:X>X:XDXGXGXCXR @.O.5XHXDXDXFX>X>X>XDXGXGXCX_ O.O.] ( [ ( E E > b kXhX.X.X[.[. X|.}.}.}. XU.",
"L.'.'.'.'.'.'.|.Q.|.'.|.rXzXLXJXPXSXVXZXZXHXJXPX8X- ` - 5XPXPXJXAXZXZXAXHXJXPX8X. ` ` = X @ @ E ` u v kXfX|.|..X|.|.|.|.|.|. XI.",
"H.'.'.'.U.Y.I.~.U.'.'.'.Q.zXLXHXKXSX6XVXCXHXKXLXxX  '   2XLXKXPXSXVX6XCXHXKXKX7X  l u p = = + ` u a 8.kXfX|.{.'.'.|.|.|.|.|.[.I.",
"P.|.'.].].'.|.'.].'.'.'.gXNXLXKXKXSX5X5X8XKXKXLX9X3 '   ,XLXKXKX8X5X5X8XSXKXLX7X  h l p # = - ` j s v rXfX|.|.|.|.|.|.|.}.|..XI.",
"H.~.U.U.U.U.U.U._.W.T.~.!.D.X.+.+.} } o.} +. .....l k i '  .+.+.} } } } +. .@...g j u u p ` i u j d v qXQ.W.W.E.~.~.~._._._.~.oX",
"L.'.'.'.'.'.'.'.{.|.'.'.fXc.y 8 3 p i 0 i y y y g x x x z u 0 i p y p 9 8 8 9 9 i j i u u u j j s f 8.kXgX|.|.[.[.[.|.|.|.'. XY.",
"L.'.'.{.'.'.'.'. X X|.'.fXc.z k s d h h g 5 4 y y y 4 4 4 5 2 5 d d h h h h h h j j h j s s j a 6 6 v fXgX|. X[.[.[.|.|.|.|. XY.",
"G.'.|.'.W.Y.U.'.W.Q._._.`.c.d g a g h g u l.z.k.k.x.x.X.k.k.l.l.x 9 h g a a h h h h h h a a a k.k.8.v.fXfX|. X'.'.'.}.|.|.|. XI.",
"L.|.{.'.'.'.'.'.'.{.'.{.fXc.f j a h j l ..NXMXMXNXmXmXNXmXnXnXMXl.3 k j a h h h k g h g a a x cXkXfXfXjX{.'..X.X'.'.|.|.|.|.gXE.",
"L.'.W.Q._._._.W.Q._.W.W.Q.v.f d d k j u v NXmXmXMXnXvXvXvXnXbXMXz.1 k j a h h g g a k j s d f J.!.W.Q.Q._.U.U.~.~.~.~.~.~.^.{.P.",
"G._.W.W.W.U.W._.Q._.W.W.E.v.7 d c d s y v BXIXmXnXnXbXvXbXvXbXnXz.5 k g j a j g g g a s d 6 f J.fXE.~.~.'.'.'.~.~.~.~.~.~.~.'.P.",
"L.|.'.|.}.}.|.|.}.}.|.'.{.H.c.c.m.k.d s z 1X0X1X0XvXbXvXbXvXvXMXz.5 k g j a j j g h a z.D.c.c.Q.|./.|. X|..X X'. X'.'..X'.|. XI.",
"L.'.'.{.'.'.'.|.{.{.'.'.|.}.wXkXiXc.z z s 1 . . x.vXbXbXbXbXvXMXz.1 l j j s i j j j d F.kXfXfX|./.|.[.'.|.|.|. X|.'.].].].'.|.Y.",
"G.'.'.'.U.P.U.'.W.W.'.'.'.'.`.qX0Xz.4 z x x x 5 z.mXvXbXbXbXbXMXl.3 l l g g j g a d d J.jX^.[.'.~. X'.|.|.|.[.[.'.'.].].].]. XI.",
"L.].'.'.'.'.'.'.|.'.'.'.].].'.Q.kXz.6 z c a c 1 m.IXMXnXMXMXMXMXz.2 l j g g j a f 7 7 D.^.'.'.'.'.'.'.'.'.'.[.[.[.'.].].}.'.|.I.",
"G.U.U.U.U.U.W.W.U.U.U.U.U.W.W.Q.W.H.H.J.F.c a 9 ..m.m.m.m.m.m.m...9 k a a a a l.J.F.F.(.Q.W.U.U.T.U.U.U.U.U.~.R./.~.~.'.'.~.'.P.",
"L.'.'.'.'.'.].'.|.|.'.'.'.].'.'.'.'.Q.wXqXx a h 4 1 1 1 1 5 1 . y j j g a a d z.kXfXhX^.|. X|.'. X|.|.'.|..X X X[.[.[.|.|.|.hXE.",
"P.|.'.'.'.|.|.|.|.|.'.'.].'.'.'.'.].'.{.qXf d h j l k k z j z j j h h a h j z l.kXfXjXhXhXfXfXfXfX|.|.|.|. X'.'.|.|.|.|.|.|.|.I.",
"G.'.'.'.U.U.W.'.W.'.'.'.].'.'.'.P.'.~.`.sX8.w q h g j i u i i i i u l u u u y l.lXdXdXdXdXdXdXdXdXdXXXgX|.'.'..X}.}.}.|.|.|. XU.",
"P.|.'.'.'.'.'.'.'.'.'.'.'.].'.).'.'.~.}.K.M.s.f.q.2 8 $ $ $ $ $ $ $ $ p $ $   x Z.N.N.N.N.N.N.N.N.N.V.dXgX[.[. X'.{.|.|.|.'. XY.",
"L.'.U.W.'.'.'.W.'.'._.Q._.'.'.).).T.U.`.K.Z.<.f.q.. $ $ # # # # # # # # # # . e :.,.,.,.,.,.,.4.,.1.M.K.`.E.~.R.'.].].'.'.'.'.L."
};
