/* XPM */
static char *_d2fcaa5eaf4a53fbe5b49c4de0c62d404044a11_o[] = {
/* columns rows colors chars-per-pixel */
"64 64 135 2 ",
"   c #DEB275",
".  c #E6BA7D",
"X  c #E4B87B",
"o  c #E3B77A",
"O  c #E1B578",
"+  c #E2B679",
"@  c #D9AD70",
"#  c #DFB376",
"$  c #E0B477",
"%  c #DBAF72",
"&  c #DCAE70",
"*  c #DFB173",
"=  c #DDAF71",
"-  c #DBAD6F",
";  c #D7A96B",
":  c #D8AA6C",
">  c #DAAC6E",
",  c #DEB072",
"<  c #E2B478",
"1  c #E5B77B",
"2  c #E7B97D",
"3  c #E3B579",
"4  c #E6B87C",
"5  c #E0B276",
"6  c #E4B67A",
"7  c #DAAC70",
"8  c #E1B377",
"9  c #DCAE72",
"0  c #DFB175",
"q  c #DDAF73",
"w  c #D7A96D",
"e  c #DBAD71",
"r  c #D9AB6F",
"t  c #DEB074",
"y  c #DCB073",
"u  c #E5B97C",
"i  c #E4B678",
"p  c #E5B779",
"a  c #E7B97B",
"s  c #E6B87A",
"d  c #E3B577",
"f  c #E2B476",
"g  c #E1B375",
"h  c #E8BA7E",
"j  c #E9BB7F",
"k  c #E0B274",
"l  c #DAAE71",
"z  c #D9AB6D",
"x  c #E8BA7C",
"c  c #D6A86A",
"v  c #EABC7E",
"b  c #E9BB7D",
"n  c #DAAA6C",
"m  c #E4B476",
"M  c #DDAD6F",
"N  c #E8B87A",
"B  c #E7B779",
"V  c #DBAB6D",
"C  c #E3B375",
"Z  c #DEAE70",
"A  c #ECBC7E",
"S  c #D9A96B",
"D  c #E0B072",
"F  c #E1B173",
"G  c #EABA7C",
"H  c #DFAF71",
"J  c #E9B97B",
"K  c #E6B678",
"L  c #EBBB7D",
"P  c #D8A86A",
"I  c #D5A769",
"U  c #E5B577",
"Y  c #E2B274",
"T  c #DCAC6E",
"R  c #D4A668",
"E  c #D7A769",
"W  c #E0B372",
"Q  c #E2B574",
"!  c #E6B978",
"~  c #DFB271",
"^  c #E9BC7B",
"/  c #E7BA79",
"(  c #E1B473",
")  c #E3B675",
"_  c #DEB170",
"`  c #DBAE6D",
"'  c #DDB06F",
"]  c #DCAF6E",
"[  c #E3B373",
"{  c #E4B474",
"}  c #E5B575",
"|  c #DFAF6F",
" . c #E2B272",
".. c #E7B777",
"X. c #E0B070",
"o. c #E1B171",
"O. c #E8B878",
"+. c #E9B979",
"@. c #E6B676",
"#. c #DDAD6D",
"$. c #D6A668",
"%. c #D1A463",
"&. c #E4B776",
"*. c #E5B877",
"=. c #E8BB7A",
"-. c #D0A362",
";. c #DAAD6C",
":. c #CC9F5E",
">. c #D8AB6A",
",. c #D9AC6B",
"<. c #D5A867",
"1. c #CEA062",
"2. c #DCAC6C",
"3. c #DBAB6B",
"4. c #D3A567",
"5. c #D8AA6E",
"6. c #CC9E60",
"7. c #DAAA6A",
"8. c #D8A868",
"9. c #D1A365",
"0. c #CFA163",
"q. c #D9A969",
"w. c #D2A468",
"e. c #DEAE6E",
"r. c #D3A569",
"t. c #EABA7A",
"y. c #D0A264",
"u. c #CD9F61",
"i. c #D6A86C",
"p. c #D2A466",
"a. c #D1A367",
"s. c #CB9D5F",
"d. c #CA9C5E",
"f. c #D5A76B",
"g. c white",
/* pixels */
"  . . X o O + X o O @ # $ O $ % & & * = - ; = = = - : > = , & ; < 1 2 1 3 3 < 4 5 6 7 8 < 5 8 9 9 5 0 q 9 w q 9 e 9 r 7 e q r t ",
"y u u o + # O o u X y O + X X   i p a s d * p p s p f d s a s g 8 6 4 6 < 8 8 1 < 4 9 3 1 3 1 5 < 2 2 1 1 0 2 4 4 2 3 1 4 h 6 j ",
"% X X o + # O o X u % + o X X $ k f i d g - d d i i * g i i i * 5 6 1 6 < 5 8 1 3 4 9 3 1 6 4 8 t 3 3 3 < e 6 3 3 1 5 < 3 1 < 4 ",
"l u X X o   + X + u l $ + + X $ g p s s i & i s p s g d p i s g 5 1 1 1 3 5 < 4 6 4 e < 6 3 1 0 5 4 1 4 6 9 1 1 1 4 0 3 6 4 6 2 ",
"e 4 1 4 6 0 6 4 6 2 e < 1 6 2 < * i p p d > d p i s * f i d s k 0 1 1 4 6 0 3 4 1 2 e < 1 1 4 8 , p i s d z i i p s , f i p p s ",
"7 1 6 4 6 q 3 1 6 h 7 8 1 6 2 < , p p s i z d s s a * f p i x g t 6 6 4 3 q < 1 1 4 r 8 1 4 2 < = p i a i z p p p a = f p p s s ",
"z p d s i - f i i x ; * i d s k & i d p d ; g i p s & k i d a * = i d s d & g p p p : * i p s k - i f s d c i d d p > k d d i i ",
"z s d a i - d i p x ; * p d s k = p i s i ; f p s s - k i d a * = p d a i & f p s s : * i p s k & s i a d c d d p a - g i i s s ",
"z a g p i - d d g v c g s g b k = i f s f : k s g x = k i g a * & s d f p > d i g a > * s f s g - p f i d ; d i g b = g i d p i ",
"> s p s d - f s i b : k p i x k = i s x d > k x p a , * p p a * & p x p p & f x p x z , a i x k & p s a i z f a i b - k p p s i ",
"> i a a d - k a s x z , d s a k & f a x f > , a a s = , i a a k - f x a i & k x a x : = s p b k & f a a i : k s s b > * i s a d ",
"z d f a i > k d i b z = g d x k > g g a f : , g s a & , f d x * > k f a d > * f a a : = i f x k & g f s i ; * g p x > , f d s i ",
"n m M N B V C Z C A S D F D G D - f - s i : f & g x > * * & x , & g & a i > g & d s z & k , s k H m Z B N S m Z C J M D D F B B ",
"n m n K B V m V F L P F D M G D - f c p i I d z , x z * , z x = & g ; p d > f : g p z & , - p k Z C n U B P U n Y N Z F Z Z K B ",
"V m T K U V U M Y N S F F H N D > f : p f R f - k s > * * & x & - k z p k - g z f i z = * = p , M C M m m E m T Y N M F D D K U ",
"T U F K C T U D m K n F F F K D & d = a f c f * f p - * g k a - = g , a * , d = i i : = g k a = Z m C K C S U D m N T F F Y B m ",
"& g f p f & g k d s - k W Q ! ~ , g k x f z g k f p * g * f p * & f * a d > f k d p - k k g p k = f k a g z k k d s , g , k p p ",
", d d x i , d g x x > * Q ! ^ W * f f v i - d g b a - * f x x * * g i a i * g f b a : * i a x * * i f b i - f g b a - * f s b i ",
", f f s d , f * p a - * W Q / ( * f g x f > f k s s & k k i s * * k d s d * k g s s > k f d s k , d g a d - f k s s = k k d a i ",
"* g k i k & f , k i - k ~ ~ ) _ , k , p k : g , * i * f , * d , = f , i g - f , k p & g * , d k , f * i g z g * * i * d * , d d ",
"f f * d k = d * g d z k Q Q ) ` g f , i * z f * k d = f g f f & k i , d g & i * f i > g g k d = k d , d k > f k g d & f g g d g ",
"d g , f * = i * k d z k W W Q ' g f = d * > d * g f & g k g f & g k k g * * g k g f : g f k f & k f = f * > f * f d - k k k d g ",
"f * = g , & f & , f > k ' ] ( ~ * k & f * > f = * f = g = , g , * * , * , , k , , f z k * & g , * g & g * > g = * f & g = = g f ",
"f * = f * = f - k f : * W ~ Q ] * k & f k > f & * f = f , * g = = g & g g & d & k f z k , = g * , g = f k - g & * g & f * , g g ",
"D m m B F M m m C U T C [ { } | = k d d = - k f f g = k * d g = & d d f k = g d d g > , k i g , & i f f g z f f k s z g g d * f ",
"K C D K C H U F m B V Y  . ...X., g g i k & g g d i , g k d i , , g g d g , g g d d - k k d d k = f k f g z g * f p - d k d d d ",
"U F F N Y V Y D m N n F o.X.O.o.* k = i g - k , f i - k , k i = k , * d g , g , f d > * * * d * * k * d d > f = d d - f & k i f ",
"N H Z N U H C M U J n F o.X.+. .* g & i d > g = f p - g * * p , k = * i g , g = d p z k k * p k * , = i f z g - d p = g = * i f ",
"K H T U C Z Y T Y B n D X.| @.X.= * - d k ; * & k i > k = , i = D Z D U F Z F Z m K n F F F K D , = = d k ; k - k i & , , * d f ",
"U U C B Y Z m Y C B Z C  . .@.o.k f * p g - g k g i = f * k i , Y Y C B m F m Y m K T Y Y C U F k g k i d > i k * i , * f g i f ",
"M D T Z Z M F T Z D V H #.| | #.& = - = - : & - - = z & z - = : Z H Z D H M D Z Z H S Z M H H M z & z & = I , - - , > & = - , ; ",
"$.Y Y Y F D m Y Y C F C o.{  . .k * * * = = * , * g k f , f g = F m D F C Y C Y m U Y U m U m m f s g f s * a i d d f i g * f c ",
"%.) Q ) ) &.*.=.) ! ! ) ( Q ( ~ ' ( ) ( W ) ) Q ) ^ v x a x x x *.*.! / x x x x s a a a s s a a s s a a a s s s i p p p p i a ; ",
"-.&.Q ( ~ ' ~ Q W Q Q Q ) &.) ( W ( W W Q *.( ] ) ! s d f g k k W _ ` ;.- = * k s a a a p i i d i i i i i i d d i p p p s i a : ",
":.( ( ~ ;.>.` W _ ' ' ~ ( ( ~ ' ,.] _ ~ _ _ ' ] , k k k f g g f  .o.' ] = = , * f d i p p i d d p p p p p p s s d i d d i d s c ",
"<.*.W ( ) ) Q Q Q ( ( Q ) ) ( ( ) Q Q &.! / *.) g f g g f g k f  . .W W k k k * = , k g f f f f * * k k g f d d d i i i p d a ; ",
"1., > - & - - - & - - & - - - & ' ] ` ` ` ] ] ` = , = & = - z - 2.2.3.3.> - - & > > - - - > - - - - - - & = = , * k k k k * f 4.",
"4.p d i d f i s i p p d f f f f _ ( ) W _ _ ( Q f p p i p p i p } } @...s s s s x x x x a a a a a a a s s s s s d i i d i d s ; ",
"4.f , k d i d f f d d f f f g * ~ W W W ) *.d , p b b a a s p p } } } @.B B p p i i p p i i i i p p p p p p i i i p p i p i 2 5.",
"6.d i f > ; & d = * k k f i f , ;._ W W W ( , z , d i g g g k * X.#.7.8.P V & * a x x x a s p p i i p p p p p p p s p p s i h r ",
"9.i f f * = , g * g f g g g g g _ W g f d d d f g f f g f i i i { { { { m m Y F , k d i d d i p f d d i i i p s d d 3 3 3 < 4 w ",
"0., z - , * = & - & = & & = = = ' _ = & & = = & - & & - > > > z 2.3.7.q.n V T T > > - - > > > z z > > - - - & & * * 0 0 0 t 8 w.",
"1.* & = & - - & & = = & - & & & - & - > > - & & , * k * = = = = #.#.e.| D D D D F D = = , , = = , , * * * * k k 5 5 5 5 5 0 < r.",
"R p f i p s s s p s s p i i d f g f f f f d d d s x v b x a x a +.+.+.t.L A A L L L b b b b b x s s a a a a a a 4 2 4 4 4 1 h r ",
"y.d g f k * g d k f f f f f k , = * g g g g * = d p s p i d d d  .X.#.2.T Z F Y K B N N i d f f i p p p p p i i 1 1 1 6 1 3 2 5.",
"u.d d g > c z * - = , , * * , & > & , k k * , & , k g k k k k k  .X.e.#.M Z D D m K N N p i i i i i i i i i i i 3 6 3 3 3 < 1 i.",
"R p g f d d f f g f f f d i d f k f d i i p p i g f f f f d d f [ [ [ { m m C Y D F C C m m f f f f f f d i 6 6 6 1 1 6 1 6 2 5.",
"u., > - & - - - & & - > - & & - & & & - - & & & = = & - - - > z 3.7.7.3.V T V V T V V V T T > > z z z z - & q q t 0 0 t 0 t 8 w.",
"p.d k f d d d i i i i f g g f f X. .o.X.D Y m m d p p i p p i i U K B B p p p s s s a a s s s s s s s s s s s s p i i i 6 3 2 i.",
"4.i k f d d f d i p i d d d g * [ } @.{ m K U F s b v x a s i i B K U m i p s a p s s p p i i i p p p p p p p p p i i p 6 6 2 w ",
"6.d d g & z = d = , , k f d g , 3.e.X.| F m F V , f d f f g * k H T S S z - & = s a a a s p p p p p p p p s s s p i i i 6 3 2 w ",
"p.i f g * , * f k g g g d d g * X. .[ [ U K U Y * f f f d d f d K m Y F k g g g d d i p i i p p d d i i i i p p i i i p 6 6 h w ",
"y.k & = = = = = = , , & & = = =  .o.X.o.F D D Y , * = & , , = & M M M T > > > > : z > > - - - - - - - & & = = = * * * k 5 0 3 w.",
"6., - & & - & , - & & - > - = = e.2.2.2.V V T H = , & - & & > > T M Z Z & & & = & = = = = = = = = = , , , * * * * , * * 0 t < a.",
"I p k d s s p i s a s i d d f k [ } } { m K K U s b b x x a s s J N N J a x b b x b b b x a a a a a a a a x x x p p p s 1 6 h w ",
"0.f g f k * g i f f f f d d g , | { {  .C K C T f s x s p d g f C F H Z , k g g p p s s p i i i p p p i i i i i p i p p 1 6 2 w ",
"s.g d g : I > k > & , k g f k , q.e.o.X.F Y D M & * g g k k g g H Z T V > & = , g i s a s i i i d d i i i p p p d f d d 3 < 4 i.",
"I f , g d i d k f d d f f f g k } } } { U K B B i i d g k g f f K U m C k k k * k g f d d f f f f f f d d i i i i i i i 3 3 2 w ",
"u.= - = - - = = - - > > - = , = e.#.e.X.D Z M Z - & & & = = - : S n n V > > > z > > z > - & - - > > > - - & & & k * k k 0 t < w.",
"4.d k f g f f g i i d g g f g k [  .o.o.F F Y Y d i d d d i d f U U U K i p p p p p i i i i i i p p p p s s s s p i p p 6 3 2 w ",
"4.i g i d i p i i i i d f f k , [ } } [ m K U C a b v b a s s p N K U U i p s a s a x a s p i p p p p p p p p p i i i i 6 < 2 i.",
"d.k g g > : = g = , k g f d g * 7.e.o.o.Y C D V = g i p d g k , M T n n z - = , p s x x s i i i i i i i i i i i p p s s 1 6 h 5.",
"4.i f d k , k g , * k k g f g *  .[  . .C U U C f d d f g f i i K U m Y k k g g f d i p i i i i p p s s s s s s d d i i 3 3 2 w ",
"y.* - = , * , & , * , , , * * , o.| X. .C Y F F , , , = = , = - V V T T - & - - - - - & , , , , - & & & & = = = k k g g 8 5 1 f."
};
