/* XPM */
static char *c68710cc489e2ac68a17c125ff98f8b29655d310_o[] = {
/* columns rows colors chars-per-pixel */
"64 64 251 2 ",
"   c #0B0707",
".  c #150101",
"X  c #1C0100",
"o  c #180B08",
"O  c #170E14",
"+  c #191516",
"@  c #101214",
"#  c #230100",
"$  c #2B0100",
"%  c #260B05",
"&  c #330100",
"*  c #3B0100",
"=  c #380A00",
"-  c #391708",
";  c #271817",
":  c #301715",
">  c #322216",
",  c #0B1C29",
"<  c #1C1D23",
"1  c #191D28",
"2  c #231C24",
"3  c #19232A",
"4  c #162534",
"5  c #132831",
"6  c #252329",
"7  c #262D37",
"8  c #333235",
"9  c #1F261E",
"0  c #430100",
"q  c #4B0700",
"w  c #540600",
"e  c #491905",
"r  c #571802",
"t  c #491E17",
"y  c #651600",
"u  c #701500",
"i  c #59230A",
"p  c #572817",
"a  c #4C2816",
"s  c #682706",
"d  c #792904",
"f  c #672C15",
"g  c #68341A",
"h  c #763719",
"j  c #74300B",
"k  c #503428",
"l  c #673826",
"z  c #763B25",
"x  c #603E34",
"c  c #4D443D",
"v  c #7A442B",
"b  c #764736",
"n  c #6A4934",
"m  c #7A4018",
"M  c #1A3647",
"N  c #132D41",
"B  c #283A48",
"V  c #363B40",
"C  c #483F40",
"Z  c #294355",
"A  c #374A59",
"S  c #30444E",
"D  c #375668",
"F  c #2D5065",
"G  c #3B657A",
"H  c #3C6B77",
"J  c #1B455D",
"K  c #4F5153",
"L  c #6C5550",
"P  c #475969",
"I  c #476779",
"U  c #586972",
"Y  c #6A696C",
"T  c #892C03",
"R  c #88350C",
"E  c #973807",
"W  c #853A17",
"Q  c #973309",
"!  c #A53906",
"~  c #883F23",
"^  c #C23E00",
"/  c #994518",
"(  c #8D4118",
")  c #AA430B",
"_  c #A64718",
"`  c #B7531D",
"'  c #B64A12",
"]  c #884624",
"[  c #954B26",
"{  c #99542C",
"}  c #985837",
"|  c #895137",
" . c #A64C23",
".. c #A85328",
"X. c #B85927",
"o. c #A95B34",
"O. c #B75C35",
"+. c #B04F24",
"@. c #B96538",
"#. c #B9622D",
"$. c #D54F03",
"%. c #DB4D02",
"&. c #DB4B06",
"*. c #DC5102",
"=. c #D4540C",
"-. c #D95309",
";. c #C9581A",
":. c #D35412",
">. c #D85917",
",. c #C84E0C",
"<. c #E24D01",
"1. c #E94F01",
"2. c #E35302",
"3. c #EC5402",
"4. c #EB5A08",
"5. c #F55B03",
"6. c #FD5C02",
"7. c #F35D0B",
"8. c #FC5D0A",
"9. c #F85603",
"0. c #E85E14",
"q. c #F45E12",
"w. c #DD641D",
"e. c #ED610C",
"r. c #F46103",
"t. c #FD6103",
"y. c #F4610C",
"u. c #FC620C",
"i. c #EC6314",
"p. c #E4631B",
"a. c #EB641B",
"s. c #E56316",
"d. c #F36313",
"f. c #F86618",
"g. c #FB721E",
"h. c #C65B26",
"j. c #CD5E2C",
"k. c #CA642B",
"l. c #D96627",
"z. c #C86737",
"x. c #D66B34",
"c. c #D77237",
"v. c #E46522",
"b. c #E66826",
"n. c #FD7729",
"m. c #EC7939",
"M. c #F67C35",
"N. c #FD7C34",
"B. c #F57C3C",
"V. c #FD7D3B",
"C. c #FB7535",
"Z. c #F26C28",
"A. c #8E5945",
"S. c #95624D",
"D. c #AA6544",
"F. c #B86A45",
"G. c #BB7456",
"H. c #BA724B",
"J. c #AD6750",
"K. c #C8774B",
"L. c #D97948",
"P. c #C67852",
"I. c #D57C54",
"U. c #C06D44",
"Y. c #E77C45",
"T. c #F57E44",
"R. c #FC7D42",
"E. c #F97F49",
"W. c #708276",
"Q. c #FD8135",
"!. c #FD813B",
"~. c #F5813D",
"^. c #EF813D",
"/. c #BC8068",
"(. c #D98356",
"). c #CE8353",
"_. c #EB834B",
"`. c #E98549",
"'. c #F38344",
"]. c #FB8243",
"[. c #F3844C",
"{. c #F3884C",
"}. c #E88755",
"|. c #F38652",
" X c #D68965",
".X c #E08D65",
"XX c #386A85",
"oX c #3C7C9C",
"OX c #397799",
"+X c #337693",
"@X c #397BA3",
"#X c #2F7DA1",
"$X c #4A758A",
"%X c #57798A",
"&X c #4B7C94",
"*X c #477B9A",
"=X c #567B95",
"-X c #4D6D85",
";X c #657987",
":X c #767D87",
">X c #447EA3",
",X c #837D81",
"<X c #3C8298",
"1X c #3C83A4",
"2X c #3C85AB",
"3X c #3D89AC",
"4X c #3784A7",
"5X c #3B8CAD",
"6X c #42829C",
"7X c #4B839C",
"8X c #48889B",
"9X c #56859B",
"0X c #4C8896",
"qX c #658599",
"wX c #6C8A96",
"eX c #4383A3",
"rX c #4C84A3",
"tX c #4385AB",
"yX c #448BAC",
"uX c #4C8CAC",
"iX c #4A89A6",
"pX c #558AA4",
"aX c #538CAC",
"sX c #5A8CAB",
"dX c #5788A5",
"fX c #4C92AB",
"gX c #5392AC",
"hX c #5D96AC",
"jX c #448DB2",
"kX c #4C8DB1",
"lX c #558DB2",
"zX c #4C96B6",
"xX c #5493B4",
"cX c #5B94B3",
"vX c #5D9AB3",
"bX c #539ABB",
"nX c #5797B9",
"mX c #648BA5",
"MX c #6498AE",
"NX c #669AB8",
"BX c #7699B0",
"VX c #67A2BA",
"CX c #79A9BD",
"ZX c #4EA0B6",
"AX c #559AC2",
"SX c #6599C3",
"DX c #719FC3",
"FX c #5BA3C5",
"GX c #68A4C3",
"HX c #73A8C7",
"JX c #818794",
/* pixels */
"5XfXcXcXvXxXnXnXgXxXyXyXuXtX@X1X<XiXuXsXqXU 7 1 P ;XP 7 < @ U U 3 9 ; X L 8 , -X%X$X*X7X+X<X6X<X+X8X6XrXiXkXuXaXaXaX7X8XiXgXlXxX",
"zXbXnXnXnXnXnXnXxXuXkXkXuXyX1X1XiX8XsX-XZ 1 ; . c c + ; . > Y ; ; . & A.A.# o 8 K , A %X0XH 7X8X8X8XuXiXkXiXiXuXuXaXiXiXgXxXlXxX",
"nXnXbXbXbXxXxXxXxXxXkXuXuXyXyXiX7X=XA 4 2 X $ } ).} # $ [ K. X[ & [ j.l.x.T d o.l # % K 7 , XX*XOXoXeX8XoXoX1X1XtXtXtXiXiXkXkXuX",
"SXSXbXzXzXzXzXzXxXxXnXlXgXcXvXpXG 5 6 . X v P.}.'.`.W P.`.'.'.m.z.|.V.q.0.i.w.l.F.r } A.# 6 Z 9X*XiXrX6XoX<X1X2XtXtXtXeXeXtXtXtX",
"cXnXbXAXAXAXbXzXzXxXcXcXMXmX%XB , 2 X g @.`.[.'.B.~._.[.B.V.V.V.'.R.N.f.7.0.s.l.[ [ x.c.z # 1 -X9XsX&XaXrXiXeXuXtXtXtX2X1XyXkXuX",
"bXbXbXbXbXAXFXFXGXvXNXBX9XA 1 + 6 . A. X'.!.V.V.!.V.N.V.V.V.V.C.M.V.V.N.d.i.Z.Q * u =.a.j.0 # ; Y B M dXaXuXeXuXkXjXjXyX3XyXyXyX",
"bXbXbXAXAXAXAXnXgXhXmXD 4 6 . % : X z (.'.M.V.V.V.M.!.N.N.!.C.V.V.C.V.V.n.N.].h.0 y -.7.a.! w } b X 1 D 7X6XuXtXuXjXjXjXjXjXjXyX",
"zXzXzXzXzXbXnXcXNX-X7 6 . X v G.S.# $ D._.V.V.C.V.B.N.N.N.V.V.V.V.M.V.V.V.V.|.I.( z.i.5.y.0.>.x.z.r o 7 %X9X&X*XtXyX3X3X5X5XyXyX",
"bXbXzXbXxXnXnXSXF 4 @ X s @.}.}.I.s # e I.'.V.M.M.V.V.!.!.V.V.V.N.Q.M.V.N.'.F.y R x.y.6.8.5.d.0.p.` # + c U M F OX2X4X2X5X2X3X4X",
"nXbXnXnXAXAXSXNX=X  - A.(._.T.B.{.@.# X { }.B.!.V.V.V.V.V.V.V.V.V.N.!.N.N.'.W & w ,.y.6.6.6.8.8.u.w.s & | k O 5 &XeXtXyXyXzXxXuX",
"HXHXHXHXGXGXNXBXJXL ).}.Y.B.V.V.V.}.z # $ P.[.V.V.V.N.N.V.V.N.N.V.V.V.N.M.'.).d +.m.f.9.6.6.8.5.5.f.:.;.l.O.# 1 Z dXrXiXuXpXdXdX",
"rXrX*X*X$X$XI P O x (.^.V.V.N.N.N.[.G.$ X v }.V.V.V.N.N.V.V.N.N.V.V.V.].`.(.D.o.}.].f.8.6.6.9.8.u.3.u.y.7.l.h o 4 I &X*X&X&X=X=X",
"zXkXxXaXhX$XS < ; $ +.R.R.V.N.N.Q.B.}.| X X F.[.R.V.V.V.C.C.N.N.N.B.m.`.G.v . & c.N.f.9.6.t.6.8.8.6.9.9.6.i.X.* ; B mXdX7XpXdX9X",
"FXFXnXVXvXM 3 . $ [ Y.B.R.V.N.n.N.V.T.I.= $ s (.'.V.V.V.V.C.N.N.!.~.^./ $ # X = k.a.y.6.6.6.6.6.6.t.9.6.6.y.v./ # 2 I 9X9XpXsXmX",
"bXbXFXGXnX-Xo z K.}.E.R.V.M.V.N.V.].B._.D.$ # S._.V.V.V.V.V.V.V.V.B.'.E & * [ L.].f.5.8.6.6.6.6.6.t.6.6.8.9.y.;.r o 7 ;XqX9XmXmX",
"zXnXnXcXNX;XS. X_.R.R.V.M.!.V.V.V.N.!.T.}.f X - (.B.V.V.V.V.V.V.B.'.}.K.~ G.}.'.V.n.8.8.6.6.6.6.t.9.6.6.9.7.e.x.| o < P qX9X9XdX",
"5XfXsXmXD   l  X'.V.V.R.V.V.V.V.M.Q.V.R.[.F.X X ] }.^.Q.N.N.!.M.M.`.P.z D..X'.N.N.N.f.8.8.6.6.6.t.5.6.6.y.a.l...t ; + 1 %X9XpX9X",
"zXgX-X4 6 # * @.'.V.V.V.V.V.V.V.Q.Q.V.R.].}.v X $ H.[.M.M.!.M.'.`.{ = $ * L.].N.Q.N.n.8.8.t.6.6.t.t.7.i.l.X.d & $ # o < B qX8X8X",
"cXNXN @ # j z.T.V.V.N.N.V.V.N.N.N.N.V.V.B.|.G.& # z }.R.B.V.].Y.r # # $ / L.~.N.n.n.f.6.6.6.6.6.9.7.v.k.h $ # $ r [ l X 1 I 7X<X",
"cXmX;X> [ L.E.V.V.V.N.N.C.C.N.N.N.N.!.V.R.E.}.[ X # F.|.T.B.V.Y.v # l H.}.[.B.!.N.f.7.6.6.t.t.7.a.l._ 0 $ # = ] X.X.o.= + N &X6X",
"NXBXK A.x.p.C.V.N.N.N.C.N.N.N.N.Q.N.!.B.R.R.T.I.e X s (.T.V.V.|.F.o.(.|.T.R.B.V.N.n.u.6.6.y.y.l.[ i $ $ * R h.v.0.,.j.W o 5 D &X",
"VXZ o s w.7.f.C.N.N.V.V.N.N.Q.Q.N.N.~.~.!.V.V.[.D.# # } }.{.`.@.q @.|.V.V.R.V.V.N.n.7.7.i.v.;.d & # $ f  .l.d.8.5.2.$.X.t   4 %X",
"mXP X w =.8.7.n.N.N.V.V.V.V.!.V.V.V.V.V.M.C.V.R.}.j X % G.G.l X # * Y.V.C.C.V.C.f.0.i.v.k.W $ # $ r _ l.s.7.8.9.t.3.*.;.[ # < S ",
"BXJXb F.b.d.y.g.N.Q.V.V.V.V.V.V.V.V.V.V.!.V.V.V._.H.X O a $ X X p D.T.V.N.N.V.V.Z.v.x._ w & # $ ] k.a.y.6.6.6.6.6.t.2.=.X.g   B ",
"U + v K.k.w.M.Q.M.].M.V.V.V.].E.M.V.B.].m.^.~.'.}. Xk o + % = { I.{.~.N.N.V.M.]._.o.i $ & & R X.l.s.y.y.6.6.6.6.9.u.3.-.h.| A 7X",
"8 o * +.E w c.{.L.L.{.T._.Y.X.L.{._.}.+.T L.}.}.F.i % ; ; : G.}.'.M.N.N.B.[._.K.W * $ & r ..l.i.y.6.6.6.8.6.6.6.8.6.8.>.E e P &X",
",Xt / ` * & E O.& v }.}.D.f # |  XH.p $ & { G.z X X X > ; X D.}.m.!.n.!.{.I.| # X $ w _ l.a.y.7.6.6.6.8.8.8.6.6.6.8.7.;.0 o 4 %X",
"Y A.c.l.W d h.T $ $ o.W # # $ z [ $ $ X i D.f $ # t S./.a # r (.[.B.'._.@.e X X $ ] k.v.7.6.5.t.6.6.6.6.8.8.6.6.6.3.<.h.] % 3 A ",
"o t k.a.>.s.f.>.d F.U.* & r ..}.U.* q { `.}.z.0 { I.}.}.D.$ # | }.`.G.g . # # h #.l.s.y.5.6.6.6.6.6.6.6.8.8.8.6.t.t.<.:.X.i o , ",
"; # / v.y.t.6.7.Z.[.}...~ I.|.'.}.X.L.}.'.B._.c.|.].M.'.}.j X - D.[ # # X p D.}.!.d.7.6.8.8.6.6.6.6.6.6.6.8.8.6.6.6.7.-.;.{ o B ",
"8 ; & O.a.9.8.8.7.N.n.b.T.'.V.M.T.].].T.T.B.V.].V.V.].m.{.K.# ; X X # * { }.{.V.n.f.8.8.9.6.6.6.6.6.6.6.6.6.6.6.6.8.9.2.;.} K -X",
"U + $ E i.6.8.6.6.6.7.7.g.N.N.N.N.N.V.V.B.V.N.N.V.B.m.|.(.D.- ; 2 > b P.|.~.n.n.d.8.9.8.6.6.6.6.6.6.6.6.6.6.6.6.8.6.6.0.E & 3 -X",
"W.n _ 0.7.6.6.6.9.6.8.6.y.n.Q.n.n.Q.N.V.V.V.N.M.M.'.}.G.l . o     k (.E.V.n.f.7.5.8.6.6.6.9.8.6.5.t.5.u.r.r.9.6.5.u.3.>.R $ < A ",
"K a z.f.6.6.6.8.t.6.6.6.5.f.n.n.g.n.V.V.V.V.B.'.}.K.] # X X p n o . O.E.Z.i.i.a.f.d.7.7.i.p.0.i.i.s.b.,.=.a.i.d.y.4.2.:.X.r o 3 ",
"< X / b.7.6.6.6.6.8.8.8.r.r.u.7.7.n.N.Z.C.B.{.(.} & X # & [ I. Xp # r z.v.a.x.+.T j.v.b.O.s d z.x.k.j * T z.#.) 0.f.0.=.;./ # 2 ",
"7 ; 0 k.a.5.t.6.6.8.8.6.t.6.8.8.8.8.d.0.m._.@.s # X $ z P.}.E.|.D.& & ] x.h.W * * / z.Q * * * / [ * & & y _ w 0 ,.p.) ) k.#.x 8 ",
"P 3 $ R v.6.6.6.8.6.6.t.6.6.8.8.6.6.0.b.X.h # X $ s @._.'.V.N.Z.x.d $ > b = # $ q _ s * & * ! h.0 $ * R >.;.w 0 E T & r o.} x U ",
"qXV # R 0.6.6.6.6.8.6.t.6.6.8.7.d.s.l.E & $ # = [ _.].!.n.g.d.s.x.o.X 2 . # # h #.x...0 R X.b.b. .s X.l.i.a.'  .x.E * i W & o A ",
"mXL ..v.7.6.t.6.6.t.6.9.6.8.u.a.k...0 # $ & E l.v.Z.N.n.u.7.i.b.o.g : 2 % p X.w.i.d.p.=.s.f.q.7.i.s.d.d.7.7.f.a.d.>.! X.+.r O D ",
"P o ..0.y.8.6.6.6.8.8.u.q.a.l.X.j $ # # j ` p.y.q.f.f.7.8.d.>.E * $ # $ X g k.d.7.6.6.6.6.9.8.6.6.6.6.9.8.6.8.9.5.2.-.h.@.| Y wX",
", + q k.i.6.t.9.9.8.8.q.x.@.v $ X $ u ' p.i.r.r.7.8.5.u.7.>.0 $ $ * / [ X X / v.7.8.9.6.6.6.t.6.9.6.6.6.6.6.5.3.%.*.$.` g ; ;XwX",
"I 3 X ( v.7.8.t.y.i.v.c...q # X = ( l.0.8.6.5.t.t.8.9.9.d.l.h $ h #.v.l.p # q h.a.8.8.t.6.6.6.6.8.8.6.5.5.3.<.*.2.*.-.' $ + S =X",
"9XM 2 & j.q.8.7.p.x.H.g X X & / h.v.d.8.8.8.6.6.6.6.t.9.d.b. . .l.i.7.a...& & W v.8.9.8.8.6.6.6.6.8.6.3.1.<.%.$.-.%.-.h.b 8 %X9X",
"cX=X4 # R x.v.b.z.[ $ X # m @.l.d.9.6.8.8.6.6.6.6.6.5.a.l.) w ` i.6.8.7.l.R # $ ;.f.8.8.8.8.5.6.6.8.8.5.1.<.*.-.:.:.;...x :X9X7X",
"cXMXA 2 $ D.H.} - X # s X.l.a.d.5.6.6.6.6.6.6.6.6.y.v. .r # $ y p.8.9.8.y.;.& # d l.y.9.t.5.6.6.6.6.8.8.3.*.$.=.;.X.h = O A &X6X",
"cXMXqX4 o k k X . - { k.a.q.8.8.6.t.6.6.6.6.9.t.6.e.' 0 & # s X.a.6.8.8.6.s.] # * _ a.5.5.5.6.6.6.6.8.3.2.*.*.=.) r # < , J <X4X",
"xXVXMXG 3 o   # ] k.p.f.9.6.8.t.6.6.6.6.6.8.8.6.6.y.w.Q w ` l.f.7.9.9.9.6.i.z.r $ i l.7.9.u.5.t.5.7.3.%.%.%.*.=.) * ; M G 6XoX4X",
"GXVXVXBX7 3 + L X.>.7.6.6.6.8.5.r.6.8.8.6.6.6.9.d.v.x.) k.v.d.9.6.6.t.6.t.7.v._ $ $ ! v.7.9.u.5.2.2.%.&.*.%.*.;.@.n P mXaXyXyX3X",
"8XhXpXmXI 3 o v X.*.3.9.6.6.8.t.r.t.8.8.t.r.5.f.l.o.i & ` a.7.t.5.t.t.6.9.6.y.l.s & * z.s.y.2.2.$.*.%.*.%.=.;.X.v k U *XOXeX*XeX",
"VXVXNXBXBXS 2 & +.:.%.5.8.8.6.t.t.t.9.8.6.r.u.=.R * = $ T 0.7.6.t.6.6.6.6.6.8.a.X.& & h l.$.*.%.*.*.%.&.-.;._ s % @ D iXaXcXxXkX",
"DXHXGXVXCXqX1 # f X.$.3.8.8.6.6.9.6.6.8.6.t.6.^ 0 * 0 _ >.u.t.6.6.6.8.8.8.6.6.y.l.R # # _ :.-.*.%.2.%.&.:.E $ o 1 N XXxXkXyXyX3X",
"NXDXNXNXvXBXD 2 $ [ ;.%.4.u.6.6.6.8.8.6.6.9.d.b.W W h.v.y.9.6.6.6.8.8.8.6.8.6.7.i.X.& # s h.=.$.-.%.%.-.:. .# 4 D =XeX2X1X4X#X4X",
"MXMXNXcXxXgX9X4 o i X.>.:.>.*.2.t.6.8.6.8.y.p.` Q z.a.5.6.6.6.6.6.6.8.8.8.8.5.3.*.;.] $ & ] ;.*.%.*.*.$.>.o.K %X9XiX3XjX3X1XtXtX",
"VXVXVXcXnXnXsXG 3 . v ..u ) >.$.3.6.8.6.6.e.' w w ' d.6.6.u.6.8.6.6.8.8.7.5.2.*.$.=.X.r $ e ` :.-.-.:.h. .f 7 %X7XyX5X3X3XyX2XtX",
"NXcXcXcXgXcXcXmXN , K > # q ` =.2.7.8.6.8.d.;.y w ) e.5.r.7.7.3.6.9.7.4.2.*.$.*.-.-.:._ $ # W ;.:.;...h $ o 5 F 6X1X5X2X4X1X2X2X",
"xXuXaXcXcXvXgXcX&X&X9XG 3 # W h.;.>.4.<.3.a.x./ X.l.d.r.r.2.<.<.5.5.3.<.*.*.*.*.*.%.-.;.s $ = } X./ q X < 5 Z $X6X1X3X4X2X4X4X4X",
"uXzXxXxXgXgXuXuXrXcXaXmXB ; $ A.} T ' =.-.h.W r j.a.7.3.*.*.&.<.%.2.%.2.*.*.<.<.%.2.%.;.[ = # k a % % < M G 7X6XeX1X4X4X@X@X#X#X",
"yXkXkXgXvXvXgXxXxXaXaX9XI , < K - # d h.;.! * & ! q.<.<.&.&.<.2.2.%.2.%.*.%.<.2.%.%.-.;.@.g o O @ 1 7 D $XoX<X1XtXtX1X@X@X#X#X#X",
"uXcXcXVXHXHXNXNXhXhXvXpXqXH %XwXV : $ [ ;.;.T d ,.&.%.2.*.*.%.2.*.*.*.%.-.-.*.$.-.=.;.X.h > ; 1 5 D $X7XeX1XjXjXyXtXtX2X2X@X@XoX",
"cXsXpXpXsXhXhXMXMXMXvXMXMXMXhX9X%X3   a o.+.T O.h.:.-.$.-.=.:.,.$.=.,.>.X.) ;.:.;.h./ e o @ 1 Z $XOX*XoXOX@X1X1XoXoXoXOXOXOXOXOX",
"sXsXsXpXpXrXrX7XpX7X6X6XrXrX*X7X=XF , < c - $ | D.Q ) ;.;.h.] q _ h.O.[ r & +.O.{ i # O 3 B G $X*X*X*X*XOXOX+X+X+X+XXXXXXXXXXXXX",
"NXNXNXNXNXNXNXGXVXNXVXvXcXcXcXlXsXpXF qXwX3 O K k $ r D.[ s # X p } f $ + o l z # o 3 M I mXpXaXaXaXaXaXuXiXiXgXiXpXdXdXpX7X7X&X",
"rXaXaXlXcXsXaXaXaXrXpXpXpXpXsXrXaXrX7X9X9XI I ;XA 3 6 K o o 1 4 P 8 o < 5 A Y 7 + 5 F $X&X7XiXtX>X>X@X@XoXoXeX6XeX>X*XoXOXOXOX+X",
"uXaXlXlXaXaXxXxXkXuXpXpXpXsXpXsXiXiXrXrXrX7X9X9X9XD %X;X5 , B -X$X$X5 B -X=X&X-XS U &X8XoXeX@X@X@XoX@X@X@XoXoX<XoX>XoXoX@XOX+X+X"
};
