/* XPM */
static char *d035bf335e820c5bd36e0dc6460ea5e76f593c3c_o[] = {
/* columns rows colors chars-per-pixel */
"64 64 177 2 ",
"   c #2F6B8F",
".  c #3B6F85",
"X  c #356C8B",
"o  c #396F8E",
"O  c #3C738C",
"+  c #356F92",
"@  c #2E799B",
"#  c #367696",
"$  c #3B7593",
"%  c #337997",
"&  c #3D7996",
"*  c #357699",
"=  c #3A769A",
"-  c #357C9C",
";  c #3C7D9C",
":  c #357EA1",
">  c #3C7EA1",
",  c #427786",
"<  c #42748C",
"1  c #46798D",
"2  c #427693",
"3  c #437A95",
"4  c #4B7D94",
"5  c #437D9B",
"6  c #4B7E9B",
"7  c #427EA1",
"8  c #36819E",
"9  c #3D819E",
"0  c #3681A2",
"q  c #3C82A3",
"w  c #3E89A7",
"e  c #3782A9",
"r  c #3B85AA",
"t  c #3E88AB",
"y  c #44819E",
"u  c #4B829D",
"i  c #508097",
"p  c #52849B",
"a  c #5A869F",
"s  c #53889F",
"d  c #5C909E",
"f  c #4384A4",
"g  c #4B85A3",
"h  c #4588A6",
"j  c #4C89A5",
"k  c #4486A9",
"l  c #4987A9",
"z  c #448AAB",
"x  c #4C8CAB",
"c  c #5286A3",
"v  c #5B86A2",
"b  c #538AA5",
"n  c #5B8CA4",
"m  c #5186A8",
"M  c #538DAB",
"N  c #5A8DAA",
"B  c #4C90A7",
"V  c #4590AD",
"C  c #4D91AD",
"Z  c #5491AD",
"A  c #5B93AD",
"S  c #458DB1",
"D  c #4B8EB1",
"F  c #528FB1",
"G  c #5B8FB0",
"H  c #4692B2",
"J  c #4C93B3",
"K  c #4E99B6",
"L  c #4D95B8",
"P  c #4E98B9",
"I  c #5095B2",
"U  c #5296B1",
"Y  c #5794B1",
"T  c #5496B0",
"R  c #5696B1",
"E  c #5497B2",
"W  c #5191B5",
"Q  c #5291B4",
"!  c #5292B5",
"~  c #5393B6",
"^  c #5490B4",
"/  c #5493B6",
"(  c #5297B4",
")  c #5196B7",
"_  c #5497B4",
"`  c #5594B7",
"'  c #5597B7",
"]  c #5796B7",
"[  c #5394B4",
"{  c #5996B2",
"}  c #5996B5",
"|  c #5A97B6",
" . c #5C94B2",
".. c #5799B3",
"X. c #5398B7",
"o. c #5798B6",
"O. c #579AB7",
"+. c #5599B6",
"@. c #5898B1",
"#. c #5A9AB5",
"$. c #5998B7",
"%. c #589BB6",
"&. c #5D9BB4",
"*. c #5F9DB6",
"=. c #5B98B5",
"-. c #5191B9",
";. c #5292B8",
":. c #5293BB",
">. c #5395B8",
",. c #5394BA",
"<. c #5595B9",
"1. c #5597BA",
"2. c #5195BC",
"3. c #5296BD",
"4. c #5596BC",
"5. c #5696BC",
"6. c #5296B9",
"7. c #5894B8",
"8. c #5B97B9",
"9. c #5995BA",
"0. c #5A97B9",
"q. c #5499B8",
"w. c #559AB9",
"e. c #569BB8",
"r. c #5499BA",
"t. c #5299BD",
"y. c #519ABD",
"u. c #519BBE",
"i. c #529BBE",
"p. c #5798BE",
"a. c #559BBF",
"s. c #549ABB",
"d. c #5A99B8",
"f. c #5B9AB9",
"g. c #5C99B8",
"h. c #5D9CBB",
"j. c #5B9BBB",
"k. c #618EA6",
"l. c #618CAA",
"z. c #6190A7",
"x. c #6194AB",
"c. c #6195B2",
"v. c #6897B1",
"b. c #609EB7",
"n. c #6399B5",
"m. c #6C9BB7",
"M. c #6197B9",
"N. c #629EB8",
"B. c #649CBB",
"V. c #6A9DBB",
"C. c #5FA2BF",
"Z. c #6AA1B4",
"A. c #62A0B9",
"S. c #61A0BF",
"D. c #64A1BD",
"F. c #6AA2BD",
"G. c #72A4BF",
"H. c #579BC0",
"J. c #529CC1",
"K. c #599DC2",
"L. c #599FC3",
"P. c #5E9EC1",
"I. c #5A9EC1",
"U. c #659FC0",
"Y. c #56A1C1",
"T. c #5FA0C0",
"R. c #5EA0C3",
"E. c #5FA0C6",
"W. c #5CA2C3",
"Q. c #64A1C1",
"!. c #6CA4C2",
"~. c #6EAAC4",
"^. c #65A6C9",
"/. c #6CAAC9",
"(. c #71A6C5",
"). c #73AAC6",
"_. c #74A9C8",
/* pixels */
"B Z T ..r.) J T T C x z x f > f f h x x M M x x f f f f f h h f 9 9 9 y y 9 & 9 9 f f 9 & & 5 y & y y g j x x M x x g g M N M M ",
"E %.O._ X.r.r._ T Q x x x l f f x x x x j j j g h h h h h f f > 9 9 g g j x x x h h f f g g g g g j x j x x x x x x x x N Y N N ",
") r.1.>.>.4.>.W W W Q D x D l l f f f f f f 5 ; f f h f h f 7 > % % ; ; q f q 9 ; - - - ; ; y f = 9 9 9 ; ; q q f k l l l D D l ",
"L.a.3.3.;.;.;.;.W W _ ^ ^ 8.8.W x x M M M M x l f h l h l h f f ; & f f f h f f ; ; ; ; ; f j j f g h f q q q q k k k f r k l k ",
"t.t.t.a.H.a.4.1._ | g.| Y | 8.Q Z B Z Z Z Z Z E Z Z Z B x x x x x M x j x x x x x h g g j M N M j x x j x x l l f w k k f l D x ",
"t.t.t.P t.L.E.R.P.R.S.h.%.d.d.O.Z Z @.&.*.b.N.A.%...E Z B x x x E  .E Z M M x x j j j j j x x j Z Z M x x x x z z z z z z z z z ",
"J.J.J.J.t.H.L.a.r.r.1.) J J ) X.T T E %.%.E Z Z Z x x x h h h h x x x x x x l h q l x x x x x x j x x h l z z z z S S S S S S S ",
"L H L L J L >.r.s.r.) J H z H P J x x x x x x h l l l k f q q f f h f f q q q ; q h z l x C Q C Z E Z h f f q q t z t t t z S z ",
"K K P r.P P r.r.) J H V H H L P z z z z x D D D z z z z z z k f f g h f 9 ; - - - 9 h x h h j x j j h f f q ; : : q q q t z t w ",
"..O.O.O.d.j.h.h.C.j.O.) X.r.r.r.J J J W W W Q D D D x x x l l l M M x j g y 9 9 9 y h j j j j g g g g g h h f f l l l l D x x D ",
").)._.(.!.!.F.B. .=.=.| =.h.B.U.B.B.B.N.n.=. . .Y Z Z Z Y Y  .Y M M M M j j j j g y g g g j j j b b b m M M x x j g g j j j j b ",
"u u 6 3 2 $ o X o $ & & ; 7 f g f y u y 5 5 5 5 5 5 5 y u u u u g g u y 5 & & & & $ $ $ $ & & & 5 y 5 5 5 y 5 f g y u u 6 6 6 4 ",
"Y Y Y F ^ ^ _ W j.r.) W W W W D x x x x x j x x x B B x j j j g f f f ; ; ; q f l l h l l h h f f g f f f j l x j x b c c b b c ",
"R.R.R.Y.L.a.r.P H H z z z z k f q q f f f f f f y y 9 9 ; ; & & # * = - - - q f l l l l f q q q x l f h l x x M x M M M b N N n ",
"s.s.Y.W.Y.i.P H H H H z w q w k q f f f f f f f ; ; 9 ; & ; 5 ; = = ; ; - % % % q q q q q w h x x x j j j m M M N N N N n k.k.k.",
") P r.i.i.P L L H H H z z z x H H C x x x h l l l l h f f l l f ; ; ; - - - @ % - 9 ; ; ; ; 8 q f y 5 5 f g j j j c b n n v a v ",
"l x J X.e.r.>.>.P P J H H J J J J J T T T T x x x z l l k f q q - - q q q w w h q q q 9 q q q q q q ; > f g j j g j M N M M b b ",
"O.r.d.h.h.d.>.>.>.L J D H P T J C C z l x x l l f w w q q : : : 0 0 q q q q q q f f w q q q q q q q q q f l l l l x M m x x j j ",
"_ d.d.j.j.1.) ) P L J H J P J J H D z z l l z w q q q q 0 0 0 0 0 0 q 0 - - - q - ; : : : : : : : : q q k l l l l l l l h f f f ",
"_ d.d.d.j.1.) P J J S H J ) ) ) D S z z z x k z z t t q q 0 0 0 - q q ; - - - ; ; > q q q q q q : : q t k k k k f k f > > q q q ",
"g.B.h.d.d._ W J P P J J H J J D l z z l l l h f q q q q 8 - - - 9 f f ; = # # = = = = ; ; ; ; ; = ; q q f k k k z z k t q q q : ",
"!.!.!.D.B.B.h.P.L.L.a.r.1._ _ E _ d.j.g.| Y Z Z Z Z Z x x j j g g g g g g g g g u u u g g g g g f g j x x x D x Q J D x x z l z ",
"N l.N N N M M x x x x x M Z A A b b b u u u u u i i 4 4 4 4 4 4 < 1 1 4 4 u i i 4 4 4 4 4 1 < < < O O O 2 2 2 2 3 & & & y y f y ",
"m.V.V.V.F.F.N.h.d._ Q Y | N.B.n.A A A A A n n n z.z.n n k.k.k.k.n n n n n v s s n n b s p i i s n n v b b b b b m m x x x Q Q Q ",
"V.!.!.!././.^.E.L.Y.L.a.>.Q F x g g g j j b b b u c c b N b b b g b Z A M j j j j j j m M j j M M N N M x x l h h k z D H z t t ",
"B.U.Q.B.h.h.j.a.t.t.P J D x M j j j j g g j b b M M b b m m N N M Z Z x h 9 ; ; ; ; f h h h h j j j x j l l z z z k t t r e 0 0 ",
"n.n.B.n.Y Z Q Q x x x x x Z &. .b M A A A A N b g b j g g u g 5 g g y y = = = ; ; ; q > q f h x g g j g h h k z z z t t t t t t ",
"!.V.B.n. . .E Z _ Z x M x A n. .M b c p c b b b g j u y y y j j g g y y y 9 q f q f f q q f h h h j f f f f f q z z z t t t t t ",
"V. .Y | | | _ T x x x x x A n.A g g g u u g c g y g g g g g j f y y y y ; ; = - ; : ; - - q f f f f ; > q q q q t t t r r r e r ",
"Y M Z E _ _ _ _ J x l x Z  .Y g u b Y  . .Y N M M Z M x j j j f y y g g f f 9 ; q q q q q l x J x f q w k k t t q q r r r r r 0 ",
"x x x Q ) Q x D l W W Q x x N M 5 g g g g g j j j j g g g g j g y u u y y & & ; ; 9 f f h j x x h q : ; q q q q q q q 0 0 : - @ ",
"x x x T d.d.E T Q Q x j j M Z M g y 3 $ $ 3 3 3 3 3 & 3 y y g u u c g g y y y y g f g f y y g g f 9 - - - q q w t t q : - - * * ",
"M  .n.D.).~.V.D. .&. .A Z b b Z M b b g g c c u u c b c g u u u u u u 6 u u g g y y g g j j j g l f f f k k l z k k k k q : : - ",
"A A M M M A A A n.n.c.A c.A A b b j u u c n n v c n b c u 5 u g p 4 3 4 6 u 6 5 u u y 5 5 5 5 5 ; ; ; 9 ; ; ; ; ; = = * * = = = ",
"M M N N M c g 6 c g 6 6 g g u 6 u 5 3 3 6 6 6 6 6 6 6 6 5 5 6 u 6 4 2 4 4 6 6 6 2 3 3 & & 3 3 & 3 & 3 & & $ $ $ $ $ + + o o X X ",
"B.F.B.n.B.B.B.!.!.V.B.M.M. . . .N M M M b b b b b c c b b c g g g c c c c c c m M N N M M Y Y N N M M m m j b m b m j j j j g 5 ",
"g M N M A N M N b c c b c c c c x j g j b j g g j g y y y 5 3 3 y y 5 5 5 y y & f f f 9 9 f f f 5 5 ; & & ; f f f f 5 & & & $ O ",
"M M Z Z M M N M M m m M N M m j j j j g g g g g y y y & & & & & = & 9 & & ; y 9 q 9 q q q q q > ; = = = = ; ; ; ; & & $ $ O o X ",
"_ Q Q Q x Q _ _ j.1.) Q Q Q Q x x x x x h j j x C C C C x h h h f h h y ; ; q f k h z l l k f f l l f f h l l x j x x m b b b b ",
"R.W.R.R.R.s.>.>.H D D z z l z q f f f f f g h 9 9 q 9 9 9 9 ; ; - % % % - ; q k z z z z f q q f l l f f l l x M m M m b b N N l.",
"r.s.L.E.Y.i.P P H J D z w q w f ; f f h h f f q ; q ; ; ; > > ; % % - - - - - % - w q q w w l l x x j j x x M M M M N N N N l.l.",
") X.r.s.r.P J L J H J z z z S H J J x x x l l l h f f f l l l f q q 0 - - - - % - q - - - ; q f f 5 ; ; f g j g g b b N n v v v ",
"x C Q X.r.r.r.r.>.P J H H J P ) P ) ) ) _ P C x x z z z z q q q - ; q q q f l z w w q : q > q q q q ; 9 q f g g g j M M N N b b ",
"E O.d.j.j.r.>.P >.J H x H J J J H H z z z z l h w w q q q - - - - 0 q q q q q w w w q q q q q q q 9 q q f z l x l x M m m m m j ",
"8.g.h.j.j.1.;.J J J D D J ) ) J J H z z z z z w q q q q q q q 0 0 0 q 8 - - - - - - 0 0 - - - - : : : q l l l l l l l l f f f f ",
"| 8.h.j.j.a.4.>.J J D J J >.) J z z z z z l z w w t w q q 0 0 - - 8 8 - % % - - : 8 q q q q q q ; : q f l l f k f f q > > q q t ",
"g.B.B.d.j.>.J H P P J H H H J H z z z k l f f k f w w q q : - ; q q q ; = # - = ; - ; ; > > ; > = = ; f h l l l z l k w q 0 0 0 ",
"F.!.!.D.Q.B.h.R.j.j.r.r.T _ _ T T O.O.%.| Y Z Z Z M M x x j j x g g j j g g g g f 5 y g j j j g g g g j j x x x F x J J H z z z ",
"b A A b M M N m x x x j M Z A A j b b u i 4 i i 4 4 4 4 4 4 4 4 1 , , 1 4 i p p 4 4 6 4 4 1 < < . O O 1 3 3 2 & 3 & & & 5 5 f 5 ",
"Z.Z.n.F.F.V.B.B.h.) Z %.&.n.n.c.A A A x.x.n n n k.z.n k.z.n k.k.n d d d n v a s n v b b s i p p n n v b b b m M M x x x F Y ^ ^ ",
"F.F.F.!.)./.^.E.W.Y.i.s.) Q Y b u u u u s b b s u g b b b b b c s b n A b b j j j j j x M b b b N N N M m j l l k l S J J S z t ",
"n.F.F.n.N.Q.P.r.L i.P H x x x g g b b g j b b b M M b b b b M M M M N M j 5 ; ; ; ; 9 f h g g j g g j x l l l l z k t r r 0 e r ",
"v.n.n. .Y Y C J H H z x Z Z A A N N A A A N M b b b j j g y g f j f f f ; = = ; q q q q f f h j g f g h f l l l z z z S z t t t ",
"G.V.V.B.n.| E T P C x x x A V.c.M b c g c b b c g g u y y y j g l h f f f > f f q q q q ; q h x h g f f f w f q z z z z t t t t ",
"V. . .| | d.) J J x x x j Y m.N g b g 6 6 c c p 6 g u u g g j g f 5 7 7 5 ; & ; = ; ; - ; 9 f f q q q 0 w w q 0 t t t t r r r r ",
"E x Z E _ r._ ) W x h x Z  .N c u j Y  . .A N N b M M b j j j y 5 u g j g 7 5 ; f f q ; f x x x l z w q z z r r e r r e 0 0 q q ",
"x C C C Q C x C x x _ Z j m M b 5 y g g g g g j j j j g g g g g 6 6 7 6 5 5 ; ; - ; q f l x x x l f ; > : : q q q q q 0 0 : - @ ",
"j C x Z h.h.Y E Y M j g g M A m g y 3 $ & 3 5 5 5 & & & y g g g c c c g g y y y h f f f f f g j f ; = = ; > q w k w q - - - @ @ ",
"M  .=.B.).).V.N.A  . .A b M Z Z M b b g g g u u g g j c g g u 6 u i 6 6 u u u u y y f g j j j g x h f k f k l z k k k w q q : - ",
" .N M M N A c.c.x.c.n.c. .A Z b b j u g b n n c c b b c u 3 6 c p 4 4 4 6 u 6 6 u u y 5 5 5 5 5 ; = > > > > q f > ; = = = = = # ",
"N N G G m j u 6 c g 5 6 g j g y y 3 3 3 4 4 4 4 6 6 6 4 4 5 u u u 3 1 2 4 4 4 4 3 3 3 & 3 3 5 & & & & & & # $ $ $ O o X X X X X ",
"B.V.B.M.B.B.B.!.!.V.B.M.=. .Y Y Z Z Z A n b c c b c c b b j g u j u g g c c b b b M M Z Z Z Z Z x x M M j x M M x j b c c c u 6 ",
"m N N M Z Z M Z b g b b M b c g m j g j b c j g j g f y 5 & 5 5 y f f f 5 5 7 y y f f 9 9 f g f f > > > ; > f f f 7 ; & = = & $ ",
"m m N N x x Z Z b b b N n b N b m j j j j g j j j f f y ; = = & = ; ; ; 7 7 7 ; ; f q q q q q ; = > > = = = > > > > ; = = # +   "
};
