/* XPM */
static char *_5288483212dcb8164de330a9263bf41b6032ae4_o[] = {
/* columns rows colors chars-per-pixel */
"64 64 251 2 ",
"   c #3D0806",
".  c #36061B",
"X  c #190F37",
"o  c #1A1639",
"O  c #080C34",
"+  c #2B162B",
"@  c #351527",
"#  c #250D3B",
"$  c #280B38",
"%  c #271835",
"&  c #331B38",
"*  c #330C2A",
"=  c #14213B",
"-  c #38213C",
";  c #430909",
":  c #4A0C14",
">  c #51151C",
",  c #501334",
"<  c #721B2B",
"1  c #761927",
"2  c #6E0C3A",
"3  c #6C0D36",
"4  c #7A173A",
"5  c #6D1830",
"6  c #5D262D",
"7  c #4B263B",
"8  c #5E2633",
"9  c #5C2A35",
"0  c #542A3C",
"q  c #5B2B3B",
"w  c #572738",
"e  c #4E303D",
"r  c #63262E",
"t  c #62292E",
"y  c #6A252E",
"u  c #642633",
"i  c #6A2432",
"p  c #632933",
"a  c #6A2C35",
"s  c #632B3B",
"d  c #6A2B3A",
"f  c #6C323B",
"g  c #673138",
"h  c #702E34",
"j  c #73443C",
"k  c #0D1B45",
"l  c #0E1C4A",
"z  c #091845",
"x  c #121A45",
"c  c #121B4A",
"v  c #1A1D4D",
"b  c #181944",
"n  c #141E50",
"m  c #1A1F54",
"M  c #0A1648",
"N  c #241A41",
"B  c #371C43",
"V  c #0C214C",
"C  c #07224F",
"Z  c #13214D",
"A  c #1A2649",
"S  c #0D2453",
"D  c #0D2B58",
"F  c #142354",
"G  c #1A2355",
"H  c #15255A",
"J  c #1B255B",
"K  c #152B5B",
"L  c #1B295D",
"P  c #162B54",
"I  c #18325C",
"U  c #382443",
"Y  c #21275A",
"T  c #2C2E4E",
"R  c #1D2661",
"E  c #1B2B62",
"W  c #152B63",
"Q  c #1D3364",
"!  c #193A67",
"~  c #0E2F62",
"^  c #242B62",
"/  c #243A6A",
"(  c #213F71",
")  c #511A43",
"_  c #4A2B44",
"`  c #572B43",
"'  c #4B3648",
"]  c #563849",
"[  c #4F3852",
"{  c #673545",
"}  c #6C2F4B",
"|  c #651240",
" . c #1A436B",
".. c #25466D",
"X. c #274974",
"o. c #354C79",
"O. c #2A537D",
"+. c #32547A",
"@. c #3E404F",
"#. c #674A59",
"$. c #515C6E",
"%. c #6A5763",
"&. c #67677A",
"*. c #776779",
"=. c #535B6F",
"-. c #9A0627",
";. c #871435",
":. c #8F102F",
">. c #A50528",
",. c #BC042A",
"<. c #A3243C",
"1. c #A0293C",
"2. c #A3142C",
"3. c #CC1238",
"4. c #EE163D",
"5. c #E0163E",
"6. c #F1153F",
"7. c #953152",
"8. c #BC2B55",
"9. c #AF2F56",
"0. c #BE3964",
"q. c #993D64",
"w. c #DE1F48",
"e. c #D81A45",
"r. c #D81C55",
"t. c #E31D49",
"y. c #E51C45",
"u. c #F11540",
"i. c #F11841",
"p. c #DB2148",
"a. c #C32654",
"s. c #C42954",
"d. c #D2244F",
"f. c #E0214A",
"g. c #C03860",
"h. c #86584D",
"j. c #944D6E",
"k. c #B84367",
"l. c #AB587A",
"z. c #976474",
"x. c #A36E70",
"c. c #B6887B",
"v. c #A08162",
"b. c #395C85",
"n. c #2C5C84",
"m. c #37688A",
"M. c #3B7B9B",
"N. c #387797",
"B. c #306E8E",
"V. c #3B7DA3",
"C. c #45658B",
"Z. c #566E89",
"A. c #5B748C",
"S. c #597388",
"D. c #496B95",
"F. c #437B9C",
"G. c #4B7D9C",
"H. c #477797",
"J. c #547C9A",
"K. c #597997",
"L. c #4A7090",
"P. c #686B82",
"I. c #766A84",
"U. c #65758A",
"Y. c #677C96",
"T. c #76778E",
"R. c #467CA2",
"E. c #557EA4",
"W. c #445F88",
"Q. c #906B89",
"!. c #A37492",
"~. c #A46A88",
"^. c #AB5C81",
"/. c #3A819D",
"(. c #3682A4",
"). c #3B84A4",
"_. c #3D85AA",
"`. c #3E89AA",
"'. c #3D8EAB",
"]. c #4B819D",
"[. c #45849D",
"{. c #53839C",
"}. c #59849C",
"|. c #4E929B",
" X c #66849B",
".X c #748899",
"XX c #4484A4",
"oX c #4B84A4",
"OX c #4B8AA5",
"+X c #4386AA",
"@X c #4B85A9",
"#X c #448AAC",
"$X c #4C8CAB",
"%X c #458AA4",
"&X c #5384A5",
"*X c #5B85A3",
"=X c #538AA6",
"-X c #5C8BA5",
";X c #5484AB",
":X c #538CAB",
">X c #5B8BAC",
",X c #5B84AB",
"<X c #4C91AD",
"1X c #4791AC",
"2X c #5392AD",
"3X c #5C93AC",
"4X c #448DB2",
"5X c #4C8EB1",
"6X c #548DB1",
"7X c #5B8DB2",
"8X c #5E85B0",
"9X c #4C93B3",
"0X c #4D93B9",
"qX c #4D9ABA",
"wX c #4895B3",
"eX c #5393B3",
"rX c #5B94B4",
"tX c #5B9AB6",
"yX c #5496BA",
"uX c #5B95B9",
"iX c #549ABB",
"pX c #5C9BBB",
"aX c #5399B4",
"sX c #6488A7",
"dX c #6592AA",
"fX c #648CB4",
"gX c #6295B3",
"hX c #639BBB",
"jX c #6799B8",
"kX c #7296B1",
"lX c #5BA1BB",
"zX c #4FA0BD",
"xX c #67A2BC",
"cX c #6EA3BB",
"vX c #589CC1",
"bX c #699FC4",
"nX c #5CA2C3",
"mX c #57A1C3",
"MX c #69A6C5",
"NX c #74A8C8",
"BX c #75B6CC",
"VX c #7EC2D7",
"CX c #898598",
"ZX c #CDA88E",
"AX c #EABCAC",
"SX c #EDD79D",
"DX c #ECD9A7",
"FX c #F6DAB5",
"GX c #F0D2AD",
"HX c #FAE2BC",
"JX c #FCDEC4",
/* pixels */
"%X%XoX].F.M.[./.XXXX[.).).XX/././.[.[.%X/.%XXXOXoX:X$XwXwXqXqXtXm.K E R E E E ( 6X0X9X$X<XOX=X3X2XrX:XoX&X].oX$X2X<X9X9X9XqXqXqX",
"VXBXNXMXhXMXMXMXMXMXlXMXMXNXMXMXMXMXNXMXhXxXxXhXhXrXeX9XeX:XeX7XC.K R ^ L E E ! hXyXeXpXtXtXjXjXMXNXNXNXNXNXNXMXMXMXMXMXMXMXnXnX",
"=X&X,X>X>X:X:X$X<X2X$X:X&X*Xb.C.C.C.C.b.m.&X:XoX:XoXF.F.E.+.b.b./ J ^ Y J R L ! N.M.F.XXXXOXoXL.b.C.C.C.C.C.D.>XoXoXoXoXoX@X+X+X",
"G.G.&X&XoXoX$X2XeXeXrXrXfXsXK / Q Q L S ! G.:X7X:X:X:X>XsXV O O F J J L L E E ! ;X$X:XoXOX$X=Xm.K H S F Z l ..fXgXgXhXhXhXhXhXhX",
"M.[.oXoX%XOXOXOX$X2XeX:XfXfXK / Q E L H ! ,X:X:X%X).XXoX*XZ Z c H H L L H S D ! 7X$X;XoX:X:X=Xm.K E L L E H ..fX7XeXeXeXrXtXtXtX",
"M.[.oXoXOXOXOXOXoX2XeX:X;XfXK L H H L L Q E.fX>X2X%XXX].J.V c l H L H H ! ! ! X.:X$X:X>X>XfX>XC.H E L H L H ..8X7XeXaXaXaXaXeXeX",
"&X>X>X>X:X$XoXOX:X:XOX$X>XfXQ L H E E J L o.o.X.m.F.[.].E.V l l c F c H H.6X@X6X$X@X$X&X+.o.o./ J R R J L F / sX,X6XeXeXeXeX9X9X",
"7XrXfX7XrXeX6XrXrX$X@X2XgXfXH E H E H J J z O O ! &XoXoXE.V Z l v c c H H.$X@X6X$X$X$XE.z O O c L J L L L H ..8X>X7XrXeXeXeXaXeX",
"N.@XXXoX$X@XXX$XoX$X#X9X6X,XS K H H H L G F v Z ! >X].].J.Z c c x n c S N.XX@X$X@X$XOXE.Z v v G J E H K K D ! &XoXeXeXyXeXaXeX0X",
").%XoX@X@X;X;X;X;XoX%X+X@X@X .X.X.Q H G n Z c z ..*X&XJ.D.Z c c v v l H D.;X;XoX:X>X&XD.P x c v J H K / X. .O.oX6XeX$XeX<X$X9XeX",
"%XR.X.! ..X.( ( X.b.6X$X5XyX5XrXfXX.l c c c c l l I P P L x c c G J J J / ! / Q Q I K P c c c c c Z V J.;XoXoX:X$X$X9X$X$X9X$X$X",
"%XoXX.S H L H H / O.7X5XeX9X9XeX>XX.V Z c x c c k z z z x c c c n J Y J G F G F M z z k c c c k c z S D.&X&X&XoX:X$X@X%XOX@X@X:X",
"$X:XO.D K L E / Q O.7X:XeX$X9X6X7XX.z c c c n c c l l v x c c x m J J J L L L H c c c c k k k c c k P K.fX,X>XgXrXgXtXtXpXtXrXpX",
"pXhX+.Q Q L L / K o.8X&X;X;X;X,X,Xo.V F F F n n m c l c c c c c m L J J L L L J c c x c k x c c c c z D.sXsXsXsXsX>X>XrXrXrXrXrX",
"N.H.o./ ^ J J J L F S C S S l V F H J L J L L Y m c v l x x x c G E L L L L L J c c c v x b x x x c c V Z P P Y P P ..dXjX3X3XdX",
":XgXo.L ^ ^ J J J J l l c v c v c G J J J L J J J c v c c c x c G H L J L L L G c l l k b b x x x k k c Z Y b A Y Z ..kXcXhXcXcX",
"/.<XO./ Q K J J J J c c c x v c l H J J L L K L G n c c x x x k G J J J J J G G l l l l c c k k = A Z x v G G v G V / J.E.F.M.M.",
"'.1XR.D.D.D.I c G m c x b x c l l G J J L L H L G n c c c c x l n F F F F F Z Z c c c c c c c k A A Y Y v G Y ^ G F / C.C.m.N.%X",
").$XrX7XfXsXQ k c c c x x x c c l J Y J R R R L J n c c c c c l c c c c c c c c c c c c c c c x x Y c Y Y G G J L G G L H W n.oX",
"#X9XeX6XrX>XI O l c x x x x l l l G J J R J L J J n c c c c c c c c c c c c c c c c c c c c c c c G ^ Y c F V G L Y Y E R W n.;X",
"#X#X0X9XeX6X .S P K k c c l z z l G L L L L J L F l l l l k c x c c c c c c c c x k x k x k x k x G J L P P P P G J J L E ~ n.$X",
"`.#X4X4X%X$XG.H.G.C.H c c l Z V l c F n n n v v Z c l l l c c c c x c x c x c x c x c x x x x x c c L Z.J.H.J.I P L J L W ~ n.<X",
"#X#X4X4X#X+X$X$X6XH.D l v c x x l S S S c v v v v c Z Z c c v v v Z Z Z Z Z Z Z c c c c Z Z Z Z c x P L.=X[.G. .H L R R E ~ n.$X",
"#X#X9X$XeX5X%X5X$XN.D z c o X # o X o X X # # $ $ $ $ $ $ $ $ $ # # # # # # # # # # # # # # # # $ # o C.].M.F.! D E R E W ~ O.R.",
"2XtXtXeXuXuXeXeX6XoX .I / T , , , , , , , 3 3 2 3 3 3 3 3 3 3 2 2 2 2 2 2 2 2 2 2 2 2 2 2 2 2 2 2 | _ P.J.F.F.X.~ ! ( ( !  .m.oX",
"tXtXtXtXuXrXrXuXhXpX6X,XsXI.} 4 4 4 4 ;.;.9.8.8.s.s.s.8.s.8.8.a.a.a.a.a.a.a.a.a.a.a.a.a.a.a.a.a.s.9.j.Q.K.=X&XE.;XE.R.R.;XE.E.&X",
":X2XeXeXpXuX6XeXeXeX6X&XsXI.4 :.:.-.-.-.>.d.p.w.w.y.y.y.t.t.t.t.t.y.y.y.y.y.y.y.t.t.t.t.t.t.t.t.y.d.k.~.Y.=X:X:X:X:XoXoX=X>X>X>X",
"rXpXtXyXyXuXyXyX5XeX$X=X X*.4 -.-.-.>.>.>.e.f.y.i.i.6.6.u.6.i.6.i.6.6.6.6.6.6.6.i.i.i.i.i.i.i.i.4.p.0.~.Y.oX$XoX$X$X$X$X:XrX7X:X",
"eXyXyXqXyXyXyXeXeXeXeX:XsXI.4 -.-.-.-.-.>.3.3.3.5.i.i.u.u.6.i.i.4.4.4.4.4.4.4.4.4.4.4.4.4.4.4.4.i.e.0.~.A.M.R.V.).).+X#X@X$X5X$X",
"vXvXiXqX0X0X0X0XeXeXeX:XsXI.;.>.-.-.-.-.-.>.>.>.3.5.4.6.i.6.6.4.i.i.i.i.i.i.i.i.i.i.i.i.i.i.6.6.4.e.0.~.K.M.XXXX%X#X#X).).XX+X+X",
"vXyXiXiXvXiXyXaXeXrXrX7XdXI.;.>.-.-.-.-.-.-.>.>.,.y.i.i.u.6.4.4.u.u.u.u.u.u.i.i.i.i.i.i.i.i.6.6.u.t.g.~.Y.XX@X+XXX)._._.#X$X4X4X",
"iXiXiXqXiXnXnXlXxXhXMXgXdXT.4 ;.;.;.;.;.;.:.:.-.>.d.p.e.y.p.p.p.w.w.w.w.p.w.w.w.w.w.w.w.w.w.w.p.w.d.k.~.sX:X@X$X#X#X4X#X#X%X#X4X",
"qXzXvXvXyXiXiXtXeXeXtX3XdXU.B ) , ) ) , , } 4 ;.:.1.<.<.<.<.<.<.<.<.<.<.<.<.<.<.<.<.<.<.<.<.<.<.1.7.7.Q.K.oX%X#X#X4X4X4X4X4X4X4X",
"wXwXqX0X0XqXyXyXpXyXeX$X=XL.X N X X # $ * ` i y < < 1 < < < < < < < < < < < < < < < 1 1 < < < < < 6 ] &.J.%XXX).`.`.`.`.4X4X4X4X",
"qXqXyXyXyXyXqXiXqX0X0X@X2XH.c v b o N # & ` s i r y y i i u i i i i i i y y i i y y y y i d i i y 8 ] P.J.).M.N.V.(.(._._.+X_._.",
"yXyXuXpXpXpXpXnXmXvXyXeXeXH.l c b b b N % _ w 8 8 d a u s q ` ` u d u u r r u u u r u p w ` w s u p ] P.{.XXXXXX+X#X#X#X$X<X5X$X",
"NXNXNXNXcXcXcXhXrXuXtXrXgXJ.V c l c c b % _ q p p p u 9 ` - U _ w 8 8 r r r u u u u u w & - & 7 s 8 ] P.*X:X$X$X$X@X+X@X&X&X&X:X",
"oXoXG.H.L.L.m.m.N.N.N.N.H.C.z v c c c b % e q u p 6 8 q _ % % % 0 9 p r r u u u u p q 7 % o X - q 8 ] &.J.[.XXXXXXXXXXG.G.G.G.H.",
"eXeXeXeX2XeXeXeXiXiXyX6X>XL.x b b b x b % e q u p 8 u q _ % T N ] { d u u u i u p p s _ X b o U q 9 ] &.J.XXoX$XoX$X:X=X&X*X*X{.",
"nXnXvXnXnXiXiXqXwX4X4X%XoXL.o % % o b o % e q u 8 p 6 q ' o A T _ ` s u u u u u 8 9 q 7 X b o U q 9 ] P.}.$X:X$X$X:X=X=X*X-XdXdX",
"qXiXnXnXnXiX9XwX#X1X9X%XG.Z.' _ _ B b b % _ q u 6 d 6 { _ X x N _ q 8 u u u u u 6 8 q _ X b o U 0 w [ P.{.OX$X:X:X:X:X-X-X-X-X-X",
"9XaXyXiXiXqX9XwXwXwX9X%X{.A.' ` ` U b b % _ s u u u u { [ X v N 7 q 8 r r r u u 8 8 { 7 X b o U 0 w ] P.J.XXoXOXoXOX:X:X-X*X*X*X",
"#X<XeXyXvXiXyXyXeX0X9X@X-XU.' q ` & X o % _ q r a a f ` ' N T X 7 9 t r y r u a p p w 7 X o X U q 9 ] &.J.XXoXoXoX=X:X:X-X-X=X&X",
"eXyXpXvXvXvXyXeXyXyX0X$X-XU.e 9 0 7 & & & 7 8 u f g f { _ - U & 7 p r r t r r u r p p q & & & 7 q 9 ] P.J.oX@X$XoX$X$X:X:X=X:XoX",
"uXhXhXpXpXyXeXeX9X9X4X$X>XU.` s 9 9 0 ` q s u a g r r { q w w q 9 p 6 t p t p p 6 a r 8 q ` 0 q 9 9 ] P.{.%X+X+X$X$X#X+XXXXXXXXX",
"uXuXhXpXpXyXyXyXwX9X4X5X>XU.' 9 8 8 8 8 s f f a f g u f r d u u g a a g g g g g g t a f p u s u p w ] P.{.%X+XXXXX_.).).).).).).",
"pXhXpXtXaXaX9X9XqXqX0X6X>XA.[ ` q 9 s d s f a t p g s f r r u u   : ; ;             ; : r d r u r 8 ] P.{.%X+X#X#X#X`._.).).(.(.",
"MXMXxXxXxXlXpXnXzXzXiXuXgXsX&.&.*.#.{ d u u f g g g 8 8 u u u > x.c.c.c.c.c.c.c.c.c.c.x.> u u r r 9 ] P.K.&X$X$X9X4X9X9X4X#X#X#X",
"|.3X3X-X=X:X:X$X%X1X@XoX>X>XsX XU.%.{ d f f d g g s u u 6 t h   ZXHXFXFXGXGXFXFXGXFXFXZX; g u d 6 q ' &.S.L.H.N.M.N.M.M.F.F.XXR.",
"xXxXjXjXcXhXhXpXpXaX2XrXuXgXhXdX.X$.] { s g f u u u u u p t a   ZXDXDXDXSXSXSXDXDXDXGXZX; a d 8 q e ' P. X}.&X$X$X$X$X:X:XeXeXeX",
"cXNXMXMXNXMXMXMXnXmXvXiXeXaX2X{.}.$.[ ' e q g u i i i u u p a ; ZXDXDXDXDXDXDXDXFXFXJXZX; d s ` ' ' @.U.}.&X@X#X+X+X#X4X9X4X`.).",
"jXbXbXhXhXMXnXyX9XiXyX0X4X$X=X{.{.}.U.I.*.#.9 u i i i u 8 u a ; ZXFXDXDXDXDXDXSXv.x.x.z.6 d q %.I.U.A. X&X@X#X+X#X_._._.).(.(.(.",
"hXhXhXrXeX2X2X<X9X9X$X5X9X2X3XdX-X-XsX.XCX%.> p r u r u t r h ; ZXFXGXDXDXDXDXSX  ; ; : d 9 ` &.A.J.].oXXXXX#X+X4X#X#X#X#X_._.`.",
"MXhXhXhXtXaXaXaX9X<X$X6X$X2XjXdX:X=X{.}..X%.@ q 6 6 t t r r h ; ZXFXGXGXDXDXFXGXt y h d q e ' &.{.[.[.XX)._._._.+X#X#X#X_._._.`.",
"xX3XrXrXeXyXaX9X<X1X$X$X$XrXjX>X].=X{.J.Y.=.U ' ] 9 t r r r i ; ZXFXGXGXGXGXFXAXt t p ` ' @.T Z.[././.).+X_.V.V._._.#X_._._._._.",
"2XOX2XeXeXyXeXaXwX#X+X$X6XrX7X&XG.=X3XgXkX XY.T.*.] 8 r t r a 6 j h.h.h.h.h.h.h.6 6 9 #.T.A. X*XOX#X_.).+X+X_._._._._.).(.(.(.(.",
"OX2X2XeXeXeX$X$X`.9XeXeX:X:X:X=XF.].oXoX].].{. XI.] w s 8 p u u > : : : : : : > 6 p q #.K.&X&X=X%X)./.(.(.).).).).).).(.(.V.M.N.",
"OX2X:XeXhXpXeXeXaXeX:X;X&X-XsX XY.A.Z.Z.Z.Z.S.S.*.] w 9 9 9 s 9 d s d d d d s d y y u #.K.+XXXXXXX/.M.M.M./.).).`._.).M.M.N.N.N.",
":XrXrXhXNXNXhXhXrXrXgXdXsX.X!.!.!.!.!.!.!.!.!.!.z.q 0 w w w w w 0 0 0 w w w w u ;.:.;.j.Y.$X@XoX@XXXXXXXXX%X%X%X+X#X_._.).).V.M.",
"rXrX>X>X-X3X3XgXgXgXgXdXdXCXl.k.k.k.k.k.k.k.k.k.j.. @ @ @ @ @ @ @ @ + @ @ @ * , 9.s.8.l.U.G.F.M.F.F.F.F.F.M.XXXXM.M.M.N.N.N.N.N.",
">X>X7X>X=X{.].G.&X].F.H.Y.Q.9.r.e.e.e.e.e.e.e.a.7.. @ + + + + + + + + + @ @ * , 8.p.s.l.I.H.H.M.F.M.M.M.N.N.N.N.N.N.m.m.m.m.m.m.",
"jXhXjXgXhXhXhXcXcXcXjXdX.XQ.0.r.r.r.f.f.f.p.r.s.7.. + % % o o o % % % % % % + , 9.s.8.^.T.-X-X>X:X$X$X$XOXOX$X$XOX=X&X&X&X&X].G.",
"OX:X:X:X2X<X$X2X&X*XsXsX.XQ.j.9.9.7.7.7.7.7.7.7.] X = = = = o = = = = = o = o & j.q.q.z.Y.{.*X&XR.R.V.V.M.M.).XXXXR.F.F.N.N.N.N.",
"OXOX2X2X<X1X<X2X>X*XsX.XT.Q.^.^.l.l.l.l.z.z.^.Q.Q.U.U.Z.A.Z.Z.Z.Z.A.A.S.S.A.S.P.z.z.z.Q.A.H.J.H.R.V.V.V.M.M.V.V.V.V.F.M.N.N.B.B."
};
