/* XPM */
static char *_1a1475fc6e0abba6dc565223414db949b36bf57_o[] = {
/* columns rows colors chars-per-pixel */
"64 64 256 2 ",
"   c #150000",
".  c #1C0100",
"X  c #1A0A05",
"o  c #1B140A",
"O  c #1B1718",
"+  c #0F0100",
"@  c #230100",
"#  c #2C0100",
"$  c #2B0C01",
"%  c #230B02",
"&  c #340100",
"*  c #3C0000",
"=  c #330B00",
"-  c #3C0B00",
";  c #281506",
":  c #331100",
">  c #3E1B01",
",  c #381503",
"<  c #261917",
"1  c #32251C",
"2  c #1B1A21",
"3  c #271C24",
"4  c #242225",
"5  c #1C2021",
"6  c #420100",
"7  c #4B0000",
"8  c #480A00",
"9  c #4B1400",
"0  c #421A02",
"q  c #451702",
"w  c #571602",
"e  c #580700",
"r  c #661600",
"t  c #6D1900",
"y  c #492705",
"u  c #582506",
"i  c #563309",
"p  c #552416",
"a  c #4D3218",
"s  c #5A3516",
"d  c #462617",
"f  c #622607",
"g  c #782907",
"h  c #66361A",
"j  c #793B19",
"k  c #70320E",
"l  c #4E3424",
"z  c #633825",
"x  c #783C24",
"c  c #7A4628",
"v  c #664530",
"b  c #7B4217",
"n  c #794F46",
"m  c #831D00",
"M  c #911C00",
"N  c #872902",
"B  c #952A00",
"V  c #8B380B",
"C  c #993808",
"Z  c #893A17",
"A  c #9A3C13",
"S  c #933D18",
"D  c #A73902",
"F  c #B13D08",
"G  c #893F22",
"H  c #994519",
"J  c #8C431D",
"K  c #A8430B",
"L  c #B7470B",
"P  c #A94413",
"I  c #A84919",
"U  c #B64D16",
"Y  c #BD5616",
"T  c #BC541B",
"R  c #BA5619",
"E  c #AB511B",
"W  c #874425",
"Q  c #9C4D26",
"!  c #9D532B",
"~  c #985739",
"^  c #814431",
"/  c #A44D27",
"(  c #A3522C",
")  c #A75626",
"_  c #B45322",
"`  c #BB5523",
"'  c #B35B2C",
"]  c #BB5B27",
"[  c #A95C36",
"{  c #B55C33",
"}  c #B04B32",
"|  c #BD672A",
" . c #AB623B",
".. c #B56237",
"X. c #AC622E",
"o. c #C74B0B",
"O. c #DC4D01",
"+. c #D64F08",
"@. c #CD520B",
"#. c #DD5102",
"$. c #D3530B",
"%. c #DB530B",
"&. c #D65304",
"*. c #CD5513",
"=. c #CC5A1C",
"-. c #C6571A",
";. c #D45514",
":. c #D65917",
">. c #C54D10",
",. c #E24E01",
"<. c #EA4F00",
"1. c #E35201",
"2. c #EB5401",
"3. c #EE5C05",
"4. c #EE5D0C",
"5. c #E15209",
"6. c #F45C04",
"7. c #FD5D02",
"8. c #F45D0B",
"9. c #FC5D0A",
"0. c #F55603",
"q. c #E85D13",
"w. c #F45E13",
"e. c #F85D13",
"r. c #D1601C",
"t. c #EC620D",
"y. c #F56104",
"u. c #FD6102",
"i. c #F4620C",
"p. c #FC610B",
"a. c #ED6314",
"s. c #E5611C",
"d. c #EC641B",
"f. c #E7661A",
"g. c #F36213",
"h. c #FB6212",
"j. c #F2641B",
"k. c #F9681A",
"l. c #C45923",
"z. c #CB5C23",
"x. c #C65927",
"c. c #D45C24",
"v. c #E15F21",
"b. c #C2612D",
"n. c #CD6427",
"m. c #D2652C",
"M. c #D96528",
"N. c #C66836",
"B. c #D66932",
"V. c #DA7237",
"C. c #D57437",
"Z. c #E46423",
"A. c #EB6322",
"S. c #E96A26",
"D. c #FA6D28",
"F. c #FF7224",
"G. c #FC742B",
"H. c #FE7A2C",
"J. c #F77529",
"K. c #E77838",
"L. c #F57D34",
"P. c #FD7D35",
"I. c #F57D3B",
"U. c #FD7D3B",
"Y. c #FC7537",
"T. c #E66E2D",
"R. c #985A42",
"E. c #966C49",
"W. c #99754E",
"Q. c #967758",
"!. c #906C52",
"~. c #A46242",
"^. c #A6774D",
"/. c #B7744B",
"(. c #A67A54",
"). c #BC7555",
"_. c #BB7759",
"`. c #B36A47",
"'. c #B47866",
"]. c #C46C42",
"[. c #C96E45",
"{. c #C97448",
"}. c #D87948",
"|. c #C57A57",
" X c #D17C55",
".X c #E87D46",
"XX c #F87D42",
"oX c #E17F53",
"OX c #FB8135",
"+X c #F4823D",
"@X c #FD813B",
"#X c #F38032",
"$X c #E98339",
"%X c #A8825B",
"&X c #BE935C",
"*X c #B88A66",
"=X c #BA9466",
"-X c #B59369",
";X c #BFA66E",
":X c #D7865B",
">X c #CB9D5C",
",X c #EE854C",
"<X c #EB8548",
"1X c #F48344",
"2X c #FD8242",
"3X c #F2834B",
"4X c #F7874A",
"5X c #EE8452",
"6X c #E68856",
"7X c #F58954",
"8X c #C59A69",
"9X c #D29862",
"0X c #C59C74",
"qX c #E68962",
"wX c #CDA668",
"eX c #D5AB6C",
"rX c #DBAC6C",
"tX c #D7A668",
"yX c #DCB26D",
"uX c #D5B369",
"iX c #CBA778",
"pX c #DCAD73",
"aX c #DCAD7A",
"sX c #D4A976",
"dX c #DDB274",
"fX c #DDB47B",
"gX c #D9B778",
"hX c #CCB363",
"jX c #E1AE6E",
"kX c #E1B16E",
"lX c #E1AF74",
"zX c #E1AF7A",
"xX c #E3B475",
"cX c #E9B476",
"vX c #E3B976",
"bX c #E3B57A",
"nX c #E9B57B",
"mX c #E4B97B",
"MX c #E9B97C",
"NX c #E9B976",
"BX c #C9A75F",
"VX c #E5C07C",
"CX c #BBAD8B",
"ZX c #C9AA88",
"AX c #D8AC82",
"SX c #D4B283",
"DX c #DCB483",
"FX c #DCB48A",
"GX c #D9B788",
"HX c #D8B495",
"JX c #C5B391",
"KX c #E3B682",
"LX c #E3BA82",
"PX c #E7B986",
"IX c #E2BA96",
"UX c #CE9F81",
/* pixels */
"uXgXLXmXvXxXKXKXgXvXeXfXfXfXbXpXrXrXrXlXuX;X1 3 O 4 O 3 5 5 2 O O 5 3 3 4 < 3 l iXxXrXxXyXyXfXdXuXgXpXaXaXsXpXrXyXuXuXrXrXpXpXaX",
"yXvXmXbXxXxXbXbXMXMXdXfXmXfXnXpXvXbXPXDXgXSX: @ # @ @ @ . X < < . @ @ @ @ @ @ = FXPXaXDXLXgXmXdXgXVXmXPXnXzXPXMXvXvXxXxXmXMXbXPX",
"pXnXmXmXbXxXbXbXbXnXpXmXfXvXmXbXsXW.Q.!.!.E.J A A A A C H W @ , ! I P P P P I / E.Q.!.Q.W.SXLXdXpXpXmXxXnXrXmXxXbXmXxXxXbXmXfXmX",
"pXnXnXmXmXxXxXvXbXmXpXmXfXfXbXDXiX= : : $ 9 l.:.;.;.:.:.r.| . q }.S.A.d.d.d.d.m.w = = , $ 0XDXfXbXPXmXxXMXrXmXbXKXKXlXmXbXmXvXvX",
"pXnXmXMXxXyXNXvXvXvXpXfXSXGXGXGX8X9 q 9 * r *.#.O.O.#.&.&.U . 0 V.g.9.9.9.6.8.:.e 6 8 - 9 iXIXFXAXKXbXmXxXrXvXxXnXKXlXnXxXxXvXvX",
"pXmXmXmXxXrXNXvXbXMXeX8Xi s a y b ) ) ' ) Y a.6.6.6.6.3.g.n.. 0 K.p.7.7.7.7.7.t.n.| b.| X.j u s s i 8XMXfXeXvXvXnXPXpXnXcXcXNXNX",
"rXvXxXmXmXrXxXbXnXLXeX=X@ @ @ # r l.;.@.$.&.8.9.9.9.9.p.4.m.. 0 T.p.9.7.7.u.u.y.g.f.a.f.B.w & @ @ @ =XPXfXsXxXvXxXnXpXbXmXxXmXmX",
"rXvXvXmXnXpXxXbXKX=X^.(.j x x Z D :.5.3.1.2.9.9.7.7.9.9.k.n.@ 0 T.i.9.7.7.7.7.7.7.7.7.y.s.D S G W c (.%X=XsXfXxXxXMXpXbXnXmXmXmX",
"tXMXfXvXxXlXxXbXSXz @ h b.-.z.=.;.g.8.9.u.7.9.9.7.7.9.9.g.n.@ 0 V.i.y.7.7.7.7.7.7.u.7.7.9.g.d.A.Z.C.h # s iXbXNXdXVXrXbXbXmXdXvX",
"rXmXvXMXxXpXbXDXHXz # k x.;.+.O.,.9.9.7.7.7.7.7.7.7.7.9.g.n.@ 0 T.i.y.7.7.7.7.7.u.7.u.7.7.7.9.g.d.m.g & h sXfXMXvXMXdXdXmXvXvXvX",
"rXbXmXmXdXsX-Xs h ~ ) E g g *.i.0.7.7.7.u.u.7.7.u.u.7.9.g.m.@ - B.i.7.7.7.7.7.7.7.7.7.7.9.2.i.$.N Z ` b.( k s -XgXgXyXyXMXxXNXdX",
"pXxXxXmXLXSX(.= & / M.L 6 * -.f.8.p.7.7.7.u.7.7.u.u.7.7.g.n.@ = B.p.7.7.7.7.7.7.7.7.p.6.4.d.d.U * * :.S.] * = %XGXDXsXyXxXxXMXxX",
"tXcXjXPX0X*X/.g N -.;.o.B N _ z.:.j.6.u.7.7.7.7.7.7.7.7.i.z.. = M.8.7.7.7.7.p.9.7.7.9.g.S.=.-._ H C q.g.;.B N `.=X;XfXpXpXlXnXnX",
"rXcXlXaXs # V b.=.;.+.%.s.M.C 7 M Z.g.6.p.7.7.7.7.7.7.7.i.-.. $ n.8.7.9.7.9.8.8.p.9.F.P.I.N 7 E 6X1Xk.8.j.Z.m.Z @ a sXnXlXpXnXnX",
"rXdXpXPXa @ V =.@.%.,.,.g.f.C 7 m M.d.4.9.7.7.7.7.7.7.7.i.-.@ = n.8.p.7.9.p.p.8.6.i.S.4X6Xt 6 / ,XI.k.8.w.A.B.V # a AXxXpXrXmXxX",
"eXfXaXFXl # C :.$.O.1.<.7.i.=._ T D D ;.9.7.9.9.9.9.7.7.i.-.@ = n.8.y.7.9.k.F.F.F.G.m.I ( `.N.}.1XOXF.F.F.D..XH @ l sXxXrXxXxXxX",
"hXgXbXPXy # C ;.&.#.O.2.7.7.g.M.| 7 * } g.7.7.9.9.7.7.7.i.Y @ @ -.y.7.9.8.F.P.P.H.4X[ & * :X5X2XL.@XP.@XP.@X4XH . d sXnXpXxXmXxX",
"gXeX0XAXc w D ;.&.#.O.2.7.7.7.f.| w * } a.7.7.7.7.7.7.7.i.Y . @ z.i.9.h.j.G.Y.U.P.<X~.@ f  XXXU.@X@XU.U.P.+X.X) f c 0X0XpXmXMXMX",
"AXW.; > ) z.@.%.#.O.O.2.7.7.7.d.] w & ( d.7.7.u.u.7.7.7.i.Y . @ z.w.h.H.P.U.U.U.P.3X~.# u :X3XP.U.U.U.U.I.I.@X.X6X|.= $ W.fXmXdX",
"FX!.o : _ :.%.#.O.,.,.2.7.7.7.g.z.7 * / M.a.p.7.7.7.7.7.i.Y . . x.w.k.P.@XU.U.U.1X6X[ & 6 }.1X@XU.U.U.U.@XU.L.I.3X X# < E.fXfXvX",
"fXW.; , ` %.O.#.O.3.0.0.7.7.7.8.s.L L E H I t.7.7.7.7.7.i.Y . . N.J.G.P.P.P.P.I.'  . .{ x..X@XL.Y.U.Y.U.@XL.P.U.2X}.$ o !.DXdXdX",
"PXE.% q U %.#.1.O.8.9.7.7.7.7.9.8.a.S.K & 6 :.u.7.7.7.6.a.T . . C.@XP.OX@XI.@XK.& @ [ 5X3XXXP.P.U.@XU.@XP.P.U.U.I.}.# % E.SXfXgX",
"FXW.9 r >.5.O.,.,.6.9.7.7.7.7.7.7.8.j.P & w s.7.7.7.9.h.j.] .   {.@XL.P.@XI.@X}.p @  .,XI.I.U.U.U.U.Y.U.U.@XU.Y.U.K.w u ^.AXiXgX",
"- W ..T $.O.1.,.,.6.7.7.7.7.7.7.7.7.g.K # w v.9.7.9.h.F.Y.N..   {.@XL.L.@XI.I.}.p @ ..1XI.@XU.U.L.U.U.U.Y.U.Y.@XU.1X}.:XE.= y GX",
"# W x.$.O.O.,.1.O.3.7.7.7.7.7.7.7.9.4.F & 8 M.h.9.9.8.G.U.[.    N.2XY.U.Y.2X2XoX& # _ 4XL.@XU.U.OXL.P.U.U.U.P.OXP.@XI.6X~ @ > GX",
"& W =.#.1.,.,.,.#.4.9.7.9.7.7.7.7.7.i.@.A Q E >.#.i.g.G.@X]..   {.+XI.U.I.T.b...~ ! V.@XL.OXU.U.P.P.P.U.U.U.P.OX@XL.@X<XR.@ > HX",
"# W =.O.O.O.#.O.O.3.9.7.7.7.7.7.7.7.y.3.d.n.w & F a.4.H.@XN.  . {.1XL.L.+XI & u 6X3XI.L.P.P.P.P.P.P.P.U.U.U.U.P.P.L.L.<X~ @ q HX",
"@ W :.,.O.#.#.#.#.3.7.9.7.7.u.7.7.7.7.7.9.M.u @ K d.q.H.@X].. .  X1XL.@X<X) . h .X@XP.P.@XP.@XP.U.U.U.U.U.P.U.U.L.@XI.7XR.@ 0 HX",
"# W *.O.1.O.O.O.O.6.9.7.7.7.9.9.7.7.7.9.e.c.p @ K s.q.G.2X].. . [.1XI.I.,XQ @ h .XI.I.I.U.Y.U.Y.I.XXXXI.L.OXI.U.U.P.U.,X~ # 0 HX",
"@ c b.;.;.;.*.;.;.s.f.d.f.d.j.d.a.a.d.s.A.B.p @ I T.M.XX7X).    |.5X,X6X6X~ @ z qX,X5X,X3X3X3X5X5X5X5X5X<X<X,X,X,X,X3XqXR.. > HX",
"X v ~ ! ( ( ! ! ( ' ' ' { ' { ' ' ' { [ ..R.d . c  .[ {._.!.X + W.|.)._.'.n . l '._._._._.).).|.).|.).).).).).)./.).).'.n   ; JX",
"O % # & * & & & & * 6 6 * * & & * * * * & # $ ; = & * & # . O < . # # @ @ @ < ; @ # @ @ # # # # # # # # # # # # # @ # @ . < ; CX",
"o % # * * & & & & * * * * * & & # & * 6 * # ; < # & * & @ @ o < . # # # . @ < ; . # @ # # # # # # # # # # # # # @ # # @ % ; ; CX",
"X v ~ ( ! ! ! ! ( { ' ' ' ' ' X.X.) { { ' ~ d . c  .[ /._.!.X + W._.|.).'.v   l _.).).).).|.).)./.)._.|.).).).)._.)._.'.n . : JX",
"@ ^ b.*.*.*.*.;.;.s.f.d.j.d.f.f.f.f.d.a.d.N.p @ H T.M.XX7X).  . |.5X3X,X6X~ @ z qX3X3X,X,X,X3X3X3X5X5X5X,X,X3X3X,X,X7XqXR.. > ZX",
"& W =.O.O.O.O.#.O.8.9.7.9.9.7.7.9.9.7.7.9.M.w @ P f.4.G.U.[.. . [.2XU.I.,XQ # h .XU.L.@XP.L.@XY.U.U.U.I.I.I.P.P.I.U.U.,X~ @ > ZX",
"# W =.O.O.#.#.#.#.8.9.7.7.7.7.7.7.u.7.7.7.r.p @ P f.a.F.@X].    {.I.I.2X4X/ @ h <X2XI.U.U.Y.@XP.P.P.U.U.I.I.U.U.I.@XU.,X~ . , ZX",
"# W :.O.O.O.#.#.O.6.9.7.7.7.7.7.u.7.p.6.f.n.w & F d.t.H.@XN.    {.+X+XI.1XI # u :X,XXXU.U.Y.U.P.P.P.U.U.U.I.U.U.P.@XL.,XR.@ 0 ZX",
"# J =.#.,.,.O.O.#.3.u.7.u.7.7.7.7.7.9.;.A Q E >.%.g.i.H.U.].    {.+XL.@XI.V.b.`.~ Q V.@XI.U.U.U.P.P.U.U.U.U.U.U.U.P.P.7XR.. > ZX",
"# W z.$.O.,.,.1.O.3.7.7.7.7.7.7.7.7.e.F # 8 M.h.9.8.i.F.@X[.    {.2XL.L.I.2X4XoX& # _ 2XL.I.2XU.P.P.U.U.U.U.U.U.P.U.+X6X~ @ > ZX",
"= ^ { -.$.O.O.,.O.6.7.7.7.7.7.7.7.9.a.L # u v.9.0.9.9.F.P.N.    {.@XU.U.XXU.U.}.p @ { 1XL.@XY.U.P.OXP.P.U.U.P.OXP.+X}.9X~ : i iX",
"UXE.9 r -.%.O.O.,.8.7.7.7.7.7.7.9.8.d.K # f s.7.9.9.8.g.j.] @   {.2XU.U.U.U.U..Xp @ ..,X+XL.@XU.@XOXP.P.Y.U.P.L.2XV.w y W.SXiXiX",
"0XE.$ - T %.O.5.#.8.9.9.7.7.7.u.8.d.Z.P & 7 :.u.7.7.u.8.t.R @   {.@XP.OXU.U.U..X& # ..5X1X@XL.P.I.U.U.@XU.U.U.U.U.}.# X !.AXPXwX",
"eXW.; > ` %.%.O.O.3.2.0.7.7.7.y.s.L L _ H I t.6.7.7.u.y.i.R @ . N.J.J.P.U.I.U.1X{ [ [ ..x.<XI.@XU.U.U.U.U.U.U.U.XX}.$ < Q.DXbXrX",
"wXW.% : ` +.%.%.O.1.,.2.7.7.7.g.n.7 6 / T.j.y.7.u.7.7.6.i.T @ @ l.a.d.P.P.Y.U.I.1X6X .& 6 }.1XI.U.U.I.U.OXOXU.2X1X}.# ; !.PXbXpX",
"8XW.; 0 ) =.;.&.#.#.O.2.7.7.7.d.b.w & ( A.7.7.u.7.7.u.7.h.-.@ . l.w.k.H.Y.U.U.U.L.<X~.# f  X3XI.L.@XU.U.OX#X2XK.6X|.: ; ^.bXbXeX",
"wXgX8XiXx r C ;.&.#.O.2.7.7.7.a.b.w & ( d.9.9.7.7.7.7.7.9.l.. @ z.8.8.h.k.G.U.U.L.<X~.# f :X1XI.@XU.Y.Y.P.I.<X) f c iXiXfXbXLXeX",
"wXgXdXsXd # V *.&.#.O.2.7.9.a.Z.b.7 * E a.7.7.7.9.7.7.7.g.l.. . -.y.9.9.e.D.P.P.P.4X[ & 6 :X5X1XI.L.P.U.U.XX,XH @ y DXdXdXfXdXwX",
"BXvXpXFXl # V =.&.#.,.,.7.8.c._ E K D ;.8.7.7.7.7.7.7.9.g.T . @ -.y.6.9.p.k.F.F.k.H.m.H ( `.].}.$XOXG.G.G.Y..XH @ l gXvXxXnXmXrX",
"wXfXnXPXa # V =.;.&.O.1.i.f.C 7 m M.f.8.7.7.7.7.9.7.7.9.g.T @ @ =.i.y.7.7.7.9.9.9.4.D.7X6Xt * / <X#Xd.w.q.Z.M.V # a DXfXxXbXMXrX",
"9XnXnXaXs # V b.-.:.+.%.Z.M.C 7 M A.w.9.9.7.7.7.7.7.7.9.g.T . @ l.9.9.7.7.7.7.9.9.9.k.U.I.m 7 ) ,X2Xg.i.g.S.B.V # y fXmXvXfXMXtX",
"tXnXxXbX8X*X/.g N T ;.o.B B U =.;.w.9.9.9.7.u.7.7.7.7.7.g.` . @ z.e.9.9.7.7.7.u.9.9.h.k.A.c.l._ A D s.t.$.B V /.0X0XPXbXvXvXPXrX",
"wXdXpXlXpXfX(.& * ( M.L 6 * -.f.i.y.7.7.7.7.u.u.7.7.7.y.g.` . @ z.9.9.7.7.7.7.7.7.p.7.6.i.g.f.Y * 6 *.S.] * & %XFXDXpXlXdXdXbXwX",
">XdXdXrXrXdX-Xh h ~ ) I g g o.i.3.u.7.7.7.7.7.u.7.7.u.y.g.` @ @ z.8.7.7.7.7.7.7.7.7.7.u.6.6.6.$.N Z ` b.[ h h -XfXpXlXxXxXdXbXtX",
"tXvXdXxXNXxXLXFXHXs # j x.*.+.O.,.9.9.7.7.7.u.7.7.7.7.7.i.-.@ @ z.i.7.7.u.u.u.7.7.7.7.7.7.u.9.i.f.B.g # h IXLXMXbXxXMXnXnXbXMXeX",
"wXxXfXxXxXlXxXfXFXz @ h x.=.z.=.q.w.e.9.y.7.7.u.7.7.7.7.i.T @ @ =.i.6.7.7.7.u.u.u.7.7.7.8.g.d.Z.s.C.h @ v GXxXNXxXmXbXmXnXmXxXtX",
"9XbXbXbXpXtXrXxXsX*X%X^.j j x Z C :.5.2.1.2.7.7.7.7.7.7.3.R X . -.y.9.9.9.9.9.7.7.7.7.6.s.F S W Z W (.%X=XfXmXxXNXxXbXbXbXbXmXtX",
"tXbXdXbXnXnXNXxXnXLXbX=X# @ # # t T =.+.$.%.e.9.p.p.p.6.i.-.. % -.p.9.9.9.9.9.9.j.a.4.s.B.r # # # # 0XDXvXvXxXxXxXmXbXbXbXbXmXtX",
"9XlXpXpXpXrXjXjXeXtXeX&Xi s s u j ) ' E ' T q.8.6.6.8.4.g.T @ @ z.p.7.7.7.7.7.8.z.b.N.b...j u s s u =XsXsXeXdXxXxXdXfXfXdXxXxXtX",
"tXxXxXxXxXxXxXxXNXNXcXbXfXFXFXFX0X9 9 9 - r *.5.O.#.O.$.%.I @ . x.w.8.9.9.9.8.q.r 6 8 8 9 iXFXFXPXDXPXLXbXmXMXxXmXbXvXvXmXxXNXtX",
"tXcXcXcXmXbXmXmXxXnXnXxXbXDXaXAX0X= : : $ w ] ;.;.;.:.=.c.! X . ..A.d.j.a.d.A.B.9 = , : $ ZXPXmXvXmXnXnXMXMXxXxXxXvXvXvXmXmXMXtX",
">XxXxXxXrXtXdXxXpXlXcXxXbXbXlXnXiXW.Q.Q.Q.W.J H A A S S S h o X W I P P K P I / ^.Q.Q.Q.Q.SXbXxXmXdXnXxXmXmXxXxXvXvXmXmXnXnXMXeX",
"tXxXbXxXkXkXxXbXxXpXxXxXbXbXlXxXdXfXfXgXGXFX= @ # @ . @ @ % O O   @ @ @ @ @ @ = SXLXKXKXLXfXmXnXnXMXmXmXbXmXxXMXxXxXmXmXvXbXmXeX",
"wXdXdXdXyXkXlXpXdXdXdXxXpXbXxXkXyXrXrXkXdXZX1 < < < 3 3 < < O O 4 3 3 3 3 3 3 l iXeXrXrXrXdXxXxXpXpXpXrXpXpXdXyXxXxXxXbXfXfXbXeX"
};
