/* XPM */
static char *player_1[] = {
"32 32 3 1",
" 	c None",
".	c #0000FF",
"+	c #FFFFFF",
"                                ",
"                                ",
"            .        .          ",
"           ...      ...         ",
"          .....    .....        ",
"         .......  .......       ",
"        ......... ........      ",
"       ....................     ",
"      ......................    ",
"     ........................   ",
"    ..........+ +..+ +........  ",
"   ..........+ +..+ +.........  ",
"  ............................  ",
" .............................. ",
" .............................. ",
" .............................. ",
"  ...........           ......  ",
"   ..........           .....   ",
"    .........           ....    ",
"     ........           ...     ",
"      .......           ..      ",
"       ......           .       ",
"        .....                   ",
"         ....                   ",
"          ...                   ",
"           ..                   ",
"            .                   ",
"                                ",
"                                ",
"                                ",
"                                ",
"                                "
};
