/* XPM */
static char *_4f31803fb919378ba77959191ad78d91cc2b411_o[] = {
/* columns rows colors chars-per-pixel */
"64 64 254 2 ",
"   c #020302",
".  c #0B0200",
"X  c #00040A",
"o  c #010A0D",
"O  c #080A01",
"+  c #140200",
"@  c #1B0000",
"#  c #180A01",
"$  c #09130C",
"%  c #181609",
"&  c #010C13",
"*  c #030A15",
"=  c #061518",
"-  c #141716",
";  c #230000",
":  c #2C0100",
">  c #230D02",
",  c #330800",
"<  c #261802",
"1  c #361700",
"2  c #351F11",
"3  c #1C2516",
"4  c #392700",
"5  c #33361A",
"6  c #061A24",
"7  c #0B2B39",
"8  c #152B33",
"9  c #2A302E",
"0  c #4F1400",
"q  c #532A03",
"w  c #473802",
"e  c #503207",
"r  c #6B3907",
"t  c #783703",
"y  c #6C340B",
"u  c #463C33",
"i  c #631B00",
"p  c #31423D",
"a  c #514A0F",
"s  c #6F4E0B",
"d  c #7B6714",
"f  c #504C37",
"g  c #6E4F30",
"h  c #786824",
"j  c #736833",
"k  c #183644",
"l  c #0B3141",
"z  c #273C46",
"x  c #303D4A",
"c  c #433D42",
"v  c #1C4356",
"b  c #28444A",
"n  c #294855",
"m  c #364E52",
"M  c #375969",
"N  c #2D566A",
"B  c #3B626C",
"V  c #1B4760",
"C  c #494948",
"Z  c #595859",
"A  c #51534C",
"S  c #6A5A4D",
"D  c #566559",
"F  c #68625B",
"G  c #706F47",
"H  c #4A5C69",
"J  c #645E63",
"K  c #596666",
"L  c #47697A",
"P  c #55747B",
"I  c #526C6E",
"U  c #656667",
"Y  c #6B7172",
"T  c #9D3500",
"R  c #D73A1C",
"E  c #984B08",
"W  c #9A5317",
"Q  c #8A4E0D",
"!  c #A6560F",
"~  c #8A6F10",
"^  c #B1691B",
"/  c #8D582D",
"(  c #9A6B2A",
")  c #B57030",
"_  c #A65E2F",
"`  c #DA7A07",
"'  c #D1741A",
"]  c #E67D0C",
"[  c #EB7C13",
"{  c #ED7D1C",
"}  c #E57B17",
"|  c #F37C14",
" . c #F37C1B",
".. c #F87C16",
"X. c #EA6C13",
"o. c #EA472D",
"O. c #D57D33",
"+. c #CC772C",
"@. c #E87E24",
"#. c #F56E2D",
"$. c #D74B27",
"%. c #8C6C4F",
"&. c #B77D48",
"*. c #A7794E",
"=. c #D86F42",
"-. c #5E807F",
";. c #98852E",
":. c #B18D34",
">. c #BC9928",
",. c #DB8815",
"<. c #E4820C",
"1. c #EB8218",
"2. c #F38318",
"3. c #ED9518",
"4. c #EAA51C",
"5. c #D98538",
"6. c #D2882B",
"7. c #ED8224",
"8. c #EB842B",
"9. c #E58528",
"0. c #F59C25",
"q. c #E68635",
"w. c #EF8D2B",
"e. c #D0AC3B",
"r. c #E9A627",
"t. c #FBA829",
"y. c #FCB82A",
"u. c #F8AD37",
"i. c #FAD42D",
"p. c #F7D62E",
"a. c #FDCD38",
"s. c #F6D533",
"d. c #FBD534",
"f. c #F6D933",
"g. c #FBD933",
"h. c #FDD43B",
"j. c #FCD93B",
"k. c #F6D53B",
"l. c #F0C633",
"z. c #8E8953",
"x. c #B19152",
"c. c #B7A74F",
"v. c #B4AD6D",
"b. c #8F966A",
"n. c #D88946",
"m. c #CC8A48",
"M. c #E38642",
"N. c #D7BA49",
"B. c #CCB150",
"V. c #F4B84A",
"C. c #CBB866",
"Z. c #E0BF60",
"A. c #DBC355",
"S. c #E7CA49",
"D. c #FDC846",
"F. c #ECD149",
"G. c #FDD343",
"H. c #FDD44B",
"J. c #F7D747",
"K. c #E7CB55",
"L. c #FBCE54",
"P. c #F9D757",
"I. c #EED356",
"U. c #D6C56C",
"Y. c #F4DA65",
"T. c #EACF6B",
"R. c #F2E266",
"E. c #EFE25F",
"W. c #376C89",
"Q. c #39748D",
"!. c #3B7493",
"~. c #347B9C",
"^. c #3B7B9C",
"/. c #397897",
"(. c #2F7495",
"). c #3C7EA2",
"_. c #357DA2",
"`. c #497789",
"'. c #567888",
"]. c #447B94",
"[. c #437D9B",
"{. c #487B97",
"}. c #547D97",
"|. c #446E87",
" X c #677E8C",
".X c #427EA1",
"XX c #467FA7",
"oX c #3D839D",
"OX c #38869A",
"+X c #3C83A4",
"@X c #3B85AA",
"#X c #3985A7",
"$X c #3784B0",
"%X c #43829D",
"&X c #4B839C",
"*X c #498799",
"=X c #53839C",
"-X c #588699",
";X c #56868F",
":X c #64899A",
">X c #6A8B90",
",X c #4383A4",
"<X c #4B84A4",
"1X c #4489A3",
"2X c #4B8BA5",
"3X c #4386AA",
"4X c #4B86A9",
"5X c #448AAC",
"6X c #4C8CAC",
"7X c #5285A4",
"8X c #538AA4",
"9X c #5A8BA4",
"0X c #5387AA",
"qX c #538BAB",
"wX c #5A8CAC",
"eX c #5B86A4",
"rX c #4A91AD",
"tX c #5391AD",
"yX c #5B93AC",
"uX c #5B93A8",
"iX c #478CB2",
"pX c #568EB2",
"aX c #4C92B4",
"sX c #4B97B8",
"dX c #5494B3",
"fX c #5B94B2",
"gX c #5B9AB4",
"hX c #5496BB",
"jX c #539ABC",
"kX c #5C9BBB",
"lX c #5799B6",
"zX c #638AA3",
"xX c #628AA7",
"cX c #6794AA",
"vX c #649BBB",
"bX c #6798B6",
"nX c #6E95AD",
"mX c #5DA1BC",
"MX c #67A3BB",
"NX c #6EA2B6",
"BX c #5B9CC3",
"VX c #549CC0",
"CX c #4E9CC0",
"ZX c #689BC2",
"AX c #719FC0",
"SX c #5BA2C3",
"DX c #6DA6C4",
"FX c #72A8C8",
"GX c #B0B89A",
"HX c #FFF994",
"JX c #F4DE87",
"KX c #FFFCD4",
"LX c #FFFCF7",
"PX c #C2B684",
/* pixels */
"6XtXdXlXgXdXdXdXdXlX2X2XqX4X.X,XoX2X0XwX8XuX8X8X<X<X<X,X,X1X1XoXOXOX[.[.%XoXoX_.).3X1XoX^.^..X%XQ.*X&X=X;X8     b -X}.}.0XfXqXwX",
"dXlXlXdXlXlXhXhXhXdX6X6X6X3X,X,X2X&X}.}.}.`.`.=X<X4X4X3X3X1X+XoXOXoX,X4X2X2XiXaX3X5X1XoX,X4X6X3X*X*X-X'.>XD a a D ;X:XzXpXpXqXtX",
"hXhXhXhXsXjXhXaXaXaXtX6X5X5X5X4X[.V 8 8 8 8 8 n {.,X3X3X3X@X+X_.~.~.^..X.X,X).+X)./././.^.[.,X.X/.&Xn 9   v.T.T.v.O 9 9 -X6XdX5X",
"BXBXhXhXsXsXaXaXhXaXdXdXhXjXfX8XeX7           8 }.,X3X5X5X5X3X,X^.).XXXX<X,X,X,XoX~././.%X%X4X2X,X;Xp + + c.P.P.B.+ > O '.<X4X#X",
"CXCXjXVXjXjXhXhXdXlXvXfXfXvXcXzX:Xz         X z zXwXdXaXrX2X2X2X2X8XqX0X0XqX6X2X2X2X2X1X2X8XyX-X-X>X5 . # B.L.L.B.: : <  X-X=X*X",
"CXCXjXhXjXVXSXZXZXZXvXvXvXcXM 8 8 H Z Z x   X b cXfXhXaXtX2X2X2XtXfXfXwXqXqX6X2X2X2X2X4X2X8X=XM m f v.U.N.e.3.w.6.) ) *.f n V `.",
"jXjXVXjXjXVXBXBXhXhXdXdXdX9Xb X X Z U U C   X b 9XrXrX5X5X4X<X4X5XiXaX6X2X2X1X,X,X3X6X2X4X8X'.8   O U.P.H.r.` { { 7.9.m.# X * `.",
"sXsXaXaXaXdXhXhXBXjXaXrXrX9Xb     f f f 5   X z &X+X#X@X3XXX.X,X3X3X3X,X%X%X%X].].=X9X=X=X:XY O . @ S.G.G.t.[ ....| 2.O.1   * '.",
"sXjXhXhXhXhXjXjXsXjXrXrXaX9Xb   . v.C.U.z.  - x =XaX5XiXiX3X3X<X%X1X3X,X].v k k 8 z k z z 3 G v.B.e.r.t.t.3.[ ..| ..{ O.1   * L ",
"jXjXlXlXlXkXkXmXSXhXdXdXpXcX9 < # C.P.Y.x.. 3 x 9X4XaX6X5X5X4X&X8X8XqX7X`.6 o o o o & X - . h Y.P.G.3.` ] ] 2.| 2.{ @.+.1   * '.",
"FXFXFXDXDXMXMXMXdXkXbXbXbXnXO + # B.P.P.x.. - b zXyX9XyXuXyXyXcXzXzXxXeX'.& X           % . ~ P.G.G.0.[ 2.| 2. .{ 7.w.m.<   & I ",
"<X<X[.[.!.!.Q.W./.!.|.B H U z.:.;.N.u.V.:.+ % z `.{.{.*X].*X}.L P P L L H m x c c c x 9 + + s V.u.t.3.[ 2.| | { ' ! ^ / A m M P ",
"fXdXdXaXdXdXhXhXdXfXL =   5 T.P.P.r.` 9.( @ < m -XqXtX6X*X;XL = - - - - 8 K U U U J U C + @ r 6.} ] [ 2.| | | 8.^ : ; #  XzX-X-X",
"mXmXSXSXBXBXhXhXaX8XM &   a K.G.G.4.` 9.W @ + 3 '.&X].].].'.A   . . . . . Z F U J J U u @ ; t 5.7. .[ 1. .@.w.5.*.@ % 6 }.wX9XxX",
"lXjXSXSXSXBXhXsX5XtXB $   w K.j.h.4.3.r.>.d ~ G D B L B B D G h d d d d j j F J Z A A g s t E @.{ ..[ [ 7.' ) &.%.3 9 z zX9XxXzX",
"dXsXjXVXjXhXaXaXrXtXB =   a K.j.d.h.h.a.H.P.Y.U.O = & & 3 O c.Y.I.I.I.Y.U.j S U 9 . + / n.q.8.{  .| | 1.7.E : + p  X:XzX9X9XeXzX",
"1XtXaXjXBXhXtXdXdXyXH     w K.j.s.f.d.h.k.J.P.B.        . . c.J.s.k.J.P.U.j S U 9 # @ / q.{ { { [ 1.{ 7.8.E @ % b -X9XwXwX8XeXeX",
"dXlXjXSXlXlXfXyXyX:XK 5 4 s F.j.s.f.d.h.d.d.G.S.4 w w w w # >.J.p.p.s.L.T.h A Z 9 # @ _ 8.|  .{ 2.1.9.O.m./ % 8 N <X4X6X6XqXqX4X",
"fXvXgXlXlXlXtXW.z O z.U.K.F.k.d.d.h.d.d.d.d.h.k.F.K.K.K.S.S.F.G.h.d.h.H.A.4 O - . # @ / 8.| | | ..@.t , 2 K '.=X1X6X5X4X,X,X3X+X",
"fXvXlXgXgXyXyXn - + ( P.k.f.d.h.h.h.d.d.d.h.d.d.j.k.k.h.j.h.h.d.h.a.d.H.A.< . . . > @ / q.} 2.| ..@.i + . H }.,X3X+X+X+X+X+X+X+X",
"vXkXlXgXcXcX>Xp O # ~ H.k.f.f.p.i.d.d.d.i.i.i.g.d.s.d.d.d.d.d.h.h.h.h.P.A.1 . . . # + / n.9.9.{ { 8.i ; + Z  X7X<X4X3X+X@X#X+X+X",
"MXDXMXNXM z 9 b.U.N.l.G.h.d.d.d.i.d.d.i.d.i.i.d.h.d.d.i.h.g.g.d.h.l.4.r.m.1 . . C S A g y t E 9.{ } +.) *.S 8 z W.qXpXaXsXiX3X4X",
"uXyX9X:Xz $   v.R.J.j.j.h.d.d.h.h.h.d.i.d.d.d.h.d.d.p.f.d.h.d.h.h.y.<.9.:., . . Z U U f + ; t @.@.1.7.8.n./ + * v ].^.^.)..X[.%X",
"bXnXnXnXz -   c.P.p.f.i.d.d.h.d.h.h.d.d.i.d.h.d.d.j.p.i.h.d.h.d.h.y.` 9.) 1 . . Z J K m . + y n.q.8.{ { 8.E @ - n 8X4X6X6XdXfXtX",
"cXL H H '.;XK v.E.f.i.i.f.f.h.h.a.k.d.j.i.i.h.d.d.d.h.h.d.d.d.h.d.a.y.u.B.1 + . C U J A C f g / / W @.{ 8.E @ $ n <X5XiXaX6X3X3X",
" X* X o zXnX>XGXE.f.d.d.f.f.k.h.G.s.s.d.d.d.d.d.d.d.h.h.d.h.h.h.h.d.h.H.T.4 ; + Z J Z Z J F g @ ; : +.@.8.E + = V 3X@X$X+X+X#X+X",
">X*     :X:X>XPXE.f.h.h.f.f.k.h.i.g.h.p.d.h.d.d.d.d.d.d.d.d.h.h.j.h.d.H.A.> @ + A U U K J U S @ @ : +.w.q.W . 6 V ,X5X5X5X+X#X#X",
">XX   $ I -.K v.P.f.d.h.f.f.h.d.g.i.i.g.d.d.h.h.d.d.d.d.d.d.d.d.g.d.h.G.S.Q Q g f C C C C C g g / Q ^ ^ ) j C N W.6X5X@X@X@X@X@X",
">Xo     $ 3   c.P.d.d.d.i.f.d.h.i.i.i.g.i.d.d.j.d.d.d.d.d.d.d.d.i.f.h.h.D.,.9.n.y + . X   + y n.n.n.0 @ . A }.^.@X5X@X@X#X@X@X$X",
"'.&     O . # c.H.d.f.p.i.i.d.h.d.s.l.F.J.H.J.H.d.d.d.d.h.d.d.f.p.f.a.G.a.<.[ q.s + # o $ . y n.5.m.e . = B %X+X#X$X@X@X)._.@X$X",
"'.* X . a s w e.H.d.d.p.s.d.h.h.k.P.JXJXT.Z.U.A.J.d.d.d.h.h.f.f.d.a.a.a.u.3.[ q.y @ # . O . y &.&.x.u 6 7 N ,X+X@X#X+X).+X_._.~.",
"P * X + C.Y.I.J.h.d.d.f.s.d.h.k.F.HXKXKXPX+ + s J.d.h.h.h.h.d.i.h.l.<.<.1.[ { q.y @ # . . . + @ + < I `.`.[.).+X@X3X+X^._._.(.(.",
"P o   . A.H.J.k.s.f.f.f.p.i.h.G.S.HXKXLXGX. . h I.j.d.j.d.h.h.d.d.y.] ..|  . .q.y + # . . . . .   8 `.-X&X4X3X5X3X3X3X3X+X+X_.~.",
";X6 = O U.I.I.J.j.p.s.d.d.d.h.k.F.HXKXLXGX  . g T.L.V.D.D.D.h.d.j.y.]  .@.@.O.n.g + # . .   X 6 = l |.].[.^.).3X).^././././.~./.",
"eXxXzX>Xf a w e.H.d.d.h.h.h.s.k.I.;.f Z u . . y =.#.#.#.#.' u.h.h.y.] 7.O._ / %.S A Z u   * 8 '.|.|.{.]././././.!.!.W.W.W.W.W.W.",
"ZXZXbXcX9   . c.P.G.h.a.a.h.p.k.P.~ .   . < > i $.o.o.o.o.T u.G.h.y.] 7.5./ g S F F F f   * k eX9XqXqX0X6X6XpX6X2X8X7X7X7X7X<X[.",
"4XqXqX9X8 3   v.R.F.H.H.G.h.h.k.I.~ + . + + @ 0 $.o.o.o.o.R u.H.a.y.<.7.O.W g g g g j u   X l }.{..X.X^.^./.,X%X%X%X[././.!.!.!.",
"2X6XdXwX`.H K G ;.~ >.r.r.r.a.k.J.N.B.B.B.B.B.n.$.o.o.#.#.#.w.0.4.3.] { q.+.&.x.&.&.x./ . & 7 `.!.^././.^.^.^./.^.^./.!.!.Q.W.W.",
"dXdXdXdXqXcX:Xm   @ t 6.} ,.a.d.k.J.P.H.H.P.L.V.$.o.o.#.#. .| [ ] [ | ..7.9.9.9.9.9.M._ @ - 7 {.<X4X1X1X%X*X1X1X2X2XqXqXqX0X0X0X",
"SXBXDXkXvXcX:Xm   @ Q 9.} 3.G.h.G.h.G.h.h.a.G.V.R o.$.#. . .7.8.8.8. ...{ { | | 1.9.M._ @ - 7 &X<X3X,X%X1X2X2XqX6XqXqX0X0XwXwXwX",
"sXSXSXMX'.I A z.:.>.6.,.1.2.t.t.t.y.t.t.t.t.t.t.X.#.X. . .7.' ! W +.@.| | ....@.+.) *.g . = l 8X6X6X4X4X2X8XqX8XqXqXwXwXxX9XxXxX",
"sXjXjXbXz -   v.R.H.V.,.[ 1.<.] <.` <.<.] <.<.] 7. . .2. .8.E : : Q 8...| | ..8._ g S u . o 7 [.,X).).^.,X<X4X4X4X0X0X9X9XeX-X-X",
"5X6XdXcXz % . v.Y.H.D.,.7.2.[ [ ] ] 1.` <.<.] <.} [ } } @.q.Q : ; t 8.| | | | 9._ g S u . * l [.,X+X_.).,X,X1X,X4X6XqXqXwX9X-X-X",
"dXfXkXnXz $ . z.C.N.e.^ ) ' w.0.0.0.0.0.t.3.0.0.0.0.0.' +.) ( ~ Q ^ 9.| ..| | 9.) %.%.g . * l &XoX_.).+X3X3X4X4X4X6X6X6X6X2X2X&X",
"kXfXkXcXz   O . . . + + @ q D.h.a.a.h.a.G.h.h.a.a.H.L.s @ @ B.P.L.V.<.2.|  .| 1.9.5.5.( + - 7 ].^.).).,X4X4X4X3X6X6X5X3X3X,X,X%X",
"dXfXkXbXk X X O % % # . @ e K.J.G.h.h.h.d.d.d.h.h.k.I.s . + c.P.P.u.` 2.[  .| |  .{ 8.! @ - 7 ]./.^.oX,X,X,X,X,X,X+X+X+X+X+X+X+X",
"lXkXZXbXN = 6 o   . , q 0 s A.K.K.I.a.h.k.h.d.i.i.h.F.~ w 4 c.T.K.V.1.| 2.| | ....{ w.^ @ * 7 {./.~.+X,X,X3X3X3X5X5X@X@X#X+X).).",
"MXDXDXZXnXnXnXm $ + g m.m.) q w # e.H.h.h.s.d.d.i.d.k.F.K.T.;.# 1 Q 8.| [ [ 2.| .. .8.^ @ - 7 =X%X1X3X2X6X6X6X6XaX6XaXaXiXiX5XiX",
"*XyXfXwXxX-X-Xn $ @ W M.5.5.; + + B.P.k.k.f.d.d.i.d.d.j.k.P.;.+ + Q 8...| [ [ | | 2.8.^ + - 8 L W.Q.Q.Q.].].!.!.[./.^.^.[..X,X.X",
"NXNXbXZXAXbXcXN = @ Q n.5.m.1 > + C.Y.I.I.I.I.H.G.h.a.a.a.L.( ; : Q @...| 2.| { 8.O.n.( . 6 k -X9X9X9X8X8X8XqXqXqXqX6X6XpXdXdXdX",
"NXNXAXDXFXDXNXM o . 1 r r e # . . g j h h h s ~ w.3.0.0.3.0.6.' ' +.7.{ | |  .@.E y g F  X}.-X9XwXwXqXqXqX4X4X4X,X3XiXaXaXiX5X@X",
"bXbXMXkXBXvXvXN X   . . . .     X   . . . . + q 5.} } } } } } 7.8.8.{  . .{  .q.r @ . x -X&X<X<X&X<X4X6X4X4X4X3X5X3X@X@X@X#X#X@X",
"bXbXgXdXhXdXwXN * X X o o & X X   $ - $ % % . g n.8.8.8.8.8.q.q.8.@.7. .{ @.8.n.s + % m {.oX3X6X<X,X<X3X,X3X5X3X5X5X5X5X5X@X@X@X",
"DXMXmXkXjXdXfX`.M M M M M H H H m m m m m H A F / W W ! W E W W E ^ { 1.@.! ! W q . o z {.+X5X5X2X1X,X,X,X+X3X+X5X5X5X5X@X@X@X@X",
"kXdXlXlXdXdXfXfXqXqX7X8X=XxXnXxX-X-X;X}.'.;X-X X+ + + + @ @ @ @ : Q 8.8.+.: ; + .     b ].).,X3X+X+X+X+X+X+X+X#X@X@X@X@X@X@X@X@X",
"dXtX6XdXdXlXtXdXdX4X4X4XqXfXwX7X[.&XyXcXxXxXwX-X8 & = $ % % . + @ r 9.' +.: @ + .     b {.6XaX6X5X5X+X+X5X5X@X+X#X@X@X@X#X#X+X+X",
"qXtXtXtXtXtX6XqX4XaXdXdX2X6XqXqX[.,X<X=X}.<X7X7XN N m & O . h ;.~ >.r.t.r.E E Q 4   o n =X3X6X5X4X,X^.^._._.+X+X+X+X+X#X#X_.~.~.",
"4XqXqXtXvXgXdXfXdXtX6X1X1XqXtXqX4X.X].].].{.{.{.{.|.'.= - . c.R.P.H.G.G.D.9.9.n.s . o n }.[.3X,X,X^.^.^.^.).+X+X3X+X+X~.~.~.~.(.",
"wXfXfXMXFXFXvXvXyXgXgXyXqXqXyXyXqXqX8X7X=X&X=X}.=X-X'.* -   c.P.J.J.G.G.D.9.9.n.y . * n -X&X<X<X4X3X,X3X3X3X5X5X3X3X3X+X+X+X_.~.",
"yXyXwXqXwXyXyXyXyXbXbXfXfXyX9X8XqX4X<X7X8X9X9XeX=X-XzXk 8 % x.U.A.N.N.N.V.6.+.&.g - 8 M {.[.[.[.^.^.).).).).+X,X).^.^./././././.",
"9XwXpXpXqX4X&X%X2X&X[.%X<X2X&X%X%X[.].].].&X{.{.}.}.}.}.}.P A . . . . + + + @ . I '.'.|.{.[././.^.^.^.^./.!.!.!.!.Q.W.W.W.W.W.W.",
"bXvXvXvXZXvXvXMXMXMXvXgXlXfXyXyXtXtXwXwX8X8X8X8X7X0X7X0X7X-XH   o X X X     X * }.qX8XyXtXdXtXtX6X6XqXqX2X6XqXqX2X8X8X7X7X7X<X[.",
"7XqXpXpXdXqXqXqX8X<X8XqXqX7X7X=XqX4X<X7X7X8X2X1X2X<X,X4X^.].B * = & * * & & o = !.3X%X%X+X+X3X3X,X).).).^.).,X,X,X.X^.^././.!.!.",
"qXqXtXtXqXqXqXwXwX7XqXwXwXeXeXeX7X4X<X<X7X<X1X1X1X,X3X).^.Q.`.`.`.'.'.'.P '.P '.[.+X+XoX+X+X3X^.).^.).^.^.^.).).).).^.^././.(.W."
};
