/* XPM */
static char *b7713096746304ac43a957c087c96942ef265a05_o[] = {
/* columns rows colors chars-per-pixel */
"64 64 245 2 ",
"   c #110217",
".  c #2F172D",
"X  c #2B1A31",
"o  c #481B3B",
"O  c #4C293A",
"+  c #3D1A41",
"@  c #43184B",
"#  c #4B2E49",
"$  c #6B3756",
"%  c #6E3965",
"&  c #574B5E",
"*  c #6B4859",
"=  c #5E4B61",
"-  c #754868",
";  c #79566A",
":  c #7B4375",
">  c #795A74",
",  c #67586C",
"<  c #7A6578",
"1  c #716772",
"2  c #71675B",
"3  c #863F69",
"4  c #86456C",
"5  c #864879",
"6  c #944C73",
"7  c #875874",
"8  c #8E5770",
"9  c #88647A",
"0  c #976A7B",
"q  c #9B766A",
"w  c #A27F69",
"e  c #AB8975",
"r  c #C3AA7C",
"t  c #376B8B",
"y  c #3C738B",
"u  c #3C7493",
"i  c #3C7B95",
"p  c #357C9D",
"a  c #3C7C9C",
"s  c #387896",
"d  c #317495",
"f  c #3C7EA1",
"g  c #48798C",
"h  c #587C8A",
"j  c #437B94",
"k  c #4C7C94",
"l  c #437C9C",
"z  c #4B7D9B",
"x  c #457695",
"c  c #537C93",
"v  c #5B7D93",
"b  c #5C6C83",
"n  c #796A87",
"m  c #70788F",
"M  c #427EA1",
"N  c #4C7FA3",
"B  c #507EA0",
"V  c #A95E85",
"C  c #896984",
"Z  c #986C84",
"A  c #8A7385",
"S  c #987586",
"D  c #947D94",
"F  c #A56887",
"G  c #A5798A",
"H  c #A97A94",
"J  c #B27F92",
"K  c #855085",
"L  c #3C829D",
"P  c #38829A",
"I  c #3681A3",
"U  c #3C83A3",
"Y  c #3C85AA",
"T  c #3E88AB",
"R  c #3C88A5",
"E  c #43829E",
"W  c #4B839C",
"Q  c #4C8699",
"!  c #52839B",
"~  c #5B849C",
"^  c #5D8B9D",
"/  c #588698",
"(  c #4E919D",
")  c #66899A",
"_  c #718E99",
"`  c #6E929A",
"'  c #4384A4",
"]  c #4B85A3",
"[  c #438AA5",
"{  c #4B89A6",
"}  c #4486A9",
"|  c #4B86A9",
" . c #448AAB",
".. c #4C8CAB",
"X. c #5285A4",
"o. c #5B86A3",
"O. c #538BA5",
"+. c #5B8AA4",
"@. c #538CAB",
"#. c #5A8DAB",
"$. c #5486A9",
"%. c #4D92AD",
"&. c #4892AB",
"*. c #5391AD",
"=. c #5B93AD",
"-. c #5695A8",
";. c #448DB1",
":. c #4C8EB2",
">. c #558CB1",
",. c #4C93B3",
"<. c #4B95B5",
"1. c #5394B3",
"2. c #5C94B2",
"3. c #5498B5",
"4. c #5C99B4",
"5. c #5395B9",
"6. c #5B95B9",
"7. c #549ABA",
"8. c #5B9BBC",
"9. c #628BA6",
"0. c #6794A9",
"q. c #7898A7",
"w. c #6295B2",
"e. c #6499B4",
"r. c #649BBB",
"t. c #6A9DBB",
"y. c #699AB4",
"u. c #7999B2",
"i. c #718DA3",
"p. c #6BA3BD",
"a. c #67A0BA",
"s. c #7AA4BA",
"d. c #53A0B2",
"f. c #5D9DC1",
"g. c #619FC2",
"h. c #5DA2C3",
"j. c #56A1C1",
"k. c #6BA4C2",
"l. c #66A6C6",
"z. c #73A9C4",
"x. c #97838B",
"c. c #9A8798",
"v. c #8C8B94",
"b. c #A88797",
"n. c #A49599",
"m. c #B18B92",
"M. c #B6A895",
"N. c #8599A7",
"B. c #9896A6",
"V. c #9195AA",
"C. c #A796A8",
"Z. c #B096AD",
"A. c #87A8B9",
"S. c #96A9BA",
"D. c #9BB3BB",
"F. c #90A8B0",
"G. c #A7AAA8",
"H. c #B9B5A9",
"J. c #A7A7B7",
"K. c #B7AAB8",
"L. c #A9B6BA",
"P. c #B5B8B9",
"I. c #AEAEAC",
"U. c #9EA093",
"Y. c #C9AB87",
"T. c #C8B698",
"R. c #D8BC95",
"E. c #CFAC89",
"W. c #E5BE90",
"Q. c #C79FA5",
"!. c #C6A4AA",
"~. c #C7B6A9",
"^. c #D3B5AA",
"/. c #CAB7B6",
"(. c #D7BABA",
"). c #D2AFAB",
"_. c #E2BDAA",
"`. c #C49E93",
"'. c #BAC2BB",
"]. c #B7C0AD",
"[. c #D4C294",
"{. c #EBCA96",
"}. c #F3CF98",
"|. c #F7D49A",
" X c #EDCA8D",
".X c #CBC5B8",
"XX c #DBC8BB",
"oX c #D7CBB3",
"OX c #E4CAA6",
"+X c #EBD4A8",
"@X c #F7D8A9",
"#X c #E7C9B6",
"$X c #EAD5B6",
"%X c #F6DABA",
"&X c #F7CCA2",
"*X c #FBE1B3",
"=X c #EFE0B5",
"-X c #86ACC3",
";X c #8DB5C7",
":X c #99B6C6",
">X c #98ACC2",
",X c #A4ACC1",
"<X c #ABBACB",
"1X c #A7B9C6",
"2X c #B5B9C5",
"3X c #ABBBD3",
"4X c #B7BDD5",
"5X c #B4ABC4",
"6X c #C6BAC8",
"7X c #D5BDC6",
"8X c #C7AEC9",
"9X c #AAC4CB",
"0X c #BAC3C4",
"qX c #B7C4CA",
"wX c #AAC5D7",
"eX c #B6C7D6",
"rX c #AED0CF",
"tX c #BBCBE1",
"yX c #AFCAE7",
"uX c #C6C7C9",
"iX c #D6C7C4",
"pX c #D8D5CC",
"aX c #C6CAD4",
"sX c #CBD3D8",
"dX c #DDDCDC",
"fX c #D6D7D7",
"gX c #D7D0D1",
"hX c #E2C6C3",
"jX c #E9D7C7",
"kX c #F3DDC6",
"lX c #E4D9D8",
"zX c #F2DBD5",
"xX c #D8E1DD",
"cX c #F5E3CB",
"vX c #E9E3DB",
"bX c #F6E5DD",
"nX c #DADCE3",
"mX c #E8DAE3",
"MX c #DEE4E3",
"NX c #ECECEB",
"BX c #E8E6E7",
"VX c #F2EAE5",
"CX c #EEF1EC",
"ZX c #F6F5F6",
"AX c #F1EEF1",
/* pixels */
"[ 3.6.6.8.3.*.*.3.3.>.>.@.' U I R [ ..:.@.@.@.$.] ' M ' T T [ L s L i W E E a p U ' W E i L l ' a E E ] { ....@.| | ] ] @.@.@.@.",
"d.%.f.5.8.7.4.3.%.%.>.| @.} f R [ ..| | { ] ] ] | } } } Y  .L [ [ s ] W ] { ,.,.[ [ ' E ' ] ' ] ] { ..{ | | | | | ..| | @.1.@.@.",
",.7.<.<.5.5.1.3.3.,.1.5.:.} :.} ' E ' ' ' ' l a a U U ;.R [ L i s f s L ' ' ' a p p p s a L E ' s a L L a a U U ' } } } ..:.:...",
"g.f.7.<.5.7.1.1.*.*.8.1.3.5.5.>.@.@.....@.@.| { ' '  . .] W ! k x l l M ' ' ] ' a a a a a ' ] { E ] ] ' U U U U } } } ' Y }  .} ",
"6.8.3.f.6.6.t.s.s.0.=.3.7.8.6.#.#.O.O.*.>.2.=.=.*.{ *.@.9.:XeXtXwXu.9.@.@.@.| @.@.] ] ] { @.*.{ { ....{ | |  . .} R } ' }  .:...",
"8.7.4.=.y.yX3X,X,XtX:Xy.4.8.e.2.=.=.4.4.r.r.r.r.4.4.=.0.4XJ.& # , L.1X9.@.>.>...{ { { ] { @.{ { *.*.@......... . . . . .[  . . .",
"7.8.e.A.4XC.- o o C K.D.9.*.3.3.%.<.3.7.8.6.1.*.O.O.+.1Xn . Z G m.x.2X>X+...[  .U  .....{ | %...{ ....'  . . .[  .;.;.;.;.;.;.;.",
"&.*.;X4XD $ 6 6 6 4 9 5XA.+.{ 3.,.;. .;.:...| ] ] ! :XJ.. Z ; 8 m.S & <X/ E R P U [  .{ { *.*.*.*.3.*.{ ' ' U U T  .T T  . .;. .",
"%.z.4X+ 7 F V 6 6 % 7 ; 4Xu.2.3. . .[  .,.,.:.*.] 9.<X& * 7 0 0 0 m.. 2X) j s P d ' ' [ { { %.{ { { ' ' ' U a f f U U Y Y [ T R ",
"4.u.8Xo F F V 4 6 5 5 $ J.:Xe.,.3.3.,.,.<.1.1...O.;X,X. ; H Q.m.0 b.b.C.1Xg E L ' a ' ..{ ] ' { ] ] ] ] ' ' ' '  . . ...:.....,.",
"s.tXZ.$ 0 F V 3 4 5 5 @ n eXr.l.r.r.8.4.4.e.4.2.+.wXK.o S J G G 0 9 S A eX/ Q { ] ] ] E ] @.{ | O.O.O.@.@.@.| ..{ ] ] { { { ] O.",
") tXC 7 % 4 4 5 : % K @ m :Xz ' ' E ] ] z j l j k A.J.> - 7 S Z 7 ; 9 A 3Xg i i l u u u u i a s l E l l E E E ' ] E W W W z z j ",
"+.eXc.8 0 F 6 % 5 : : @ 5XA.2.:...| ..{ ] O.@.@.O.) 1XV.  + = A > * C n wXg ] E ] | ] ' { ] E ] ' ] ' ' ' ] | | { | O.X.X.X.X.X.",
"p.-X5X- 0 8 7 : : K # n 3X9.| U ' ' ' E ' ] [ E Q c h 1XB.  X   O # # , wXg g ] X.$.| ' ' ' a ' | | ' ' | | @.@...@.@.@.O.+.#.+.",
"3.w.eXB.9 8 - % % + n S.c l U Y f ' ' ] ' L E W g u.q.1X6X, o .   .   X 1X_ q.q.u.! M } U U [ [ | | ] ] | @.@.@.@.#.#.#.+.9.9.9.",
"<.4.s.1Xx.7XH Z.K.  J.9X9.w.O.@.@.@.O.O.Q Q 0.;X3X,X<XL.K.Z.* O * O S Z.B.2XL.2X1XA.c u ' U U L E E a l ' ] ] ] ] X.O.+.+.o.^ o.",
"R 3.+.A.<XuXK.BXBXdXaX0X1X1X:X:XA.;X) ;XD.D.I.G.c.= C.7X(.).`.Y.M.T._.#XZ.K.x.; x.K.L.F.k E U R P R a } ' | ] ] ] { @.@.#.+.O.X.",
"7.3.6.y.;X1XqXsXnXZXZXBXsXsXuX2XrX1X1X<XqX2Xc.0 9 C /.iX(._.#X$X%X$X%X^.hX7X!.G m.S n.2X1X9.l E [ P U f } | ..] ] | ......| O.O.",
"6.6.r.2.e.0.;X1XqXsXdXNXZXCXxXxXnXBXaXnXBX/.b.b.H Z !.iX).hXhX!.(.hX).(./.(.Q.m.0 0 G A c.<XA.g j L U R } } } [  . . .} } ' ' ' ",
"6.r.8.6.4.2.e.0.-X:XeXeXaXMXZXZXZXZXNXZXAXn.7 H F m.).hXhX)./.hXjXzXlXlX/.(.m.G J 0 0 Z 9 < J.<XA.k j ] ..} R R R R ' f f f f U ",
"7.g.f.8.8.6.@.@.=.y.-X:X9XeXqXaXuXlXZXZXAXK.7 G o H (.^.zXjXjXjX$XkXlXVX/.(.A o 9 F F Z Z 9 > c.P.<Xq.k W ] L [ [ } } } } Y U U ",
"l.l.l.g.g.g.f.l.8.8.4.+.u.9X9X1XL.P.0X0X0XJ., < C.Z.~.%X#X~.XX$X*XOX~.iXXX~.x.K.D - 7 7 Z H Z Z x.n.J.<X) ! -.{ *.1.:.:.;.;. . .",
"O.=.=.@.@.@.1.....@.{ X.+.9.0.A.q.:XrXrXeXeXaXqXP.H.R.*X$XjX/.jX@X+XzXiXjXM.I.J.J.sX6XC.; # ; G Z S c.n.2XS.g x j a l M M ' ' E ",
"y.p.e.p.k.a.l.8.8.3.1.6.2.e.y.w.9.) ` ` ` i._ ) N.].[.+X%XjXlXbX+X%XbX.XkX~.G.N.) ) _ ,X4XaXC.< H S 7 9 c.J.eXu.+.@.......1.*.*.",
"t.z.k.k.z.l.l.l.h.h.8.7.3.*.*...W W ! ~ ~ +.+./ h L.[.+XjX!.6X7XcX#X(.(.%X^.G.N./ #.! +.0.q.S.J.1 9 H H C D Z.2XA.! { %.%.;.R R ",
"y.t.t.r.r.f.8.7.7.7.,.,.......' { O.O.X.X.X.O.+.^ L..XOXkXXXXXjX%X$XXXjX%XY.G.q.k a ' } ] W ^ A.4Xc.> C S C S c.<XwX-X! E U R I ",
"y.y.y.e.2.1.1.<.,.........*.e.2.@.@.=.=.=.#.+.+./ D..XOX*X@X*X@X{.@X@X@X}.r G.q.k a ' U R U W +.~ :X,XB.< > < A 6XJ.P.eX0.] } T ",
"s.y.y.e.6.3.3.<.7.,.....| =.y.w.@.@.X.! ] O.+.+.~ _ H.R.@X|.|.|.|. X}.}. Xr G.q.k } U U Y Y { ] Q ^ q.:X4Xv., A mXn.S c.eX9.| ..",
"e.2.=.2.6.7.7.<.;. . .....>.e.#.] ] ] z W W X.~ g _ H.T.@X{.W.&X|.}.}.{. XE.M.v.g f f a a U ' ' E l j k ~ :X<X2Xn.S m.S J.eX^ W ",
"*.*.*.3.7.3.5.7.,. .[ ..1.2.2.] W O.2.6.=.=.#.+.+.A.P.^.OXY.e E.E.E.E.Y.R.OX~.L.Q ' ' f M ........| [ ' W Q 9.N.K.; Z 0 A J.1X/ ",
"......1.5.1.....| 1.1.*.| { *.@.E ] ] ] W W ] X.] o.<Xx.jX%XR.r q q e q m.(.K.qXg P ' } | | ....} ' p U U L E c eX, n.A A , m N.",
"......1.4.4.2.1.*.*.{ { { @.*...W E i u y i l z l ! 3X< n.jX%X$X#X#X$X#X`.e < qXQ L [ ' M | E ] ' f p p U a [ ' 0.S.4X5XB.J.N.b ",
"@.2.4.a.z.z.r.a.=.4.=.-.*.O.O.-.( ( O.X.! ! X.X.Q 0.<XK.v.Z.iXjX$X+X{.}.|.OXM.0X/ E ] ] X.] ' ' ' ' ' ' ' ' [ { ] w.! ! u.-X-X9.",
"=.=.@.@.@.=.=.=.e.e.w.=.w.=.-.O.( Q ] X.X.+.o.o.^ ` qX2X5XD K.vXcX=X[.W. X|.T.'.h E E l k l l f a s a a a a a E s a i s u u x u ",
"@.@.@.@.@.X.] z X.] z z X.] W W Q j l M z k z z k ) <X2XZ.c.lXVXvXbXcXOX X}.M.'.g i i i j j l a l l l a u s s s s t u u u u t t ",
"r.k.r.e.r.r.r.k.k.t.r.e.e.2.2.2.#.@.>.>.@.+.O.O.+.c D.eXK.6XNXNXNXVXVX$X X{.Y..X/ %.%.%.*.*.1.>.@.@.@.@.@.@.@.@.| | | ] ] X.B z ",
"] @.@.@.=.@.@.#.O.X.X.O.X.X.] ] @.| | | X.O.] W X.! 9.:X2XmXBXNXCXVXVX$X[.}.T.P.c ' L L E ' ' ' ' ' M f f a M ' E ' a a u u x y ",
"@.@.*.*.@.@.@.@.@.@.@.@.@.@.@.| ..| | ] ] ] ] ] { W Q 0.L.0XgXNXCXCXVX$X[.+XT.'.k ' R U ' ' M f a a s s a a a l E a i s u u y t ",
"3.1.1.1...1.3.3.8.7.3.1.1.1.1... .:...| { { { %...%.%.( q.L.G.dXZXCXBXlXM.T.M.0X! }  . .{ ] E L  .} ' ' ' } | ] ] { @.O.] O.X.X.",
"l.l.h.h.h.8.5.5.,.:.:. .[  .[ U ' ' ' ' ' ' ' ' L U [ P g 9XP.BXZXNXBXVXiX.Xn.0X~ |  .T ' E L U ' } ' ' } ..@.@.@.@.@.+.X.$.9.9.",
"7.8.f.h.h.7.<.5.;.,.:.[ R U R ' a M ' ] ' U U ' a ' a a j A.L.BXCXAXBXBXpXpX~.L.~ ' Y Y U ' } ..:.| ' | | @.#.#.@.@.#.#.+.+.9.9.",
"3.3.7.8.7.5.<.<.<.,.<. . . .;.,.*.*..... .[ [  .' ' }  .] 0.L.dXZXVXNXfXpXpXuXL.+.' U p p f U U ' U a a ' ] ] ] ] X.$.+.+.o.o.o.",
"| %.1.3.7.7.7.7.5.<.<.,.,.,.<.<.*.*.1.3.<.<.&...........E s.1XdXBXVXvXfXiXpXP.9XQ ' U P I U ' f R U a a ' ' ] ] ] @.@.@.#.+.@.X.",
"1.3.8.8.8.7.5.<.5.,.,...,.,.,.,.%.%..... . . .[ U ' U ] E 0.L.lXBXNXdXpXpXpX0X9XW U U R I U ' ' U P L U ' '  .{ | | ....@.@.@.| ",
"6.4.8.8.8.7.5.,.,.,.:.:.,.3.3.<.&.;. . . . .[ R R U L E k ;XL.fXZXCXdXpXfXqX1X9.l f f I I I f f f L U ' }  .}  .....| ' ' ' ' ' ",
"6.6.8.8.8.7.6.5.,.<.:.:.,.5.3.<. . . ..... .[ R U [ W ! A.1XP.NXCXNXMXdX0X1Xv x a f U U U U f f a a U ' ' ' ' ' ' R U U f U U R ",
"4.r.8.8.8.5.,.,.<.<.<.;.,.,.,.,. . . .} } } ' ' ' E k A.9XsXBXCXCXAXBXqX1Xv x M a P a L i s f U a a f ' } } } }  .[ T R U I f I ",
"p.k.k.a.l.r.8.h.8.8.7.3.1.3.3.1.3.3.6.6.6.3.1.1.2.#.A.9XaXBXlXfXlXgXuXL._ ~ X.] E i l ] ] ] ] ' ] ] ] { | | | ..:.:.,.,.;. .[ [ ",
"O.=.-.O.O.@.@.@.| ..{ { @.*.=.-.Q O.O.W j Q k o.k v S.qXfXdXlXS O O c.J.h ~ ! ! z z z z j g y y y y y y j j u u l a a a l l ' l ",
"a.a.e.p.p.t.r.r.8.3.*.4.4.e.y.w.w.O.0.0.0.+.9.) i.S.L.uXfXgXgX(.!.9 J.S.) +.+.+.+.+.o.X.X.! ! ! +.+.+.+.O.O.@.@.@.......>.1.5.5.",
"p.p.p.k.z.z.l.h.h.j.7.7.3.1.2.@.N $.] ] Q / ^ ) F.L.uXBXfXuXn.VXZXK.eXi.+.O.{ ] @.X.O.@.@.{ O.O.#.#.@.@.@.| | } } } ;.<.<.;. .Y ",
"e.p.p.r.e.l.f.7.<.7.<.,.......] | >.X.! ) ` A.1XJ.v.fXfX0X0Xv.gXZX2XtXv X.a a U a a E ] ' ] ] ] ] ] ] | | | ..}  .T Y Y Y I I Y ",
"y.y.y.2.2.1.*.,.,.,. ...*.*.=.=.*.O.9.A.L.G.0XdXb.< P.B._ eXL.fXAXL.wXc l s p p L L L U U ' ' | ] ' ] ' ' }  .}  . . . .;.T Y Y ",
"p.t.y.r.e.6.3.1.<.&.......=.y.w.O./ F.L.P.H.pXVXZ.< 2Xq.h F.L.BXNX2XwXc l U U U U U U L U ' ' | ] ] ' ' ' R ' U  . . . .T Y T T ",
"r.2.2.6.6.7.3.,.,.....| ] >.y.#.] ^ qX/.jXjXVXiXG.2XS.h c :XsXvXvXG.rXh z a a f p s P s s ' ' ' U U U U R R U I T T T Y Y Y Y Y ",
"3...*.3.3.7.3.3.1...' | *.2.2.X.W 0.0XH.cXjXlXP.qXN.) ~ ^ 9XuXjXjXU.qXh ! l ' p U U L L ' ...... .[ R Y [  .Y Y Y Y Y Y I I I I ",
"..%.%.%.1.%...%.| ..3.*.{ @.#.@.l ^ 0X~.kXjXH.B.D./ z ! ^ 9X.XjXkX.XG.N.c z a a a a U '  .......] ' a f f f U U U Y U I I f p p ",
"{ %...*.8.8.1.3.1.*.{ ] ] @.-.@.] ~ 2X~.cXM.n.2Xs.g X.k A.L.XXcXkX.XI.1Xv z | f } ' ' ' ' ' ' ' ' a a a a f U R } R U p p p d d ",
"@.2.6.r.z.z.r.e.=.e.=.-.O.*.*.-.+.` '.H.XX2 G.D./ ! ! / D.P.XXkX$XXXG.1X) ~ z ] ' ' ] ] ] ] ' ] ..' ' } ' }  . .} } } R U U f p ",
"2.#.@.@.#.=.w.w.w.e.e.w.2.=.*.O.+.) 0XH.pXx.D.) / +.+.y.9X0XjXjXjXlXL.eXi.k ! z ] W z l l l l a a a f f f f U ' f a a s a s a s ",
"#.@.>.#.@.] W z X.] l l ] ] ] E W ! 1X2X2XF./ g ! z l ! A.9XP.H.I.L.1XF.c k x z j j j x j l l i a a a a i s u u u y t t t t t t ",
"r.t.r.r.r.r.r.k.k.t.r.e.6.2.2.2.*.O.q.q.v ) ! O.X.] @.O.^ A.:X,XD.D.A.~ ~ o.O.O.O.O.@.@.*.1.*.*.....@.@.{ | @.@.{ O.O.X.X.X.W z ",
"$.@.@.@.*.*.@.*.O.] O.O.@.X.X.] { { ! ~ o.+.X.W X.] | ' l j z k k k Q l N l l E E E E l ' ' ' ' ' f f f a f M ' ' M a a s u u u ",
"@.@.@.@.@.@.*.*.O.O.O.#.+.O.+.@...] ] ] | ] ] { ] M } M a i a a i a a l M ' E a L E E U U U U a f a f a a a f f f f a a s s d t "
};
