/* XPM */
static char *_5e6e18b6b3ede74132aaff6c39508531d24b2b1_o[] = {
/* columns rows colors chars-per-pixel */
"64 64 247 2 ",
"   c #010600",
".  c #0B0300",
"X  c #000B00",
"o  c #0E0800",
"O  c #110100",
"+  c #1B0100",
"@  c #011300",
"#  c #001D00",
"$  c #290800",
"%  c #311200",
"&  c #092800",
"*  c #16310A",
"=  c #2C2D0E",
"-  c #313C2E",
";  c #4F350F",
":  c #463720",
">  c #195903",
",  c #164B0D",
"<  c #375818",
"1  c #274B0A",
"2  c #1C6516",
"3  c #186209",
"4  c #276618",
"5  c #306F11",
"6  c #36522A",
"7  c #256225",
"8  c #1D4926",
"9  c #6C4B0F",
"0  c #487A1C",
"q  c #42621F",
"w  c #425225",
"e  c #6E5322",
"r  c #6F552B",
"t  c #52782A",
"y  c #53732C",
"u  c #5F6026",
"i  c #516945",
"p  c #726A57",
"a  c #687250",
"s  c #7A7B69",
"d  c #6E796A",
"f  c #525952",
"g  c #906B1C",
"h  c #8F7230",
"j  c #B07E2D",
"k  c #805A13",
"l  c #8F7A50",
"z  c #5A8819",
"x  c #4E8D1E",
"c  c #588B26",
"v  c #599525",
"b  c #5F9235",
"n  c #4A8221",
"m  c #65962A",
"M  c #669538",
"N  c #6C8934",
"B  c #7A8119",
"V  c #6E914C",
"C  c #7A886D",
"Z  c #7DA060",
"A  c #8C932A",
"S  c #B78E3A",
"D  c #DB9D36",
"F  c #C7983E",
"G  c #E49D32",
"H  c #E79E2D",
"J  c #DCA539",
"K  c #DEA12E",
"L  c #E5A63A",
"P  c #EAA835",
"I  c #9C844F",
"U  c #AF8D50",
"Y  c #BBA458",
"T  c #B9A14A",
"R  c #8D8A75",
"E  c #A6916C",
"W  c #CC9C51",
"Q  c #DBA746",
"!  c #DBA958",
"~  c #CDAF4E",
"^  c #EAAA44",
"/  c #EAB347",
"(  c #F6B84B",
")  c #E9AE57",
"_  c #EAB857",
"`  c #F6BC55",
"'  c #F5AE44",
"]  c #D5AB68",
"[  c #EBB968",
"{  c #EAC65A",
"}  c #FDC553",
"|  c #FDC45B",
" . c #F7C759",
".. c #F7C14E",
"X. c #F9C866",
"o. c #FDD668",
"O. c #FBCA73",
"+. c #FEDC72",
"@. c #FBDA7A",
"#. c #E5CB6D",
"$. c #FFE375",
"%. c #FDE47A",
"&. c #FFE97B",
"*. c #FFE36E",
"=. c #DDCE71",
"-. c #356C8B",
";. c #396F8B",
":. c #3D738C",
">. c #37738F",
",. c #2E799B",
"<. c #3B7593",
"1. c #3D7A96",
"2. c #347C9D",
"3. c #3C7C9C",
"4. c #377697",
"5. c #336E91",
"6. c #3C7EA1",
"7. c #357FA1",
"8. c #42748C",
"9. c #487A8F",
"0. c #547B8D",
"q. c #427694",
"w. c #437B95",
"e. c #4C7C94",
"r. c #437D9C",
"t. c #4B7E9B",
"y. c #547D96",
"u. c #446E8D",
"i. c #427EA0",
"p. c #497FA1",
"a. c #607C8A",
"s. c #3C829E",
"d. c #368099",
"f. c #3681A4",
"g. c #3C82A4",
"h. c #3B85AA",
"j. c #3E88AC",
"k. c #3C86A6",
"l. c #44819E",
"z. c #4B829D",
"x. c #4C879C",
"c. c #53849D",
"v. c #588699",
"b. c #5D838E",
"n. c #65879A",
"m. c #788988",
"M. c #4384A4",
"N. c #4B85A3",
"B. c #4389A5",
"V. c #4B89A5",
"C. c #4486A9",
"Z. c #4A87A9",
"A. c #448AAB",
"S. c #4C8CAB",
"D. c #5286A4",
"F. c #5B86A2",
"G. c #538AA5",
"H. c #5B8AA5",
"J. c #538CAB",
"K. c #5A8DAA",
"L. c #5387A8",
"P. c #4792AD",
"I. c #4D92AE",
"U. c #4C90A7",
"Y. c #5492AD",
"T. c #5B92AD",
"R. c #5892A6",
"E. c #448EB1",
"W. c #4C8EB1",
"Q. c #538EB2",
"!. c #5B8FB0",
"~. c #4692B2",
"^. c #4C93B3",
"/. c #4D95B8",
"(. c #4E98B9",
"). c #4D99B5",
"_. c #5394B4",
"`. c #5B95B3",
"'. c #5599B6",
"]. c #5B99B5",
"[. c #5395B9",
"{. c #5B96B9",
"}. c #549ABC",
"|. c #5B9BBB",
" X c #628BA3",
".X c #648CA7",
"XX c #6794AC",
"oX c #7696A9",
"OX c #6296B2",
"+X c #6399B5",
"@X c #649CBB",
"#X c #6A9DBB",
"$X c #6A98B3",
"%X c #759CB1",
"&X c #6AA2BD",
"*X c #65A1BB",
"=X c #75A4BA",
"-X c #5FA2BF",
";X c #5A9EC1",
":X c #539CC1",
">X c #659FC0",
",X c #5DA1C3",
"<X c #56A1C1",
"1X c #6CA4C2",
"2X c #68A7C6",
"3X c #73AAC6",
"4X c #98A390",
"5X c #ADAB96",
"6X c #86A7B9",
"7X c #99A6AA",
"8X c #AFB6AE",
"9X c #8E9390",
"0X c #C6BDAD",
"qX c #BACEB5",
"wX c #EFD687",
"eX c #FDE586",
"rX c #FDE994",
"tX c #D7CBA4",
"yX c #9AB8C6",
"uX c #9BBDD1",
"iX c #87AEC4",
"pX c #A3BDC7",
"aX c #A4BDD2",
"sX c #ABC7D7",
"dX c #B6D2DA",
"fX c #B2CAD9",
"gX c #B8D5E3",
"hX c #ADCCE1",
"jX c #ADD1E3",
"kX c #D3D9D5",
"lX c #D0D6CB",
"zX c #D6E4DD",
"xX c #E4E7DC",
"cX c #C7DDE8",
"vX c #D2DBE0",
"bX c #CCE2EC",
"nX c #D4ECF5",
"mX c #D7F2FB",
"MX c #D1E5ED",
"NX c #E6EBE3",
"BX c #E9F3E8",
"VX c #EDFFFF",
"CX c #E5F8FC",
"ZX c #F3FFFF",
"AX c #FAFFFE",
"SX c #F5FAF5",
"DX c #F1F5EC",
/* pixels */
"U.Y._.'.}.[.^._._.I.S.A.S.M.6.g.k.B.S.Q.J.J.S.S.M.M.M.k.M.B.B.s.d.d.s.s.l.l.3.s.g.B.k.s.3.1.l.l.1.l.l.N.V.S.S.J.Z.Z.Z.N.J.J.L.J.",
"_.'.'.'.'.}.}.'._._.S.S.S.C.M.M.A.A.Z.Z.Z.V.B.M.B.B.C.C.A.B.M.s.g.s.M.B.V.S.S.S.B.B.M.g.M.B.N.l.N.V.S.V.S.S.S.S.Z.S.Z.Z.J._.J.J.",
"[.}.[.[.[.[.[._._._._.W.S.W.S.C.k.g.M.l.l.l.3.3.M.M.M.M.M.M.6.3.4.4.3.3.l.M.M.g.3.2.2.2.3.3.l.l.1.s.s.s.3.3.g.g.M.C.C.C.S.W.W.S.",
";X}.[.[.[.[.[.[._._.'._._.{.{._.W.S.J.J.J.J.S.S.C.C.Z.S.S.C.C.M.3.3.M.M.M.B.M.M.6.3.3.3.3.M.V.V.l.B.B.M.g.g.g.g.C.C.C.M.k.C.A.C.",
"}.}.}.}.}.}.[.[.'.{.].{._.{.{._.Y.Y.J.K.K.T.`.`.Q.Q.Q.Q.S.S.S.S.J.J.Z.V.V.Z.J.Z.S.V.B.B.Z.J.J.J.V.S.S.V.S.S.A.A.M.k.C.M.M.A.W.S.",
"}.}.}.(.}.;X;X;X;X-X*X|.'.|.|.{._.`.`.+X+X+X@X@X|.{.{._.Q.W.W.W.'.{._._.J.J.J.S.V.V.V.V.V.J.J.L.Y.Y.J.S.S.S.S.A.A.A.A.A.A.A.A.A.",
":X:X:X:X}.:X;X}.}.}.[._.^.^.[.'.Y.Y.`.`.].`.Y.I.I.S.S.S.A.B.B.A.S.S.W.S.S.S.S.B.M.V.S.S.S.Z.J.J.V.S.S.C.A.A.A.A.A.E.E.E.E.E.E.E.",
"/.~././.^./.[.[.}.}.[.^.~.A.~.(.I.S.S.S.S.S.B.B.B.B.A.C.C.M.s.s.M.C.M.g.g.g.g.s.s.B.S.V.V.I.Y.Y.Y._.Y.V.M.M.g.g.j.A.j.j.A.A.E.A.",
").).(.(.(.(.}.}.[.^.~.P.~.~././.A.P.M.W.W.(.P.P.B.~.S.W.Z.C.l.B.M.A.g.k.s.s.2.2.2.s.B.V.B.V.S.S.V.V.C.M.M.g.3.6.6.g.g.k.j.A.A.k.",
"'.'.'.'.|.|.|.|.-X|.'.[.'.}.}.(.[.W.~.(.^._.S.^.Y.J.J.L.H.c.v.x.G.J.Y.V.B.g.g.s.s.l.V.V.V.V.V.N.N.N.N.N.C.C.M.M.A.A.A.S.W.S.S.^.",
"3X3X3X3X1X1X&X@X`.`.`.{.`.|.@X>X@X@X1X+X+X+X`.`.K..X6XmXmXCXmXnX%X XH.G.G.S.S.B.B.l.l.z.N.G.L.L.L.L.L.J.J.J.Z.Z.V.N.N.V.V.V.Z.L.",
"z.z.t.w.q.<.;.-.;.<.1.1.3.i.M.Z.p.N.N.r.r.w.w.t.y.0.fXZXvXkXlXZXbXn.b.e.8.1.>.1.4.<.>.:.<.<.1.1.r.l.r.r.r.l.r.M.N.l.z.z.z.t.r.w.",
"`.`._.Q._._.'._.|.}.[._._._._.W.Q.Z.S.S.B.S.S.J.G.v.gXVX      zXZXmXn.0.z.r.3.C.C.C.C.V.Z.B.M.M.M.B.M.M.M.V.Z.Z.V.Z.L.D.D.L.L.D.",
",X,X,X<X;X}.}.(.~.~.A.A.A.A.C.C.6.M.C.M.M.C.r.z.e.0.dXVX- 6 d i 8XZXbXn.8.w.M.g.A.A.A.C.M.M.g.g.S.V.M.C.Z.Z.J.J.S.J.J.L.H.K.K.H.",
"}.}.<X,X<X}.(.~.~.~.~.A.k.k.k.A.s.M.s.M.N.t.$X6X6X6XvXSX* w Z X C kXVXnXv.8.>.3.6.g.g.g.g.M.A.S.Z.V.V.V.Z.J.J.J.J.K.K.K.H. X X X",
"[.(.}.}.}.(././.~.~.~.A.A.A.S.P.P.P.S.J.D.$XmXVXVXZXZXBX= 6 V V i X kXVXmXv.1.4.6.g.g.3.2.3.s.g.M.l.r.r.M.V.V.Z.Z.D.H.H.H.F.v.F.",
"A.S.^.'.}.}.[.[.(.(.^.~.~.^.^.^.P.)._.{.`.iXVX8Xm.m.zXSX= < V b z y d 8XVX6Xz.M.r.C.s.3.3.s.i.M.M.g.3.6.M.B.V.V.N.L.L.J.J.J.H.L.",
"'.'.|.|.|.|.[.[.[./.^.W.~.(._.I.).P.S.J.D.iXZXm.X   8XxX& < b v m M X f ZXsX X=X%X$XXXR.z.w.V.6.g.6.6.g.M.C.Z.C.Z.S.J.J.Z.V.V.Z.",
"'.|.|.|.|.[.[.[.(./.^.~.^.(.^.^.~.^.V.G.v.6XZX9X  i * X X q m v c M & d SXAXZXZXZXZXVXVXcXz.4.g.7.6.6.g.C.A.A.A.S.S.S.C.C.M.M.M.",
"'.|.|.|.|.[.[.(.^.^.E.~.^.[.[.[.W.Z.G.uXgXbXAX9X  i 8 , X q M z v M & d AXlX4X8X8X8X7XvXVXXXr.6.6.6.g.k.C.C.C.C.M.C.M.g.6.g.g.g.",
"].@X|.|.|.'._.^.(.(.^.^.~.^.^.S.S.V.=XVXZXZXZX9X  6 7 7 @ < M c v m & d DXR X X X     7XVX Xw.M.3.3.g.g.M.C.C.C.A.A.C.j.g.g.g.6.",
"1X1X1X*X@X@X|.;X;X;X}.}.[.'.'._.'.T.sXZXm.  f @ X # , 2 7 , & c v b 1 @ 6 a V V V C   7XVX%XD.N.M.B.V.S.S.S.W.S._.^.W.S.S.A.A.A.",
"K..XK.K.K.J.J.S.S.S.S.S.J.Y.T.T.D.F.aXZXd X < < < < 4 2 4 > * 4 n b 1 X 1 0 M M t i R kXZXn.u.u.8.:.:.:.q.q.q.q.w.1.3.3.l.l.M.l.",
"#X#X#X#X#X&X@X|.|.'._._.{.@X@X+XOX.XsXZXd * Z M b M 0 > 3 4 7 # > b 1 1 M m c V < @ BXZXcXn.y.F.H.H.H.G.H.H.L.L.J.Z.Z.S.S._._._.",
"#X1X1X1X2X2X2X,X;X<X;X}.[._.Q.J.p.D.6XVXCX8XX y M v v x 3 3 2 2 3 5 n c z m V X 4XBXVXgXn.v.H.H.J.J.J.J.Z.V.Z.C.C.C.A.W.~.A.j.j.",
"@X>X1X@X|.|.|.}.}.}.(.^.W.S.J.V.J.D.F.sXZXNXR a t c v v 5 5 2 2 4 5 x v m t a C kXVXhXF.D.N.N.N.N.Z.Z.V.Z.C.A.A.A.C.j.j.h.h.f.f.",
"+X+X@X+X`.Y._._.S.S.S.S.S.Y.].`.H.K.XX XfXZXSXC X V v v v n > 2 5 v v v V & - ZXVXgXe.r.C.A.B.V.B.N.V.B.C.C.C.A.A.A.j.j.j.j.j.j.",
"1X@X@X+X`.`._.Y.'.Y.S.J.Z.`.+X`.K.L.H.v.b.pXAXNXqX* t m z z n > 5 z m c & 5XzXZXsXv.l.M.6.6.C.S.C.V.M.M.M.M.M.M.A.A.A.j.j.j.j.j.",
"@X`.`.{.`.{.'._.S.S.S.Z.Z.T.+XT.N.L.c.e.0.a.vXAXNXX w N A A A B A A N y X lXZXnX0.w.r.3.4.M.A.M.M.M.3.6.g.g.g.g.j.j.j.h.h.h.h.h.",
"_.J.Y._.'.'.'.'.^.S.A.S.Y.`.T.N.N.N.OXXXXXoXnXAXxXo . % ~ ~ ~ { #.=.u . . qXAXCX Xe.N.3.B.C.S.^.S.M.g.k.C.C.j.j.g.k.h.h.h.h.h.f.",
"S.S.S.Y.[._.S.W.S._._._.Z.Z.J.J.i.C.V.z.oXbXAX0XE Y U j J J L L { @.] Y Y E 5XAXbXoXw.B.B.B._.A.M.g.6.3.g.g.g.g.g.k.k.g.f.7.2.,.",
"S.S.S._.|.|._._._._.Z.V.V.J.Y.J.B.l.1.8.bXAXxXl ; O.` L ^ L ' J { &.&.%.wXh : xXAXmXv.l.B.C.M.C.g.s.2.2.2.g.g.k.j.j.g.7.2.2.,.,.",
"J.`.+X*X3X3X@X*X`.].`.T.R.G.G.R.V.Y.H.y.CXxX. U ! D G L ` o.+.*.*.$.$.%.@.rXtX. 8XVXb.c.D.Z.V.M.C.M.M.M.M.M.A.A.C.C.C.M.g.6.6.2.",
"T.T.J.J.J.T.T.T.+X+XOXT.OXT.T.G.Y.x.y.yXAXlXO Y X.} ' ^  .o.$.$.*.o.{ X.%.rXwXO 8XAXpXy.t.q.r.r.3.3.3.3.3.3.3.s.3.3.3.4.4.4.4.4.",
"L.L.J.J.L.D.N.t.D.N.t.t.N.N.z.t.r.t.%XZXAXtX+ W O.+.` L ` o.+.+.o. .J / $.eXwX. 5XZXZXuXq.l.l.<.1.3.q.3.3.<.<.<.<.>.>.;.;.;.-.-.",
"@X&X@X+X@X@X@X1X1X#X@X+X+X`.`.`.`.H.yXZXR r W [ X.X./ D J /  . .X.| L / $.eXwX=.R f AXgXH.{.V.Y.J.J.J.J.L.V.L.J.L.L.V.Z.Z.Z.N.r.",
"N.J.J.J.T.J.J.K.L.D.D.L.D.Z.N.D.J.F.yXZXp ; ! _ ( ( ( .._  .o. ...( ^ ..&.%.+.@.I . AXgXt.C.B.B.r.r.3.3.3.3.l.M.M.l.r.1.1.1.<.>.",
"J.J.Y.Y.J.J.J.J.J.J.J.J.J.J.J.V.J.y.yXAXp 9 ! L L K } $.eX@.$.o._ Q ` o.$.&.o.X.I . AXdXt.6.s.1.3.3.3.4.4.4.3.3.3.3.1.<.<.>.;.-.",
"'._._._.S._.'.'.|.[.[._._._._.S.W.H.yXAXp e O.` ( K | @.9 Y eX_ S % _ $.$.o.| _ h O AXgXD.S.C.M.C.C.M.M.C.A.S.S.V.Z.Z.J.L.L.L.L.",
"2X2X,X,X<X}.[.[.~.W.W.A.A.A.C.M.M.z.yXAXp e O.| ( G | O.9 Y eX{ W 9 #.&.$.o.( [ h O AXgXc.s.3.M.Z.C.M.M.C.S.S.J.J.J.J.H.L.K.K..X",
"}.}.;X,X<X}.(.(.~.^.W.A.k.g.k.C.g.z.yXZXp e O.| ( L D / eXrX%.%.eXrX&.&.$.o.` O.I . SXgXw.B.S.S.W.Z.V.V.Z.S.J.J.J.J.K.K.K.H..X.X",
"[.'.}.}.}.(.^./.^.~.^.A.A.A.E.~.^.L.uXZXp 9 [ / ' D L J g T #.eX=.g ~ {  . .` O.U . AXdXw.3.g.6.M.r.3.3.M.B.V.N.N.G.H.K.H.F.F.F.",
"S.I._.'.}.}.}.}.[.(.^.~.~.^.(._.Y.XXyXAXp ; ! L J L L D 9 g Y wX] $ S _ X. .` X.I . AXdXw.s.k.g.g.g.3.s.g.M.B.B.N.V.J.J.K.K.H.L.",
"_.'.|.|.|.}.[.(.[.^.~.S.~.^.^.I.Y.v.yXAXp 9 ! ( ..} ' ^ eXY + + k ! O.+.%.` G ) h o AXdXz.g.k.g.g.s.g.g.M.A.A.S.A.S.Z.J.J.J.J.Z.",
"{.].|.|.|.[.[.^.^.^.W.W.^.[.[._.Y.v.uXZXp ; ! ` } } ^ L eX#.T T F Q o.%.+.| D ) h . SXgXr.6.2.2.g.6.6.g.C.A.A.Z.S.S.S.C.M.M.M.M.",
"{.{.|.|.|.}.[.[.^.^.W.^.^.[.[.^.S.V.uXVXs r ] _ } } / ^ o.eX@.o...J o.+.+.` Q ] l = ZXjXt.6.k.g.3.6.g.M.C.C.M.M.M.M.g.6.6.g.g.j.",
"].@X@X|.|.[.^.~.(.(.^.~.~.~.^.~.A.S.iXZXAX0X+ U _ L / ..X.( L L ' ` | ..J ) ] + 5XSXZXuXe.3.M.3.4.3.3.M.C.C.C.C.A.C.C.k.g.f.f.f.",
"&X1X1X*X2X@X|.,X|.|.}.'._.'.'._.).'.XXsXZXDX4XI j Q _ X.| ' P G P } | ` Q S l E kXZXsXn.c.L.N.N.N.N.N.Z.V.Z.Z.Z.Q.S.^.^.~.A.A.A.",
"G.T.T.K.G.J.J.J.S.S.S.V.J.Y.T.T.x.R.v.b.pXZXSXR + ] [ O.` ' H H P | X.[ ] e : SXZXdX0.0.e.8.:.8.;.:.:.8.w.w.q.1.q.3.3.3.r.r.M.r.",
"*X*X+X&X&X#X@X@X|.[.Y.'.].+X+XOXT.R.T.$X.XyXZXDXlX% $ 9 ! ) ^ ^ ) ) g $ $ 5XBXZXsXn.n.v.c.z.c.D.H.H.H.G.H.H.J.L.J.J.S.S.Q._._._.",
"&X&X&X1X3X2X2X,X,X<X}.}.[._.`.L.l.V.N.D.c.n.aXZXSXR R E U U U U U U I R l zXZXsXF.z.J.Z.J.L.J.L.K.K.J.L.J.Z.Z.C.M.C.E.^.^.E.A.j.",
"+X&X&X@X+X2X,X}./.}.(.~.S.S.S.V.V.J.J.t.L. X XaXZXAXAXDX. . O O O . lXAXZXVXhXy.w.M.M.S.M.Z.M.Z.N.N.Z.Z.Z.Z.S.C.A.C.j.h.h.f.h.h.",
"$X$X+X`.`._.Y.^.~.P.A.S.Y.Y.T.T.J.J.Y.`.K.XXF. X6X6XcXZXNXxXNXxXxXzXZXmX6X%Xw.3.M.3.g.M.s.M.M.J.N.M.N.C.M.C.A.C.A.A.A.A.A.j.j.j.",
"=X#X#X@X+X{._._.(.P.S.S.S.T.#XOXG.G.N.N.c.H.H.F.y.v.oXcXmXnXnXnXnXnXbX%Xe.t.s.C.6.C.g.2.s.s.B.V.V.B.M.M.M.k.M.g.A.A.A.A.j.j.j.j.",
"@X`.`.`.{.|.[.^.^.S.S.S.Z.`.+XK.D.z.c.t.e.c.c.c.y.H.e.v.e.v.v.0.0.e.y.t.N.i.6.2.6.3.3.3.4.M.V.V.g.g.g.g.k.k.g.f.j.j.j.j.h.h.h.h.",
"_.S.Y._.'.}.[.[._.S.C.S.Y.`.K.D.t.H.T.OX`.T.T.J.G.J.T.N.G.N.N.z.t.t.D.Z.M.M.6.7.k.g.g.3.M.V.Y.Z.A.A.k.k.A.A.h.k.h.h.h.h.f.f.g.g.",
"S.I.I.I._.I.S.I.S.S.'.Y.V.L.J.L.r.M.N.N.l.z.N.V.N.Z.N.Z.Z.Z.Z.Z.z.z.z.l.l.l.3.1.2.d.s.M.V.V.Z.S.B.M.3.3.6.6.g.g.g.k.g.f.f.7.2.,.",
"V.I.S.Y.|.|._._._.J.V.N.N.J.Y.G.N.l.1.<.<.w.w.w.w.1.1.1.l.N.N.N.D.D.V.V.z.l.l.l.B.M.M.l.M.M.C.C.M.3.3.3.3.6.g.k.C.k.g.2.2.2.,.,.",
"J.`.`.@X3X3X@X+XT.T.T.T.G.Y.Y.T.J.L.L.N.z.z.x.z.z.x.G.x.z.z.l.z.z.t.t.z.z.z.z.N.l.z.M.V.Z.Z.Z.C.Z.C.M.M.M.C.A.A.C.C.C.k.g.g.6.2.",
"`.K.L.L.K.T.OXOXOXOX+XOX`.T.Y.J.L.D.N.D.H.H.K.G.c.G.G.x.z.w.z.z.D.t.e.e.t.z.z.t.z.z.t.r.i.i.i.i.3.3.6.6.6.6.g.M.6.3.3.4.4.4.4.4.",
"J.J.!.K.L.Z.z.t.D.N.r.t.N.Z.N.z.N.r.q.q.t.t.t.t.t.t.t.t.t.t.t.z.t.e.8.q.e.e.e.e.w.w.q.q.w.r.r.3.3.3.3.3.1.>.<.<.<.>.;.-.-.-.-.-.",
"@X#X@X+X@X@X@X1X1X#X@X+X`.`.`.`.J.Y.K.K.L.J.L.L.L.L.L.L.L.D.N.N.D.N.z.z.c.c.G.H.H.J.J.J.Y.Y.Y.Y.S.S.J.J.V.Z.J.J.L.L.L.D.D.D.z.t.",
"L.J.J.J.Y.Y.J.Y.G.N.L.H.L.D.D.N.J.V.N.Z.L.L.Z.N.Z.Z.N.M.r.3.3.r.M.M.M.l.r.l.l.l.l.l.M.r.l.M.M.M.M.6.6.6.3.6.M.M.M.i.3.3.4.1.1.<.",
"J.J.Y.J.J.J.Y.Y.G.G.H.K.H.H.K.H.G.N.N.N.Z.N.Z.Z.V.M.M.M.3.4.4.4.3.3.3.3.3.r.r.r.3.M.M.g.s.s.s.3.3.3.6.3.3.3.6.6.6.6.3.3.4.4.5.5."
};
